<svg width="30" height="30" viewBox="0 0 30 30" fill="none" xmlns="http://www.w3.org/2000/svg">
<g clip-path="url(#clip0_207_541)">
<path d="M15.4583 29.7916H14.5C6.54167 29.7916 0.125 23.375 0.125 15.4166V14.4583C0.125 6.49998 6.58333 0.083313 14.5 0.083313H15.4583C23.4167 0.083313 29.8333 6.54165 29.8333 14.4583V15.4166C29.8333 23.375 23.4167 29.7916 15.4583 29.7916Z" fill="#1A2735"/>
<path d="M10.5003 12.2083H7.16699V22.9583H10.5003V12.2083Z" fill="white"/>
<path d="M23.042 16.2083V23H19.7087V17.6667C19.7087 17.3333 19.7087 17.0417 19.7087 16.75C19.6253 15.4167 19.0837 14.75 17.917 14.75C17.6253 14.75 17.3337 14.8333 17.0837 14.9583C16.3753 15.2917 15.917 16.125 15.8753 17.6667V23H12.542V12.2083H15.7503L15.792 13.5833C16.7503 12.4166 18.0003 11.7083 19.7087 11.8333C22.1253 12.25 23.0003 13.9167 23.042 16.2083Z" fill="white"/>
<path d="M10.7918 8.79167C10.7918 7.70833 9.91683 6.875 8.87516 6.875C7.8335 6.875 6.9585 7.75 6.9585 8.79167C6.9585 9.83333 7.8335 10.7083 8.87516 10.7083C9.91683 10.7083 10.7918 9.875 10.7918 8.79167Z" fill="white"/>
</g>
<defs>
<clipPath id="clip0_207_541">
<rect width="30" height="30" fill="white"/>
</clipPath>
</defs>
</svg>
