<svg width="32" height="32" viewBox="0 0 32 32" fill="none" xmlns="http://www.w3.org/2000/svg">
<path d="M15.9558 30.5778C7.73356 30.5778 1.06689 23.9111 1.06689 15.6889C1.06689 7.46665 7.73356 0.799988 15.9558 0.799988C24.178 0.799988 30.8447 7.46665 30.8447 15.6889C30.8891 23.8667 24.178 30.5778 15.9558 30.5778Z" fill="#1A2735"/>
<path d="M22.6226 22.1334L17.3337 14.4889L22.7559 8.1778H21.467L16.7559 13.6445L13.6448 9.15557L12.9781 8.1778H11.7781H9.77813H8.57812L9.24479 9.15557L14.3115 16.4445L8.62257 23.1111H9.91146L14.9337 17.2889L18.267 22.1334L18.9337 23.1111H20.1337H22.0892H23.2892L22.6226 22.1334ZM19.467 22.1334L15.6003 16.5334L15.0226 15.6889L10.4892 9.15557H12.4448L16.0892 14.4445L16.667 15.2889L21.4226 22.1334H19.467Z" fill="white"/>
</svg>
