<svg width="30" height="30" viewBox="0 0 30 30" fill="none" xmlns="http://www.w3.org/2000/svg">
<path d="M15 30C6.7094 30 0 23.2906 0 15C0 6.7094 6.7094 0 15 0C23.2906 0 30 6.7094 30 15C30 23.2906 23.2906 30 15 30Z" fill="#1A2735"/>
<path d="M24.0169 10.4274C23.846 9.82909 23.3759 9.01712 22.3503 8.76071C21.0255 8.41883 17.6494 8.41883 14.9999 8.3761C13.6751 8.3761 12.1793 8.41883 10.8546 8.46157C9.52977 8.5043 8.33319 8.58977 7.64943 8.76071C6.62379 9.05986 6.1537 9.82909 5.98276 10.4274C5.72635 11.2821 5.59814 13.5898 5.59814 15C5.59814 16.4103 5.72635 18.718 5.98276 19.5727C6.1537 20.171 6.62379 20.9829 7.64943 21.2393C8.97421 21.5812 12.3503 21.5812 14.9999 21.624C16.3246 21.624 17.8204 21.5812 19.1452 21.5385C20.4699 21.4958 21.6665 21.4103 22.3503 21.2393C23.3759 20.9402 23.846 20.171 24.0169 19.5727C24.2734 18.718 24.4016 16.4103 24.4016 15C24.4016 13.5898 24.2734 11.3248 24.0169 10.4274ZM13.0768 17.7778V12.2223L17.9913 15L13.0768 17.7778Z" fill="white"/>
</svg>
