<svg width="71" height="70" viewBox="0 0 71 70" fill="none" xmlns="http://www.w3.org/2000/svg">
<path d="M67.6738 29.3177L40.7098 2.35369C37.5716 -0.784567 32.4834 -0.784563 29.3452 2.35369L2.38119 29.3177C-0.75707 32.4559 -0.757067 37.5441 2.38119 40.6823L29.3452 67.6463C32.4834 70.7846 37.5716 70.7846 40.7098 67.6463L67.6738 40.6823C70.8121 37.5441 70.8121 32.4559 67.6738 29.3177Z" fill="#1A2735"/>
<path d="M39.5778 34.7243H33.4073C32.0686 34.7243 31.3442 36.3181 32.2121 37.354L40.4631 47.2023C40.7614 47.5583 41.1983 47.7634 41.6583 47.7634H47.8289C49.1676 47.7634 49.892 46.1696 49.0241 45.1337L40.7731 35.2854C40.4748 34.9294 40.0379 34.7243 39.5778 34.7243Z" fill="#FFBF14"/>
<path d="M48.0527 23.6071C46.8666 22.2295 45.1531 21.4392 43.3519 21.4392H23.8612C21.9268 21.4392 20.3586 23.0329 20.3586 24.9989C20.3586 26.9648 21.9268 28.5585 23.8612 28.5585H39.4525C40.7617 28.5585 42.0148 29.0986 42.925 30.055L43.5245 30.6851C45.1 32.3406 47.7129 32.3364 49.2831 30.6757C50.7208 29.1552 50.7756 26.7699 49.4093 25.1829L48.0527 23.6071Z" fill="#C4C7CA"/>
<path d="M20.2638 38.5896C20.2638 36.6071 21.8451 35 23.7958 35C25.7465 35 27.3279 36.6071 27.3279 38.5896V44.9712C27.3279 46.9536 25.7465 48.5608 23.7958 48.5608C21.8451 48.5608 20.2638 46.9536 20.2638 44.9712V38.5896Z" fill="#00A5AA"/>
</svg>
