<svg width="103" height="36" viewBox="0 0 103 36" fill="none" xmlns="http://www.w3.org/2000/svg">
<path fill-rule="evenodd" clip-rule="evenodd" d="M18.8854 2.42908L32.2116 10.1161V25.5087L18.8854 33.1957L5.55908 25.5087V10.1161L18.8854 2.42908ZM7.05345 10.9894V22.2924L16.8437 5.33171L7.05345 10.9894ZM18.8854 4.79054L7.60076 24.3341H30.17L18.8854 4.79054ZM28.6756 25.8285H9.09513L18.8854 31.4861L28.6756 25.8285ZM30.7173 22.2924L20.927 5.33171L30.7173 10.9894V22.2924Z" fill="#E10098"/>
<path d="M18.8854 6.4387C20.6319 6.4387 22.034 5.03043 22.034 3.29008C22.034 1.54973 20.6319 0.135315 18.8854 0.135315C17.1389 0.135315 15.7368 1.54358 15.7368 3.28393C15.7368 5.03043 17.1451 6.4387 18.8854 6.4387Z" fill="#E10098"/>
<path d="M31.4611 13.7014C33.2076 13.7014 34.6097 12.2931 34.6097 10.5528C34.6097 8.81244 33.2015 7.40417 31.4611 7.40417C29.7146 7.40417 28.3125 8.81244 28.3125 10.5528C28.3125 12.2931 29.7269 13.7014 31.4611 13.7014Z" fill="#E10098"/>
<path d="M31.4611 28.2269C33.2076 28.2269 34.6097 26.8186 34.6097 25.0782C34.6097 23.3379 33.2015 21.9296 31.4611 21.9296C29.7146 21.9296 28.3125 23.3379 28.3125 25.0782C28.3186 26.8186 29.7269 28.2269 31.4611 28.2269Z" fill="#E10098"/>
<path d="M18.8854 35.4896C20.6319 35.4896 22.034 34.0813 22.034 32.341C22.034 30.5945 20.6258 29.1924 18.8854 29.1924C17.1389 29.1924 15.7368 30.6007 15.7368 32.341C15.7368 34.0875 17.1451 35.4896 18.8854 35.4896Z" fill="#E10098"/>
<path d="M6.30291 28.2269C8.04941 28.2269 9.45153 26.8186 9.45153 25.0782C9.45153 23.3379 8.04326 21.9296 6.30291 21.9296C4.56256 21.9296 3.1543 23.3379 3.1543 25.0782C3.1543 26.8186 4.56871 28.2269 6.30291 28.2269Z" fill="#E10098"/>
<path d="M6.30291 13.7014C8.04941 13.7014 9.45153 12.2931 9.45153 10.5528C9.45153 8.81244 8.04326 7.40417 6.30291 7.40417C4.56256 7.40417 3.1543 8.81859 3.1543 10.5528C3.1543 12.287 4.56871 13.7014 6.30291 13.7014Z" fill="#E10098"/>
<path d="M21.5172 15.5032V14.5931H21.7017V13.4308H21.3081V12.5822L20.109 11.7704L19.1619 8.96002H18.6576L17.7044 11.7766L16.5053 12.5883V13.437H16.1117V14.5992H16.2962V15.5094C15.6505 15.6016 15.1523 16.1613 15.1523 16.8316V21.659C15.1523 22.2617 15.5582 22.7783 16.1117 22.9443H21.7017C22.2552 22.7783 22.6611 22.2617 22.6611 21.659V16.8316C22.6611 16.1613 22.1568 15.6016 21.5172 15.5032ZM18.9098 16.561C20.3918 16.561 21.591 17.7602 21.591 19.2422C21.591 20.7243 20.3918 21.9235 18.9098 21.9235C17.4277 21.9235 16.2285 20.7243 16.2285 19.2422C16.2285 17.7602 17.4277 16.561 18.9098 16.561Z" fill="#E10098"/>
<path d="M18.9653 19.8387C19.0268 19.8387 19.0822 19.8203 19.1314 19.7895C19.2113 19.7342 19.2544 19.6481 19.2544 19.5435V17.6679H18.8546V19.396L17.0835 18.7748L16.9482 19.1561L18.8608 19.8264C18.8977 19.8326 18.9346 19.8387 18.9653 19.8387Z" fill="#E535AB"/>
<path d="M40.9254 23.7438C40.7963 23.7438 40.6979 23.7069 40.6241 23.6269C40.5564 23.5532 40.5195 23.4548 40.5195 23.3379V11.8196C40.5195 11.7028 40.5564 11.6044 40.6241 11.5306C40.6917 11.4568 40.7963 11.4138 40.9254 11.4138H41.8602C41.977 11.4138 42.0754 11.4507 42.1492 11.5306C42.223 11.6044 42.266 11.7028 42.266 11.8196V22.2064H48.1143C48.2435 22.2064 48.348 22.2433 48.4218 22.3232C48.4956 22.397 48.5387 22.5016 48.5387 22.6307V23.3379C48.5387 23.4548 48.5018 23.5532 48.4218 23.6269C48.348 23.7007 48.2435 23.7438 48.1143 23.7438H40.9254Z" fill="#E10098"/>
<path d="M53.766 23.916C52.8743 23.916 52.1302 23.7438 51.5276 23.4055C50.9311 23.0673 50.4698 22.5938 50.1562 21.985C49.8364 21.3823 49.6642 20.6935 49.6273 19.9187C49.615 19.7219 49.6089 19.4636 49.6089 19.15C49.6089 18.8364 49.615 18.5904 49.6273 18.3997C49.6642 17.6126 49.8426 16.9177 50.1624 16.3212C50.4821 15.7246 50.9434 15.2511 51.546 14.9129C52.1425 14.5747 52.8866 14.4025 53.766 14.4025C54.6454 14.4025 55.3834 14.5747 55.9861 14.9129C56.5826 15.2511 57.0438 15.7246 57.3697 16.3212C57.6895 16.9177 57.874 17.6126 57.9048 18.3997C57.9171 18.5904 57.9232 18.8364 57.9232 19.15C57.9232 19.4636 57.9171 19.7158 57.9048 19.9187C57.8679 20.6935 57.6957 21.3823 57.3759 21.985C57.0561 22.5876 56.601 23.0612 56.0045 23.4055C55.4018 23.7499 54.6577 23.916 53.766 23.916ZM53.766 22.563C54.4917 22.563 55.0759 22.3294 55.5064 21.8681C55.943 21.4069 56.1767 20.7243 56.2136 19.8326C56.2259 19.6543 56.2321 19.4329 56.2321 19.1623C56.2321 18.8917 56.2259 18.6703 56.2136 18.492C56.1767 17.6003 55.943 16.9238 55.5064 16.4564C55.0698 15.9952 54.4917 15.7615 53.766 15.7615C53.0404 15.7615 52.4562 15.9952 52.0134 16.4564C51.5706 16.9177 51.3431 17.6003 51.3185 18.492C51.3062 18.6703 51.3 18.8917 51.3 19.1623C51.3 19.4329 51.3062 19.6543 51.3185 19.8326C51.3431 20.7243 51.5768 21.4008 52.0134 21.8681C52.4562 22.3294 53.0404 22.563 53.766 22.563Z" fill="#E10098"/>
<path d="M60.5245 23.7438C60.4077 23.7438 60.3093 23.7069 60.2355 23.6269C60.1617 23.5531 60.1187 23.4548 60.1187 23.3379V14.9928C60.1187 14.876 60.1555 14.7776 60.2355 14.7038C60.3093 14.63 60.4077 14.587 60.5245 14.587H61.3547C61.4716 14.587 61.57 14.6239 61.6438 14.7038C61.7176 14.7776 61.7606 14.876 61.7606 14.9928V15.7677C62.0681 15.368 62.4494 15.042 62.9167 14.7899C63.378 14.5378 63.9745 14.4086 64.7063 14.4086C65.4688 14.4086 66.1207 14.5747 66.6496 14.9129C67.1846 15.245 67.5905 15.7124 67.8672 16.3027C68.1439 16.8931 68.2792 17.588 68.2792 18.369V23.3318C68.2792 23.4486 68.2423 23.547 68.1624 23.6208C68.0886 23.6946 67.9902 23.7376 67.8734 23.7376H66.9939C66.8771 23.7376 66.7787 23.7007 66.7049 23.6208C66.6311 23.547 66.5881 23.4486 66.5881 23.3318V18.4551C66.5881 17.631 66.3913 16.9915 65.9916 16.5241C65.5918 16.0629 65.0076 15.8292 64.2328 15.8292C63.5071 15.8292 62.9229 16.0629 62.4801 16.5241C62.0373 16.9853 61.8221 17.631 61.8221 18.4551V23.3318C61.8221 23.4486 61.7852 23.547 61.7053 23.6208C61.6315 23.6946 61.5331 23.7376 61.4162 23.7376H60.5245V23.7438Z" fill="#E10098"/>
<path d="M74.1396 23.916C73.4939 23.916 72.9343 23.7991 72.4669 23.5716C71.9996 23.344 71.6121 23.0304 71.3108 22.6368C71.0095 22.2432 70.7881 21.7943 70.6405 21.2901C70.4929 20.7858 70.4068 20.2508 70.3822 19.685C70.3699 19.4944 70.3638 19.3222 70.3638 19.1561C70.3638 18.9901 70.3699 18.8179 70.3822 18.6273C70.4068 18.0738 70.4929 17.5449 70.6405 17.0407C70.7881 16.5364 71.0095 16.0813 71.3108 15.6877C71.6121 15.288 71.9934 14.9744 72.4669 14.7468C72.9343 14.5193 73.4939 14.4025 74.1396 14.4025C74.8345 14.4025 75.4065 14.5255 75.8677 14.7714C76.3228 15.0174 76.704 15.3249 76.9931 15.6877V11.6351C76.9931 11.5183 77.03 11.4199 77.1099 11.3461C77.1837 11.2723 77.2821 11.2292 77.3989 11.2292H78.2415C78.3583 11.2292 78.4567 11.2661 78.5305 11.3461C78.6043 11.4199 78.6473 11.5183 78.6473 11.6351V23.3256C78.6473 23.4424 78.6104 23.5408 78.5305 23.6146C78.4567 23.6884 78.3583 23.7315 78.2415 23.7315H77.4481C77.319 23.7315 77.2206 23.6946 77.1468 23.6146C77.0792 23.5408 77.0423 23.4424 77.0423 23.3256V22.5876C76.7471 22.9628 76.3658 23.2764 75.8984 23.5285C75.4311 23.793 74.8407 23.916 74.1396 23.916ZM74.5086 22.4892C75.0928 22.4892 75.5664 22.3539 75.9169 22.0834C76.2674 21.8128 76.5319 21.4684 76.7102 21.0502C76.8885 20.632 76.9808 20.2077 76.9931 19.7711C77.0054 19.5805 77.0115 19.3591 77.0115 19.0946C77.0115 18.8302 77.0054 18.6027 76.9931 18.4182C76.9808 18.0061 76.8824 17.6003 76.704 17.2005C76.5196 16.8008 76.249 16.4749 75.8923 16.2166C75.5356 15.9583 75.0744 15.8292 74.5086 15.8292C73.9121 15.8292 73.4324 15.9583 73.0819 16.2228C72.7314 16.4872 72.4792 16.8316 72.3255 17.262C72.1718 17.6925 72.0857 18.1537 72.0611 18.6457C72.0488 18.9839 72.0488 19.3283 72.0611 19.6666C72.0857 20.1585 72.1718 20.6197 72.3255 21.0502C72.4792 21.4807 72.7314 21.8251 73.0819 22.0895C73.4324 22.3601 73.9121 22.4892 74.5086 22.4892Z" fill="#E10098"/>
<path d="M85.0185 23.916C84.1268 23.916 83.3827 23.7438 82.78 23.4055C82.1835 23.0673 81.7223 22.5938 81.4086 21.985C81.0889 21.3823 80.9167 20.6935 80.8798 19.9187C80.8675 19.7219 80.8613 19.4636 80.8613 19.15C80.8613 18.8364 80.8675 18.5904 80.8798 18.3997C80.9167 17.6126 81.095 16.9177 81.4148 16.3212C81.7346 15.7246 82.1958 15.2511 82.7985 14.9129C83.395 14.5747 84.1391 14.4025 85.0185 14.4025C85.8979 14.4025 86.6358 14.5747 87.2385 14.9129C87.835 15.2511 88.2962 15.7246 88.6222 16.3212C88.942 16.9177 89.1264 17.6126 89.1572 18.3997C89.1695 18.5904 89.1756 18.8364 89.1756 19.15C89.1756 19.4636 89.1695 19.7158 89.1572 19.9187C89.1203 20.6935 88.9481 21.3823 88.6283 21.985C88.3085 22.5876 87.8535 23.0612 87.257 23.4055C86.6604 23.7499 85.9163 23.916 85.0185 23.916ZM85.0185 22.563C85.7441 22.563 86.3284 22.3294 86.7588 21.8681C87.1955 21.4069 87.4291 20.7243 87.466 19.8326C87.4783 19.6543 87.4845 19.4329 87.4845 19.1623C87.4845 18.8917 87.4783 18.6703 87.466 18.492C87.4291 17.6003 87.1955 16.9238 86.7588 16.4564C86.3222 15.9952 85.7441 15.7615 85.0185 15.7615C84.2928 15.7615 83.7086 15.9952 83.2658 16.4564C82.8231 16.9177 82.5955 17.6003 82.5709 18.492C82.5586 18.6703 82.5525 18.8917 82.5525 19.1623C82.5525 19.4329 82.5586 19.6543 82.5709 19.8326C82.5955 20.7243 82.8292 21.4008 83.2658 21.8681C83.7086 22.3294 84.2928 22.563 85.0185 22.563Z" fill="#E10098"/>
<path d="M91.7828 23.7438C91.666 23.7438 91.5676 23.7069 91.4938 23.6269C91.42 23.5531 91.377 23.4548 91.377 23.3379V14.9928C91.377 14.876 91.4139 14.7776 91.4938 14.7038C91.5676 14.63 91.666 14.587 91.7828 14.587H92.613C92.7299 14.587 92.8283 14.6239 92.9021 14.7038C92.9759 14.7776 93.0189 14.876 93.0189 14.9928V15.7677C93.3264 15.368 93.7077 15.042 94.175 14.7899C94.6363 14.5378 95.2328 14.4086 95.9646 14.4086C96.7271 14.4086 97.379 14.5747 97.9079 14.9129C98.4429 15.245 98.8488 15.7124 99.1255 16.3027C99.4022 16.8931 99.5375 17.588 99.5375 18.369V23.3318C99.5375 23.4486 99.5006 23.547 99.4207 23.6208C99.3469 23.6946 99.2485 23.7376 99.1316 23.7376H98.2523C98.1354 23.7376 98.037 23.7007 97.9632 23.6208C97.8894 23.547 97.8464 23.4486 97.8464 23.3318V18.4551C97.8464 17.631 97.6496 16.9915 97.2499 16.5241C96.8501 16.0629 96.2659 15.8292 95.4911 15.8292C94.7654 15.8292 94.1812 16.0629 93.7384 16.5241C93.2956 16.9853 93.0804 17.631 93.0804 18.4551V23.3318C93.0804 23.4486 93.0435 23.547 92.9636 23.6208C92.8898 23.6946 92.7914 23.7376 92.6745 23.7376H91.7828V23.7438Z" fill="#E10098"/>
</svg>
