<svg width="111" height="36" viewBox="0 0 111 36" fill="none" xmlns="http://www.w3.org/2000/svg">
<path d="M40.4749 23.959C40.3458 23.959 40.2535 23.9221 40.1797 23.8483C40.1121 23.7745 40.0752 23.6761 40.0752 23.5654V12.3177C40.0752 12.1886 40.1121 12.0902 40.1797 12.0164C40.2474 11.9426 40.3458 11.9057 40.4749 11.9057H45.1917C46.0526 11.9057 46.7537 12.0471 47.301 12.33C47.8483 12.6129 48.2481 12.9942 48.5064 13.4739C48.7646 13.9535 48.8938 14.4947 48.8938 15.0912C48.8938 15.5647 48.8138 15.9645 48.6601 16.3027C48.5064 16.6409 48.3157 16.9177 48.082 17.1267C47.8545 17.342 47.6269 17.5019 47.4117 17.6187C47.8606 17.834 48.2604 18.1906 48.6109 18.6888C48.9614 19.1807 49.1336 19.7772 49.1336 20.4783C49.1336 21.1117 48.9922 21.6898 48.7031 22.2186C48.4141 22.7475 47.9898 23.1657 47.4179 23.4855C46.8521 23.7991 46.151 23.959 45.327 23.959H40.4749ZM41.7663 17.0038H44.9334C45.6652 17.0038 46.2248 16.8316 46.6061 16.4933C46.9874 16.1551 47.1719 15.6939 47.1719 15.1097C47.1719 14.5254 46.9812 14.0765 46.6061 13.769C46.2248 13.4616 45.6714 13.3017 44.9334 13.3017H41.7663V17.0038ZM41.7663 22.563H45.1056C45.8374 22.563 46.4093 22.3601 46.809 21.9604C47.2088 21.5606 47.4117 21.0625 47.4117 20.4783C47.4117 19.8695 47.2088 19.3652 46.809 18.9716C46.4093 18.5781 45.8374 18.3751 45.1056 18.3751H41.7663V22.563Z" fill="#E10098"/>
<path d="M53.8502 24.1312C53.2783 24.1312 52.7555 24.0144 52.282 23.7868C51.8085 23.5593 51.4334 23.2457 51.1443 22.8582C50.8553 22.4708 50.7139 22.028 50.7139 21.5299C50.7139 20.7366 51.0336 20.1093 51.6794 19.6358C52.3251 19.1623 53.1614 18.8548 54.1946 18.7072L56.759 18.3444V17.8463C56.759 17.2928 56.5991 16.8623 56.2854 16.5548C55.9718 16.2474 55.4552 16.0875 54.7419 16.0875C54.2376 16.0875 53.8256 16.192 53.4997 16.395C53.1799 16.604 52.9523 16.8685 52.8293 17.1883C52.7617 17.3605 52.6387 17.4465 52.4665 17.4465H51.6917C51.5625 17.4465 51.4703 17.4096 51.4088 17.3359C51.3473 17.2621 51.3165 17.1698 51.3165 17.0714C51.3165 16.8992 51.3842 16.684 51.5133 16.4319C51.6425 16.1797 51.8516 15.9337 52.1221 15.6939C52.3989 15.4541 52.7494 15.2511 53.1799 15.0851C53.6103 14.919 54.1331 14.8329 54.7542 14.8329C55.4429 14.8329 56.021 14.919 56.4945 15.0974C56.9681 15.2757 57.337 15.5156 57.6076 15.8107C57.8782 16.1121 58.075 16.4503 58.1918 16.8254C58.3148 17.2067 58.3702 17.588 58.3702 17.9816V23.5593C58.3702 23.6761 58.3333 23.7684 58.2595 23.8422C58.1857 23.916 58.0873 23.9529 57.9766 23.9529H57.1833C57.0541 23.9529 56.9619 23.916 56.8881 23.8422C56.8205 23.7684 56.7836 23.67 56.7836 23.5593V22.8213C56.636 23.0304 56.433 23.2334 56.1809 23.4301C55.9288 23.6331 55.6151 23.7991 55.2339 23.9283C54.8526 24.0574 54.4037 24.1312 53.8502 24.1312ZM54.213 22.8398C54.6865 22.8398 55.117 22.7414 55.5044 22.5385C55.8919 22.3355 56.1993 22.0219 56.4269 21.5976C56.6483 21.1732 56.7651 20.6382 56.7651 19.9986V19.519L54.7665 19.8142C53.9486 19.931 53.3398 20.1216 52.9216 20.3922C52.5096 20.6628 52.3005 21.001 52.3005 21.4192C52.3005 21.739 52.3927 22.0096 52.5834 22.2187C52.774 22.4339 53.0138 22.5876 53.309 22.6922C53.6042 22.7967 53.9055 22.8398 54.213 22.8398Z" fill="#E10098"/>
<path d="M61.2544 23.959C61.1376 23.959 61.0453 23.9221 60.9715 23.8483C60.8977 23.7745 60.8608 23.6761 60.8608 23.5654V15.3987C60.8608 15.2819 60.8977 15.1896 60.9715 15.1158C61.0453 15.042 61.1437 15.0051 61.2544 15.0051H62.0662C62.183 15.0051 62.2753 15.042 62.3491 15.1158C62.4228 15.1896 62.4597 15.288 62.4597 15.3987V16.1551C62.7611 15.7677 63.1362 15.4479 63.5851 15.2019C64.0402 14.9559 64.6183 14.8329 65.3316 14.8329C66.0757 14.8329 66.7091 14.999 67.2319 15.3249C67.7546 15.6508 68.1482 16.1059 68.4187 16.684C68.6893 17.2621 68.8246 17.9385 68.8246 18.7072V23.5654C68.8246 23.6823 68.7877 23.7745 68.7139 23.8483C68.6401 23.9221 68.5417 23.959 68.431 23.959H67.5701C67.4533 23.959 67.361 23.9221 67.2872 23.8483C67.2134 23.7745 67.1765 23.6761 67.1765 23.5654V18.7933C67.1765 17.9877 66.9797 17.3604 66.5923 16.9054C66.2049 16.4503 65.6268 16.2228 64.8704 16.2228C64.157 16.2228 63.5851 16.4503 63.1547 16.9054C62.7242 17.3604 62.5089 17.9877 62.5089 18.7933V23.5654C62.5089 23.6823 62.472 23.7745 62.3982 23.8483C62.3245 23.9221 62.2261 23.959 62.1154 23.959H61.2544Z" fill="#E10098"/>
<path d="M74.962 27.7472C74.181 27.7472 73.5415 27.6427 73.0433 27.4397C72.5452 27.2306 72.1516 26.9846 71.8749 26.6895C71.592 26.3943 71.3952 26.1052 71.2722 25.8101C71.1493 25.5149 71.0878 25.2873 71.0755 25.1151C71.0632 24.9983 71.1001 24.8999 71.1861 24.82C71.2722 24.74 71.3645 24.697 71.469 24.697H72.2931C72.3976 24.697 72.4837 24.7216 72.5514 24.7646C72.619 24.8077 72.6805 24.9061 72.7236 25.0598C72.7912 25.232 72.8957 25.4226 73.031 25.6379C73.1663 25.8531 73.3816 26.0314 73.6706 26.1913C73.9596 26.3451 74.3594 26.425 74.8759 26.425C75.4171 26.425 75.866 26.3512 76.235 26.2036C76.604 26.056 76.8807 25.8039 77.0714 25.4472C77.262 25.0905 77.3542 24.5986 77.3542 23.9652V22.7967C77.0775 23.1534 76.7147 23.4486 76.2719 23.6823C75.823 23.916 75.2634 24.0328 74.5869 24.0328C73.9412 24.0328 73.3939 23.9221 72.9326 23.6946C72.4714 23.4732 72.0963 23.1657 71.8073 22.7844C71.5121 22.397 71.2968 21.9604 71.1554 21.4684C71.014 20.9764 70.9279 20.4599 70.9033 19.9187C70.891 19.5989 70.891 19.2791 70.9033 18.9717C70.9279 18.4305 71.0078 17.9139 71.1554 17.4219C71.2968 16.93 71.5182 16.4872 71.8073 16.0936C72.1025 15.7062 72.4776 15.3987 72.9326 15.1712C73.3939 14.9498 73.9412 14.8329 74.5869 14.8329C75.2757 14.8329 75.8476 14.9621 76.3027 15.2142C76.7577 15.4664 77.1267 15.78 77.4157 16.1613V15.4233C77.4157 15.3065 77.4526 15.2081 77.5264 15.1281C77.6002 15.0482 77.6986 15.0051 77.8093 15.0051H78.6026C78.7195 15.0051 78.8179 15.0482 78.8978 15.1281C78.9777 15.2081 79.0208 15.3065 79.0208 15.4233V23.7745C79.0208 24.5432 78.8917 25.2258 78.6334 25.8224C78.3751 26.4189 77.9508 26.8924 77.3604 27.2368C76.7577 27.575 75.9583 27.7472 74.962 27.7472ZM74.9251 22.6491C75.497 22.6491 75.9583 22.52 76.3088 22.2556C76.6593 21.9911 76.9176 21.659 77.0837 21.2593C77.2497 20.8596 77.3419 20.4476 77.3481 20.0355C77.3604 19.8757 77.3665 19.6789 77.3665 19.439C77.3665 19.2053 77.3604 19.0086 77.3481 18.8425C77.3358 18.4305 77.2497 18.0246 77.0837 17.6187C76.9176 17.219 76.6593 16.8869 76.3088 16.6225C75.9583 16.3581 75.497 16.2289 74.9251 16.2289C74.3532 16.2289 73.892 16.3581 73.5476 16.6163C73.2032 16.8746 72.9572 17.2129 72.8097 17.631C72.6621 18.0492 72.576 18.4981 72.5514 18.984C72.5391 19.2853 72.5391 19.5866 72.5514 19.8941C72.576 20.3738 72.6621 20.8288 72.8097 21.247C72.9572 21.6652 73.2032 22.0034 73.5476 22.2617C73.892 22.52 74.3532 22.6491 74.9251 22.6491Z" fill="#E10098"/>
<path d="M81.9849 23.959C81.868 23.959 81.7758 23.9221 81.702 23.8483C81.6282 23.7745 81.5913 23.6761 81.5913 23.5654V12.1271C81.5913 12.0103 81.6282 11.918 81.702 11.8442C81.7758 11.7704 81.8742 11.7335 81.9849 11.7335H82.7966C82.9135 11.7335 83.0057 11.7704 83.0795 11.8442C83.1533 11.918 83.1902 12.0164 83.1902 12.1271V18.1168L86.5848 15.2942C86.7201 15.1773 86.8308 15.1035 86.9046 15.0605C86.9784 15.0174 87.1014 14.999 87.2736 14.999H88.1837C88.2883 14.999 88.3744 15.0359 88.442 15.1035C88.5097 15.1712 88.5465 15.2573 88.5465 15.3618C88.5465 15.4049 88.5343 15.4602 88.5035 15.5155C88.4728 15.5709 88.4174 15.6324 88.3375 15.6877L84.3648 19.0024L88.7741 23.2887C88.9094 23.4055 88.9832 23.5039 88.9832 23.5962C88.9832 23.7007 88.9463 23.7868 88.8786 23.8545C88.811 23.9221 88.7249 23.959 88.6203 23.959H87.7225C87.5503 23.959 87.4212 23.9406 87.3412 23.8975C87.2613 23.8545 87.1567 23.7807 87.0337 23.6638L83.1964 19.9986V23.5654C83.1964 23.6823 83.1595 23.7745 83.0857 23.8483C83.0119 23.9221 82.9135 23.959 82.8028 23.959H81.9849Z" fill="#E10098"/>
<path d="M93.7124 24.1312C92.8391 24.1312 92.1135 23.9652 91.5231 23.6331C90.9389 23.301 90.49 22.8398 90.1825 22.2494C89.875 21.659 89.7028 20.9826 89.6659 20.2262C89.6536 20.0294 89.6475 19.7834 89.6475 19.4759C89.6475 19.1746 89.6536 18.9286 89.6659 18.7441C89.7028 17.9754 89.875 17.2989 90.1886 16.7147C90.5023 16.1305 90.9573 15.6693 91.5415 15.3372C92.1258 15.0051 92.8514 14.8391 93.7124 14.8391C94.5733 14.8391 95.299 15.0051 95.8832 15.3372C96.4674 15.6693 96.9163 16.1305 97.2361 16.7147C97.5497 17.2989 97.7281 17.9754 97.7588 18.7441C97.7711 18.9286 97.7773 19.1746 97.7773 19.4759C97.7773 19.7772 97.7711 20.0294 97.7588 20.2262C97.7219 20.9826 97.5497 21.659 97.2423 22.2494C96.9348 22.8398 96.4859 23.301 95.9016 23.6331C95.3174 23.9652 94.5856 24.1312 93.7124 24.1312ZM93.7124 22.8029C94.4257 22.8029 94.9915 22.5753 95.4158 22.1203C95.8401 21.6652 96.0677 21.001 96.1046 20.1339C96.1169 19.9617 96.123 19.7465 96.123 19.4821C96.123 19.2176 96.1169 19.0024 96.1046 18.8302C96.0677 17.957 95.8401 17.2928 95.4158 16.8439C94.9915 16.3888 94.4257 16.1613 93.7124 16.1613C92.999 16.1613 92.4271 16.3888 91.9966 16.8439C91.5661 17.2989 91.3386 17.9631 91.314 18.8302C91.3017 19.0024 91.2956 19.2176 91.2956 19.4821C91.2956 19.7465 91.3017 19.9617 91.314 20.1339C91.3386 21.0072 91.5661 21.6713 91.9966 22.1203C92.4332 22.5753 92.999 22.8029 93.7124 22.8029Z" fill="#E10098"/>
<path d="M100.342 23.959C100.225 23.959 100.133 23.9221 100.059 23.8483C99.9851 23.7745 99.9482 23.6761 99.9482 23.5654V12.1271C99.9482 12.0103 99.9851 11.918 100.059 11.8442C100.133 11.7704 100.231 11.7335 100.342 11.7335H101.154C101.27 11.7335 101.363 11.7704 101.436 11.8442C101.51 11.918 101.547 12.0164 101.547 12.1271V18.1168L104.942 15.2942C105.077 15.1773 105.188 15.1035 105.262 15.0605C105.335 15.0174 105.458 14.999 105.631 14.999H106.541C106.645 14.999 106.731 15.0359 106.799 15.1035C106.867 15.1712 106.903 15.2573 106.903 15.3618C106.903 15.4049 106.891 15.4602 106.86 15.5155C106.83 15.5709 106.774 15.6324 106.694 15.6877L102.716 18.9962L107.125 23.2825C107.26 23.3994 107.334 23.4978 107.334 23.59C107.334 23.6946 107.297 23.7807 107.229 23.8483C107.162 23.916 107.076 23.9529 106.971 23.9529H106.073C105.901 23.9529 105.772 23.9344 105.692 23.8914C105.612 23.8483 105.508 23.7745 105.385 23.6577L101.547 19.9925V23.5593C101.547 23.6761 101.51 23.7684 101.436 23.8422C101.363 23.916 101.264 23.9529 101.154 23.9529H100.342V23.959Z" fill="#E10098"/>
<path fill-rule="evenodd" clip-rule="evenodd" d="M16.7742 2.77963L30.0205 10.4298V25.7239L16.7742 33.3741L3.52783 25.7239V10.4298L16.7742 2.77963ZM5.00989 11.2846V22.52L14.7386 5.66996L5.00989 11.2846ZM16.7742 5.12265L5.55721 24.5555H27.9911L16.7742 5.12265ZM26.5029 26.0437H7.04543L16.7742 31.6583L26.5029 26.0437ZM28.5384 22.5261L18.8035 5.67611L28.5323 11.2907V22.5261H28.5384Z" fill="#E10098"/>
<path d="M16.7742 6.76461C18.5023 6.76461 19.9044 5.36249 19.9044 3.63444C19.9044 1.90639 18.5023 0.504272 16.7742 0.504272C15.0462 0.504272 13.644 1.90639 13.644 3.63444C13.644 5.36864 15.0462 6.76461 16.7742 6.76461Z" fill="#E10098"/>
<path d="M29.2767 13.9904C31.0047 13.9904 32.4068 12.5883 32.4068 10.8603C32.4068 9.13222 31.0047 7.7301 29.2767 7.7301C27.5486 7.7301 26.1465 9.13222 26.1465 10.8603C26.1465 12.5883 27.5486 13.9904 29.2767 13.9904Z" fill="#E10098"/>
<path d="M29.2767 28.4298C31.0047 28.4298 32.4068 27.0277 32.4068 25.2996C32.4068 23.5716 31.0047 22.1695 29.2767 22.1695C27.5486 22.1695 26.1465 23.5716 26.1465 25.2996C26.1465 27.0215 27.5486 28.4298 29.2767 28.4298Z" fill="#E10098"/>
<path d="M16.7742 35.6495C18.5023 35.6495 19.9044 34.2474 19.9044 32.5193C19.9044 30.7913 18.5023 29.3892 16.7742 29.3892C15.0462 29.3892 13.644 30.7913 13.644 32.5193C13.644 34.2474 15.0462 35.6495 16.7742 35.6495Z" fill="#E10098"/>
<path d="M4.26591 28.4298C5.99396 28.4298 7.39607 27.0277 7.39607 25.2996C7.39607 23.5716 5.99396 22.1695 4.26591 22.1695C2.53786 22.1695 1.13574 23.5716 1.13574 25.2996C1.13574 27.0277 2.53786 28.4298 4.26591 28.4298Z" fill="#E10098"/>
<path d="M4.26591 13.9904C5.99396 13.9904 7.39607 12.5883 7.39607 10.8603C7.39607 9.13222 5.99396 7.7301 4.26591 7.7301C2.53786 7.7301 1.13574 9.13222 1.13574 10.8603C1.13574 12.5883 2.53786 13.9904 4.26591 13.9904Z" fill="#E10098"/>
<path fill-rule="evenodd" clip-rule="evenodd" d="M12.4758 20.7058L16.7621 22.1817L21.03 20.7058C21.0607 20.2139 20.8824 19.1992 19.9538 19.0577C19.9107 18.7502 19.7139 18.1168 19.2281 18.0492V17.7602H19.634V17.0099H18.4102V16.2596H19.2835V16.0813C18.4902 16.0444 16.879 14.4516 16.756 7.73009V22.1879V7.71164C16.6391 14.4455 15.0033 16.0383 14.21 16.069V16.2473H15.0833V16.9976H13.8595V17.7479H14.2654V18.0369C13.7795 18.1045 13.5766 18.7379 13.5397 19.0454C12.6234 19.193 12.4512 20.2077 12.4758 20.7058ZM15.483 16.2473H15.8274V16.9976H15.483V16.2473ZM16.2332 16.2473H16.5776V16.9976H16.2332V16.2473ZM16.9835 16.2473H17.3279V16.9976H16.9835V16.2473ZM17.7461 16.2473H18.0904V16.9976H17.7461V16.2473Z" fill="#E10098"/>
</svg>
