<svg width="128" height="36" viewBox="0 0 128 36" fill="none" xmlns="http://www.w3.org/2000/svg">
<path fill-rule="evenodd" clip-rule="evenodd" d="M18.982 2.42908L32.3083 10.1161V25.5087L18.982 33.1957L5.65576 25.5087V10.1161L18.982 2.42908ZM7.15012 10.9894V22.2924L16.9404 5.33171L7.15012 10.9894ZM18.982 4.79054L7.69744 24.3341H30.2666L18.982 4.79054ZM28.7723 25.8285H9.19181L18.982 31.4861L28.7723 25.8285ZM30.8139 22.2924L21.0237 5.33171L30.8139 10.9894V22.2924Z" fill="#E10098"/>
<path d="M18.9821 6.4387C20.7286 6.4387 22.1307 5.03043 22.1307 3.29008C22.1307 1.54973 20.7286 0.135315 18.9821 0.135315C17.2356 0.135315 15.8335 1.54358 15.8335 3.28393C15.8335 5.03043 17.2418 6.4387 18.9821 6.4387Z" fill="#E10098"/>
<path d="M31.5578 13.7014C33.3043 13.7014 34.7064 12.2931 34.7064 10.5528C34.7064 8.81244 33.2981 7.40417 31.5578 7.40417C29.8113 7.40417 28.4092 8.81244 28.4092 10.5528C28.4092 12.2931 29.8236 13.7014 31.5578 13.7014Z" fill="#E10098"/>
<path d="M31.5578 28.2269C33.3043 28.2269 34.7064 26.8186 34.7064 25.0782C34.7064 23.3379 33.2981 21.9296 31.5578 21.9296C29.8113 21.9296 28.4092 23.3379 28.4092 25.0782C28.4153 26.8186 29.8236 28.2269 31.5578 28.2269Z" fill="#E10098"/>
<path d="M18.9821 35.4896C20.7286 35.4896 22.1307 34.0813 22.1307 32.341C22.1307 30.5945 20.7225 29.1924 18.9821 29.1924C17.2356 29.1924 15.8335 30.6007 15.8335 32.341C15.8335 34.0875 17.2418 35.4896 18.9821 35.4896Z" fill="#E10098"/>
<path d="M6.39959 28.2269C8.14609 28.2269 9.54821 26.8186 9.54821 25.0782C9.54821 23.3379 8.13994 21.9296 6.39959 21.9296C4.65925 21.9296 3.25098 23.3379 3.25098 25.0782C3.25098 26.8186 4.66539 28.2269 6.39959 28.2269Z" fill="#E10098"/>
<path d="M6.39959 13.7014C8.14609 13.7014 9.54821 12.2931 9.54821 10.5528C9.54821 8.81244 8.13994 7.40417 6.39959 7.40417C4.65925 7.40417 3.25098 8.81859 3.25098 10.5528C3.25098 12.287 4.66539 13.7014 6.39959 13.7014Z" fill="#E10098"/>
<path d="M17.7579 13.2218C16.8355 13.3386 16.1283 13.6953 15.4149 14.4086C14.8184 14.999 14.4679 15.6201 14.3264 16.3335C14.0497 17.7049 14.4125 18.9963 15.3842 19.9741C16.2021 20.8104 17.1307 21.1978 18.3053 21.1856H18.8956L18.5513 21.0687C17.0015 20.5767 15.9315 19.3653 15.6794 17.8217C15.581 17.2559 15.581 17.1637 15.6794 16.5979C15.8331 15.7185 16.1713 15.0359 16.7802 14.4209C17.3029 13.8982 17.7272 13.6399 18.4098 13.4001L18.871 13.2464L18.6312 13.2095C18.3299 13.1541 18.3299 13.1541 17.7579 13.2218Z" fill="#E10098"/>
<path d="M19.6645 14.1688C19.5784 14.3902 19.5415 14.4209 19.2587 14.4578L18.9512 14.5132L19.1603 14.7223C19.3509 14.9129 19.3693 14.9621 19.3263 15.2204C19.2956 15.3864 19.2956 15.5094 19.314 15.5094C19.3324 15.5094 19.4493 15.4541 19.5661 15.3741L19.7875 15.2511L20.0581 15.3864L20.3287 15.5217L20.2918 15.2019C20.2549 14.9129 20.261 14.8822 20.4455 14.7038C20.6116 14.5378 20.63 14.5132 20.5316 14.464C20.464 14.4517 20.341 14.4271 20.2549 14.4271C20.1319 14.4271 20.0643 14.3594 19.9782 14.1565C19.9105 14.0212 19.8429 13.9044 19.8121 13.9044C19.7814 13.9351 19.726 14.0335 19.6645 14.1688Z" fill="#E10098"/>
<path d="M17.3644 15.7861C17.2414 16.0936 17.1246 16.1797 16.8355 16.1797H16.5649L16.7863 16.4196C16.9954 16.6409 17.0077 16.6901 16.9708 16.9177C16.9401 17.053 16.9339 17.1883 16.9401 17.1944C16.9524 17.2067 17.0631 17.1637 17.2107 17.096C17.4505 16.973 17.4628 16.973 17.6842 17.096C18.004 17.2621 18.0224 17.2498 17.9732 16.9423C17.9363 16.6901 17.9609 16.6532 18.127 16.4811C18.3483 16.2597 18.3114 16.192 17.9609 16.192C17.7764 16.192 17.7211 16.1551 17.5919 15.903L17.4382 15.614L17.3644 15.7861Z" fill="#E10098"/>
<path d="M22.0075 15.8845C21.8906 16.1367 21.8415 16.1736 21.6693 16.1736C21.3003 16.1736 21.2634 16.2289 21.5032 16.4442C21.6939 16.6102 21.7123 16.6348 21.6693 16.9054C21.6385 17.0591 21.6324 17.1821 21.6385 17.1944C21.6508 17.2067 21.7615 17.1637 21.9091 17.096C22.1489 16.973 22.1612 16.973 22.3826 17.096C22.5056 17.1637 22.6348 17.2129 22.6532 17.219C22.684 17.219 22.684 17.096 22.6655 16.93C22.6286 16.6594 22.6348 16.6409 22.8315 16.4872C23.1021 16.2658 23.0837 16.1982 22.7762 16.1982C22.5548 16.1982 22.4995 16.1674 22.4011 16.0075C22.1612 15.5648 22.1612 15.5648 22.0075 15.8845Z" fill="#E10098"/>
<path d="M18.2623 18.5597C18.1393 18.8487 18.0225 18.9348 17.7704 18.9348C17.4998 18.9348 17.4936 18.9901 17.7396 19.2115C17.9057 19.3776 17.9057 19.4022 17.8626 19.6543C17.8319 19.808 17.8073 19.9433 17.8073 19.9741C17.8073 20.0048 17.9303 19.9618 18.0779 19.8572L18.3484 19.6912L18.6006 19.8142C18.7359 19.8818 18.8527 19.9372 18.8712 19.931C18.8835 19.9187 18.8712 19.7957 18.8404 19.6543C18.8035 19.4145 18.8097 19.3776 19.0249 19.1562C19.2463 18.9163 19.2463 18.9163 19.0925 18.9163C18.7728 18.9163 18.6313 18.8302 18.5022 18.5966C18.4345 18.4613 18.3669 18.3444 18.3484 18.3444C18.3546 18.369 18.3177 18.4551 18.2623 18.5597Z" fill="#E10098"/>
<path d="M21.1218 18.5966C21.005 18.8487 20.882 18.9348 20.5561 18.9348H20.3716L20.6114 19.1746C20.8328 19.396 20.8513 19.4452 20.8021 19.6973C20.7898 19.8511 20.7898 19.9741 20.8021 19.9741C20.8328 19.9741 20.9374 19.9187 21.0726 19.8572C21.2817 19.7588 21.3125 19.7588 21.5154 19.8572C21.6384 19.9126 21.7676 19.9741 21.786 19.9741C21.8044 19.9741 21.7983 19.8511 21.786 19.6973C21.7491 19.4452 21.7737 19.4083 21.9397 19.2361C22.1488 19.027 22.1488 18.9471 21.909 18.9471C21.6569 18.9471 21.5646 18.8794 21.417 18.6089C21.3494 18.4736 21.2817 18.3567 21.2633 18.3567C21.2571 18.3506 21.1895 18.4736 21.1218 18.5966Z" fill="#E10098"/>
<path d="M46.2248 23.6454C45.2286 23.6454 44.3861 23.4917 43.7096 23.178C43.0331 22.8705 42.5104 22.4708 42.1538 21.9788C41.7909 21.493 41.6003 20.9764 41.5757 20.4353C41.5757 20.343 41.6126 20.2631 41.6864 20.1831C41.7602 20.1094 41.8524 20.0725 41.9508 20.0725H42.8302C42.9655 20.0725 43.07 20.1093 43.1377 20.177C43.2053 20.2446 43.2545 20.3246 43.273 20.4168C43.3406 20.6936 43.4882 20.9641 43.7035 21.2347C43.9187 21.5053 44.2323 21.7267 44.6444 21.905C45.0502 22.0834 45.5791 22.1695 46.2187 22.1695C47.2088 22.1695 47.9344 21.9973 48.3956 21.6468C48.863 21.2962 49.0905 20.8289 49.0905 20.2446C49.0905 19.8449 48.9676 19.519 48.7216 19.273C48.4756 19.027 48.1005 18.8056 47.5962 18.6088C47.0919 18.412 46.4339 18.203 45.6344 17.9693C44.7981 17.7294 44.1032 17.465 43.5497 17.176C42.9963 16.8869 42.5904 16.5303 42.3198 16.1059C42.0492 15.6816 41.9139 15.1404 41.9139 14.4886C41.9139 13.8675 42.08 13.314 42.412 12.8282C42.7441 12.3423 43.2299 11.9549 43.8572 11.6659C44.4906 11.3769 45.247 11.2354 46.1326 11.2354C46.8459 11.2354 47.467 11.3277 48.0021 11.5183C48.5371 11.7089 48.9799 11.9611 49.3365 12.2747C49.6932 12.5883 49.9638 12.9266 50.1483 13.2894C50.3328 13.6522 50.4312 14.0028 50.4435 14.3471C50.4435 14.4271 50.4127 14.507 50.3574 14.5808C50.302 14.6546 50.2098 14.6915 50.0806 14.6915H49.1705C49.0905 14.6915 49.0045 14.6669 48.9184 14.6239C48.8323 14.5808 48.7646 14.4947 48.7216 14.3656C48.6539 13.8921 48.3895 13.4985 47.9283 13.1787C47.467 12.8589 46.8705 12.699 46.1387 12.699C45.3946 12.699 44.7858 12.8405 44.3246 13.1295C43.8572 13.4185 43.6297 13.8613 43.6297 14.4701C43.6297 14.8576 43.7404 15.1835 43.9556 15.4418C44.1708 15.7001 44.5152 15.9276 44.9887 16.1244C45.4623 16.3212 46.0711 16.5241 46.8336 16.7455C47.7499 16.9976 48.5063 17.2621 49.0905 17.5449C49.6748 17.8278 50.1114 18.1784 50.3881 18.5965C50.671 19.0147 50.8124 19.5497 50.8124 20.2077C50.8124 20.9334 50.6218 21.5484 50.2467 22.0588C49.8654 22.5692 49.3365 22.9628 48.6539 23.2272C47.959 23.5101 47.1534 23.6454 46.2248 23.6454Z" fill="#E10098"/>
<path d="M53.0938 12.8466C52.9769 12.8466 52.8847 12.8097 52.8109 12.7359C52.7371 12.6621 52.7002 12.5637 52.7002 12.453V11.5244C52.7002 11.4076 52.7371 11.3092 52.8109 11.2293C52.8847 11.1493 52.9831 11.1063 53.0938 11.1063H54.1761C54.293 11.1063 54.3913 11.1493 54.4713 11.2293C54.5512 11.3092 54.5943 11.4076 54.5943 11.5244V12.453C54.5943 12.5699 54.5512 12.6621 54.4713 12.7359C54.3913 12.8097 54.293 12.8466 54.1761 12.8466H53.0938ZM53.2352 23.4732C53.1184 23.4732 53.0261 23.4363 52.9523 23.3625C52.8785 23.2887 52.8416 23.1903 52.8416 23.0796V14.9129C52.8416 14.796 52.8785 14.7038 52.9523 14.63C53.0261 14.5562 53.1245 14.5193 53.2352 14.5193H54.0593C54.1761 14.5193 54.2684 14.5562 54.3422 14.63C54.4159 14.7038 54.4528 14.8022 54.4528 14.9129V23.0735C54.4528 23.1903 54.4159 23.2826 54.3422 23.3564C54.2684 23.4301 54.17 23.467 54.0593 23.467H53.2352V23.4732Z" fill="#E10098"/>
<path d="M57.3989 23.4732C57.2821 23.4732 57.1899 23.4363 57.1161 23.3625C57.0423 23.2887 57.0054 23.1903 57.0054 23.0796V14.9129C57.0054 14.796 57.0423 14.7038 57.1161 14.63C57.1899 14.5562 57.2883 14.5193 57.3989 14.5193H58.2107C58.3275 14.5193 58.4198 14.5562 58.4936 14.63C58.5674 14.7038 58.6043 14.8022 58.6043 14.9129V15.6693C58.9056 15.2819 59.2807 14.9621 59.7297 14.7161C60.1847 14.4701 60.7628 14.3471 61.4762 14.3471C62.2203 14.3471 62.8537 14.5131 63.3764 14.8391C63.8991 15.165 64.2927 15.6201 64.5633 16.1981C64.8339 16.7762 64.9692 17.4527 64.9692 18.2214V23.0796C64.9692 23.1964 64.9323 23.2887 64.8585 23.3625C64.7847 23.4363 64.6863 23.4732 64.5756 23.4732H63.7146C63.5978 23.4732 63.5055 23.4363 63.4317 23.3625C63.358 23.2887 63.3211 23.1903 63.3211 23.0796V18.3075C63.3211 17.5019 63.1243 16.8746 62.7368 16.4195C62.3494 15.9645 61.7713 15.7369 61.0149 15.7369C60.3016 15.7369 59.7297 15.9645 59.2992 16.4195C58.8687 16.8746 58.6535 17.5019 58.6535 18.3075V23.0796C58.6535 23.1964 58.6166 23.2887 58.5428 23.3625C58.469 23.4363 58.3706 23.4732 58.2599 23.4732H57.3989Z" fill="#E10098"/>
<path d="M71.1061 27.2614C70.3251 27.2614 69.6855 27.1568 69.1874 26.9539C68.6893 26.7448 68.2957 26.4988 68.0189 26.2036C67.7361 25.9084 67.5393 25.6194 67.4163 25.3242C67.2933 25.029 67.2318 24.8015 67.2195 24.6293C67.2072 24.5125 67.2441 24.4141 67.3302 24.3341C67.4163 24.2542 67.5085 24.2111 67.6131 24.2111H68.4371C68.5417 24.2111 68.6278 24.2357 68.6954 24.2788C68.7631 24.3218 68.8246 24.4202 68.8676 24.574C68.9353 24.7462 69.0398 24.9368 69.1751 25.152C69.3104 25.3673 69.5256 25.5456 69.8147 25.7055C70.1037 25.8592 70.5034 25.9392 71.02 25.9392C71.5611 25.9392 72.0101 25.8654 72.3791 25.7178C72.748 25.5702 73.0248 25.3181 73.2154 24.9614C73.406 24.6047 73.4983 24.1127 73.4983 23.4793V22.3109C73.2215 22.6676 72.8587 22.9628 72.4159 23.1964C71.967 23.4301 71.4074 23.547 70.7309 23.547C70.0852 23.547 69.5379 23.4363 69.0767 23.2087C68.6155 22.9874 68.2403 22.6799 67.9513 22.2986C67.6561 21.9112 67.4409 21.4745 67.2994 20.9826C67.158 20.4906 67.0719 19.974 67.0473 19.4329C67.035 19.1131 67.035 18.7933 67.0473 18.4858C67.0719 17.9446 67.1519 17.4281 67.2994 16.9361C67.4409 16.4441 67.6623 16.0014 67.9513 15.6078C68.2465 15.2204 68.6216 14.9129 69.0767 14.6853C69.5379 14.464 70.0852 14.3471 70.7309 14.3471C71.4197 14.3471 71.9916 14.4762 72.4467 14.7284C72.9018 14.9805 73.2707 15.2942 73.5598 15.6754V14.9375C73.5598 14.8206 73.5967 14.7222 73.6705 14.6423C73.7443 14.5623 73.8427 14.5193 73.9534 14.5193H74.7467C74.8635 14.5193 74.9619 14.5623 75.0419 14.6423C75.1218 14.7222 75.1648 14.8206 75.1648 14.9375V23.2887C75.1648 24.0574 75.0357 24.74 74.7774 25.3365C74.5191 25.933 74.0948 26.4066 73.5044 26.7509C72.9018 27.0892 72.1023 27.2614 71.1061 27.2614ZM71.0692 22.1633C71.6411 22.1633 72.1023 22.0342 72.4528 21.7697C72.8034 21.5053 73.0617 21.1732 73.2277 20.7735C73.3937 20.3738 73.486 19.9617 73.4921 19.5497C73.5044 19.3898 73.5106 19.193 73.5106 18.9532C73.5106 18.7195 73.5044 18.5227 73.4921 18.3567C73.4798 17.9446 73.3937 17.5388 73.2277 17.1329C73.0617 16.7332 72.8034 16.4011 72.4528 16.1367C72.1023 15.8722 71.6411 15.7431 71.0692 15.7431C70.4973 15.7431 70.036 15.8722 69.6917 16.1305C69.3473 16.3888 69.1013 16.727 68.9537 17.1452C68.8061 17.5634 68.72 18.0123 68.6954 18.4981C68.6831 18.7994 68.6831 19.1008 68.6954 19.4083C68.72 19.8879 68.8061 20.343 68.9537 20.7612C69.1013 21.1794 69.3473 21.5176 69.6917 21.7759C70.036 22.0342 70.4973 22.1633 71.0692 22.1633Z" fill="#E10098"/>
<path d="M80.214 23.6454C79.642 23.6454 79.1193 23.5285 78.6458 23.301C78.1723 23.0735 77.7971 22.7598 77.5081 22.3724C77.2191 21.985 77.0776 21.5422 77.0776 21.0441C77.0776 20.2508 77.3974 19.6235 78.0431 19.15C78.6888 18.6765 79.5252 18.369 80.5583 18.2214L83.1227 17.8586V17.3604C83.1227 16.807 82.9628 16.3765 82.6492 16.069C82.3356 15.7615 81.819 15.6016 81.1057 15.6016C80.6014 15.6016 80.1894 15.7062 79.8634 15.9091C79.5436 16.1182 79.3161 16.3826 79.1931 16.7024C79.1255 16.8746 79.0025 16.9607 78.8303 16.9607H78.0554C77.9263 16.9607 77.834 16.9238 77.7725 16.85C77.711 16.7762 77.6803 16.684 77.6803 16.5856C77.6803 16.4134 77.7479 16.1981 77.8771 15.946C78.0062 15.6939 78.2153 15.4479 78.4859 15.2081C78.7626 14.9682 79.1132 14.7653 79.5436 14.5992C79.9741 14.4332 80.4968 14.3471 81.1179 14.3471C81.8067 14.3471 82.3848 14.4332 82.8583 14.6115C83.3318 14.7899 83.7008 15.0297 83.9714 15.3249C84.242 15.6262 84.4388 15.9645 84.5556 16.3396C84.6786 16.7209 84.7339 17.1021 84.7339 17.4957V23.0735C84.7339 23.1903 84.697 23.2825 84.6232 23.3563C84.5494 23.4301 84.4511 23.467 84.3404 23.467H83.5471C83.4179 23.467 83.3257 23.4301 83.2519 23.3563C83.1842 23.2825 83.1473 23.1841 83.1473 23.0735V22.3355C82.9997 22.5446 82.7968 22.7475 82.5447 22.9443C82.2925 23.1472 81.9789 23.3133 81.5976 23.4424C81.2163 23.5716 80.7674 23.6454 80.214 23.6454ZM80.5768 22.3539C81.0503 22.3539 81.4808 22.2555 81.8682 22.0526C82.2556 21.8497 82.5631 21.536 82.7907 21.1117C83.012 20.6874 83.1289 20.1524 83.1289 19.5128V19.0331L81.1303 19.3283C80.3123 19.4452 79.7035 19.6358 79.2854 19.9064C78.8733 20.177 78.6642 20.5152 78.6642 20.9334C78.6642 21.2532 78.7565 21.5237 78.9471 21.7328C79.1378 21.9481 79.3776 22.1018 79.6728 22.2064C79.9618 22.3047 80.2632 22.3539 80.5768 22.3539Z" fill="#E10098"/>
<path d="M87.6367 26.7448C87.5199 26.7448 87.4277 26.7079 87.3539 26.6341C87.2801 26.5603 87.2432 26.4619 87.2432 26.3512V14.9129C87.2432 14.796 87.2801 14.7038 87.3539 14.63C87.4277 14.5562 87.526 14.5193 87.6367 14.5193H88.43C88.5469 14.5193 88.6391 14.5562 88.7129 14.63C88.7867 14.7038 88.8236 14.8022 88.8236 14.9129V15.6693C89.1004 15.288 89.4693 14.9744 89.9244 14.7222C90.3856 14.4701 90.9576 14.3409 91.6463 14.3409C92.292 14.3409 92.8393 14.4516 93.2883 14.6669C93.7433 14.8821 94.1123 15.1834 94.4075 15.5647C94.7027 15.946 94.9241 16.3765 95.0717 16.8561C95.2193 17.3358 95.3053 17.8524 95.3299 18.4059C95.3422 18.5903 95.3484 18.7871 95.3484 18.9901C95.3484 19.1992 95.3422 19.3898 95.3299 19.5743C95.3053 20.1155 95.2193 20.6259 95.0717 21.1178C94.9241 21.6037 94.7027 22.0341 94.4075 22.4093C94.1123 22.7844 93.7433 23.0796 93.2883 23.3071C92.8332 23.5285 92.2859 23.6453 91.6463 23.6453C90.9822 23.6453 90.4225 23.5224 89.9675 23.2764C89.5124 23.0304 89.1434 22.7229 88.8544 22.3539V26.3512C88.8544 26.468 88.8175 26.5603 88.7498 26.6341C88.6822 26.7079 88.5899 26.7448 88.4731 26.7448H87.6367ZM91.2835 22.2494C91.88 22.2494 92.3474 22.1202 92.6856 21.862C93.0238 21.6037 93.2698 21.2654 93.4174 20.8473C93.565 20.4291 93.6511 19.9802 93.6757 19.4943C93.688 19.1623 93.688 18.8302 93.6757 18.4981C93.6511 18.0184 93.565 17.5634 93.4174 17.1452C93.2698 16.727 93.0238 16.3888 92.6856 16.1305C92.3474 15.8722 91.88 15.7431 91.2835 15.7431C90.7239 15.7431 90.2626 15.8722 89.9121 16.1366C89.5616 16.4011 89.3033 16.7393 89.1373 17.1452C88.9712 17.5511 88.879 17.9692 88.8544 18.3936C88.8421 18.578 88.8359 18.7933 88.8359 19.0454C88.8359 19.2976 88.8421 19.5189 88.8544 19.7157C88.8667 20.1155 88.9589 20.5152 89.1373 20.9026C89.3156 21.29 89.58 21.616 89.9367 21.8681C90.2995 22.1264 90.7485 22.2494 91.2835 22.2494Z" fill="#E10098"/>
<path d="M101.153 23.6454C100.28 23.6454 99.5544 23.4793 98.964 23.1473C98.3798 22.8152 97.9309 22.354 97.6234 21.7636C97.3159 21.1732 97.1437 20.4968 97.1068 19.7404C97.0945 19.5436 97.0884 19.2976 97.0884 18.9901C97.0884 18.6888 97.0945 18.4428 97.1068 18.2583C97.1437 17.4896 97.3159 16.8131 97.6295 16.2289C97.9432 15.6447 98.3982 15.1835 98.9825 14.8514C99.5667 14.5193 100.292 14.3533 101.153 14.3533C102.014 14.3533 102.74 14.5193 103.324 14.8514C103.908 15.1835 104.357 15.6447 104.677 16.2289C104.991 16.8131 105.169 17.4896 105.2 18.2583C105.212 18.4428 105.218 18.6888 105.218 18.9901C105.218 19.2914 105.212 19.5436 105.2 19.7404C105.163 20.4968 104.991 21.1732 104.683 21.7636C104.376 22.354 103.927 22.8152 103.343 23.1473C102.752 23.4793 102.027 23.6454 101.153 23.6454ZM101.153 22.3171C101.867 22.3171 102.432 22.0895 102.857 21.6345C103.281 21.1794 103.509 20.5152 103.546 19.6481C103.558 19.4759 103.564 19.2607 103.564 18.9963C103.564 18.7318 103.558 18.5166 103.546 18.3444C103.509 17.4711 103.281 16.807 102.857 16.3581C102.432 15.903 101.867 15.6754 101.153 15.6754C100.44 15.6754 99.868 15.903 99.4375 16.3581C99.0071 16.8131 98.7795 17.4773 98.7549 18.3444C98.7426 18.5166 98.7365 18.7318 98.7365 18.9963C98.7365 19.2607 98.7426 19.4759 98.7549 19.6481C98.7795 20.5214 99.0071 21.1855 99.4375 21.6345C99.868 22.0957 100.44 22.3171 101.153 22.3171Z" fill="#E10098"/>
<path d="M107.764 23.4732C107.647 23.4732 107.555 23.4363 107.481 23.3625C107.408 23.2887 107.371 23.1903 107.371 23.0796V14.9314C107.371 14.8145 107.408 14.7161 107.481 14.6362C107.555 14.5562 107.653 14.5132 107.764 14.5132H108.557C108.674 14.5132 108.773 14.5562 108.853 14.6362C108.933 14.7161 108.976 14.8145 108.976 14.9314V15.6878C109.203 15.3003 109.523 15.0052 109.923 14.8084C110.322 14.6116 110.814 14.5132 111.386 14.5132H112.057C112.173 14.5132 112.266 14.5501 112.34 14.6239C112.413 14.6977 112.45 14.7961 112.45 14.9068V15.6201C112.45 15.737 112.413 15.8292 112.34 15.8969C112.266 15.9645 112.167 16.0014 112.057 16.0014H111.023C110.402 16.0014 109.917 16.1797 109.56 16.5426C109.203 16.9054 109.025 17.3974 109.025 18.0123V23.0735C109.025 23.1903 108.982 23.2826 108.902 23.3564C108.822 23.4302 108.724 23.4671 108.607 23.4671H107.764V23.4732Z" fill="#E10098"/>
<path d="M117.321 23.6453C116.128 23.6453 115.181 23.2825 114.48 22.5507C113.779 21.8189 113.397 20.8288 113.324 19.562C113.311 19.4144 113.305 19.2176 113.305 18.9839C113.305 18.7502 113.311 18.5534 113.324 18.4059C113.367 17.588 113.557 16.8746 113.889 16.2596C114.221 15.6447 114.677 15.1711 115.261 14.8391C115.839 14.507 116.521 14.3409 117.302 14.3409C118.176 14.3409 118.907 14.5254 119.498 14.8944C120.088 15.2634 120.537 15.7861 120.851 16.4626C121.158 17.139 121.318 17.9323 121.318 18.8363V19.1315C121.318 19.2607 121.281 19.3529 121.207 19.4267C121.134 19.4943 121.035 19.5312 120.925 19.5312H114.966C114.966 19.5435 114.966 19.5681 114.966 19.5989C114.966 19.6296 114.966 19.6604 114.966 19.685C114.99 20.1585 115.095 20.5951 115.273 21.001C115.458 21.4069 115.722 21.739 116.073 21.9911C116.423 22.2432 116.835 22.3724 117.302 22.3724C117.714 22.3724 118.059 22.3109 118.336 22.1817C118.612 22.0526 118.834 21.9173 119.006 21.7574C119.178 21.6037 119.295 21.4807 119.35 21.3884C119.455 21.2531 119.535 21.167 119.59 21.1363C119.645 21.1055 119.738 21.0932 119.867 21.0932H120.709C120.814 21.0932 120.9 21.124 120.974 21.1855C121.048 21.247 121.078 21.3392 121.066 21.4499C121.054 21.6221 120.961 21.8312 120.789 22.0772C120.617 22.3232 120.371 22.5692 120.057 22.809C119.744 23.0488 119.35 23.2456 118.889 23.4055C118.434 23.5654 117.905 23.6453 117.321 23.6453ZM114.959 18.3444H119.676V18.2952C119.676 17.7786 119.584 17.3174 119.393 16.9176C119.203 16.5179 118.932 16.1981 118.575 15.9644C118.219 15.7308 117.794 15.6139 117.302 15.6139C116.81 15.6139 116.386 15.7308 116.036 15.9644C115.685 16.1981 115.421 16.5179 115.236 16.9176C115.052 17.3174 114.959 17.7786 114.959 18.2952V18.3444Z" fill="#E10098"/>
</svg>
