<svg width="30" height="30" viewBox="0 0 30 30" fill="none" xmlns="http://www.w3.org/2000/svg">
<g clip-path="url(#clip0_207_548)">
<path d="M15 0C6.75 0 0 6.75 0 15C0 21.625 4.25 27.25 10.25 29.25C11 29.375 11.25 28.875 11.25 28.5V25.75C7.125 26.625 6.25 24 6.25 24C5.625 22.25 4.625 21.75 4.625 21.75C3.25 20.875 4.75 20.875 4.75 20.875C6.25 21 7 22.375 7 22.375C8.375 24.625 10.5 24 11.375 23.625C11.5 22.625 11.875 22 12.375 21.625C8.875 21.25 5.375 20 5.375 14.25C5.375 12.625 6 11.25 6.875 10.25C6.875 9.875 6.25 8.25 7.125 6.25C7.125 6.25 8.375 5.875 11.25 7.75C12.5 7.375 13.75 7.25 15 7.25C16.25 7.25 17.5 7.375 18.75 7.75C21.625 5.875 22.875 6.25 22.875 6.25C23.75 8.375 23.125 9.875 23 10.25C24 11.25 24.5 12.625 24.5 14.25C24.5 20 21 21.25 17.625 21.625C18.125 22.125 18.625 23 18.625 24.375V28.5C18.625 28.875 18.875 29.375 19.625 29.25C25.75 27.25 30 21.625 30 15C30 6.75 23.25 0 15 0Z" fill="#1A2735"/>
</g>
<defs>
<clipPath id="clip0_207_548">
<rect width="30" height="30" fill="white"/>
</clipPath>
</defs>
</svg>
