<svg width="124" height="36" viewBox="0 0 124 36" fill="none" xmlns="http://www.w3.org/2000/svg">
<path d="M27.46 12.6191H14.4351V14.3902H27.46V12.6191Z" fill="#008844"/>
<path d="M29.8338 10.9156L31.5803 9.92551L28.278 4.2002H21.7471V6.21113H27.1157L29.8338 10.9156Z" fill="#018844"/>
<path d="M8.10699 17.1882L10.7944 12.5391L9.06019 11.5244L5.78857 17.1882L8.95564 22.6614L10.7021 21.6775L8.10699 17.1882Z" fill="#018844"/>
<path d="M11.7107 23.4117L9.95801 24.3956L13.285 30.1517H19.7359V28.1408H14.4411L11.7107 23.4117Z" fill="#018844"/>
<path d="M32.5885 11.6782L30.8359 12.6621L33.4495 17.1882L30.7437 21.8681L32.4779 22.8828L35.7741 17.1882L32.5885 11.6782Z" fill="#018844"/>
<path d="M20.1236 16.3334H15.499V18.1045H20.1236V16.3334Z" fill="#008844"/>
<path d="M25.5046 19.7096H20.1113V21.4807H25.5046V19.7096Z" fill="#008844"/>
<path d="M14.0722 9.02153C15.5055 9.02153 16.6673 7.85965 16.6673 6.42639C16.6673 4.99313 15.5055 3.83124 14.0722 3.83124C12.6389 3.83124 11.4771 4.99313 11.4771 6.42639C11.4771 7.85965 12.6389 9.02153 14.0722 9.02153Z" fill="#018844"/>
<path d="M27.0912 29.7766C28.5245 29.7766 29.6864 28.6147 29.6864 27.1814C29.6864 25.7482 28.5245 24.5863 27.0912 24.5863C25.658 24.5863 24.4961 25.7482 24.4961 27.1814C24.4961 28.6147 25.658 29.7766 27.0912 29.7766Z" fill="#018844"/>
<path d="M42.2991 22.4154C42.1823 22.4154 42.0839 22.3724 42.0101 22.2924C41.9363 22.2125 41.8994 22.1202 41.8994 22.0095V11.6043C41.8994 11.4875 41.9363 11.3891 42.0101 11.3153C42.0839 11.2415 42.1823 11.2046 42.2991 11.2046H46.4624C47.5079 11.2046 48.3996 11.3707 49.1375 11.7089C49.8755 12.0471 50.4413 12.5391 50.8348 13.1848C51.2284 13.8305 51.4437 14.63 51.4744 15.577C51.4867 16.0444 51.4929 16.4564 51.4929 16.8131C51.4929 17.1636 51.4867 17.5695 51.4744 18.0307C51.4314 19.0208 51.2223 19.8449 50.841 20.4967C50.4597 21.1486 49.9124 21.6344 49.1929 21.948C48.4734 22.2617 47.5878 22.4216 46.5424 22.4216H42.2991V22.4154ZM44.7774 20.1093H46.4624C46.9237 20.1093 47.3049 20.0355 47.6063 19.8941C47.9076 19.7526 48.1413 19.5251 48.295 19.2115C48.4488 18.904 48.5349 18.4981 48.541 17.9938C48.5595 17.6863 48.5779 17.4096 48.5841 17.1636C48.5902 16.9176 48.5902 16.6717 48.5841 16.4257C48.5779 16.1797 48.5656 15.9091 48.541 15.6078C48.5164 14.8821 48.3319 14.3532 47.9753 14.015C47.6186 13.6768 47.0836 13.5107 46.3825 13.5107H44.7836V20.1093H44.7774Z" fill="#018844"/>
<path d="M57.0338 22.5753C55.7731 22.5753 54.7707 22.2309 54.0205 21.5483C53.2702 20.8657 52.8828 19.851 52.8521 18.5042C52.8521 18.4304 52.8521 18.3321 52.8521 18.2152C52.8521 18.0984 52.8521 18.0061 52.8521 17.9446C52.8828 17.1021 53.0734 16.3765 53.4178 15.7738C53.7622 15.1711 54.248 14.7099 54.8568 14.3963C55.4718 14.0827 56.1913 13.9228 57.0092 13.9228C57.9501 13.9228 58.725 14.1072 59.3399 14.4824C59.9549 14.8575 60.4161 15.3618 60.7236 16.0013C61.0311 16.6409 61.191 17.3727 61.191 18.1968V18.5842C61.191 18.701 61.1541 18.7994 61.0803 18.8732C61.0065 18.947 60.9081 18.9839 60.7912 18.9839H55.6686C55.6686 18.9962 55.6686 19.0085 55.6686 19.0331C55.6686 19.0577 55.6686 19.0762 55.6686 19.0946C55.6809 19.4021 55.7362 19.685 55.8346 19.9433C55.933 20.2015 56.0868 20.4045 56.2836 20.5521C56.4803 20.6997 56.7263 20.7735 57.0092 20.7735C57.2244 20.7735 57.4028 20.7366 57.5442 20.6689C57.6857 20.6013 57.8087 20.5213 57.9071 20.4291C58.0055 20.3368 58.0792 20.263 58.1284 20.1954C58.2268 20.0785 58.3006 20.0048 58.3621 19.9802C58.4236 19.9556 58.5159 19.9371 58.645 19.9371H60.6314C60.7359 19.9371 60.8281 19.9679 60.8958 20.0355C60.9634 20.097 60.9942 20.1831 60.9819 20.2938C60.9696 20.4783 60.8773 20.6935 60.7113 20.9518C60.5391 21.2101 60.2931 21.4622 59.9672 21.7144C59.6413 21.9665 59.2354 22.1694 58.7434 22.3293C58.2514 22.4954 57.6795 22.5753 57.0338 22.5753ZM55.6686 17.4035H58.3744V17.3727C58.3744 17.0222 58.3252 16.7208 58.2207 16.4687C58.1161 16.2166 57.9624 16.0259 57.7533 15.8845C57.5442 15.7431 57.2982 15.6754 57.0092 15.6754C56.7325 15.6754 56.4926 15.7431 56.2897 15.8845C56.0868 16.0259 55.933 16.2166 55.8223 16.4687C55.7178 16.7208 55.6624 17.0222 55.6624 17.3727V17.4035H55.6686Z" fill="#018844"/>
<path d="M67.7955 22.5753C67.2052 22.5753 66.7132 22.4708 66.3073 22.274C65.9014 22.071 65.5693 21.8128 65.3172 21.5053V22.0157C65.3172 22.1202 65.2742 22.2186 65.1942 22.2986C65.1143 22.3785 65.022 22.4216 64.9113 22.4216H63.1033C62.9865 22.4216 62.8881 22.3785 62.8143 22.2986C62.7405 22.2186 62.7036 22.1264 62.7036 22.0157V11.4445C62.7036 11.3276 62.7405 11.2292 62.8143 11.1554C62.8881 11.0816 62.9865 11.0447 63.1033 11.0447H65.0589C65.1758 11.0447 65.2742 11.0816 65.348 11.1554C65.4218 11.2292 65.4587 11.3276 65.4587 11.4445V14.8698C65.7231 14.5931 66.049 14.3655 66.4364 14.1872C66.8239 14.0089 67.2728 13.9228 67.7955 13.9228C68.3305 13.9228 68.8041 14.0089 69.2099 14.1872C69.622 14.3655 69.9725 14.6115 70.2615 14.9375C70.5506 15.2634 70.7719 15.657 70.9318 16.1243C71.0917 16.5917 71.184 17.1021 71.2024 17.6679C71.2147 17.8831 71.2209 18.0738 71.2209 18.2337C71.2209 18.3997 71.2147 18.5904 71.2024 18.7994C71.184 19.396 71.0917 19.931 70.9318 20.3922C70.7719 20.8534 70.5444 21.2531 70.2492 21.5791C69.954 21.905 69.6035 22.151 69.1976 22.317C68.7979 22.4954 68.3244 22.5753 67.7955 22.5753ZM66.9284 20.4291C67.2912 20.4291 67.5741 20.3553 67.7771 20.2077C67.98 20.0601 68.1276 19.8572 68.2198 19.5989C68.3121 19.3406 68.3674 19.0577 68.3859 18.7502C68.4043 18.4182 68.4043 18.0861 68.3859 17.7601C68.3674 17.4527 68.3059 17.1698 68.2198 16.9115C68.1276 16.6532 67.98 16.4503 67.7771 16.3027C67.5741 16.1551 67.2912 16.0813 66.9284 16.0813C66.5963 16.0813 66.3258 16.1551 66.1105 16.2965C65.8953 16.438 65.7354 16.6286 65.6308 16.8562C65.5263 17.0837 65.4648 17.3358 65.4525 17.6003C65.4402 17.8032 65.4341 18 65.4341 18.1906C65.4341 18.3813 65.4402 18.5842 65.4525 18.7994C65.471 19.0885 65.5324 19.3529 65.6308 19.5989C65.7292 19.8449 65.883 20.0478 66.0982 20.2016C66.3073 20.3553 66.584 20.4291 66.9284 20.4291Z" fill="#018844"/>
<path d="M75.8639 22.5753C75.255 22.5753 74.7139 22.4339 74.2403 22.1572C73.7668 21.8804 73.3917 21.4684 73.1273 20.9334C72.8628 20.3922 72.7275 19.7342 72.7275 18.9532V14.4824C72.7275 14.3656 72.7644 14.2672 72.8382 14.1934C72.912 14.1196 73.0104 14.0827 73.1273 14.0827H75.132C75.2489 14.0827 75.3473 14.1196 75.4272 14.1934C75.5072 14.2672 75.5502 14.3656 75.5502 14.4824V18.8548C75.5502 19.9002 76.0176 20.423 76.9462 20.423C77.3828 20.423 77.7334 20.2877 77.9978 20.0171C78.2622 19.7465 78.3914 19.3591 78.3914 18.8548V14.4824C78.3914 14.3656 78.4283 14.2672 78.5021 14.1934C78.5759 14.1196 78.6742 14.0827 78.7911 14.0827H80.7959C80.9127 14.0827 81.0111 14.1196 81.0849 14.1934C81.1587 14.2672 81.1956 14.3656 81.1956 14.4824V22.0157C81.1956 22.1203 81.1587 22.2186 81.0849 22.2986C81.0111 22.3785 80.9127 22.4216 80.7959 22.4216H78.9387C78.8341 22.4216 78.7357 22.3785 78.6558 22.2986C78.5759 22.2186 78.5328 22.1264 78.5328 22.0157V21.4069C78.2561 21.7882 77.8932 22.0834 77.4505 22.2801C77.0015 22.4769 76.4727 22.5753 75.8639 22.5753Z" fill="#018844"/>
<path d="M87.1545 25.9392C86.3304 25.9392 85.6539 25.8346 85.1128 25.6194C84.5716 25.4042 84.1473 25.152 83.8337 24.8507C83.52 24.5494 83.2925 24.2542 83.151 23.959C83.0096 23.6638 82.9358 23.4301 82.9297 23.2641C82.9174 23.1472 82.9543 23.0488 83.0404 22.9689C83.1264 22.889 83.2248 22.8459 83.3417 22.8459H85.3772C85.4818 22.8459 85.5679 22.8705 85.6355 22.9258C85.697 22.9812 85.7523 23.0673 85.7954 23.1841C85.8569 23.301 85.9368 23.424 86.0168 23.547C86.1029 23.67 86.2259 23.7745 86.3919 23.8606C86.5579 23.9467 86.7855 23.9897 87.0745 23.9897C87.3943 23.9897 87.6587 23.9405 87.874 23.836C88.0892 23.7315 88.2491 23.5716 88.3536 23.3379C88.4582 23.1103 88.5135 22.8029 88.5135 22.4154V21.3454C88.2675 21.6098 87.9539 21.8312 87.5665 21.9911C87.1852 22.1571 86.7178 22.2371 86.1705 22.2371C85.6232 22.2371 85.1435 22.1571 84.7315 21.9973C84.3195 21.8374 83.9689 21.5975 83.6922 21.2777C83.4155 20.958 83.2002 20.5705 83.0465 20.1093C82.8928 19.6481 82.8005 19.1192 82.7636 18.5227C82.7513 18.246 82.7513 17.9631 82.7636 17.6741C82.7944 17.1083 82.8866 16.5917 83.0342 16.1305C83.1818 15.6631 83.397 15.2695 83.6799 14.9436C83.9628 14.6177 84.3133 14.3655 84.7315 14.1934C85.1497 14.015 85.6293 13.9289 86.1705 13.9289C86.7486 13.9289 87.2406 14.0396 87.6526 14.2549C88.0646 14.4762 88.4028 14.7468 88.6673 15.0789V14.4885C88.6673 14.384 88.7042 14.2856 88.778 14.2057C88.8518 14.1257 88.9502 14.0827 89.067 14.0827H90.9119C91.0287 14.0827 91.1271 14.1257 91.2071 14.2057C91.287 14.2856 91.3301 14.3778 91.3301 14.4885V22.194C91.3301 23.0058 91.1702 23.6884 90.8442 24.2419C90.5183 24.7953 90.0448 25.2197 89.4175 25.5087C88.7964 25.7977 88.04 25.9392 87.1545 25.9392ZM87.0438 20.1585C87.3881 20.1585 87.6649 20.0847 87.874 19.9371C88.0892 19.7895 88.2429 19.5927 88.3475 19.3591C88.4459 19.1254 88.5074 18.8732 88.5135 18.6088C88.5258 18.492 88.532 18.3259 88.532 18.1107C88.532 17.8954 88.5258 17.7356 88.5135 17.631C88.5012 17.3543 88.4459 17.096 88.3475 16.8623C88.2429 16.6286 88.0892 16.438 87.874 16.2965C87.6587 16.1551 87.382 16.0813 87.0438 16.0813C86.6932 16.0813 86.4104 16.1551 86.2013 16.3027C85.9922 16.4503 85.8446 16.6532 85.7523 16.9115C85.6601 17.1698 85.6047 17.4527 85.5863 17.7601C85.574 17.9938 85.574 18.2337 85.5863 18.4797C85.6047 18.7871 85.6662 19.07 85.7523 19.3283C85.8446 19.5866 85.9922 19.7895 86.2013 19.9371C86.4104 20.0847 86.6932 20.1585 87.0438 20.1585Z" fill="#018844"/>
<path d="M97.3078 25.9392C96.4837 25.9392 95.8073 25.8346 95.2661 25.6194C94.7249 25.4042 94.3006 25.152 93.987 24.8507C93.6733 24.5494 93.4458 24.2542 93.3044 23.959C93.1629 23.6638 93.0891 23.4301 93.083 23.2641C93.0707 23.1472 93.1076 23.0488 93.1937 22.9689C93.2798 22.889 93.3782 22.8459 93.495 22.8459H95.5305C95.6351 22.8459 95.7212 22.8705 95.7888 22.9258C95.8503 22.9812 95.9057 23.0673 95.9487 23.1841C96.0102 23.301 96.0902 23.424 96.1701 23.547C96.2562 23.67 96.3792 23.7745 96.5452 23.8606C96.7113 23.9467 96.9388 23.9897 97.2278 23.9897C97.5476 23.9897 97.8121 23.9405 98.0273 23.836C98.2425 23.7315 98.4024 23.5716 98.507 23.3379C98.6115 23.1103 98.6669 22.8029 98.6669 22.4154V21.3454C98.4209 21.6098 98.1072 21.8312 97.7198 21.9911C97.3385 22.1571 96.8712 22.2371 96.3238 22.2371C95.7765 22.2371 95.2969 22.1571 94.8848 21.9973C94.4728 21.8374 94.1223 21.5975 93.8455 21.2777C93.5688 20.958 93.3536 20.5705 93.1998 20.1093C93.0461 19.6481 92.9538 19.1192 92.9169 18.5227C92.9046 18.246 92.9046 17.9631 92.9169 17.6741C92.9477 17.1083 93.0399 16.5917 93.1875 16.1305C93.3351 15.6631 93.5504 15.2695 93.8332 14.9436C94.1161 14.6177 94.4666 14.3655 94.8848 14.1934C95.303 14.015 95.7827 13.9289 96.3238 13.9289C96.9019 13.9289 97.3939 14.0396 97.8059 14.2549C98.2179 14.4762 98.5562 14.7468 98.8206 15.0789V14.4885C98.8206 14.384 98.8575 14.2856 98.9313 14.2057C99.0051 14.1257 99.1035 14.0827 99.2203 14.0827H101.065C101.182 14.0827 101.28 14.1257 101.36 14.2057C101.44 14.2856 101.483 14.3778 101.483 14.4885V22.194C101.483 23.0058 101.324 23.6884 100.998 24.2419C100.672 24.7953 100.198 25.2197 99.5709 25.5087C98.9497 25.7977 98.1995 25.9392 97.3078 25.9392ZM97.1971 20.1585C97.5415 20.1585 97.8182 20.0847 98.0273 19.9371C98.2425 19.7895 98.3963 19.5927 98.5008 19.3591C98.5992 19.1254 98.6607 18.8732 98.6669 18.6088C98.6792 18.492 98.6853 18.3259 98.6853 18.1107C98.6853 17.8954 98.6792 17.7356 98.6669 17.631C98.6546 17.3543 98.5992 17.096 98.5008 16.8623C98.3963 16.6286 98.2425 16.438 98.0273 16.2965C97.8121 16.1551 97.5353 16.0813 97.1971 16.0813C96.8466 16.0813 96.5637 16.1551 96.3546 16.3027C96.1455 16.4503 95.9979 16.6532 95.9057 16.9115C95.8134 17.1698 95.7581 17.4527 95.7396 17.7601C95.7273 17.9938 95.7273 18.2337 95.7396 18.4797C95.7581 18.7871 95.8196 19.07 95.9057 19.3283C95.9979 19.5866 96.1455 19.7895 96.3546 19.9371C96.5637 20.0847 96.8466 20.1585 97.1971 20.1585Z" fill="#018844"/>
<path d="M107.221 22.5753C105.96 22.5753 104.958 22.2309 104.207 21.5483C103.457 20.8657 103.07 19.851 103.039 18.5042C103.039 18.4304 103.039 18.3321 103.039 18.2152C103.039 18.0984 103.039 18.0061 103.039 17.9446C103.07 17.1021 103.26 16.3765 103.605 15.7738C103.949 15.1711 104.435 14.7099 105.044 14.3963C105.659 14.0827 106.378 13.9228 107.196 13.9228C108.137 13.9228 108.912 14.1072 109.527 14.4824C110.142 14.8575 110.603 15.3618 110.911 16.0013C111.218 16.6409 111.378 17.3727 111.378 18.1968V18.5842C111.378 18.701 111.341 18.7994 111.267 18.8732C111.193 18.947 111.095 18.9839 110.978 18.9839H105.856C105.856 18.9962 105.856 19.0085 105.856 19.0331C105.856 19.0577 105.856 19.0762 105.856 19.0946C105.868 19.4021 105.923 19.685 106.022 19.9433C106.12 20.2015 106.274 20.4045 106.471 20.5521C106.667 20.6997 106.913 20.7735 107.202 20.7735C107.418 20.7735 107.596 20.7366 107.737 20.6689C107.879 20.6013 108.002 20.5213 108.1 20.4291C108.199 20.3368 108.272 20.263 108.322 20.1954C108.42 20.0785 108.494 20.0048 108.555 19.9802C108.617 19.9556 108.709 19.9371 108.838 19.9371H110.825C110.929 19.9371 111.021 19.9679 111.089 20.0355C111.157 20.097 111.187 20.1831 111.175 20.2938C111.163 20.4783 111.071 20.6935 110.904 20.9518C110.732 21.2101 110.486 21.4622 110.16 21.7144C109.834 21.9665 109.429 22.1694 108.937 22.3293C108.445 22.4954 107.873 22.5753 107.221 22.5753ZM105.862 17.4035H108.568V17.3727C108.568 17.0222 108.518 16.7208 108.414 16.4687C108.309 16.2166 108.156 16.0259 107.946 15.8845C107.737 15.7431 107.491 15.6754 107.202 15.6754C106.926 15.6754 106.686 15.7431 106.483 15.8845C106.28 16.0259 106.126 16.2166 106.015 16.4687C105.911 16.7208 105.856 17.0222 105.856 17.3727V17.4035H105.862Z" fill="#018844"/>
<path d="M113.297 22.4154C113.18 22.4154 113.081 22.3724 113.008 22.2924C112.934 22.2125 112.897 22.1203 112.897 22.0096V14.4885C112.897 14.384 112.934 14.2856 113.008 14.2057C113.081 14.1257 113.18 14.0827 113.297 14.0827H115.142C115.258 14.0827 115.357 14.1257 115.437 14.2057C115.517 14.2856 115.56 14.3779 115.56 14.4885V15.1281C115.836 14.796 116.175 14.5439 116.574 14.3594C116.974 14.1749 117.423 14.0888 117.927 14.0888H118.635C118.751 14.0888 118.85 14.1257 118.924 14.1995C118.997 14.2733 119.034 14.3717 119.034 14.4885V16.1367C119.034 16.2412 118.997 16.3396 118.924 16.4195C118.85 16.4995 118.751 16.5425 118.635 16.5425H117.079C116.642 16.5425 116.304 16.6655 116.064 16.9054C115.824 17.1452 115.701 17.4834 115.701 17.92V22.0157C115.701 22.1203 115.658 22.2186 115.578 22.2986C115.498 22.3785 115.4 22.4216 115.283 22.4216H113.297V22.4154Z" fill="#018844"/>
</svg>
