<svg width="192" height="96" viewBox="0 0 192 96" fill="none" xmlns="http://www.w3.org/2000/svg">
<path d="M78.0574 94.6605C77.8478 93.9746 77.6097 93.2697 77.343 92.5458C77.0953 91.8218 76.8476 91.0979 76.6 90.3739H68.8842C68.6366 91.0979 68.3794 91.8218 68.1127 92.5458C67.865 93.2697 67.6364 93.9746 67.4268 94.6605H62.7974C63.5404 92.5267 64.2453 90.5549 64.9121 88.7451C65.5789 86.9352 66.2266 85.2301 66.8553 83.6298C67.503 82.0295 68.1317 80.515 68.7414 79.0861C69.37 77.6382 70.0178 76.2285 70.6846 74.8568H74.9425C75.5902 76.2285 76.2285 77.6382 76.8572 79.0861C77.4858 80.515 78.1145 82.0295 78.7432 83.6298C79.391 85.2301 80.0482 86.9352 80.715 88.7451C81.3818 90.5549 82.0867 92.5267 82.8297 94.6605H78.0574ZM72.7135 79.3433C72.6183 79.6291 72.4754 80.0196 72.2849 80.515C72.0944 81.0103 71.8753 81.5818 71.6276 82.2296C71.3799 82.8773 71.1037 83.5917 70.7989 84.3728C70.5131 85.1539 70.2178 85.9731 69.913 86.8304H75.5426C75.2378 85.9731 74.9425 85.1539 74.6567 84.3728C74.371 83.5917 74.0947 82.8773 73.828 82.2296C73.5804 81.5818 73.3613 81.0103 73.1708 80.515C72.9802 80.0196 72.8278 79.6291 72.7135 79.3433Z" fill="black"/>
<path d="M91.3244 91.2598C91.953 91.2598 92.4674 91.2122 92.8675 91.1169C93.2866 91.0026 93.62 90.8598 93.8677 90.6883C94.1153 90.4978 94.2868 90.2787 94.3821 90.031C94.4773 89.7834 94.5249 89.5071 94.5249 89.2023C94.5249 88.5546 94.2201 88.0211 93.6105 87.602C93.0009 87.1638 91.953 86.6971 90.4671 86.2018C89.8193 85.9731 89.1716 85.7159 88.5238 85.4302C87.8761 85.1254 87.295 84.7539 86.7806 84.3157C86.2663 83.8585 85.8471 83.3155 85.5233 82.6868C85.1994 82.0391 85.0375 81.258 85.0375 80.3435C85.0375 79.4291 85.2089 78.6099 85.5518 77.8859C85.8948 77.1429 86.3806 76.5142 87.0093 75.9998C87.638 75.4855 88.4 75.0949 89.2954 74.8282C90.1908 74.5424 91.2005 74.3996 92.3245 74.3996C93.6581 74.3996 94.8107 74.5424 95.7823 74.8282C96.7539 75.114 97.5541 75.4283 98.1828 75.7712L96.8968 79.2862C96.3443 79.0004 95.7252 78.7527 95.0393 78.5432C94.3725 78.3146 93.5629 78.2003 92.6103 78.2003C91.5434 78.2003 90.7719 78.3527 90.2956 78.6575C89.8384 78.9433 89.6097 79.391 89.6097 80.0006C89.6097 80.3626 89.6955 80.6674 89.8669 80.9151C90.0384 81.1627 90.2765 81.3913 90.5814 81.6009C90.9052 81.7914 91.2672 81.9724 91.6673 82.1439C92.0864 82.2963 92.5436 82.4582 93.039 82.6297C94.0677 83.0107 94.9631 83.3917 95.7252 83.7727C96.4872 84.1347 97.1159 84.5633 97.6112 85.0587C98.1256 85.554 98.5066 86.1351 98.7543 86.8019C99.002 87.4687 99.1258 88.2783 99.1258 89.2309C99.1258 91.0788 98.4781 92.5172 97.1826 93.546C95.8871 94.5557 93.9344 95.0605 91.3244 95.0605C90.448 95.0605 89.6574 95.0034 88.9525 94.8891C88.2476 94.7938 87.6189 94.67 87.0664 94.5176C86.533 94.3652 86.0662 94.2032 85.6662 94.0318C85.2851 93.8603 84.9613 93.6984 84.6945 93.546L85.9519 90.0024C86.5425 90.3263 87.2665 90.6216 88.1238 90.8883C89.0001 91.136 90.067 91.2598 91.3244 91.2598Z" fill="black"/>
<path d="M102.556 74.8568H107.014V94.6605H102.556V74.8568Z" fill="black"/>
<path d="M124.857 94.6605C124.648 93.9746 124.41 93.2697 124.143 92.5458C123.895 91.8218 123.648 91.0979 123.4 90.3739H115.684C115.437 91.0979 115.179 91.8218 114.913 92.5458C114.665 93.2697 114.436 93.9746 114.227 94.6605H109.597C110.34 92.5267 111.045 90.5549 111.712 88.7451C112.379 86.9352 113.027 85.2301 113.655 83.6298C114.303 82.0295 114.932 80.515 115.541 79.0861C116.17 77.6382 116.818 76.2285 117.485 74.8568H121.743C122.39 76.2285 123.028 77.6382 123.657 79.0861C124.286 80.515 124.915 82.0295 125.543 83.6298C126.191 85.2301 126.848 86.9352 127.515 88.7451C128.182 90.5549 128.887 92.5267 129.63 94.6605H124.857ZM119.514 79.3433C119.418 79.6291 119.275 80.0196 119.085 80.515C118.894 81.0103 118.675 81.5818 118.428 82.2296C118.18 82.8773 117.904 83.5917 117.599 84.3728C117.313 85.1539 117.018 85.9731 116.713 86.8304H122.343C122.038 85.9731 121.743 85.1539 121.457 84.3728C121.171 83.5917 120.895 82.8773 120.628 82.2296C120.38 81.5818 120.161 81.0103 119.971 80.515C119.78 80.0196 119.628 79.6291 119.514 79.3433Z" fill="black"/>
<path fill-rule="evenodd" clip-rule="evenodd" d="M41.0985 0H12.368C5.53728 0 0 5.43761 0 12.1451V48.5805C0 55.2881 5.53728 60.7256 12.368 60.7256H42.4613C46.81 60.7256 50.8393 58.4829 53.0731 54.8188L60.0837 43.3193C61.233 41.4342 61.84 39.2782 61.84 37.081V32.7017C61.84 31.1566 61.5397 29.6257 60.9553 28.1911L52.5818 7.63454C50.7036 3.02353 46.1558 0 41.0985 0ZM36.0196 12.5247H18.8928C14.8209 12.5247 11.52 15.7193 11.52 19.6599V41.0657C11.52 45.0064 14.8209 48.2009 18.8928 48.2009H36.832C39.4243 48.2009 41.8263 46.8833 43.1579 44.7307L47.3371 37.9748C48.0221 36.8672 48.384 35.6006 48.384 34.3097V31.7369C48.384 30.8291 48.205 29.9297 47.8566 29.0869L42.865 17.0099C41.7454 14.301 39.0343 12.5247 36.0196 12.5247Z" fill="black"/>
<path fill-rule="evenodd" clip-rule="evenodd" d="M145.307 7.63454L130.465 44.0699C127.215 52.0475 133.198 60.7256 141.948 60.7256H179.62C188.37 60.7256 194.353 52.0475 191.103 44.0699L176.261 7.63454C174.384 3.02353 169.836 0 164.779 0H156.789C151.732 0 147.184 3.02353 145.307 7.63454ZM151.851 19.9031L143.361 40.6257C141.502 45.163 144.925 50.0986 149.929 50.0986H171.479C176.483 50.0986 179.906 45.163 178.047 40.6257L169.557 19.9031C168.483 17.2806 165.882 15.5609 162.989 15.5609H158.419C155.526 15.5609 152.925 17.2806 151.851 19.9031Z" fill="#FF3838"/>
<path d="M92.4672 54.653V18.2177C92.4672 14.8639 89.5096 12.1451 85.8624 12.1451H72.6528C69.0056 12.1451 66.048 9.42631 66.048 6.07256C66.048 2.7188 69.0056 0 72.6528 0H125.491C129.138 0 132.096 2.7188 132.096 6.07256C132.096 9.42631 129.138 12.1451 125.491 12.1451H112.282C108.634 12.1451 105.677 14.8639 105.677 18.2177V54.653C105.677 58.0068 102.719 60.7256 99.072 60.7256C95.4248 60.7256 92.4672 58.0068 92.4672 54.653Z" fill="black"/>
</svg>
