<svg width="111" height="36" viewBox="0 0 111 36" fill="none" xmlns="http://www.w3.org/2000/svg">
<path d="M7.08787 19.8141C7.08787 21.0071 7.3523 21.9234 7.69053 22.4769C8.13946 23.2026 8.80977 23.51 9.49238 23.51C10.3718 23.51 11.1774 23.2887 12.7271 21.1486C13.9693 19.4267 15.4329 17.016 16.423 15.5032L18.0896 12.9388C19.2519 11.1554 20.5925 9.17524 22.1299 7.83462C23.3844 6.73998 24.7435 6.13116 26.1026 6.13116C28.3902 6.13116 30.5733 7.45949 32.2399 9.94394C34.0663 12.6682 34.9519 16.0997 34.9519 19.6419C34.9519 21.7451 34.5399 23.2948 33.8326 24.5186C33.15 25.6993 31.8217 26.8801 29.5832 26.8801V23.51C31.5019 23.51 31.9755 21.7513 31.9755 19.7342C31.9755 16.8623 31.3051 13.6768 29.8292 11.4014C28.7838 9.78405 27.4247 8.80011 25.9365 8.80011C24.3253 8.80011 23.0216 10.0177 21.5641 12.1886C20.7893 13.3385 19.9898 14.7468 19.0981 16.3334L18.1142 18.0799C16.134 21.5852 15.6359 22.3847 14.6458 23.7007C12.9116 26.0068 11.4357 26.8862 9.48623 26.8862C7.17396 26.8862 5.7165 25.8838 4.80635 24.3772C4.06839 23.1472 3.70557 21.536 3.70557 19.6973L7.08787 19.8141Z" fill="#0081FB"/>
<path d="M6.37451 10.1777C7.92422 7.79161 10.1565 6.12506 12.7148 6.12506C14.1969 6.12506 15.6728 6.56169 17.2102 7.82236C18.8952 9.19988 20.6909 11.4629 22.9293 15.1896L23.735 16.5303C25.6721 19.7588 26.779 21.4192 27.4247 22.2064C28.2549 23.2149 28.8392 23.5101 29.5894 23.5101C31.5081 23.5101 31.9816 21.7513 31.9816 19.7342L34.9581 19.642C34.9581 21.7451 34.546 23.2949 33.8388 24.5186C33.1562 25.6994 31.8279 26.8801 29.5894 26.8801C28.1996 26.8801 26.9635 26.5788 25.6044 25.2935C24.559 24.3095 23.3352 22.5569 22.3882 20.9764L19.5901 16.2966C18.1818 13.9474 16.8966 12.1948 16.1463 11.4015C15.3407 10.5467 14.3137 9.51966 12.6656 9.51966C11.3311 9.51966 10.1996 10.4544 9.25254 11.8873L6.37451 10.1777Z" fill="url(#paint0_linear_207_578)"/>
<path d="M12.6596 9.51966C11.3252 9.51966 10.1936 10.4544 9.24659 11.8873C7.90597 13.9105 7.08807 16.9238 7.08807 19.8142C7.08807 21.0072 7.3525 21.9235 7.69073 22.477L4.8127 24.371C4.07474 23.1411 3.71191 21.5299 3.71191 19.6912C3.71191 16.3519 4.62821 12.8651 6.37471 10.1777C7.92442 7.79161 10.1567 6.12506 12.715 6.12506L12.6596 9.51966Z" fill="url(#paint1_linear_207_578)"/>
<path d="M41.5198 6.78308H45.4248L52.0603 18.7933L58.7019 6.78308H62.5208V26.5173H59.3353V11.3892L53.5116 21.862H50.5229L44.6992 11.3892V26.5111H41.5137V6.78308H41.5198ZM72.5017 14.1381C70.2202 14.1381 68.8427 15.86 68.5106 17.9877H76.2653C76.1054 15.7923 74.8447 14.1381 72.5017 14.1381ZM65.3558 19.1992C65.3558 14.7223 68.2523 11.463 72.557 11.463C76.7941 11.463 79.3216 14.6792 79.3216 19.439V20.3123H68.5106C68.8919 22.6307 70.4293 24.1866 72.9076 24.1866C74.8816 24.1866 76.1177 23.5839 77.2923 22.4831L78.9834 24.5555C77.3907 26.0192 75.3613 26.8678 72.7969 26.8678C68.1354 26.8678 65.3558 23.4671 65.3558 19.1992ZM83.1898 14.4209H80.2564V11.8135H83.1898V7.50259H86.2646V11.8135H90.7169V14.4209H86.2646V21.0318C86.2646 23.2887 86.9841 24.0882 88.7613 24.0882C89.5731 24.0882 90.0343 24.0205 90.7231 23.9037V26.4804C89.8683 26.7202 89.0565 26.8309 88.171 26.8309C84.8563 26.8309 83.1959 25.0168 83.1959 21.3885L83.1898 14.4209ZM103.656 16.9607C103.041 15.4049 101.663 14.2549 99.64 14.2549C97.008 14.2549 95.3291 16.1182 95.3291 19.1623C95.3291 22.1264 96.8789 24.082 99.517 24.082C101.589 24.082 103.072 22.8767 103.662 21.3762V16.9607H103.656ZM106.724 26.5173H103.705V24.4571C102.862 25.6686 101.325 26.8678 98.8406 26.8678C94.8433 26.8678 92.1744 23.5224 92.1744 19.1562C92.1744 14.753 94.911 11.4568 99.0128 11.4568C101.042 11.4568 102.629 12.2686 103.705 13.7014V11.8135H106.724V26.5173Z" fill="#192830"/>
<defs>
<linearGradient id="paint0_linear_207_578" x1="10.4874" y1="15.9654" x2="32.0028" y2="17.052" gradientUnits="userSpaceOnUse">
<stop stop-color="#0064E1"/>
<stop offset="0.4" stop-color="#0064E1"/>
<stop offset="0.83" stop-color="#0073EE"/>
<stop offset="1" stop-color="#0082FB"/>
</linearGradient>
<linearGradient id="paint1_linear_207_578" x1="8.21537" y1="21.23" x2="8.21537" y2="13.2976" gradientUnits="userSpaceOnUse">
<stop stop-color="#0082FB"/>
<stop offset="1" stop-color="#0064E0"/>
</linearGradient>
</defs>
</svg>
