<svg width="50" height="11" viewBox="0 0 50 11" fill="none" xmlns="http://www.w3.org/2000/svg">
<path d="M19.0382 6.58903C19.0382 7.49278 18.9232 8.60842 17.9673 9.56838C17.0424 10.4981 15.9715 10.6408 14.9625 10.6408C13.9491 10.6408 12.8826 10.4981 11.9577 9.56838C11.0062 8.60842 10.8867 7.49278 10.8867 6.58903V1.50382C10.8867 1.2314 11.1124 1.01086 11.3912 1.01086H12.6038C12.8826 1.01086 13.1083 1.2314 13.1083 1.50382V6.52849C13.1083 6.93929 13.1392 7.63116 13.6127 8.11114C14.0022 8.52193 14.5376 8.60409 14.9581 8.60409C15.3785 8.60409 15.9095 8.51761 16.3034 8.11114C16.7813 7.63116 16.8079 6.93929 16.8079 6.52849V1.50382C16.8079 1.2314 17.0336 1.01086 17.3124 1.01086H18.5249C18.8037 1.01086 19.0294 1.2314 19.0294 1.50382V6.58903H19.0382Z" fill="black"/>
<path d="M23.5963 1.01086C24.8221 1.01086 25.5921 1.40436 26.0524 1.82813C26.4551 2.20866 26.8888 2.88755 26.8888 3.92967C26.8888 4.52208 26.7604 5.25719 26.1364 5.8496C25.9329 6.03986 25.6806 6.21715 25.393 6.35553C25.1053 6.4939 25.008 6.84848 25.2027 7.09928L27.1499 9.63324C27.4021 9.95755 27.1631 10.4246 26.7471 10.4246H25.3089C25.1407 10.4246 24.9858 10.3424 24.8929 10.2084L23.3662 8.02898C23.0874 7.62683 22.4413 7.82142 22.4413 8.31005V9.93161C22.4413 10.204 22.2156 10.4246 21.9368 10.4246H20.7242C20.4454 10.4246 20.2197 10.204 20.2197 9.93161V1.50382C20.2197 1.2314 20.4454 1.01086 20.7242 1.01086H23.5963ZM22.4413 4.79451C22.4413 5.06693 22.667 5.28746 22.9458 5.28746C23.3485 5.28746 23.8972 5.24422 24.2734 4.87666C24.4327 4.72099 24.6362 4.42695 24.6362 3.95994C24.6362 3.42375 24.3751 3.14268 24.1893 2.99998C23.8264 2.73188 23.2511 2.70161 22.959 2.70161H22.9458C22.667 2.70161 22.4413 2.92214 22.4413 3.19457V4.79451Z" fill="black"/>
<path d="M33.4955 2.84866C33.345 3.08649 33.0264 3.15136 32.7919 3.00433C32.252 2.66272 31.805 2.63678 31.5882 2.63678C31.2828 2.63678 30.9111 2.68002 30.65 2.96109C30.504 3.10379 30.4066 3.31567 30.4066 3.5535C30.4066 3.77836 30.4774 3.947 30.6234 4.07673C30.8536 4.28861 31.1855 4.37509 31.836 4.61292L32.5573 4.88102C32.9777 5.03669 33.4955 5.24857 33.8717 5.59883C34.4337 6.12205 34.5797 6.79662 34.5797 7.35012C34.5797 8.32305 34.2345 9.17059 33.7256 9.68084C32.8715 10.5543 31.6324 10.6408 30.9952 10.6408C30.3004 10.6408 29.6941 10.5413 29.0878 10.2473C28.7338 10.0743 28.3444 9.80192 28.0169 9.52949C27.8178 9.36085 27.7824 9.07113 27.9372 8.86357L28.4948 8.11117C28.6674 7.87766 29.0038 7.83875 29.2295 8.02468C29.402 8.16738 29.5791 8.30143 29.7207 8.38359C30.0968 8.60845 30.4863 8.72087 30.9332 8.72087C31.2209 8.72087 31.628 8.66466 31.9466 8.39656C32.1325 8.24089 32.2918 7.98577 32.2918 7.63551C32.2918 7.32417 32.1635 7.12526 31.9599 6.95662C31.6988 6.74473 31.1058 6.53285 30.8314 6.43339L30.0349 6.1653C29.5879 6.00963 29.0657 5.81071 28.6896 5.41722C28.1851 4.89399 28.1098 4.2324 28.1098 3.77836C28.1098 2.9438 28.3709 2.23896 28.9462 1.65952C29.6366 0.980626 30.4464 0.799011 31.3404 0.799011C31.9201 0.799011 32.8096 0.885494 33.7743 1.45196C34.0133 1.59466 34.0929 1.90167 33.9425 2.13518L33.4955 2.84866Z" fill="black"/>
<path d="M38.4036 3.86913L40.6473 1.19248C40.7446 1.08005 40.8862 1.01086 41.0367 1.01086H42.4174C42.8511 1.01086 43.0812 1.50382 42.8024 1.82381L39.8905 5.15341C39.7312 5.33503 39.7268 5.60312 39.8861 5.78906L43.1299 9.61594C43.4043 9.93593 43.1697 10.4246 42.7405 10.4246H41.196C41.0411 10.4246 40.8995 10.3554 40.8022 10.2429L38.3992 7.33711C38.0983 6.97388 37.5008 7.18144 37.5008 7.64845V9.93593C37.5008 10.2084 37.2751 10.4289 36.9963 10.4289H35.7838C35.505 10.4289 35.2793 10.2084 35.2793 9.93593V1.50382C35.2793 1.2314 35.505 1.01086 35.7838 1.01086H36.9963C37.2751 1.01086 37.5008 1.2314 37.5008 1.50382V3.55347C37.5097 4.01616 38.1027 4.22372 38.4036 3.86913Z" fill="black"/>
<path d="M49.0548 1.01086H47.6476C47.475 1.01086 47.3157 1.09735 47.2227 1.23572L45.8597 3.2897C45.6606 3.59239 45.2092 3.59239 45.01 3.2897L44.1515 1.99677C44.0453 1.86705 43.9435 1.85408 43.8417 1.97083L42.6513 3.20321C42.5495 3.32429 42.5628 3.47564 42.6823 3.65293L44.2356 5.91014C44.2931 5.9923 44.3197 6.08743 44.3197 6.18689V9.93161C44.3197 10.204 44.5454 10.4246 44.8242 10.4246H46.0367C46.3155 10.4246 46.5412 10.204 46.5412 9.93161V6.18689C46.5412 6.08743 46.5722 5.9923 46.6253 5.91014L49.462 1.78057C49.6965 1.45193 49.4575 1.01086 49.0548 1.01086Z" fill="black"/>
<path d="M5.01394 3.12108C6.53184 3.12108 7.76652 4.32753 7.76652 5.81071C7.76652 7.2939 6.53184 8.50034 5.01394 8.50034C3.49604 8.50034 2.26136 7.2939 2.26136 5.81071C2.26136 4.32753 3.49604 3.12108 5.01394 3.12108ZM5.01394 0.911438C2.24366 0.911438 0 3.10811 0 5.81071C0 8.51331 2.24366 10.71 5.01394 10.71C7.78422 10.71 10.0279 8.51764 10.0279 5.81071C10.0279 3.10379 7.78422 0.911438 5.01394 0.911438Z" fill="black"/>
</svg>
