<svg width="111" height="36" viewBox="0 0 111 36" fill="none" xmlns="http://www.w3.org/2000/svg">
<path fill-rule="evenodd" clip-rule="evenodd" d="M24.6141 24.4325C24.362 24.1004 24.2697 23.67 24.2636 23.2579C24.2574 22.7844 24.3681 22.2863 24.694 21.9173C25.0384 21.5114 25.5058 21.1486 25.6103 20.5951C25.678 20.1647 25.6841 19.7034 25.4689 19.3099C25.2168 18.7749 24.6325 18.4858 24.4173 17.9324C24.2144 17.3973 24.2082 16.7824 24.3989 16.2412C24.6325 15.5955 25.3397 15.2696 25.555 14.6238C25.6841 14.2057 25.6841 13.7444 25.555 13.3263C25.3336 12.6744 24.6141 12.3546 24.3989 11.7028C24.1959 11.1124 24.1898 10.3867 24.5956 9.87632C24.7924 9.61804 25.0507 9.40895 25.2475 9.15067C25.6411 8.671 25.721 8.00068 25.6103 7.41032C25.4135 6.56782 24.485 5.9836 23.6302 6.18654C23.1443 6.27879 22.72 6.61087 22.4802 7.03519C22.1358 7.67475 22.2403 8.5357 22.7631 9.05842C23.0459 9.35361 23.3473 9.65494 23.5195 10.0301C23.7101 10.4298 23.6547 10.891 23.6425 11.3215C23.5871 11.9365 23.1074 12.3669 22.7139 12.7974C22.2403 13.2955 22.1727 14.0642 22.4002 14.6853C22.6339 15.2573 23.2243 15.5832 23.4826 16.1367C23.6978 16.5179 23.6486 16.9669 23.6486 17.385C23.6424 17.754 23.4641 18.0984 23.2366 18.3813C22.9783 18.7195 22.6093 18.9778 22.4371 19.3775C22.2219 19.8756 22.228 20.4537 22.4494 20.9518C22.7016 21.4622 23.2243 21.7697 23.4826 22.274C23.7224 22.7106 23.667 23.221 23.6425 23.7007C23.5687 24.3034 23.0828 24.7216 22.7016 25.1459C22.1173 25.7854 22.1419 26.8924 22.7815 27.4889C23.1259 27.8333 23.624 28.0239 24.116 27.9809C24.6079 27.9378 25.0569 27.6672 25.352 27.286C25.6903 26.8186 25.7333 26.1913 25.555 25.6624C25.3828 25.1459 24.9154 24.8445 24.6141 24.4325Z" fill="#24BEE1"/>
<path fill-rule="evenodd" clip-rule="evenodd" d="M21.9455 22.1203C21.6381 21.7636 21.2383 21.4623 21.0661 21.0133C20.8509 20.4599 20.8509 19.8141 21.0723 19.2607C21.2322 18.8671 21.5704 18.6027 21.841 18.289C22.0808 18.0185 22.2592 17.6802 22.2715 17.3174C22.2899 16.9607 22.2961 16.5794 22.1239 16.2535C21.8902 15.7431 21.3552 15.4602 21.1153 14.9621C20.8571 14.4394 20.8386 13.8121 21.0047 13.2586C21.1276 12.8528 21.429 12.533 21.7242 12.2439C22.0747 11.9057 22.3022 11.4383 22.2715 10.9464C22.3084 10.3867 22.0255 9.82098 21.5397 9.51965C21.1707 9.24906 20.6972 9.19372 20.2544 9.26751C19.7993 9.37206 19.375 9.64879 19.1413 10.0608C18.883 10.4728 18.8892 10.9833 18.9814 11.4445C19.1536 12.1209 19.8547 12.453 20.1314 13.0741C20.3897 13.6707 20.3774 14.3779 20.0884 14.9621C19.8239 15.4848 19.2643 15.7984 19.0429 16.3458C18.9015 16.6532 18.9261 16.9976 18.9322 17.3235C18.9445 17.6433 19.086 17.9385 19.2828 18.1845C19.5656 18.5289 19.9285 18.8056 20.1191 19.2176C20.3958 19.808 20.3774 20.5152 20.1068 21.0994C19.8301 21.7021 19.1352 22.028 18.9814 22.6922C18.8953 23.135 18.8892 23.6331 19.129 24.039C19.4303 24.5494 19.9961 24.9061 20.5988 24.8938C21.3736 24.9122 22.1054 24.3218 22.2469 23.5716C22.3268 23.0673 22.2776 22.52 21.9455 22.1203ZM27.7262 20.8596C27.5786 20.343 27.5848 19.765 27.7877 19.2607C28.0152 18.7134 28.5749 18.412 28.8331 17.8832C29.0791 17.3912 29.0853 16.7824 28.8577 16.2843C28.6056 15.7123 27.9845 15.3987 27.7631 14.8083C27.5725 14.2918 27.5663 13.7076 27.7447 13.1848C27.9107 12.6929 28.3658 12.3854 28.6671 11.9795C29.0238 11.506 29.1222 10.8541 28.9008 10.3068C28.6302 9.54425 27.7447 9.08302 26.9514 9.27366C26.3487 9.40896 25.8321 9.88863 25.6907 10.4851C25.5984 10.8357 25.623 11.2108 25.7399 11.549C25.992 12.2378 26.7546 12.5945 26.9452 13.3078C27.0743 13.8182 27.0743 14.3779 26.8653 14.8637C26.6131 15.4172 26.0351 15.7431 25.7768 16.2904C25.5984 16.727 25.58 17.2313 25.7276 17.6802C25.9613 18.3567 26.7054 18.7072 26.9206 19.3898C27.0743 19.8756 27.0682 20.4168 26.9145 20.9026C26.6992 21.5483 26.0166 21.8743 25.7645 22.4954C25.5615 22.9935 25.58 23.5839 25.8567 24.0513C26.072 24.3895 26.3979 24.6662 26.7853 24.7954C27.2773 24.9553 27.843 24.8876 28.2674 24.5863C28.6855 24.3157 28.9377 23.8483 29.0053 23.3686C29.0545 22.8582 28.8823 22.3355 28.5318 21.9604C28.2305 21.6344 27.8615 21.3147 27.7262 20.8596Z" fill="#24BEE1"/>
<path fill-rule="evenodd" clip-rule="evenodd" d="M31.016 17.4404C31.0099 17.0161 30.9545 16.561 31.1574 16.1674C31.4157 15.577 32.0614 15.2511 32.2828 14.6361C32.5165 13.9966 32.3751 13.2217 31.8462 12.7667C31.4465 12.3669 30.8254 12.2562 30.2781 12.3669C29.8168 12.4838 29.4048 12.7974 29.1896 13.2217C28.9866 13.5907 28.9866 14.0273 29.0481 14.4271C29.1527 14.9559 29.5831 15.3188 29.9337 15.7062C30.4564 16.2781 30.5117 17.1452 30.2781 17.8524C30.069 18.4612 29.4294 18.781 29.1711 19.3591C29.0051 19.6788 28.9928 20.054 29.0297 20.4045C29.1342 21.0133 29.6016 21.5668 30.2104 21.7328C30.6839 21.8681 31.2189 21.8005 31.631 21.5299C31.9999 21.2839 32.2767 20.8965 32.3505 20.466C32.4796 19.8941 32.289 19.273 31.8708 18.8609C31.4834 18.4674 31.0591 18.0184 31.016 17.4404Z" fill="#24BEE1"/>
<path fill-rule="evenodd" clip-rule="evenodd" d="M35.7021 17.0345C35.5053 16.1244 34.4353 15.5155 33.5436 15.8353C32.8794 16.0383 32.3567 16.684 32.3874 17.3789C32.3198 18.1845 32.9716 18.9286 33.7649 19.0639C34.4722 19.1869 35.2409 18.8179 35.5545 18.1783C35.7574 17.8278 35.7636 17.4158 35.7021 17.0345ZM18.7783 19.3775C18.5938 18.9101 18.1326 18.6457 17.8681 18.2337C17.4746 17.6372 17.4438 16.8377 17.7082 16.1859C17.9481 15.5955 18.5938 15.2819 18.809 14.6792C18.932 14.3348 18.9874 13.9535 18.8828 13.5969C18.7537 12.9757 18.2125 12.4715 17.5914 12.3485C17.2778 12.3177 16.9457 12.3054 16.6444 12.4346C15.9556 12.656 15.5005 13.3939 15.5682 14.1011C15.5497 14.6976 15.9556 15.1835 16.3615 15.577C16.6075 15.7984 16.7489 16.0998 16.8903 16.3949C16.9641 16.8931 17.001 17.4158 16.8165 17.9016C16.5583 18.5227 15.9003 18.8548 15.6666 19.4821C15.5436 19.7711 15.5559 20.097 15.5805 20.4045C15.6666 21.0072 16.1339 21.5237 16.712 21.7267C17.0072 21.8066 17.3147 21.8374 17.616 21.7759C18.2433 21.6467 18.7844 21.1302 18.8951 20.4968C18.9874 20.1216 18.9197 19.7281 18.7783 19.3775Z" fill="#24BEE1"/>
<path fill-rule="evenodd" clip-rule="evenodd" d="M15.568 17.3727C15.5741 16.6963 15.0883 16.0751 14.461 15.8476C14.1044 15.7123 13.7169 15.7246 13.348 15.823C13.0036 15.9706 12.6592 16.1797 12.4686 16.5118C12.241 16.8992 12.1119 17.3727 12.2533 17.8155C12.3702 18.3444 12.776 18.781 13.2865 18.9716C13.9322 19.2361 14.7193 19.0147 15.1683 18.4981C15.4327 18.1906 15.5926 17.7847 15.568 17.3727Z" fill="#24BEE1"/>
<path fill-rule="evenodd" clip-rule="evenodd" d="M47.8785 17.7355C48.2597 17.7355 48.6041 17.6618 48.9116 17.5203C49.2191 17.3789 49.4835 17.1821 49.6988 16.9361C49.914 16.6901 50.08 16.4134 50.203 16.0936C50.3199 15.7738 50.3814 15.4356 50.3814 15.0728C50.3814 14.7099 50.3199 14.3717 50.203 14.0519C50.0862 13.7321 49.914 13.4492 49.6988 13.2094C49.4835 12.9634 49.2191 12.7728 48.9116 12.6313C48.6041 12.4899 48.2597 12.4161 47.8785 12.4161H45.3018V17.7417H47.8785V17.7355ZM43.1187 10.479H47.8785C48.5857 10.479 49.2252 10.602 49.8033 10.8418C50.3814 11.0878 50.8733 11.4199 51.2792 11.8442C51.6912 12.2685 52.0049 12.7605 52.2263 13.314C52.4477 13.8674 52.5583 14.4516 52.5583 15.0666C52.5583 15.6939 52.4477 16.2781 52.2263 16.8316C52.0049 17.3789 51.6912 17.8708 51.2792 18.2952C50.8672 18.7195 50.3752 19.0516 49.8033 19.2976C49.2314 19.5435 48.5857 19.6604 47.8785 19.6604H45.3018V23.5962H43.1187V10.479ZM57.7363 22.0095C58.1299 22.0095 58.4866 21.9358 58.8064 21.782C59.1262 21.6344 59.4029 21.4315 59.6304 21.1793C59.858 20.9272 60.0363 20.6382 60.1593 20.2999C60.2884 19.9617 60.3499 19.605 60.3499 19.2299C60.3499 18.8548 60.2884 18.4981 60.1593 18.1599C60.0302 17.8216 59.858 17.5326 59.6304 17.2805C59.4029 17.0283 59.1262 16.8316 58.8064 16.684C58.4866 16.5364 58.1238 16.4564 57.7363 16.4564C57.3428 16.4564 56.9922 16.5302 56.6725 16.684C56.3588 16.8316 56.0821 17.0345 55.8546 17.2805C55.627 17.5326 55.4548 17.8216 55.3318 18.1599C55.2088 18.4981 55.1535 18.8548 55.1535 19.2299C55.1535 19.605 55.215 19.9617 55.3318 20.2999C55.4487 20.6382 55.627 20.9334 55.8546 21.1793C56.0821 21.4315 56.3527 21.6283 56.6725 21.782C56.9922 21.9358 57.3489 22.0095 57.7363 22.0095ZM62.4224 14.8637V23.5962H60.3561V22.4154C60.0794 22.852 59.6858 23.1964 59.1692 23.4486C58.6588 23.7007 58.1422 23.8237 57.6257 23.8237C56.9553 23.8237 56.3404 23.7007 55.7869 23.4609C55.2273 23.2149 54.7538 22.8828 54.354 22.4585C53.9543 22.0341 53.6468 21.5483 53.4254 20.9949C53.2041 20.4475 53.0934 19.8572 53.0934 19.2299C53.0934 18.6149 53.2041 18.0307 53.4254 17.4773C53.6468 16.9238 53.9543 16.4318 54.354 16.0075C54.7538 15.5832 55.2273 15.2511 55.7869 15.0051C56.3404 14.7591 56.9553 14.6423 57.6257 14.6423C58.1422 14.6423 58.6588 14.7653 59.1692 15.0174C59.6796 15.2695 60.0732 15.6139 60.3561 16.0505V14.8698H62.4224V14.8637ZM69.4945 22.0095C69.888 22.0095 70.2386 21.9358 70.5583 21.782C70.872 21.6344 71.1487 21.4315 71.3762 21.1793C71.6038 20.9272 71.776 20.6382 71.899 20.2999C72.0158 19.9617 72.0773 19.605 72.0773 19.2299C72.0773 18.8548 72.0158 18.4981 71.899 18.1599C71.7821 17.8216 71.6038 17.5326 71.3762 17.2805C71.1487 17.0283 70.8781 16.8316 70.5583 16.684C70.2447 16.5364 69.888 16.4564 69.4945 16.4564C69.0886 16.4564 68.7257 16.5302 68.406 16.684C68.0862 16.8316 67.8095 17.0345 67.5819 17.2805C67.3544 17.5326 67.1822 17.8216 67.0592 18.1599C66.9362 18.4981 66.8809 18.8548 66.8809 19.2299C66.8809 19.605 66.9424 19.9617 67.0592 20.2999C67.1822 20.6382 67.3544 20.9334 67.5819 21.1793C67.8095 21.4315 68.0862 21.6283 68.406 21.782C68.7257 21.9358 69.0886 22.0095 69.4945 22.0095ZM66.8747 23.6023H64.8084V10.479H66.8747V16.0444C67.1514 15.6078 67.545 15.2634 68.0616 15.0113C68.572 14.7591 69.0886 14.6361 69.6051 14.6361C70.2755 14.6361 70.8904 14.7591 71.4439 14.999C72.0035 15.2449 72.477 15.577 72.8768 16.0014C73.2765 16.4257 73.584 16.9176 73.8054 17.4711C74.0267 18.0307 74.1374 18.6088 74.1374 19.2238C74.1374 19.851 74.0267 20.4352 73.8054 20.9887C73.584 21.536 73.2765 22.028 72.8768 22.4523C72.477 22.8766 72.0035 23.2087 71.4439 23.4547C70.8904 23.7007 70.2755 23.8175 69.6051 23.8175C69.0886 23.8175 68.572 23.6945 68.0616 23.4424C67.5512 23.1903 67.1514 22.8459 66.8747 22.4093V23.6023ZM80.2625 22.0095C80.6561 22.0095 81.0127 21.9358 81.3325 21.782C81.6523 21.6344 81.929 21.4315 82.1566 21.1793C82.3841 20.9272 82.5624 20.6382 82.6854 20.2999C82.8146 19.9617 82.8761 19.605 82.8761 19.2299C82.8761 18.8548 82.8146 18.4981 82.6854 18.1599C82.5563 17.8216 82.3841 17.5326 82.1566 17.2805C81.929 17.0283 81.6523 16.8316 81.3325 16.684C81.0127 16.5364 80.6499 16.4564 80.2625 16.4564C79.8689 16.4564 79.5184 16.5302 79.1986 16.684C78.885 16.8316 78.6082 17.0345 78.3807 17.2805C78.1532 17.5326 77.981 17.8216 77.858 18.1599C77.735 18.4981 77.6796 18.8548 77.6796 19.2299C77.6796 19.605 77.7411 19.9617 77.858 20.2999C77.981 20.6382 78.1532 20.9334 78.3807 21.1793C78.6082 21.4315 78.8788 21.6283 79.1986 21.782C79.5184 21.9358 79.8689 22.0095 80.2625 22.0095ZM84.9424 14.8637V23.5962H82.8761V22.4154C82.5993 22.852 82.2058 23.1964 81.6892 23.4486C81.1788 23.7007 80.6622 23.8237 80.1456 23.8237C79.4753 23.8237 78.8604 23.7007 78.3069 23.4609C77.7534 23.2149 77.2738 22.8828 76.874 22.4585C76.4743 22.0341 76.1668 21.5483 75.9454 20.9949C75.724 20.4475 75.6133 19.8572 75.6133 19.2299C75.6133 18.6149 75.724 18.0307 75.9454 17.4773C76.1668 16.9238 76.4743 16.4318 76.874 16.0075C77.2738 15.5832 77.7473 15.2511 78.3069 15.0051C78.8604 14.7591 79.4753 14.6423 80.1456 14.6423C80.6622 14.6423 81.1788 14.7653 81.6892 15.0174C82.1996 15.2695 82.5993 15.6139 82.8761 16.0505V14.8698H84.9424V14.8637ZM95.3537 14.8637V23.5962H93.2874V22.3847C93.0107 22.8582 92.6233 23.221 92.1313 23.4609C91.6393 23.7068 91.0612 23.8237 90.4032 23.8237C89.7575 23.8237 89.2164 23.7191 88.7797 23.5039C88.3431 23.2887 87.9987 23.0058 87.7466 22.643C87.5313 22.317 87.3838 21.9542 87.2977 21.5545C87.2177 21.1547 87.1747 20.6566 87.1747 20.054V14.8637H89.241V19.3837C89.241 19.7588 89.2717 20.1093 89.3332 20.4352C89.3947 20.7612 89.4992 21.0379 89.6468 21.2716C89.7944 21.5053 89.9851 21.6836 90.231 21.8251C90.477 21.9604 90.7845 22.0341 91.1535 22.0341C91.873 22.0341 92.408 21.782 92.7585 21.2777C93.1029 20.7735 93.2813 20.1401 93.2813 19.396V14.876H95.3537V14.8637Z" fill="#414748"/>
</svg>
