<svg width="112" height="36" viewBox="0 0 112 36" fill="none" xmlns="http://www.w3.org/2000/svg">
<path fill-rule="evenodd" clip-rule="evenodd" d="M26.5508 24.4878H29.767V23.1411H29.8408C30.1176 23.5531 30.5173 23.9221 31.0339 24.2542C31.6242 24.6293 32.4421 24.8076 33.4691 24.8076C34.4039 24.8076 35.2771 24.5801 36.0704 24.125C36.8699 23.6515 37.5156 22.9689 37.9953 22.0833C38.4811 21.1916 38.7209 20.1155 38.7209 18.8794V18.5165C38.7209 17.2743 38.4811 16.2043 37.9953 15.3126C37.5156 14.427 36.8699 13.7506 36.0704 13.2955C35.271 12.8281 34.4039 12.5944 33.4691 12.5944C32.7804 12.5944 32.1838 12.6805 31.6919 12.8527C31.2245 13.0065 30.8309 13.2156 30.5234 13.4738C30.2713 13.6952 30.0622 13.9351 29.8962 14.1872H29.8162V8.3143H26.5508V24.4878ZM34.6437 16.2842C35.1787 16.7885 35.4555 17.5449 35.4555 18.5842V18.8117C35.4555 19.851 35.1726 20.6136 34.6437 21.1301C34.1025 21.6406 33.4322 21.905 32.6082 21.905C31.7903 21.905 31.1138 21.6467 30.5726 21.1301C30.0438 20.6136 29.7609 19.851 29.7609 18.8117V18.5842C29.7609 17.5449 30.0438 16.7885 30.5726 16.2904C31.1138 15.7615 31.7841 15.4971 32.6082 15.4971C33.4445 15.4909 34.121 15.7554 34.6437 16.2842Z" fill="#221A43"/>
<path fill-rule="evenodd" clip-rule="evenodd" d="M42.4293 24.1066C43.3456 24.574 44.3787 24.8077 45.5164 24.8077C46.6541 24.8077 47.6872 24.574 48.6035 24.1066C49.5259 23.6392 50.2516 22.9566 50.7805 22.0711C51.3155 21.1794 51.5738 20.1093 51.5738 18.8794V18.5166C51.5738 17.2866 51.3093 16.2166 50.7805 15.3249C50.2516 14.4332 49.5198 13.7568 48.6035 13.2894C47.6872 12.822 46.6541 12.5883 45.5164 12.5883C44.3787 12.5883 43.3456 12.822 42.4293 13.2894C41.5068 13.7568 40.7812 14.4394 40.2523 15.3249C39.7173 16.2166 39.459 17.2866 39.459 18.5166V18.8794C39.459 20.1093 39.7234 21.1794 40.2523 22.0711C40.7812 22.9566 41.5068 23.6331 42.4293 24.1066ZM47.5212 16.3273C48.0439 16.8316 48.3145 17.5757 48.3145 18.5842V18.8118C48.3145 19.8203 48.0439 20.5706 47.5212 21.0871C46.9984 21.5975 46.3343 21.8558 45.5102 21.8558C44.6923 21.8558 44.0282 21.5975 43.4993 21.0871C42.9827 20.5706 42.706 19.8203 42.706 18.8118V18.5842C42.706 17.5757 42.9827 16.8316 43.4931 16.3334C44.022 15.8046 44.6862 15.5401 45.5041 15.5401C46.3527 15.534 47.0169 15.7984 47.5212 16.3273Z" fill="#221A43"/>
<path fill-rule="evenodd" clip-rule="evenodd" d="M52.8711 24.4878H56.0874V23.1411H56.1611C56.4379 23.5531 56.8376 23.9221 57.3542 24.2542C57.9445 24.6293 58.7624 24.8076 59.7894 24.8076C60.7242 24.8076 61.5913 24.5801 62.3907 24.125C63.1902 23.6515 63.8359 22.9689 64.3156 22.0833C64.8014 21.1916 65.0412 20.1155 65.0412 18.8794V18.5165C65.0412 17.2743 64.8014 16.2043 64.3156 15.3126C63.8359 14.427 63.1902 13.7506 62.3907 13.2955C61.5913 12.8281 60.7242 12.5944 59.7894 12.5944C59.1007 12.5944 58.5042 12.6805 58.0122 12.8527C57.5448 13.0065 57.1512 13.2156 56.8438 13.4738C56.5916 13.6952 56.3825 13.9351 56.2165 14.1872H56.1427V8.3143H52.8772V24.4878H52.8711ZM60.964 16.2842C61.499 16.7885 61.7758 17.5449 61.7758 18.5842V18.8117C61.7758 19.851 61.4929 20.6136 60.964 21.1301C60.4228 21.6406 59.7525 21.905 58.9285 21.905C58.1106 21.905 57.4341 21.6467 56.893 21.1301C56.3641 20.6136 56.0812 19.851 56.0812 18.8117V18.5842C56.0812 17.5449 56.3641 16.7885 56.893 16.2904C57.4341 15.7615 58.1044 15.4971 58.9285 15.4971C59.7648 15.4909 60.4351 15.7554 60.964 16.2842Z" fill="#221A43"/>
<path d="M68.6757 20.0048L65.6562 20.7858L65.687 20.9764C65.8899 22.2002 66.4864 23.1534 67.4642 23.8176C68.4359 24.4756 69.6781 24.8015 71.1602 24.8015C72.6176 24.8015 73.7984 24.4817 74.6839 23.8114C75.6002 23.1227 76.0491 22.151 76.0491 20.9211C76.0491 20.1032 75.84 19.4329 75.3911 18.9348C74.9729 18.4366 74.401 18.0677 73.6815 17.8155C72.9928 17.5572 72.2241 17.3482 71.3754 17.2006L70.7481 17.0899C70.25 17.0038 69.8749 16.8808 69.6043 16.7332C69.3706 16.5917 69.2599 16.395 69.2599 16.1121C69.2599 15.8599 69.3645 15.6693 69.5859 15.5279H69.592H69.5982C69.8319 15.368 70.1947 15.2757 70.7112 15.2757C71.2217 15.2757 71.6275 15.3864 71.9412 15.6017C72.2548 15.8046 72.4762 16.149 72.5869 16.6778L72.6361 16.9054L75.6925 15.9645L75.6371 15.7615C75.3665 14.8084 74.7946 14.0396 73.9337 13.4616C73.0666 12.8774 71.9842 12.5945 70.7112 12.5945C69.3583 12.5945 68.2452 12.902 67.3904 13.5354C66.5172 14.1626 66.0867 15.0789 66.0867 16.2474C66.0867 17.0222 66.2958 17.6741 66.7201 18.1845C67.1322 18.6765 67.6795 19.0639 68.3559 19.3468C69.0139 19.6051 69.7396 19.8142 70.5329 19.9679L71.1663 20.0786C71.8182 20.1954 72.261 20.3492 72.5254 20.5214H72.5315H72.5377C72.7714 20.6628 72.8821 20.8596 72.8821 21.124C72.8821 21.3885 72.7652 21.6221 72.4946 21.8312C72.2364 22.0157 71.7997 22.1264 71.1602 22.1264C70.7481 22.1264 70.3669 22.0711 70.0163 21.9604C69.6966 21.8374 69.4198 21.6467 69.1861 21.3762C68.977 21.1117 68.811 20.7366 68.7126 20.2323L68.6757 20.0048Z" fill="#221A43"/>
<path d="M77.2114 8.3143V24.4879H80.4769V8.3143H77.2114Z" fill="#221A43"/>
<path fill-rule="evenodd" clip-rule="evenodd" d="M84.5297 24.0759C85.4214 24.5617 86.4423 24.8015 87.58 24.8015C88.6192 24.8015 89.4925 24.6416 90.1935 24.3095C90.87 23.9713 91.4235 23.5654 91.8355 23.0919C92.2475 22.6184 92.5673 22.1818 92.7825 21.7697L92.8871 21.5791L90.1812 20.1585L90.089 20.3615C89.9045 20.755 89.6401 21.1117 89.2834 21.4438C88.9636 21.739 88.4409 21.905 87.6722 21.905C86.9404 21.905 86.3316 21.6836 85.8335 21.2409C85.3907 20.8473 85.1385 20.3553 85.0647 19.7465H93.17V18.5658C93.17 17.3973 92.9424 16.3642 92.4689 15.4725C92.0015 14.5685 91.3435 13.8674 90.501 13.3632C89.6524 12.8466 88.6623 12.5883 87.5369 12.5883C86.3931 12.5883 85.3845 12.8343 84.5051 13.3386C83.6319 13.8244 82.9493 14.5193 82.4634 15.4233C81.9776 16.315 81.7378 17.3666 81.7378 18.5596V18.8302C81.7378 20.0294 81.9776 21.0871 82.4573 21.9911C82.9677 22.8828 83.6565 23.5777 84.5297 24.0759ZM89.1543 16.0198C89.5171 16.3273 89.7446 16.7147 89.8369 17.1944H85.1262C85.2492 16.7086 85.4891 16.3212 85.8335 16.0198C86.2332 15.6693 86.7866 15.4848 87.5123 15.4848C88.2134 15.491 88.7484 15.6754 89.1543 16.0198Z" fill="#221A43"/>
<path fill-rule="evenodd" clip-rule="evenodd" d="M96.4784 24.1189C97.2902 24.574 98.1573 24.8015 99.0797 24.8015C100.119 24.8015 100.937 24.6293 101.515 24.248C102.032 23.9159 102.431 23.547 102.708 23.1349H102.782V24.4817H105.998V8.30817H102.733V14.1811H102.665C102.505 13.9289 102.29 13.6891 102.025 13.4677C101.712 13.2033 101.312 13.0003 100.832 12.8466C100.353 12.6683 99.7623 12.5883 99.0736 12.5883C98.1388 12.5883 97.2656 12.822 96.4723 13.2894C95.6728 13.7444 95.0271 14.4209 94.5474 15.3065C94.0616 16.1982 93.8218 17.2743 93.8218 18.5104V18.8732C93.8218 20.1155 94.0616 21.1855 94.5474 22.0772C95.0333 22.9689 95.6728 23.6515 96.4784 24.1189ZM101.964 16.2842C102.499 16.7885 102.776 17.5449 102.776 18.5842V18.8117C102.776 19.851 102.493 20.6136 101.964 21.1302C101.423 21.6406 100.752 21.905 99.9284 21.905C99.1105 21.905 98.434 21.6467 97.8928 21.1302C97.364 20.6136 97.0811 19.851 97.0811 18.8117V18.5842C97.0811 17.5449 97.364 16.7885 97.8928 16.2904C98.434 15.7615 99.1043 15.4971 99.9284 15.4971C100.771 15.4909 101.441 15.7554 101.964 16.2842Z" fill="#221A43"/>
<path fill-rule="evenodd" clip-rule="evenodd" d="M7.47486 6.11273C8.55105 6.11273 9.4243 6.98598 9.4243 8.06217V9.79637V10.3498C9.4489 12.164 10.9248 13.6214 12.7451 13.6214C14.5654 13.6214 16.0352 12.1578 16.0659 10.3498V9.79637V8.06217C16.0659 6.98598 16.9392 6.11273 18.0153 6.11273C19.0915 6.11273 19.9648 6.98598 19.9648 8.06217V20.2877C19.9586 24.2726 16.7301 27.495 12.7513 27.495C8.77244 27.495 5.54388 24.2665 5.53773 20.2877V8.06217C5.52543 6.98598 6.39868 6.11273 7.47486 6.11273ZM12.7513 23.8422C14.7376 23.8422 16.3488 22.2309 16.3488 20.2446C16.3488 18.2583 14.7376 16.6471 12.7513 16.6471C10.7649 16.6471 9.15371 18.2583 9.15371 20.2446C9.15371 22.2309 10.7649 23.8422 12.7513 23.8422Z" fill="#1261FD"/>
</svg>
