<?xml version="1.0" encoding="utf-8"?>
<!-- Generator: Adobe Illustrator 26.4.0, SVG Export Plug-In . SVG Version: 6.00 Build 0)  -->
<svg version="1.1" id="Layer_1" xmlns="http://www.w3.org/2000/svg" xmlns:xlink="http://www.w3.org/1999/xlink" x="0px" y="0px"
	 viewBox="0 0 192 96" style="enable-background:new 0 0 192 96;" xml:space="preserve">
<style type="text/css">
	.st0{fill-rule:evenodd;clip-rule:evenodd;}
	.st1{fill-rule:evenodd;clip-rule:evenodd;fill:#008BF0;}
</style>
<path class="st0" d="M46,8.3H18.9c-6.4,0-11.7,5.1-11.7,11.5v34.4c0,6.3,5.2,11.5,11.7,11.5h28.4c4.1,0,7.9-2.1,10-5.6l6.6-10.9
	c1.1-1.8,1.7-3.8,1.7-5.9v-4.1c0-1.5-0.3-2.9-0.8-4.3l-7.9-19.4C55,11.2,50.8,8.3,46,8.3z M41.2,20.1H25c-3.8,0-7,3-7,6.7v20.2
	c0,3.7,3.1,6.7,7,6.7H42c2.4,0,4.7-1.2,6-3.3l3.9-6.4c0.6-1,1-2.2,1-3.5v-2.4c0-0.9-0.2-1.7-0.5-2.5l-4.7-11.4
	C46.6,21.8,44,20.1,41.2,20.1z"/>
<path class="st1" d="M144.3,15.5l-14,34.4c-3.1,7.5,2.6,15.7,10.8,15.7h35.5c8.3,0,13.9-8.2,10.8-15.7l-14-34.4
	c-1.8-4.4-6.1-7.2-10.8-7.2h-7.5C150.4,8.3,146.1,11.2,144.3,15.5z M150.5,27.1l-8,19.6c-1.8,4.3,1.5,8.9,6.2,8.9H169
	c4.7,0,8-4.7,6.2-8.9l-8-19.6c-1-2.5-3.5-4.1-6.2-4.1h-4.3C154,23,151.5,24.6,150.5,27.1z"/>
<path d="M94.5,59.9V25.5c0-3.2-2.8-5.7-6.2-5.7H75.8c-3.4,0-6.2-2.6-6.2-5.7c0-3.2,2.8-5.7,6.2-5.7h49.9c3.4,0,6.2,2.6,6.2,5.7
	c0,3.2-2.8,5.7-6.2,5.7h-12.5c-3.4,0-6.2,2.6-6.2,5.7v34.4c0,3.2-2.8,5.7-6.2,5.7C97.2,65.6,94.5,63.1,94.5,59.9z"/>
<path d="M157.3,91.3c-0.2-0.7-0.4-1.4-0.7-2.1c-0.2-0.7-0.5-1.4-0.7-2.2h-7.7c-0.2,0.7-0.5,1.4-0.8,2.2c-0.2,0.7-0.5,1.4-0.7,2.1
	H142c0.7-2.1,1.4-4.1,2.1-5.9c0.7-1.8,1.3-3.5,1.9-5.1c0.6-1.6,1.3-3.1,1.9-4.5c0.6-1.4,1.3-2.8,1.9-4.2h4.2
	c0.6,1.4,1.3,2.8,1.9,4.2c0.6,1.4,1.3,2.9,1.9,4.5c0.6,1.6,1.3,3.3,2,5.1c0.7,1.8,1.4,3.8,2.1,5.9H157.3z M151.9,76.1
	c-0.1,0.3-0.2,0.7-0.4,1.2c-0.2,0.5-0.4,1.1-0.7,1.7c-0.2,0.6-0.5,1.4-0.8,2.1c-0.3,0.8-0.6,1.6-0.9,2.4h5.6
	c-0.3-0.9-0.6-1.7-0.9-2.4c-0.3-0.8-0.6-1.5-0.8-2.1c-0.2-0.6-0.5-1.2-0.7-1.7C152.2,76.8,152,76.4,151.9,76.1z"/>
<path d="M133.8,91.7c-3.2,0-5.7-0.9-7.4-2.7c-1.7-1.8-2.5-4.3-2.5-7.6c0-1.6,0.3-3.1,0.8-4.3c0.5-1.3,1.2-2.4,2.1-3.2
	c0.9-0.9,2-1.6,3.2-2c1.2-0.5,2.6-0.7,4-0.7c0.8,0,1.6,0.1,2.3,0.2c0.7,0.1,1.3,0.3,1.8,0.4c0.5,0.2,0.9,0.3,1.3,0.5
	c0.3,0.2,0.6,0.3,0.7,0.4l-1.3,3.6c-0.6-0.3-1.3-0.6-2.1-0.8c-0.8-0.2-1.7-0.3-2.7-0.3c-0.7,0-1.4,0.1-2,0.3
	c-0.6,0.2-1.2,0.6-1.7,1.1c-0.5,0.5-0.9,1.1-1.2,1.9c-0.3,0.8-0.5,1.8-0.5,2.9c0,0.9,0.1,1.8,0.3,2.6c0.2,0.8,0.5,1.4,1,2
	c0.5,0.6,1,1,1.8,1.4c0.7,0.3,1.6,0.5,2.6,0.5c0.6,0,1.2,0,1.7-0.1c0.5-0.1,1-0.2,1.4-0.3c0.4-0.1,0.8-0.2,1.1-0.4
	c0.3-0.1,0.6-0.3,0.8-0.4l1.2,3.6c-0.6,0.4-1.5,0.7-2.7,1C136.6,91.6,135.3,91.7,133.8,91.7z"/>
<path d="M115.7,71.6h4.4v19.7h-4.4V71.6z"/>
<path d="M102.5,71.4c3,0,5.2,0.5,6.8,1.6c1.6,1,2.4,2.7,2.4,4.9c0,1.4-0.3,2.5-1,3.4c-0.6,0.9-1.5,1.5-2.7,2
	c0.4,0.5,0.8,1.1,1.3,1.7c0.4,0.6,0.9,1.3,1.3,2c0.4,0.7,0.9,1.4,1.3,2.2c0.4,0.7,0.8,1.5,1.1,2.2h-5c-0.4-0.6-0.7-1.3-1.1-2
	c-0.4-0.7-0.7-1.3-1.1-1.9c-0.4-0.6-0.8-1.2-1.1-1.8c-0.4-0.6-0.8-1.1-1.1-1.5h-2.2v7.2h-4.4V71.9c1-0.2,2-0.3,3-0.4
	C100.7,71.5,101.7,71.4,102.5,71.4z M102.8,75.2c-0.3,0-0.6,0-0.9,0c-0.2,0-0.5,0-0.7,0.1v5.3h1.3c1.7,0,2.9-0.2,3.6-0.6
	c0.7-0.4,1.1-1.1,1.1-2.1c0-1-0.4-1.6-1.1-2C105.2,75.4,104.2,75.2,102.8,75.2z"/>
<path d="M79.4,91.3V71.6h13.3v3.7h-8.9v3.9h7.9v3.6h-7.9v4.7h9.6v3.7H79.4z"/>
<path d="M59.1,71.6c0.3,0.6,0.7,1.4,1.2,2.3c0.5,0.9,0.9,1.9,1.4,3c0.5,1.1,1,2.2,1.5,3.3c0.5,1.1,0.9,2.2,1.3,3.2
	c0.4-1,0.9-2,1.3-3.2c0.5-1.1,1-2.2,1.4-3.3c0.5-1.1,1-2.1,1.4-3c0.5-0.9,0.9-1.7,1.2-2.3h4c0.2,1.3,0.4,2.8,0.5,4.4
	c0.2,1.6,0.3,3.3,0.4,5.1c0.1,1.7,0.2,3.5,0.3,5.3c0.1,1.8,0.2,3.4,0.3,5h-4.3c-0.1-1.9-0.1-4-0.2-6.3c-0.1-2.3-0.2-4.5-0.4-6.8
	c-0.3,0.8-0.7,1.7-1.1,2.6c-0.4,1-0.8,1.9-1.3,2.9c-0.4,1-0.8,1.9-1.2,2.8c-0.4,0.9-0.7,1.6-1,2.2h-3.1c-0.3-0.6-0.6-1.4-1-2.2
	c-0.4-0.9-0.8-1.8-1.2-2.8c-0.4-1-0.8-1.9-1.2-2.9c-0.4-1-0.8-1.8-1.1-2.6c-0.2,2.3-0.3,4.6-0.4,6.8c-0.1,2.3-0.2,4.3-0.2,6.3h-4.3
	c0.1-1.6,0.2-3.2,0.3-5c0.1-1.8,0.2-3.5,0.3-5.3c0.1-1.8,0.3-3.4,0.4-5.1c0.2-1.6,0.4-3.1,0.5-4.4H59.1z"/>
<path d="M46.5,91.3c-0.2-0.7-0.4-1.4-0.7-2.1c-0.2-0.7-0.5-1.4-0.7-2.2h-7.7c-0.2,0.7-0.5,1.4-0.8,2.2c-0.2,0.7-0.5,1.4-0.7,2.1
	h-4.6c0.7-2.1,1.4-4.1,2.1-5.9c0.7-1.8,1.3-3.5,1.9-5.1c0.6-1.6,1.3-3.1,1.9-4.5c0.6-1.4,1.3-2.8,1.9-4.2h4.2
	c0.6,1.4,1.3,2.8,1.9,4.2c0.6,1.4,1.3,2.9,1.9,4.5c0.6,1.6,1.3,3.3,2,5.1c0.7,1.8,1.4,3.8,2.1,5.9H46.5z M41.2,76.1
	c-0.1,0.3-0.2,0.7-0.4,1.2c-0.2,0.5-0.4,1.1-0.7,1.7c-0.2,0.6-0.5,1.4-0.8,2.1c-0.3,0.8-0.6,1.6-0.9,2.4H44
	c-0.3-0.9-0.6-1.7-0.9-2.4c-0.3-0.8-0.6-1.5-0.8-2.1c-0.2-0.6-0.5-1.2-0.7-1.7C41.4,76.8,41.3,76.4,41.2,76.1z"/>
</svg>
