<svg width="112" height="36" viewBox="0 0 112 36" fill="none" xmlns="http://www.w3.org/2000/svg">
<g clip-path="url(#clip0_207_661)">
<path d="M13.2176 18.7749L8.14753 22.4804C8.2187 22.6138 8.24516 22.7665 8.22302 22.9161C8.20088 23.0657 8.1313 23.2042 8.02453 23.3112L8.01899 23.3168L11.5953 27.3143C11.7739 27.194 11.9844 27.1298 12.1998 27.1298C12.2269 27.1298 12.2521 27.1298 12.2785 27.1329L13.3523 18.8783C13.3045 18.8492 13.2601 18.8147 13.2201 18.7756L13.2176 18.7749ZM23.0331 13.6446C23.1325 13.7741 23.1829 13.9347 23.1752 14.0978C23.1752 14.0886 23.1752 14.0794 23.1752 14.0701C23.1753 13.9166 23.1254 13.7672 23.0331 13.6446ZM23.0251 14.5056C22.9356 14.6211 22.8118 14.7055 22.6715 14.7467C22.7837 14.7132 22.8858 14.6523 22.9686 14.5695C22.9885 14.5502 23.0072 14.5297 23.0245 14.508L23.0251 14.5056ZM19.4114 22.9564C19.4357 23.0425 19.4434 23.1324 19.4341 23.2214C19.4432 23.1324 19.4355 23.0425 19.4114 22.9564ZM18.3659 23.7559C18.2847 23.7122 18.2312 23.6679 18.2299 23.6495C18.2712 23.6902 18.3173 23.7257 18.3671 23.7553L18.3659 23.7559ZM18.0245 23.2024C18.0202 23.1422 18.0233 23.0816 18.0338 23.0222C18.027 23.0628 18.0235 23.104 18.0233 23.1452C18.0233 23.1636 18.0233 23.1815 18.0233 23.1993L18.0245 23.2024ZM18.0596 22.7633L18.043 22.7251L18.059 22.7633H18.0596ZM18.0128 22.6476L17.9993 22.6144L18.0122 22.6483L18.0128 22.6476ZM14.3548 13.7221C14.3634 13.7085 14.3714 13.6944 14.3806 13.6815L14.3548 13.7221ZM14.0473 17.6464C14.1085 17.6792 14.1646 17.7206 14.214 17.7694C14.1652 17.7205 14.1094 17.679 14.0485 17.6464H14.0473ZM14.2804 17.8463C14.2859 17.8531 14.2902 17.8604 14.2951 17.8666C14.289 17.8598 14.2847 17.8531 14.2767 17.8463H14.2804ZM17.059 25.0136C17.1873 25.158 17.3422 25.2764 17.5153 25.3623C17.4464 25.3298 17.3806 25.2913 17.3185 25.2473C17.2241 25.1786 17.1371 25.1003 17.059 25.0136ZM18.8825 25.1833C18.929 25.1887 18.975 25.1986 19.0196 25.2128C18.9746 25.1985 18.9282 25.1886 18.8812 25.1833H18.8825ZM19.2957 25.3807C19.2988 25.3838 19.3007 25.385 19.3013 25.385L19.2964 25.3807H19.2957ZM20.0042 25.3192C20.1301 25.2485 20.2458 25.161 20.348 25.0591C20.2809 25.1272 20.2076 25.1889 20.1291 25.2436C20.0897 25.2706 20.0479 25.2959 20.0061 25.3198L20.0042 25.3192ZM23.2681 18.516C23.1611 18.3796 23.1095 18.2079 23.1235 18.0351C23.1235 18.0517 23.1235 18.0683 23.1235 18.0861C23.1226 18.2415 23.1735 18.3928 23.2681 18.516ZM23.3105 17.6046C23.4229 17.4818 23.5757 17.4034 23.741 17.3838C23.5844 17.4029 23.4387 17.474 23.3271 17.5855L23.3093 17.604L23.3105 17.6046ZM18.7318 23.5492C18.811 23.5493 18.8885 23.5258 18.9544 23.4818C19.0203 23.4377 19.0717 23.3752 19.102 23.3019C19.1323 23.2287 19.1401 23.1481 19.1246 23.0704C19.1091 22.9927 19.0708 22.9213 19.0147 22.8654C18.9587 22.8094 18.8873 22.7713 18.8096 22.7559C18.732 22.7405 18.6515 22.7485 18.5783 22.7789C18.5052 22.8092 18.4427 22.8606 18.3988 22.9264C18.3548 22.9923 18.3314 23.0697 18.3314 23.1489C18.3312 23.2014 18.3414 23.2535 18.3615 23.302C18.3815 23.3506 18.411 23.3947 18.4483 23.4318C18.4853 23.4691 18.5294 23.4987 18.5779 23.5189C18.6265 23.539 18.6786 23.5494 18.7312 23.5492H18.7318ZM18.8843 10.6956V22.4127L18.8905 22.3967V22.3893L22.0092 14.6077C21.995 14.596 21.9809 14.5831 21.968 14.5701C21.8443 14.447 21.7708 14.2823 21.7616 14.108C21.7524 13.9337 21.8082 13.7622 21.9181 13.6267L19.1069 10.6046C19.0382 10.6485 18.9622 10.6798 18.8825 10.6968L18.8843 10.6956ZM18.5768 22.4121V10.6962C18.4942 10.6782 18.4157 10.6453 18.3449 10.599L15.5245 13.6329C15.6263 13.7622 15.6798 13.923 15.6756 14.0875C15.6715 14.252 15.61 14.4099 15.5018 14.5339L18.5694 22.3912V22.3961L18.575 22.4121H18.5768ZM15.2896 13.4385L18.1328 10.3801C18.0623 10.2679 18.0249 10.1381 18.0251 10.0056C18.0251 9.97202 18.0276 9.93851 18.0325 9.90532L13.813 7.36227C13.7601 7.54519 13.6604 7.71115 13.5238 7.84372C13.3871 7.97629 13.2182 8.07087 13.0338 8.11811L13.337 9.42562C13.3554 9.42562 13.3732 9.42562 13.3917 9.42562C13.4845 9.42556 13.5764 9.44384 13.6621 9.47941C13.7478 9.51498 13.8256 9.56713 13.8911 9.63288C14.0197 9.76186 14.0937 9.93548 14.0976 10.1176C14.1015 10.2997 14.035 10.4764 13.912 10.6107L15.019 13.3666C15.1137 13.3725 15.2062 13.3976 15.2908 13.4404L15.2896 13.4385ZM19.3265 10.3875L22.1604 13.4342C22.2436 13.3933 22.3342 13.3695 22.4267 13.3641L23.5491 10.6058C23.4272 10.4715 23.3617 10.2953 23.3661 10.1139C23.3706 9.93254 23.4447 9.75984 23.5731 9.63165C23.6386 9.56598 23.7165 9.51392 23.8022 9.47846C23.8879 9.443 23.9798 9.42483 24.0725 9.425C24.1027 9.42501 24.1329 9.42686 24.1629 9.43054L24.5436 8.13902C24.3107 8.10592 24.0948 7.998 23.9286 7.83152C23.8504 7.75357 23.7844 7.66419 23.733 7.56645L19.4206 9.84813C19.4325 9.89976 19.4385 9.95258 19.4384 10.0056C19.4385 10.141 19.3997 10.2736 19.3265 10.3875ZM22.4704 14.4699C22.5767 14.4697 22.6785 14.4274 22.7536 14.3522C22.8286 14.2771 22.8708 14.1752 22.8708 14.0689C22.8705 13.9628 22.8283 13.8611 22.7533 13.786C22.6845 13.7175 22.5931 13.6763 22.4962 13.67C22.3993 13.6636 22.3034 13.6926 22.2263 13.7516C22.2123 13.7621 22.1991 13.7736 22.1869 13.786C22.112 13.8613 22.07 13.9631 22.07 14.0692C22.07 14.1754 22.112 14.2772 22.1869 14.3524C22.2239 14.3898 22.268 14.4194 22.3166 14.4395C22.3651 14.4597 22.4172 14.47 22.4698 14.4699H22.4704ZM14.9716 14.4699C15.0509 14.4699 15.1284 14.4465 15.1943 14.4024C15.2602 14.3584 15.3115 14.2958 15.3418 14.2226C15.3721 14.1493 15.38 14.0688 15.3645 13.991C15.3489 13.9133 15.3107 13.842 15.2545 13.786C15.2447 13.7762 15.2336 13.7663 15.2226 13.7571C15.1424 13.6925 15.0405 13.6612 14.9379 13.6697C14.8353 13.6783 14.74 13.726 14.6717 13.8031C14.6034 13.8801 14.5673 13.9804 14.5711 14.0833C14.5748 14.1862 14.6181 14.2837 14.6918 14.3555C14.767 14.4307 14.869 14.473 14.9753 14.473L14.9716 14.4699ZM27.1654 10.5339C27.2447 10.534 27.3222 10.5106 27.3882 10.4667C27.4542 10.4227 27.5057 10.3601 27.536 10.2868C27.5664 10.2136 27.5743 10.1329 27.5588 10.0552C27.5433 9.97738 27.505 9.90597 27.4489 9.84997C27.3729 9.77908 27.2724 9.74044 27.1685 9.7422C27.0646 9.74397 26.9654 9.786 26.8919 9.85944C26.8184 9.93288 26.7763 10.032 26.7744 10.1359C26.7725 10.2398 26.811 10.3403 26.8819 10.4164C26.919 10.4537 26.9632 10.4833 27.0119 10.5034C27.0605 10.5236 27.1127 10.5339 27.1654 10.5339ZM27.5301 10.7393C27.4305 10.7992 27.3177 10.8336 27.2017 10.8395L24.3566 17.6157L29.2539 13.8377C29.1961 13.7145 29.175 13.5772 29.1933 13.4423C29.2117 13.3075 29.2686 13.1808 29.3573 13.0775L27.5295 10.7405L27.5301 10.7393ZM26.5288 9.82722C26.5633 9.7557 26.6094 9.69043 26.6654 9.6341L25.3468 7.94099C25.2047 8.04613 25.0389 8.11477 24.864 8.14087L24.4507 9.53263C24.4952 9.56014 24.5364 9.59253 24.5737 9.62919C24.6299 9.68566 24.6763 9.75114 24.7109 9.82291H26.5307L26.5288 9.82722ZM26.9249 9.46928C27.0017 9.44109 27.0829 9.42672 27.1648 9.42685C27.2576 9.42673 27.3495 9.44492 27.4353 9.48038C27.5211 9.51583 27.5991 9.56787 27.6648 9.63349C27.7808 9.7494 27.8529 9.90207 27.8688 10.0653C27.8846 10.2286 27.8431 10.3923 27.7515 10.5283L29.6008 12.8961C29.6929 12.8549 29.7927 12.834 29.8935 12.8346C29.9851 12.8343 30.0759 12.8523 30.1604 12.8875L32.7773 9.11073C32.7293 9.01652 32.7032 8.91265 32.701 8.80692L25.7293 7.42193C25.6914 7.53144 25.636 7.63405 25.5651 7.72574L26.9243 9.46621L26.9249 9.46928ZM10.2982 10.5314C10.3775 10.5314 10.4549 10.508 10.5208 10.4639C10.5867 10.4199 10.6381 10.3573 10.6684 10.2841C10.6987 10.2108 10.7066 10.1303 10.691 10.0525C10.6755 9.97483 10.6372 9.90347 10.5811 9.84751C10.506 9.7724 10.4041 9.7302 10.2979 9.7302C10.1917 9.7302 10.0898 9.7724 10.0147 9.84751C9.93958 9.92262 9.89738 10.0245 9.89738 10.1307C9.89738 10.2369 9.93958 10.3388 10.0147 10.4139C10.0518 10.4513 10.096 10.481 10.1446 10.5011C10.1933 10.5213 10.2455 10.5316 10.2982 10.5314ZM10.2625 10.8389C10.1817 10.8351 10.1022 10.8172 10.0276 10.786L7.61985 14.3057L7.62416 14.31C7.72567 14.4113 7.80617 14.5316 7.86105 14.664C7.91594 14.7965 7.94411 14.9385 7.94396 15.0818C7.94323 15.2015 7.92244 15.3202 7.88246 15.433L13.0971 17.9182C13.121 17.877 13.149 17.8382 13.1807 17.8026L10.2625 10.8371V10.8389ZM9.77729 10.6107C9.65822 10.4806 9.59237 10.3105 9.59279 10.1341L4.64814 9.17593C4.62072 9.21582 4.5894 9.25291 4.55466 9.28663C4.53011 9.31149 4.50358 9.33432 4.47533 9.35489L6.55405 14.0289C6.82862 13.9506 7.12294 13.9831 7.37385 14.1193L9.77729 10.607V10.6107ZM9.65429 9.83521C9.68904 9.76041 9.73672 9.69233 9.79513 9.6341C9.86065 9.56843 9.93849 9.51632 10.0242 9.48077C10.1099 9.44521 10.2017 9.42691 10.2945 9.42691C10.3873 9.42691 10.4792 9.44521 10.5648 9.48077C10.6505 9.51632 10.7284 9.56843 10.7939 9.6341C10.8504 9.69009 10.8968 9.75542 10.931 9.82722H12.7509C12.7853 9.75574 12.8317 9.69065 12.888 9.63472C12.9334 9.58973 12.9845 9.55087 13.0399 9.5191L12.7226 8.15501C12.4461 8.14596 12.1835 8.03181 11.9882 7.83583C11.8726 7.71988 11.7843 7.57951 11.7299 7.425L4.76192 8.80262C4.76192 8.82968 4.75884 8.85674 4.75577 8.88318L9.65429 9.83521ZM25.9895 2.68269C26.0687 2.6829 26.1463 2.65955 26.2122 2.6156C26.2782 2.57165 26.3296 2.50909 26.3599 2.43586C26.3902 2.36263 26.3981 2.28204 26.3825 2.20433C26.3669 2.12662 26.3286 2.05529 26.2724 1.99941C26.2162 1.94475 26.1452 1.90777 26.0682 1.89307C25.9912 1.87837 25.9116 1.88659 25.8393 1.91672C25.7669 1.94684 25.705 1.99754 25.6612 2.06253C25.6174 2.12752 25.5936 2.20394 25.5928 2.28232C25.5928 2.32601 25.5999 2.36942 25.6137 2.41085C25.6335 2.46826 25.6661 2.52041 25.709 2.56338C25.7462 2.60067 25.7904 2.63024 25.8391 2.6504C25.8877 2.67056 25.9399 2.6809 25.9926 2.68084L25.9895 2.68269ZM26.4077 2.85243C26.2866 2.94177 26.14 2.98985 25.9895 2.98958C25.979 2.99019 25.9686 2.99019 25.9581 2.98958L25.1297 6.05846C25.2569 6.1136 25.3727 6.19203 25.471 6.2897C25.5725 6.39099 25.653 6.51131 25.7078 6.64375C25.7627 6.7762 25.7909 6.91817 25.7908 7.06153C25.7908 7.08183 25.7908 7.10151 25.7908 7.12303L32.7625 8.50372C32.7705 8.48466 32.7804 8.46621 32.7896 8.44837L26.4083 2.85181L26.4077 2.85243ZM25.6623 2.90901C25.5987 2.87585 25.5407 2.83312 25.4901 2.78232C25.4513 2.74267 25.4168 2.69896 25.3874 2.65194L19.4366 4.69868C19.4396 4.72501 19.441 4.75151 19.4409 4.77801C19.4409 4.80742 19.4391 4.83679 19.4354 4.86596L23.8093 6.43177C23.8463 6.3817 23.8875 6.3348 23.9323 6.29155C24.0334 6.19016 24.1535 6.10972 24.2857 6.05484C24.4179 5.99996 24.5597 5.97172 24.7029 5.97174C24.7477 5.97181 24.7925 5.97469 24.837 5.98035L25.6629 2.90901H25.6623ZM25.2853 2.36227C25.2853 2.33705 25.281 2.31184 25.281 2.28662L19.3462 1.00126C19.301 1.0996 19.2338 1.1862 19.1498 1.25436C19.0657 1.32251 18.9671 1.37038 18.8616 1.39425L18.88 4.08613C19.0134 4.11471 19.1356 4.18136 19.2318 4.27801C19.2713 4.31724 19.3059 4.361 19.3351 4.4084L25.2853 2.36227ZM25.3468 1.9865C25.3825 1.91125 25.4307 1.84262 25.4895 1.78355C25.622 1.6512 25.8016 1.57686 25.9889 1.57686C26.1761 1.57686 26.3557 1.6512 26.4882 1.78355C26.5963 1.89199 26.6663 2.0325 26.6878 2.18405C26.7093 2.3356 26.6812 2.49005 26.6076 2.62426L32.9889 8.22082C33.1249 8.12074 33.2923 8.07278 33.4607 8.08564C33.629 8.09851 33.7872 8.17135 33.9065 8.29093C34.0388 8.42353 34.1132 8.60325 34.1132 8.79062C34.1132 8.978 34.0388 9.15771 33.9065 9.29032C33.8693 9.32796 33.828 9.36137 33.7835 9.38995L35.8634 15.2208C35.8924 15.2176 35.9216 15.216 35.9507 15.2159C36.0434 15.2158 36.1353 15.234 36.2209 15.2696C36.3065 15.3052 36.3842 15.3574 36.4495 15.4232C36.545 15.5188 36.6111 15.6398 36.6399 15.7718C36.6688 15.9038 36.6592 16.0413 36.6124 16.168C36.5655 16.2948 36.4834 16.4055 36.3756 16.487C36.2678 16.5685 36.139 16.6174 36.0042 16.628L34.9249 24.1839C35.0188 24.2195 35.104 24.2749 35.1746 24.3463C35.2917 24.4633 35.3639 24.6177 35.3788 24.7825C35.3937 24.9474 35.3502 25.1122 35.256 25.2483C35.1618 25.3844 35.0228 25.4831 34.8633 25.5272C34.7038 25.5713 34.5338 25.558 34.3831 25.4896L30.313 30.9176C30.3277 30.9299 30.3419 30.9429 30.3554 30.9564C30.4235 31.0214 30.478 31.0994 30.5155 31.1857C30.5531 31.2721 30.573 31.3651 30.5741 31.4592C30.5752 31.5534 30.5575 31.6468 30.522 31.734C30.4865 31.8213 30.4339 31.9005 30.3674 31.9671C30.3008 32.0337 30.2216 32.0863 30.1344 32.1219C30.0472 32.1575 29.9538 32.1752 29.8596 32.1742C29.7655 32.1731 29.6725 32.1533 29.5861 32.1157C29.4997 32.0782 29.4217 32.0238 29.3566 31.9558C29.2952 31.8944 29.2456 31.8223 29.2103 31.743L19.4114 35.2848V35.2928C19.4116 35.4327 19.3703 35.5695 19.2927 35.686C19.2152 35.8024 19.1047 35.8931 18.9755 35.9468C18.8463 36.0004 18.7041 36.0144 18.5668 35.9871C18.4296 35.9598 18.3036 35.8924 18.2047 35.7934C18.0738 35.6629 17.9994 35.4862 17.9975 35.3014L8.28037 31.7559C8.25276 31.7992 8.22059 31.8394 8.18443 31.8758C8.1188 31.9415 8.04086 31.9937 7.95506 32.0292C7.86927 32.0648 7.7773 32.0831 7.68443 32.0831C7.59155 32.0831 7.49959 32.0648 7.41379 32.0292C7.328 31.9937 7.25006 31.9415 7.18443 31.8758C7.05827 31.7501 6.98439 31.5812 6.97766 31.4032C6.97093 31.2253 7.03184 31.0513 7.14814 30.9164L3.08049 25.492C2.94953 25.5511 2.80369 25.569 2.66233 25.5433C2.52096 25.5176 2.39076 25.4496 2.28898 25.3481C2.2233 25.2826 2.17119 25.2048 2.13564 25.1191C2.10008 25.0334 2.08178 24.9415 2.08178 24.8488C2.08178 24.756 2.10008 24.6641 2.13564 24.5784C2.17119 24.4927 2.2233 24.4149 2.28898 24.3494C2.35987 24.2784 2.44496 24.2233 2.53867 24.1876L1.46056 16.6286C1.29193 16.6153 1.13378 16.5414 1.0153 16.4207C0.949621 16.3552 0.897513 16.2773 0.86196 16.1916C0.826406 16.106 0.808105 16.0141 0.808105 15.9213C0.808105 15.8285 0.826406 15.7367 0.86196 15.651C0.897513 15.5653 0.949621 15.4875 1.0153 15.4219C1.08069 15.3562 1.15841 15.3041 1.244 15.2685C1.3296 15.233 1.42138 15.2147 1.51407 15.2147C1.54326 15.2149 1.57241 15.2168 1.6014 15.2202L3.67766 9.38503C3.63299 9.35686 3.59172 9.32364 3.55466 9.28601C3.48898 9.22049 3.43687 9.14265 3.40132 9.05696C3.36577 8.97126 3.34747 8.8794 3.34747 8.78663C3.34747 8.69385 3.36577 8.60199 3.40132 8.5163C3.43687 8.4306 3.48898 8.35277 3.55466 8.28724C3.62018 8.22155 3.69802 8.16943 3.78371 8.13387C3.8694 8.0983 3.96127 8.07999 4.05405 8.07998C4.20438 8.07954 4.35084 8.12764 4.47164 8.21713L10.8536 2.62057C10.7803 2.48685 10.7524 2.33299 10.7741 2.18208C10.7957 2.03116 10.8657 1.89132 10.9735 1.78355C11.106 1.6512 11.2856 1.57686 11.4729 1.57686C11.6601 1.57686 11.8398 1.6512 11.9723 1.78355C12.0309 1.84238 12.0788 1.91108 12.1137 1.9865L17.9975 0.704211C17.9976 0.611821 18.016 0.520371 18.0516 0.4351C18.0872 0.349829 18.1392 0.272412 18.2047 0.207286C18.2703 0.141608 18.3481 0.0894995 18.4338 0.0539459C18.5195 0.0183923 18.6113 9.15527e-05 18.7041 9.15527e-05C18.7969 9.15527e-05 18.8888 0.0183923 18.9744 0.0539459C19.0601 0.0894995 19.138 0.141608 19.2035 0.207286C19.3355 0.338556 19.41 0.516825 19.4108 0.702981L25.3468 1.98834V1.9865ZM24.0725 10.5351C24.1518 10.5351 24.2292 10.5117 24.2951 10.4676C24.361 10.4236 24.4124 10.361 24.4427 10.2878C24.473 10.2145 24.4809 10.1339 24.4653 10.0562C24.4498 9.97852 24.4115 9.90716 24.3554 9.8512C24.2994 9.79525 24.228 9.75717 24.1503 9.74178C24.0727 9.72638 23.9922 9.73436 23.9191 9.76471C23.8459 9.79506 23.7834 9.84641 23.7395 9.91227C23.6955 9.97813 23.6721 10.0555 23.6721 10.1347C23.6719 10.1873 23.6821 10.2393 23.7022 10.2879C23.7222 10.3365 23.7517 10.3806 23.789 10.4176C23.826 10.455 23.87 10.4847 23.9186 10.505C23.9672 10.5253 24.0193 10.5357 24.0719 10.5357L24.0725 10.5351ZM33.4083 9.19007C33.4875 9.18994 33.565 9.16633 33.6308 9.12222C33.6967 9.07812 33.748 9.01549 33.7782 8.94225C33.8085 8.86901 33.8164 8.78844 33.8009 8.71072C33.7854 8.633 33.7472 8.56161 33.6912 8.50557C33.6161 8.43046 33.5142 8.38826 33.408 8.38826C33.3018 8.38826 33.1999 8.43046 33.1248 8.50557C33.0497 8.58068 33.0075 8.68255 33.0075 8.78878C33.0075 8.895 33.0497 8.99688 33.1248 9.07199C33.1619 9.10926 33.2059 9.13883 33.2545 9.15899C33.303 9.17915 33.3551 9.1895 33.4077 9.18946L33.4083 9.19007ZM33.4956 9.49142C33.4666 9.49461 33.4375 9.49625 33.4083 9.49634C33.3851 9.49657 33.3619 9.49555 33.3388 9.49327L30.8259 17.1642C30.9331 17.217 31.0308 17.2873 31.1149 17.3721C31.1839 17.4409 31.2433 17.5187 31.2914 17.6034L35.2484 16.0345C35.2422 15.9973 35.2391 15.9596 35.2392 15.9219C35.2392 15.8292 35.2575 15.7373 35.2931 15.6516C35.3286 15.5659 35.3807 15.4881 35.4464 15.4225C35.4839 15.3856 35.5251 15.3526 35.5694 15.3241L33.4956 9.48835V9.49142ZM33.0479 9.39733C33.0248 9.38408 33.0026 9.36928 32.9815 9.35305L30.4126 13.0603C30.4965 13.1508 30.5553 13.2618 30.583 13.3821C30.6108 13.5023 30.6066 13.6278 30.5708 13.746C30.5351 13.8641 30.469 13.9709 30.3792 14.0556C30.2894 14.1403 30.179 14.2 30.059 14.2288L30.305 17.0578H30.3437C30.4077 17.0579 30.4715 17.0637 30.5344 17.0751L33.0479 9.4004V9.39733ZM29.8978 13.9373C29.977 13.9372 30.0544 13.9136 30.1202 13.8696C30.186 13.8255 30.2373 13.763 30.2676 13.6899C30.2979 13.6167 30.3059 13.5363 30.2906 13.4586C30.2752 13.3809 30.2372 13.3095 30.1814 13.2534C30.1053 13.1826 30.0047 13.1441 29.9008 13.146C29.797 13.1478 29.6978 13.19 29.6244 13.2635C29.551 13.337 29.5089 13.4362 29.5072 13.5401C29.5054 13.644 29.544 13.7445 29.6149 13.8205C29.6521 13.8577 29.6963 13.8873 29.745 13.9075C29.7936 13.9276 29.8458 13.938 29.8985 13.9379L29.8978 13.9373ZM29.7564 14.23C29.6416 14.2063 29.5345 14.1546 29.4446 14.0794L24.5116 17.8881C24.5165 17.9047 24.5208 17.9213 24.5245 17.9392L29.2601 18.1286C29.264 17.8446 29.3787 17.5733 29.5799 17.3727C29.7007 17.252 29.8482 17.1612 30.0104 17.1077L29.7601 14.2307L29.7564 14.23ZM23.8326 18.4859C23.9118 18.4856 23.9891 18.462 24.0548 18.4179C24.1205 18.3738 24.1717 18.3113 24.2019 18.2382C24.2322 18.1651 24.2401 18.0846 24.2247 18.007C24.2094 17.9294 24.1714 17.8581 24.1156 17.802C24.0596 17.7461 23.9883 17.708 23.9106 17.6926C23.833 17.6772 23.7526 17.6851 23.6795 17.7154C23.6064 17.7457 23.5439 17.7969 23.4999 17.8627C23.4559 17.9285 23.4324 18.0058 23.4323 18.0849C23.4322 18.1912 23.4742 18.2931 23.5491 18.3684C23.6243 18.4436 23.7263 18.4859 23.8326 18.4859ZM24.2459 18.6593C24.2152 18.6826 24.1824 18.7032 24.1481 18.7208L25.2336 27.6698C25.2632 27.6698 25.2951 27.6661 25.3228 27.6661C25.5385 27.6663 25.7494 27.7305 25.9286 27.8506L29.5085 22.8635L29.4839 22.8401C29.4183 22.7746 29.3661 22.6968 29.3306 22.6111C29.295 22.5254 29.2767 22.4335 29.2767 22.3408C29.2767 22.2441 29.2964 22.1485 29.3345 22.0597L24.2459 18.6624V18.6593ZM24.5215 18.2448C24.5069 18.3094 24.4831 18.3715 24.4507 18.4293L29.5147 21.8118C29.6198 21.7179 29.7507 21.6577 29.8905 21.639L30.1014 19.2085C29.9025 19.1624 29.7206 19.0614 29.5762 18.917C29.4434 18.7844 29.347 18.6198 29.2964 18.4392L24.5215 18.2479V18.2448ZM35.9477 16.3223C36.0269 16.3223 36.1044 16.2989 36.1703 16.2548C36.2362 16.2108 36.2875 16.1482 36.3178 16.075C36.3481 16.0017 36.356 15.9212 36.3405 15.8434C36.3249 15.7657 36.2867 15.6944 36.2306 15.6384C36.1554 15.5633 36.0536 15.5211 35.9473 15.5211C35.8411 15.5211 35.7393 15.5633 35.6641 15.6384C35.589 15.7135 35.5468 15.8154 35.5468 15.9216C35.5468 16.0278 35.589 16.1297 35.6641 16.2048C35.7012 16.2421 35.7453 16.2716 35.7939 16.2916C35.8424 16.3117 35.8945 16.3219 35.947 16.3217L35.9477 16.3223ZM35.7017 16.5843C35.6637 16.5698 35.6271 16.5521 35.5922 16.5314L30.5657 21.9367C30.6466 22.0547 30.6895 22.1946 30.6887 22.3377C30.6887 22.4019 30.68 22.4658 30.6629 22.5277L34.1414 24.385C34.1537 24.3721 34.1654 24.3586 34.1789 24.3451C34.2981 24.2258 34.456 24.1529 34.6242 24.1396L35.7017 16.5843ZM35.3689 16.3235L35.3652 16.3186L31.4083 17.8869C31.4519 18.0687 31.4481 18.2587 31.3974 18.4388C31.3467 18.6188 31.2507 18.7828 31.1186 18.9152C30.9287 19.1054 30.6749 19.2185 30.4065 19.2325L30.1955 21.6636C30.2463 21.6797 30.2952 21.7014 30.3413 21.7282L35.3689 16.3235ZM29.9839 22.738C30.0632 22.7381 30.1407 22.7146 30.2066 22.6706C30.2725 22.6266 30.3238 22.564 30.3541 22.4907C30.3844 22.4175 30.3923 22.3369 30.3768 22.2592C30.3612 22.1815 30.323 22.1101 30.2668 22.0542L30.2601 22.0474V22.0443L30.257 22.0406C30.1929 21.9832 30.1121 21.9476 30.0264 21.9392H29.9882C29.9091 21.9391 29.8317 21.9625 29.7658 22.0065C29.6999 22.0505 29.6486 22.1129 29.6182 22.1861C29.5879 22.2592 29.5799 22.3397 29.5953 22.4174C29.6107 22.495 29.6488 22.5664 29.7047 22.6224C29.7418 22.6598 29.7858 22.6894 29.8344 22.7095C29.883 22.7297 29.9351 22.74 29.9876 22.7399L29.9839 22.738ZM30.4833 22.8377C30.3845 22.9368 30.2584 23.0042 30.1211 23.0314L29.9507 30.7534C29.9822 30.7576 30.0135 30.7638 30.0442 30.7719L34.1414 25.3051C34.0658 25.2168 34.0131 25.1112 33.9879 24.9978C33.9627 24.8843 33.9658 24.7664 33.9969 24.6544L30.5184 22.7977C30.5067 22.8112 30.4944 22.8248 30.4815 22.8377H30.4833ZM29.816 23.0222C29.8023 23.019 29.7888 23.0151 29.7755 23.0105L26.1586 28.0505C26.287 28.2034 26.371 28.3886 26.4015 28.5859C26.4321 28.7832 26.4081 28.9852 26.332 29.1698L29.3025 31.0191C29.321 30.9964 29.34 30.9742 29.364 30.9527C29.4433 30.8736 29.5403 30.8146 29.6469 30.7805L29.816 23.0222ZM34.6795 25.243C34.7587 25.2428 34.8361 25.2193 34.9019 25.1752C34.9677 25.1312 35.019 25.0687 35.0493 24.9955C35.0796 24.9224 35.0876 24.8419 35.0722 24.7643C35.0569 24.6866 35.0189 24.6152 34.963 24.5591C34.926 24.5218 34.8819 24.4922 34.8334 24.472C34.7848 24.4518 34.7327 24.4415 34.6801 24.4416C34.601 24.4416 34.5235 24.465 34.4577 24.509C34.3918 24.5529 34.3405 24.6154 34.3101 24.6885C34.2798 24.7617 34.2718 24.8422 34.2872 24.9198C34.3026 24.9975 34.3407 25.0689 34.3966 25.1249C34.4338 25.1622 34.478 25.1918 34.5266 25.2119C34.5753 25.2321 34.6275 25.2424 34.6801 25.2424L34.6795 25.243ZM18.7047 1.10704C18.784 1.10708 18.8615 1.0836 18.9274 1.03957C18.9933 0.995545 19.0446 0.932949 19.0749 0.859714C19.1052 0.786479 19.1131 0.7059 19.0975 0.628184C19.082 0.550469 19.0438 0.479112 18.9876 0.423153C18.9125 0.348041 18.8106 0.305844 18.7044 0.305844C18.5982 0.305844 18.4963 0.348041 18.4212 0.423153C18.3461 0.498265 18.3039 0.600139 18.3039 0.706364C18.3039 0.812588 18.3461 0.914462 18.4212 0.989574C18.4584 1.02692 18.5025 1.05653 18.5512 1.07669C18.5999 1.09686 18.6521 1.10717 18.7047 1.10704ZM18.5565 1.39794C18.4233 1.3693 18.3012 1.3029 18.2047 1.20667C18.1459 1.14782 18.0978 1.07913 18.0627 1.00372L12.182 2.28539C12.182 2.31122 12.182 2.33705 12.1777 2.36227L18.1315 4.4084C18.1607 4.36138 18.1952 4.31784 18.2342 4.27863C18.3281 4.18451 18.4466 4.11884 18.5762 4.08921L18.5571 1.39732L18.5565 1.39794ZM18.7312 10.4078C18.7842 10.4084 18.8368 10.3984 18.8859 10.3784C18.935 10.3585 18.9797 10.329 19.0173 10.2916C19.0549 10.2542 19.0847 10.2097 19.1049 10.1607C19.1252 10.1117 19.1355 10.0592 19.1352 10.0062C19.1353 9.9536 19.125 9.90152 19.1049 9.85296C19.0847 9.80439 19.0551 9.76032 19.0178 9.72328C18.9438 9.64703 18.8426 9.60328 18.7363 9.60167C18.6301 9.60005 18.5276 9.6407 18.4513 9.71467C18.3751 9.78864 18.3313 9.88987 18.3297 9.9961C18.3281 10.1023 18.3688 10.2048 18.4427 10.2811L18.4489 10.2872C18.486 10.3245 18.53 10.354 18.5786 10.3741C18.6272 10.3941 18.6792 10.4043 18.7318 10.4041L18.7312 10.4078ZM18.1426 9.61627C18.1689 9.57749 18.1988 9.54125 18.2318 9.50803C18.3265 9.41334 18.4461 9.34745 18.5768 9.31799L18.5338 5.4576C18.4201 5.42408 18.3167 5.36254 18.233 5.27863C18.2111 5.25767 18.1905 5.23527 18.1715 5.21159L13.9378 7.0849L18.1402 9.61688L18.1426 9.61627ZM18.8806 9.31676C19.0124 9.34601 19.1331 9.41214 19.2287 9.50741C19.2493 9.52816 19.2686 9.55014 19.2865 9.57322L23.6272 7.2774C23.6134 7.20669 23.6064 7.13482 23.6063 7.06276C23.6068 6.94167 23.6276 6.82151 23.6678 6.70729L19.3326 5.1544C19.3042 5.19871 19.2712 5.23993 19.2342 5.2774C19.1276 5.38313 18.9899 5.45189 18.8413 5.47359L18.8843 9.31307L18.8806 9.31676ZM18.7312 5.179C18.8104 5.17904 18.8879 5.15556 18.9538 5.11153C19.0197 5.0675 19.0711 5.00491 19.1014 4.93167C19.1316 4.85844 19.1395 4.77786 19.124 4.70014C19.1084 4.62243 19.0702 4.55107 19.0141 4.49511C18.9662 4.44733 18.9069 4.41244 18.8419 4.39371C18.7769 4.37499 18.7082 4.37302 18.6422 4.388C18.5762 4.40298 18.515 4.43441 18.4645 4.47938C18.4139 4.52435 18.3755 4.58138 18.3529 4.64517C18.3197 4.744 18.3263 4.85189 18.3714 4.94591C18.3908 4.98657 18.417 5.0236 18.4489 5.05538C18.4859 5.09271 18.53 5.12231 18.5786 5.14248C18.6271 5.16264 18.6792 5.17296 18.7318 5.17285L18.7312 5.179ZM18.0411 4.933C18.0297 4.88191 18.024 4.82974 18.0239 4.7774C18.0238 4.75089 18.0253 4.7244 18.0282 4.69806L12.078 2.65194C12.0491 2.69931 12.0146 2.74308 11.9753 2.78232C11.9247 2.83331 11.8664 2.87606 11.8025 2.90901L12.6309 5.97851C12.6752 5.97334 12.7198 5.97067 12.7644 5.97051C12.9076 5.97042 13.0493 5.99863 13.1816 6.05351C13.3138 6.1084 13.4339 6.18887 13.535 6.29032C13.6756 6.43088 13.7751 6.60717 13.8228 6.80016L18.0448 4.93238L18.0411 4.933ZM11.4753 2.68269C11.5545 2.68273 11.6319 2.65929 11.6978 2.61534C11.7636 2.57139 11.815 2.5089 11.8453 2.43576C11.8757 2.36263 11.8837 2.28214 11.8683 2.20447C11.8529 2.1268 11.8148 2.05544 11.7588 1.99941C11.6837 1.9243 11.5819 1.88211 11.4756 1.88211C11.3694 1.88211 11.2675 1.9243 11.1924 1.99941C11.1173 2.07453 11.0751 2.1764 11.0751 2.28263C11.0751 2.38885 11.1173 2.49072 11.1924 2.56584C11.2296 2.60313 11.2738 2.6327 11.3225 2.65286C11.3711 2.67302 11.4233 2.68336 11.4759 2.6833L11.4753 2.68269ZM11.5073 2.99019H11.4753C11.3248 2.99037 11.1783 2.94231 11.0571 2.85304L4.67582 8.4496C4.68566 8.46744 4.69488 8.4865 4.70288 8.50495L11.6746 7.12426C11.6746 7.10458 11.6746 7.08429 11.6746 7.06276C11.6745 6.91963 11.7026 6.77788 11.7574 6.64564C11.8121 6.5134 11.8925 6.39328 11.9938 6.29216C12.092 6.19417 12.2078 6.11551 12.3351 6.0603L11.5092 2.98896L11.5073 2.99019ZM13.3917 10.5326C13.4709 10.5327 13.5483 10.5092 13.6141 10.4653C13.68 10.4213 13.7314 10.3588 13.7617 10.2857C13.792 10.2126 13.8 10.1321 13.7846 10.0544C13.7692 9.97674 13.7312 9.90539 13.6752 9.84936C13.6001 9.77424 13.4982 9.73205 13.392 9.73205C13.2858 9.73205 13.1839 9.77424 13.1088 9.84936C13.0337 9.92447 12.9915 10.0263 12.9915 10.1326C12.9915 10.2388 13.0337 10.3407 13.1088 10.4158C13.146 10.4531 13.1902 10.4826 13.2388 10.5028C13.2875 10.523 13.3396 10.5333 13.3923 10.5332L13.3917 10.5326ZM4.05589 9.18638C4.1352 9.18654 4.21277 9.16315 4.27876 9.11917C4.34475 9.07519 4.3962 9.0126 4.42657 8.93934C4.45694 8.86608 4.46487 8.78545 4.44935 8.70767C4.43383 8.6299 4.39557 8.55849 4.33941 8.50249C4.26391 8.42879 4.1624 8.38782 4.05689 8.38846C3.95139 8.3891 3.85038 8.43129 3.77578 8.5059C3.70117 8.5805 3.65898 8.68151 3.65834 8.78701C3.6577 8.89252 3.69867 8.99403 3.77237 9.06953C3.8477 9.14445 3.94965 9.18647 4.05589 9.18638ZM4.19673 9.47912C4.15038 9.48855 4.10319 9.49329 4.05589 9.49327C4.0269 9.4933 3.99793 9.49145 3.96918 9.48773L1.8923 15.3235C1.9372 15.3511 1.97851 15.3842 2.0153 15.4219C2.08419 15.4907 2.13801 15.573 2.17336 15.6636L5.76192 15.0972V15.0794C5.76191 14.9363 5.79016 14.7946 5.84504 14.6625C5.89992 14.5304 5.98035 14.4104 6.08172 14.3094C6.13998 14.2513 6.20454 14.2 6.27422 14.1562L4.19488 9.4822L4.19673 9.47912ZM13.3283 18.1642C13.3189 18.1985 13.3141 18.2339 13.3142 18.2694C13.3141 18.3755 13.3562 18.4772 13.431 18.5523C13.4872 18.6082 13.5585 18.6462 13.6362 18.6615C13.7139 18.6769 13.7944 18.6689 13.8675 18.6386C13.9407 18.6082 14.0032 18.5569 14.0472 18.4911C14.0912 18.4253 14.1148 18.348 14.1149 18.2688C14.1151 18.2161 14.1048 18.1639 14.0847 18.1152C14.0645 18.0666 14.0349 18.0224 13.9975 17.9853C13.9222 17.9104 13.8204 17.8684 13.7143 17.8684C13.6081 17.8684 13.5063 17.9104 13.431 17.9853C13.3817 18.0345 13.3461 18.0958 13.3277 18.163L13.3283 18.1642ZM13.0098 18.2128L7.74962 15.7048C7.71265 15.7569 7.67152 15.8058 7.62662 15.8512C7.48221 15.9956 7.30029 16.0968 7.1014 16.1433L7.61862 22.1089C7.73954 22.1246 7.85425 22.1717 7.95134 22.2454L13.0559 18.516C13.0259 18.4375 13.0105 18.3541 13.0104 18.27C13.0104 18.2503 13.0104 18.2319 13.0104 18.2128H13.0098ZM13.6783 18.9754C13.6682 18.9761 13.6582 18.9761 13.6481 18.9754L12.578 27.1987C12.7256 27.2536 12.8596 27.3396 12.971 27.4508C13.1154 27.5948 13.2164 27.7763 13.2625 27.9748L18.0374 26.147C17.8643 26.1222 17.6935 26.0827 17.527 26.0289C17.3262 25.9643 17.1363 25.8698 16.9636 25.7485C16.7351 25.5795 16.5366 25.3732 16.3763 25.1384C16.1848 24.8602 16.0224 24.563 15.8917 24.2516L13.6777 18.9779L13.6783 18.9754ZM7.52514 23.2116C7.60432 23.2115 7.68168 23.1879 7.74748 23.1439C7.81329 23.0998 7.86458 23.0373 7.8949 22.9642C7.92522 22.891 7.93321 22.8106 7.91787 22.7329C7.90252 22.6552 7.86452 22.5838 7.80866 22.5277C7.77151 22.4904 7.72733 22.4608 7.67866 22.4406C7.63 22.4204 7.57782 22.4101 7.52514 22.4103H7.49439H7.4864C7.41077 22.4173 7.33871 22.4458 7.27865 22.4923C7.2186 22.5388 7.17301 22.6015 7.14721 22.6729C7.12142 22.7444 7.11648 22.8217 7.13298 22.8958C7.14948 22.97 7.18674 23.0379 7.24039 23.0917C7.27743 23.129 7.32151 23.1586 7.37007 23.1788C7.41863 23.1989 7.47071 23.2093 7.5233 23.2091L7.52514 23.2116ZM7.75515 23.4804C7.73504 23.4876 7.7145 23.4935 7.69365 23.4982L7.83634 30.6833C7.96367 30.7107 8.08082 30.7731 8.17459 30.8635L11.2226 28.6999C11.1288 28.5097 11.0928 28.2962 11.1189 28.0857C11.145 27.8752 11.2321 27.677 11.3695 27.5154L7.75761 23.4804H7.75515ZM7.38615 23.5043C7.24929 23.4763 7.12385 23.4082 7.02576 23.3088C6.99886 23.2819 6.97418 23.2529 6.95196 23.2221L3.48332 24.7134C3.49179 24.757 3.49591 24.8013 3.49562 24.8457C3.49578 25.0148 3.4351 25.1783 3.32465 25.3063L7.3923 30.7301C7.43591 30.7102 7.48146 30.695 7.52822 30.6845L7.38861 23.505L7.38615 23.5043ZM6.83264 22.9428C6.82448 22.8995 6.82036 22.8554 6.82034 22.8112C6.82003 22.6602 6.86857 22.513 6.95872 22.3918L1.85355 16.5437C1.82484 16.5595 1.79504 16.5733 1.76438 16.5849L2.84371 24.1403C3.01174 24.1535 3.16958 24.2261 3.28898 24.3451C3.3162 24.3718 3.34091 24.4011 3.36278 24.4324L6.83142 22.9435L6.83264 22.9428ZM7.18873 22.1907C7.22801 22.169 7.26918 22.1509 7.31173 22.1366L6.7939 16.171C6.52534 16.1563 6.2717 16.0428 6.08172 15.8524C5.95579 15.7264 5.86267 15.5714 5.8105 15.401L2.22256 15.965C2.21471 16.1011 2.16725 16.2319 2.08603 16.3414L7.18689 22.1901L7.18873 22.1907ZM2.78898 25.2448C2.86816 25.2449 2.94557 25.2214 3.01143 25.1775C3.07729 25.1335 3.12864 25.071 3.15899 24.9979C3.18934 24.9248 3.19732 24.8443 3.18192 24.7666C3.16652 24.6889 3.12844 24.6176 3.0725 24.5615C3.03539 24.5244 2.99129 24.4949 2.94273 24.4748C2.89417 24.4548 2.84213 24.4445 2.78959 24.4447C2.71041 24.4446 2.633 24.4681 2.56714 24.512C2.50128 24.556 2.44993 24.6185 2.41958 24.6916C2.38924 24.7647 2.38126 24.8452 2.39665 24.9229C2.41205 25.0006 2.45013 25.0719 2.50608 25.128C2.54326 25.1652 2.58746 25.1947 2.63613 25.2148C2.68479 25.2349 2.73696 25.2451 2.78959 25.2448H2.78898ZM7.68443 31.7737C7.76361 31.7738 7.84102 31.7503 7.90688 31.7064C7.97274 31.6624 8.02409 31.5999 8.05444 31.5268C8.08479 31.4537 8.09277 31.3732 8.07737 31.2955C8.06197 31.2178 8.0239 31.1465 7.96795 31.0905C7.89198 31.0196 7.79145 30.9809 7.68755 30.9827C7.58365 30.9844 7.4845 31.0265 7.41098 31.0999C7.33746 31.1734 7.29533 31.2725 7.29345 31.3764C7.29157 31.4803 7.3301 31.5808 7.40091 31.6569C7.43813 31.6941 7.48234 31.7236 7.531 31.7436C7.57966 31.7637 7.6318 31.7739 7.68443 31.7737ZM8.34372 31.1194C8.37543 31.2011 8.3917 31.2881 8.39169 31.3758C8.39162 31.4069 8.38936 31.4379 8.38492 31.4687L18.0085 34.9798L12.5473 29.2571C12.3549 29.3216 12.1483 29.3312 11.9508 29.2847C11.7532 29.2382 11.5726 29.1375 11.4292 28.9939C11.4169 28.9816 11.4052 28.9687 11.3929 28.9558L8.34372 31.1194ZM29.8585 31.8574C29.9383 31.8583 30.0166 31.8353 30.0833 31.7914C30.15 31.7474 30.202 31.6846 30.2327 31.6108C30.2634 31.5371 30.2713 31.4559 30.2555 31.3776C30.2396 31.2994 30.2008 31.2276 30.1438 31.1716C30.0679 31.1007 29.9673 31.0621 29.8635 31.0639C29.7596 31.0656 29.6604 31.1077 29.5869 31.1811C29.5134 31.2545 29.4712 31.3536 29.4693 31.4575C29.4675 31.5614 29.506 31.662 29.5768 31.7381C29.614 31.7753 29.6582 31.8049 29.7068 31.8251C29.7555 31.8452 29.8077 31.8556 29.8603 31.8555L29.8585 31.8574ZM29.1518 31.441C29.1526 31.3946 29.1582 31.3485 29.1684 31.3032L26.1727 29.4392C26.1477 29.4709 26.1208 29.5011 26.0922 29.5296C25.906 29.7157 25.6588 29.8284 25.3962 29.8467C25.1335 29.865 24.8731 29.7877 24.6629 29.6292L19.3197 34.9379L19.3443 34.9841L29.1537 31.4392L29.1518 31.441ZM18.8019 26.286C18.881 26.2859 18.9584 26.2624 19.0241 26.2184C19.0899 26.1744 19.1411 26.1119 19.1714 26.0388C19.2017 25.9657 19.2096 25.8853 19.1942 25.8077C19.1788 25.73 19.1407 25.6587 19.0848 25.6027C19.0148 25.5332 18.9217 25.492 18.8232 25.4869C18.7247 25.4818 18.6278 25.5133 18.5511 25.5752C18.4744 25.6372 18.4232 25.7253 18.4074 25.8226C18.3916 25.92 18.4123 26.0197 18.4655 26.1027L18.4716 26.1132C18.486 26.1328 18.5016 26.1515 18.5184 26.1692C18.5556 26.2062 18.5997 26.2356 18.6482 26.2555C18.6968 26.2755 18.7488 26.2856 18.8013 26.2854L18.8019 26.286ZM19.2711 26.4146C19.1804 26.4955 19.0702 26.5514 18.9513 26.5769L18.8622 30.3709C18.9922 30.4005 19.1112 30.4664 19.2053 30.5609C19.2681 30.6237 19.3184 30.6978 19.3536 30.7793L24.2675 29.0449C24.2417 28.951 24.2287 28.8539 24.2287 28.7565C24.2285 28.6579 24.2419 28.5598 24.2687 28.465L19.2798 26.4195L19.2705 26.4152L19.2711 26.4146ZM18.6432 26.5757C18.5127 26.5468 18.3934 26.4808 18.2994 26.3857L18.2896 26.3764L13.289 28.2903C13.2813 28.4123 13.253 28.5321 13.2053 28.6446L18.0639 30.767C18.0992 30.6903 18.148 30.6205 18.2078 30.5609C18.3033 30.4648 18.4247 30.3983 18.5571 30.3697L18.6432 26.5757ZM19.463 26.1378C19.4602 26.1458 19.4569 26.1536 19.4532 26.1612L24.3917 28.1852C24.4354 28.1118 24.4877 28.0439 24.5473 27.9828C24.6557 27.875 24.7856 27.7912 24.9286 27.7368L23.8505 18.8248L21.575 24.2491C21.4439 24.5632 21.2789 24.862 21.083 25.1403C20.9172 25.3768 20.7121 25.5831 20.4766 25.7504C20.3236 25.8539 20.1583 25.938 19.9846 26.0007C19.8167 26.0609 19.6438 26.1062 19.468 26.136L19.463 26.1378ZM18.7047 31.4607H18.7084C18.814 31.4599 18.915 31.4173 18.9893 31.3423C19.0636 31.2673 19.1053 31.1659 19.1051 31.0603C19.1049 30.9542 19.0627 30.8525 18.9876 30.7774C18.9124 30.7026 18.8106 30.6605 18.7044 30.6605C18.5983 30.6605 18.4965 30.7026 18.4212 30.7774C18.3464 30.8527 18.3043 30.9545 18.3043 31.0606C18.3043 31.1668 18.3464 31.2686 18.4212 31.3438C18.4953 31.418 18.5956 31.4602 18.7004 31.4613H18.7047V31.4607ZM19.2047 31.5603C19.1097 31.6555 18.9893 31.7215 18.8579 31.7504V34.6021C18.9479 34.6224 19.0331 34.66 19.1088 34.7128L24.4464 29.4103C24.4267 29.3832 24.4071 29.3549 24.3892 29.326L19.4114 31.0837C19.4061 31.2632 19.3321 31.4338 19.2047 31.5603ZM18.5516 31.7504C18.4202 31.7215 18.2998 31.6555 18.2047 31.5603C18.0755 31.4312 18.0013 31.2571 17.9975 31.0745L13.0467 28.9096C13.0235 28.9385 12.9986 28.9661 12.9723 28.9921C12.929 29.0355 12.8821 29.0752 12.832 29.1107L18.2318 34.7688C18.3226 34.6866 18.4333 34.6294 18.5528 34.6028V31.751L18.5516 31.7504ZM18.7047 35.6925C18.784 35.6926 18.8615 35.6691 18.9274 35.6251C18.9933 35.581 19.0446 35.5185 19.0749 35.4452C19.1052 35.372 19.1131 35.2914 19.0975 35.2137C19.082 35.136 19.0438 35.0646 18.9876 35.0087C18.9137 34.9343 18.8133 34.8923 18.7084 34.8918H18.7047C18.6259 34.8925 18.549 34.9164 18.4837 34.9607C18.4184 35.0049 18.3676 35.0674 18.3377 35.1404C18.3078 35.2134 18.3001 35.2936 18.3156 35.3709C18.3312 35.4482 18.3692 35.5193 18.4249 35.5751C18.5002 35.6501 18.6022 35.6921 18.7084 35.6919L18.7047 35.6925ZM12.2004 28.8205C12.3187 28.8201 12.4342 28.7848 12.5324 28.719C12.6307 28.6532 12.7073 28.5598 12.7527 28.4507C12.7981 28.3415 12.8102 28.2213 12.7876 28.1053C12.7649 27.9892 12.7085 27.8824 12.6254 27.7983C12.5696 27.7425 12.5033 27.6982 12.4304 27.668C12.3575 27.6378 12.2793 27.6223 12.2004 27.6223C12.1215 27.6223 12.0433 27.6378 11.9704 27.668C11.8975 27.6982 11.8313 27.7425 11.7755 27.7983C11.7196 27.8541 11.6754 27.9204 11.6452 27.9933C11.615 28.0662 11.5994 28.1444 11.5994 28.2233C11.5994 28.3022 11.615 28.3804 11.6452 28.4533C11.6754 28.5262 11.7196 28.5925 11.7755 28.6483C11.8314 28.7035 11.8978 28.7472 11.9707 28.7768C12.0437 28.8063 12.1217 28.8212 12.2004 28.8205ZM25.321 29.3561C25.4397 29.3561 25.5557 29.3209 25.6544 29.2549C25.753 29.189 25.8299 29.0952 25.8754 28.9856C25.9208 28.8759 25.9327 28.7552 25.9095 28.6388C25.8864 28.5224 25.8292 28.4155 25.7453 28.3315C25.6326 28.2188 25.4797 28.1555 25.3204 28.1555C25.161 28.1555 25.0081 28.2188 24.8954 28.3315C24.7827 28.4442 24.7194 28.5971 24.7194 28.7565C24.7194 28.9159 24.7827 29.0688 24.8954 29.1815C24.9513 29.2372 25.0177 29.2814 25.0907 29.3113C25.1638 29.3413 25.242 29.3565 25.321 29.3561ZM30.345 18.7442C30.4636 18.744 30.5796 18.7086 30.6782 18.6426C30.7769 18.5766 30.8537 18.4828 30.8991 18.3731C30.9445 18.2635 30.9564 18.1428 30.9333 18.0264C30.9102 17.91 30.8531 17.803 30.7693 17.719C30.6566 17.6063 30.5037 17.543 30.3443 17.543C30.1849 17.543 30.0321 17.6063 29.9194 17.719C29.8067 17.8317 29.7433 17.9846 29.7433 18.1439C29.7433 18.3033 29.8067 18.4562 29.9194 18.5689C29.9752 18.6248 30.0416 18.669 30.1146 18.6991C30.1877 18.7292 30.266 18.7445 30.345 18.7442ZM24.701 7.66301C24.8197 7.66281 24.9357 7.62745 25.0343 7.56142C25.1329 7.49538 25.2098 7.40161 25.2552 7.29195C25.3006 7.18228 25.3125 7.06163 25.2894 6.94521C25.2663 6.82879 25.2092 6.72182 25.1254 6.63779C25.0121 6.52724 24.8599 6.46579 24.7016 6.46674C24.5434 6.4677 24.3919 6.53099 24.2799 6.6429C24.168 6.75481 24.1047 6.90631 24.1038 7.06458C24.1028 7.22284 24.1643 7.3751 24.2748 7.48835C24.3308 7.54417 24.3973 7.58835 24.4705 7.61833C24.5436 7.64831 24.622 7.66349 24.701 7.66301ZM12.7638 7.66301C12.8825 7.66293 12.9986 7.62766 13.0973 7.56167C13.196 7.49568 13.2729 7.40192 13.3184 7.29223C13.3639 7.18254 13.3758 7.06184 13.3527 6.94536C13.3297 6.82889 13.2726 6.72186 13.1887 6.63779C13.0755 6.52724 12.9232 6.46579 12.765 6.46674C12.6067 6.4677 12.4552 6.53099 12.3433 6.6429C12.2314 6.75481 12.1681 6.90631 12.1671 7.06458C12.1662 7.22284 12.2276 7.3751 12.3382 7.48835C12.3941 7.5441 12.4605 7.58823 12.5335 7.61821C12.6066 7.64819 12.6848 7.66341 12.7638 7.66301ZM1.51715 16.3229C1.59627 16.3228 1.6736 16.2993 1.73937 16.2553C1.80513 16.2113 1.85639 16.1488 1.88666 16.0757C1.91693 16.0026 1.92486 15.9222 1.90944 15.8445C1.89403 15.7669 1.85596 15.6956 1.80005 15.6396C1.72494 15.5645 1.62306 15.5223 1.51684 15.5223C1.41061 15.5223 1.30874 15.5645 1.23363 15.6396C1.15852 15.7148 1.11632 15.8166 1.11632 15.9229C1.11632 16.0291 1.15852 16.131 1.23363 16.2061C1.27077 16.2432 1.31489 16.2726 1.36343 16.2927C1.41198 16.3127 1.46401 16.323 1.51653 16.3229H1.51715ZM6.85478 15.6827C6.97347 15.6825 7.08944 15.6471 7.18806 15.5811C7.28668 15.5151 7.36354 15.4213 7.40893 15.3116C7.45432 15.202 7.46622 15.0813 7.44312 14.9649C7.42002 14.8485 7.36296 14.7415 7.27914 14.6575C7.16453 14.5559 7.01549 14.5019 6.86242 14.5064C6.70935 14.5109 6.56377 14.5737 6.45536 14.6818C6.34696 14.79 6.2839 14.9355 6.27904 15.0885C6.27417 15.2416 6.32788 15.3907 6.4292 15.5056C6.48491 15.5618 6.5512 15.6064 6.62425 15.6368C6.6973 15.6672 6.77566 15.6828 6.85478 15.6827ZM50.6611 13.0185C50.3425 13.4674 49.8964 13.8102 49.3806 14.0025C48.8324 14.219 48.1947 14.3274 47.4673 14.3278C46.7318 14.3278 46.0787 14.1552 45.5079 13.81C44.9314 13.4584 44.4709 12.9452 44.1838 12.334C43.8714 11.6977 43.7113 10.9596 43.7035 10.12V9.33275C43.7035 7.97236 44.0206 6.91803 44.6549 6.16977C45.2892 5.42152 46.1812 5.04739 47.3308 5.04739C48.2738 5.04739 49.0323 5.28826 49.6063 5.77002C50.1803 6.25177 50.5317 6.93484 50.6604 7.81922H49.4704C49.2474 6.62078 48.5362 6.02135 47.337 6.02094C46.5395 6.02094 45.935 6.30139 45.5233 6.86227C45.1117 7.42316 44.904 8.23517 44.9003 9.29831V10.0363C44.9003 11.0498 45.1318 11.8555 45.5946 12.4533C46.0575 13.0511 46.6838 13.3502 47.4735 13.3506C47.8693 13.3572 48.2641 13.307 48.6457 13.2018C48.963 13.1136 49.2503 12.9405 49.4766 12.7011V10.6778H47.3855V9.70606H50.6598L50.6611 13.0185ZM55.709 8.52279C55.5224 8.49274 55.3335 8.47813 55.1445 8.47912C54.3921 8.47912 53.8816 8.79954 53.6131 9.44038V14.203H52.4686V7.49204H53.5817L53.6008 8.26695C53.9768 7.66793 54.5098 7.36822 55.1998 7.36781C55.4233 7.36781 55.5928 7.39671 55.7084 7.45452L55.709 8.52279ZM60.658 14.203C60.5916 14.071 60.5377 13.8354 60.4963 13.4963C59.9632 14.0503 59.3277 14.3272 58.5897 14.3272C57.928 14.3272 57.3853 14.1401 56.9618 13.7657C56.7568 13.5906 56.5933 13.3721 56.4833 13.1259C56.3733 12.8797 56.3195 12.6121 56.3259 12.3426C56.3259 11.6456 56.5924 11.1029 57.1254 10.7147C57.6584 10.3264 58.4056 10.1331 59.3671 10.1347H60.4833V9.60643C60.4833 9.20545 60.3634 8.88626 60.1236 8.64886C59.8837 8.41147 59.5303 8.29257 59.0633 8.29216C58.6533 8.29216 58.3101 8.39466 58.0338 8.59966C57.7574 8.80467 57.619 9.05477 57.6186 9.34997H56.4594C56.4594 9.015 56.5783 8.69151 56.8161 8.37949C57.0707 8.05544 57.4036 7.80148 57.7835 7.64148C58.2065 7.45618 58.6642 7.36309 59.126 7.36842C59.8993 7.36842 60.5049 7.56174 60.9427 7.94837C61.3806 8.33501 61.6082 8.86801 61.6254 9.54739V12.6353C61.6254 13.2503 61.7039 13.7403 61.8609 14.1052V14.2042L60.658 14.203ZM58.7515 13.3284C59.1113 13.3284 59.4646 13.2322 59.7748 13.0499C60.0768 12.8849 60.3212 12.6317 60.4753 12.3241V10.9471H59.5787C58.1736 10.9471 57.4708 11.3586 57.4704 12.1815C57.4704 12.541 57.5903 12.8221 57.8302 13.0246C58.07 13.2272 58.378 13.328 58.7539 13.3272L58.7515 13.3284ZM69.0891 10.9225C69.0891 11.9439 68.8556 12.7665 68.3886 13.3906C67.9216 14.0146 67.289 14.3264 66.4907 14.326C65.6765 14.326 65.0356 14.0675 64.5682 13.5505V16.7817H63.4212V7.49511H64.4667L64.5227 8.23927C64.9897 7.66075 65.6387 7.37129 66.4698 7.37088C67.2759 7.37088 67.9136 7.6749 68.3831 8.28294C68.8525 8.89097 69.0871 9.7364 69.0867 10.8192L69.0891 10.9225ZM67.9421 10.7922C67.9421 10.0357 67.7808 9.43833 67.4581 9.00003C67.1355 8.56174 66.6931 8.34259 66.1309 8.34259C65.4368 8.34259 64.9159 8.65009 64.5682 9.2651V12.4711C64.9114 13.0833 65.4364 13.3891 66.1432 13.3887C66.3989 13.3963 66.6525 13.3405 66.8814 13.2264C67.1103 13.1122 67.3073 12.9432 67.4551 12.7344C67.7814 12.2989 67.9446 11.6511 67.9446 10.7909L67.9421 10.7922ZM71.6937 8.30569C72.2021 7.68125 72.8636 7.36904 73.6783 7.36904C75.0965 7.36904 75.8118 8.16854 75.8241 9.76756V14.2011H74.6765V9.7608C74.6728 9.2774 74.5623 8.91988 74.345 8.68822C74.1277 8.45657 73.7896 8.34075 73.3308 8.34075C72.981 8.33429 72.6382 8.43847 72.3511 8.63841C72.0689 8.83866 71.8426 9.10774 71.6937 9.42008V14.2011H70.5498V4.67408H71.6967L71.6937 8.30569ZM84.6174 9.97974C84.6174 10.8522 84.4788 11.6038 84.2017 12.2344C83.9245 12.8649 83.535 13.358 83.0332 13.7134L84.6451 14.9785L83.8333 15.7288L81.9268 14.2153C81.6183 14.2911 81.3016 14.3287 80.984 14.3272C80.273 14.3272 79.6426 14.1526 79.0928 13.8032C78.543 13.4539 78.116 12.9558 77.8118 12.3088C77.5088 11.6618 77.3528 10.9123 77.3437 10.0603V9.40963C77.3437 8.54124 77.4946 7.77433 77.7964 7.10889C78.0981 6.44345 78.5252 5.93382 79.0774 5.57998C79.6289 5.22656 80.2603 5.04985 80.9717 5.04985C81.6994 5.04985 82.3392 5.22553 82.8911 5.57691C83.443 5.92828 83.8677 6.43382 84.1654 7.09351C84.4631 7.7528 84.6119 8.52279 84.6119 9.40348L84.6174 9.97974ZM83.4268 9.39733C83.4268 8.3346 83.2148 7.51459 82.7908 6.9373C82.3669 6.36002 81.7624 6.07178 80.9772 6.0726C80.2289 6.0726 79.6387 6.35961 79.2066 6.93361C78.7744 7.50762 78.5539 8.30139 78.5448 9.31492V9.97851C78.5448 11.0125 78.7609 11.827 79.1931 12.4219C79.6252 13.0168 80.2257 13.3145 80.9944 13.3149C81.7636 13.3149 82.3581 13.0349 82.7779 12.4748C83.1978 11.9148 83.4149 11.1118 83.4292 10.0658L83.4268 9.39733ZM87.65 13.2294H91.9286V14.203H86.4551V5.17285H87.6519L87.65 13.2294ZM47.9458 28.4748L50.4151 20.2805H52.9145L49.1205 31.1741H46.7779L42.9975 20.278H45.4895L47.9458 28.4748ZM53.7828 20.9841C53.7782 20.8354 53.8047 20.6875 53.8607 20.5498C53.9168 20.4121 54.0011 20.2877 54.1082 20.1845C54.3271 19.9713 54.6227 19.8647 54.995 19.8647C55.3673 19.8647 55.6617 19.9695 55.8782 20.179C56.0896 20.3936 56.2079 20.6829 56.2072 20.9842C56.2065 21.2855 56.0869 21.5743 55.8745 21.7879C55.6523 21.997 55.3591 22.1017 54.995 22.1021C54.6309 22.1025 54.3378 21.9978 54.1156 21.7879C54.0062 21.6847 53.92 21.5594 53.8626 21.4205C53.8053 21.2815 53.7781 21.1319 53.7828 20.9816V20.9841ZM56.0799 31.1766H53.9101V23.0769H56.0799V31.1766ZM62.2472 28.9361C62.2472 28.6716 62.1162 28.4633 61.8542 28.3112C61.5922 28.1591 61.1719 28.0232 60.5934 27.9035C58.6664 27.4996 57.7029 26.6815 57.7029 25.449C57.7029 24.7307 58.001 24.1308 58.5971 23.6495C59.1933 23.1681 59.9723 22.9273 60.9341 22.9269C61.9616 22.9269 62.7835 23.169 63.3997 23.6532C64.0159 24.1374 64.3234 24.7659 64.3222 25.5388H62.1641C62.1687 25.3973 62.1445 25.2564 62.0931 25.1246C62.0416 24.9928 61.9639 24.8728 61.8646 24.7719C61.6654 24.5693 61.3536 24.4683 60.9292 24.4687C60.5651 24.4687 60.2833 24.5507 60.0836 24.7147C59.9888 24.7896 59.9128 24.8854 59.8613 24.9947C59.8099 25.104 59.7845 25.2237 59.7871 25.3444C59.7871 25.5835 59.9005 25.7768 60.1272 25.9244C60.354 26.072 60.7369 26.1991 61.2761 26.3057C61.7386 26.3926 62.1939 26.5139 62.6383 26.6686C63.7802 27.088 64.3513 27.8139 64.3517 28.8463C64.3517 29.5843 64.035 30.1819 63.4015 30.639C62.7681 31.0962 61.9499 31.3244 60.947 31.3235C60.2681 31.3235 59.6656 31.2026 59.1395 30.9607C58.6455 30.7447 58.218 30.4011 57.9009 29.965C57.6091 29.5688 57.4512 29.0899 57.4501 28.5978H59.5006C59.5206 28.9816 59.6629 29.276 59.9274 29.481C60.1918 29.686 60.5461 29.7885 60.9901 29.7885C61.4042 29.7885 61.7172 29.71 61.9292 29.5529C62.0291 29.4844 62.1104 29.3922 62.1659 29.2846C62.2214 29.1769 62.2493 29.0572 62.2472 28.9361ZM70.591 30.3506C70.058 30.9996 69.32 31.3239 68.3769 31.3235C67.5086 31.3235 66.8462 31.0741 66.3899 30.5751C65.9335 30.0761 65.7006 29.3453 65.6912 28.3826V23.0769H67.8542V28.3137C67.8542 29.1583 68.2384 29.5804 69.0067 29.58C69.7398 29.58 70.2437 29.3252 70.5184 28.8155V23.0769H72.6881V31.1741H70.6531L70.591 30.3506ZM79.0098 31.1741C78.8998 30.9449 78.8267 30.6998 78.7933 30.4478C78.2693 31.0316 77.5883 31.3235 76.7503 31.3235C75.9569 31.3235 75.2995 31.0939 74.7779 30.6347C74.5262 30.4219 74.3252 30.1557 74.1896 29.8553C74.0539 29.5549 73.987 29.2281 73.9938 28.8986C73.9938 28.0408 74.3118 27.3824 74.9477 26.9232C75.5836 26.464 76.5028 26.2319 77.7054 26.227H78.7011V25.7633C78.7011 25.3893 78.6049 25.09 78.4126 24.8654C78.2203 24.6407 77.9173 24.5283 77.5036 24.5283C77.1391 24.5283 76.8534 24.6157 76.6463 24.7903C76.4393 24.965 76.3357 25.2044 76.3357 25.5087H74.1783C74.1774 25.0395 74.3284 24.5828 74.6088 24.2067C74.8958 23.8073 75.3058 23.4943 75.8388 23.2676C76.4038 23.0333 77.0108 22.9173 77.6223 22.9269C78.6207 22.9269 79.4128 23.1776 79.9987 23.679C80.5846 24.1804 80.8776 24.8852 80.8776 25.7934V29.3032C80.8825 30.0712 80.9899 30.6524 81.1998 31.0468V31.1741H79.0098ZM77.2214 29.6698C77.5288 29.6726 77.8322 29.5992 78.1045 29.4564C78.3574 29.3304 78.5662 29.1307 78.7035 28.8838V27.4908H77.8948C76.8124 27.4908 76.2363 27.8649 76.1666 28.6132L76.1586 28.7405C76.1551 28.8655 76.1787 28.9898 76.2279 29.1048C76.277 29.2198 76.3506 29.3227 76.4434 29.4066C76.6324 29.582 76.8915 29.6698 77.2207 29.6698H77.2214ZM84.8179 31.1741H82.6475V19.6802H84.8179V31.1741ZM86.5842 20.9816C86.5795 20.833 86.6061 20.6851 86.6621 20.5473C86.7181 20.4096 86.8024 20.2852 86.9095 20.1821C87.1264 19.9726 87.4221 19.8678 87.7964 19.8678C88.1707 19.8678 88.4651 19.9726 88.6795 20.1821C88.891 20.3966 89.0093 20.686 89.0086 20.9873C89.0079 21.2885 88.8883 21.5774 88.6758 21.7909C88.4536 22 88.1605 22.1048 87.7964 22.1052C87.4323 22.1056 87.1391 22.0009 86.9169 21.7909C86.8069 21.6875 86.7203 21.5618 86.6627 21.4223C86.6051 21.2827 86.5779 21.1325 86.583 20.9816H86.5842ZM88.8812 31.1741H86.7109V23.0769H88.8812V31.1741ZM93.1469 29.4299H97.1057V31.1741H90.3843V29.8567L94.1937 24.8205H90.4969V23.0769H96.9846V24.3506L93.1469 29.4299ZM102.188 31.3235C100.999 31.3235 100.032 30.9592 99.2878 30.2307C98.5436 29.5021 98.1707 28.5318 98.1691 27.3198V27.1101C98.1691 26.2971 98.3261 25.5699 98.6402 24.9287C98.9306 24.3146 99.3951 23.7994 99.976 23.4472C100.552 23.1003 101.209 22.9269 101.948 22.9269C103.055 22.9269 103.927 23.2754 104.563 23.9724C105.2 24.6694 105.518 25.6597 105.518 26.9435V27.826H100.362C100.432 28.3549 100.642 28.7791 100.994 29.0984C101.345 29.4178 101.79 29.5775 102.33 29.5775C103.163 29.5775 103.814 29.2756 104.283 28.6716L105.346 29.8617C105.01 30.3306 104.555 30.7013 104.028 30.9355C103.45 31.1988 102.821 31.3313 102.186 31.3235H102.188ZM101.942 24.6704C101.512 24.6704 101.164 24.8157 100.896 25.1064C100.628 25.3971 100.458 25.8131 100.384 26.3543H103.391V26.1815C103.381 25.7005 103.252 25.3285 103.002 25.0652C102.753 24.802 102.399 24.6704 101.939 24.6704H101.942ZM111.296 25.1046C111.038 25.0668 110.778 25.0463 110.517 25.0431C109.699 25.0431 109.163 25.32 108.908 25.874V31.1722H106.746V23.0769H108.788L108.85 24.0419C109.284 23.2989 109.885 22.9273 110.653 22.9269C110.882 22.9248 111.11 22.9578 111.33 23.0246L111.296 25.1046Z" fill="url(#paint0_linear_207_661)"/>
</g>
<defs>
<linearGradient id="paint0_linear_207_661" x1="15.5147" y1="17.9914" x2="96.5799" y2="18.2171" gradientUnits="userSpaceOnUse">
<stop stop-color="#FFBE6E"/>
<stop offset="1" stop-color="#F6169B"/>
</linearGradient>
<clipPath id="clip0_207_661">
<rect width="110.515" height="36" fill="white" transform="translate(0.808105)"/>
</clipPath>
</defs>
</svg>
