<svg width="103" height="36" viewBox="0 0 103 36" fill="none" xmlns="http://www.w3.org/2000/svg">
<path d="M32.1893 12.8589C32.958 10.4974 32.4907 5.76834 31.0086 4.02184C30.8549 3.8312 30.5597 3.8189 30.369 3.97264C30.3321 3.99724 30.3075 4.03414 30.2829 4.08333L28.4504 6.93062C27.9891 7.49639 27.1835 7.63168 26.5686 7.23195C22.3622 4.51996 16.9444 4.51996 12.738 7.23195C12.1231 7.63168 11.3174 7.49639 10.8562 6.93062L9.02363 4.08333C8.88834 3.8681 8.6116 3.8066 8.39637 3.93574C8.35947 3.96034 8.32257 3.98494 8.29797 4.02184C6.81591 5.76834 6.34239 10.4851 7.11724 12.8589C7.36938 13.6399 7.43087 14.4762 7.28328 15.2818C7.13569 16.0751 6.98195 17.0529 6.98195 17.7294C6.98195 24.6539 12.6519 30.2685 19.6441 30.2685C26.6362 30.2685 32.3062 24.6477 32.3062 17.7294C32.3062 17.0529 32.1586 16.0874 32.0048 15.2818C31.8634 14.4701 31.9249 13.6399 32.1893 12.8589ZM19.6318 27.4704C14.2324 27.4704 9.84153 23.1165 9.84153 17.7601C9.84153 17.5818 9.84153 17.4096 9.85383 17.2436C10.2044 11.8319 14.8719 7.73007 20.2713 8.0806C21.5013 8.1667 22.7066 8.46803 23.8258 8.9969C27.0667 10.5036 29.2191 13.6768 29.422 17.2436C29.4343 17.4096 29.4343 17.5941 29.4343 17.7601C29.4404 23.1165 25.0496 27.4704 19.6318 27.4704Z" fill="#20B4D5"/>
<path d="M23.8931 21.5053L21.3841 17.2005L19.2379 13.6214C19.1887 13.5353 19.0903 13.4861 18.998 13.4861H16.9502C16.8518 13.4861 16.7596 13.5476 16.7104 13.6337C16.6612 13.7198 16.6612 13.8244 16.7104 13.9105L18.7582 17.3358L15.997 21.4868C15.9355 21.5729 15.9355 21.6775 15.9847 21.7759C16.0339 21.862 16.1323 21.9235 16.2368 21.9235H18.297C18.3954 21.9235 18.4876 21.8743 18.5368 21.7882L20.0189 19.482L21.3595 21.7697C21.4087 21.8558 21.5071 21.905 21.5993 21.905H23.6349C23.7333 21.905 23.8255 21.8558 23.8747 21.7697C23.9362 21.6959 23.9362 21.5852 23.8931 21.5053Z" fill="#20B4D5"/>
<path d="M43.9656 10.5651H46.5854V24.7461H43.9656V18.7072H41.0138V24.7584H38.394V10.5651H41.0138V16.727H43.9656V10.5651Z" fill="#1B2838"/>
<path d="M54.6417 24.7461L54.1005 21.8066H50.9642L50.4722 24.7461H47.8647L50.7489 10.5651H54.2604L57.2737 24.7461H54.6417ZM51.3024 19.851H53.7254L52.4708 13.0618L51.3024 19.851Z" fill="#1B2838"/>
<path d="M63.0789 22.1572V19.1192C63.0789 18.8794 63.0297 18.7195 62.9437 18.6396C62.8576 18.5535 62.6915 18.5166 62.4517 18.5166H60.6191C59.0632 18.5166 58.2822 17.7663 58.2822 16.272V12.7851C58.2822 11.3031 59.1001 10.5528 60.7298 10.5528H63.2265C64.8685 10.5528 65.6741 11.2908 65.6741 12.7851V14.7653H63.0482V13.1479C63.0482 12.9081 62.999 12.7482 62.9129 12.6683C62.8268 12.5822 62.6608 12.5453 62.4086 12.5453H61.5415C61.2894 12.5453 61.1049 12.5822 61.025 12.6683C60.9389 12.7544 60.8897 12.9081 60.8897 13.1479V16.0075C60.8897 16.2474 60.9389 16.4072 61.025 16.4872C61.1111 16.5733 61.2894 16.6102 61.5415 16.6102H63.3372C64.93 16.6102 65.7233 17.3481 65.7233 18.8179V22.5323C65.7233 24.0143 64.9054 24.7646 63.2511 24.7646H60.8036C59.1493 24.7646 58.3314 24.0143 58.3314 22.5323V20.5767H60.9389V22.1695C60.9389 22.4093 60.9881 22.5692 61.0742 22.6491C61.1603 22.7352 61.3386 22.7721 61.5907 22.7721H62.4578C62.6977 22.7721 62.8699 22.7352 62.9498 22.6491C63.0482 22.563 63.0789 22.397 63.0789 22.1572Z" fill="#1B2838"/>
<path d="M72.6782 10.5651H75.2857V22.5261C75.2857 24.0082 74.4678 24.7584 72.8135 24.7584H70.04C68.3858 24.7584 67.5679 24.0082 67.5679 22.5261V10.5651H70.1876V22.1633C70.1876 22.4031 70.2368 22.563 70.3229 22.643C70.409 22.7229 70.575 22.7659 70.8272 22.7659H72.0325C72.2846 22.7659 72.4691 22.7291 72.5491 22.643C72.629 22.5569 72.6844 22.4031 72.6844 22.1633L72.6782 10.5651Z" fill="#1B2838"/>
<path d="M80.0581 19.2115V24.7461H77.4507V10.5651H82.7209C84.3752 10.5651 85.1931 11.303 85.1931 12.7974V17.0037C85.1931 18.2337 84.6396 18.9593 83.5265 19.1623L85.9126 24.7584H83.1022L80.9191 19.2238L80.0581 19.2115ZM80.0581 12.5329V17.2989H81.9399C82.1798 17.2989 82.352 17.2497 82.4442 17.1759C82.5364 17.1021 82.5795 16.9361 82.5795 16.6963V13.1418C82.5795 12.9019 82.5303 12.742 82.4442 12.6621C82.3581 12.5821 82.1921 12.5391 81.9399 12.5391L80.0581 12.5329Z" fill="#1B2838"/>
<path d="M93.0954 24.7461L92.5542 21.8066H89.4179L88.9136 24.7461H86.3062L89.1903 10.5651H92.7141L95.7397 24.7461H93.0954ZM89.7561 19.851H92.1791L90.9368 13.0618L89.7561 19.851Z" fill="#1B2838"/>
</svg>
