<svg width="672" height="170" viewBox="0 0 672 170" fill="none" xmlns="http://www.w3.org/2000/svg">
<path d="M216.345 52.5155C219.447 47.9286 223.211 44.3287 227.635 41.7167C232.116 39.1037 237.114 37.7977 242.63 37.7977C247.513 37.7977 251.995 38.5518 256.074 40.0619C260.153 41.5136 263.657 43.8065 266.587 46.9417C269.518 50.0769 271.787 54.1118 273.396 59.0475C275.062 63.9246 275.895 69.8175 275.895 76.727V133.771H251.937V76.5526C251.937 73.1846 251.506 70.2822 250.645 67.8436C249.84 65.405 248.662 63.4312 247.111 61.9211C245.56 60.4119 243.693 59.3091 241.509 58.6115C239.326 57.8574 236.855 57.4799 234.098 57.4799C230.076 57.4799 226.572 58.2052 223.584 59.6569C220.654 61.1085 218.241 63.1408 216.345 65.7528V133.771H192.388V0H216.345V52.5155ZM350.791 120.534C347.631 125.236 343.81 128.922 339.329 131.594C334.905 134.264 330.05 135.6 324.765 135.6C319.939 135.6 315.515 134.845 311.493 133.336C307.472 131.826 304.024 129.446 301.152 126.194C298.279 122.885 296.039 118.704 294.43 113.653C292.879 108.544 292.103 102.418 292.103 95.2766V39.5387H316.061V95.451C316.061 99.2828 316.319 102.505 316.837 105.118C317.411 107.731 318.302 109.85 319.508 111.476C320.715 113.043 322.294 114.176 324.248 114.873C326.201 115.569 328.585 115.917 331.401 115.917C336.169 115.917 340.048 115.017 343.034 113.218C346.022 111.36 348.292 108.834 349.843 105.64V39.5387H373.887V133.771H352.17L350.791 120.534ZM474.292 87.613C474.292 94.6384 473.517 101.083 471.965 106.947C470.471 112.811 468.202 117.862 465.157 122.101C462.112 126.339 458.32 129.649 453.782 132.029C449.243 134.352 443.957 135.513 437.925 135.513C432.467 135.513 427.727 134.496 423.705 132.465C419.741 130.374 416.323 127.472 413.45 123.756L412.33 133.771H390.785V0H414.742V48.0743C417.5 44.8222 420.746 42.2974 424.481 40.4969C428.272 38.6974 432.696 37.7977 437.752 37.7977C443.842 37.7977 449.156 38.9878 453.695 41.3679C458.292 43.748 462.112 47.0576 465.157 51.2967C468.202 55.5347 470.471 60.615 471.965 66.5366C473.517 72.4008 474.292 78.8168 474.292 85.7838V87.613ZM450.334 85.7838C450.334 81.952 450.047 78.3233 449.472 74.8978C448.898 71.4723 447.893 68.4818 446.456 65.9272C445.078 63.3142 443.181 61.2532 440.768 59.7441C438.355 58.2349 435.339 57.4799 431.72 57.4799C427.354 57.4799 423.791 58.4083 421.033 60.2663C418.334 62.1242 416.236 64.6787 414.742 67.9308V105.467C416.236 108.718 418.334 111.273 421.033 113.131C423.791 114.988 427.41 115.917 431.892 115.917C435.512 115.917 438.499 115.22 440.854 113.827C443.211 112.375 445.078 110.402 446.456 107.905C447.893 105.35 448.898 102.36 449.472 98.935C450.047 95.451 450.334 91.6777 450.334 87.613V85.7838ZM486.795 85.871C486.795 78.7296 487.599 72.1976 489.208 66.276C490.817 60.3534 493.172 55.3029 496.274 51.1223C499.435 46.8832 503.283 43.6034 507.822 41.2807C512.419 38.958 517.675 37.7977 523.593 37.7977C528.879 37.7977 533.475 38.7846 537.382 40.7585C541.346 42.7324 544.764 45.5198 547.637 49.1187L549.102 39.5387H570.216V170H546.172V125.758C543.357 128.894 540.082 131.304 536.347 132.987C532.614 134.671 528.304 135.513 523.421 135.513C517.561 135.513 512.361 134.323 507.822 131.942C503.283 129.503 499.463 126.165 496.361 121.927C493.258 117.63 490.874 112.579 489.208 106.773C487.599 100.909 486.795 94.5512 486.795 87.7002V85.871ZM510.753 87.7002C510.753 91.5904 511.097 95.2478 511.786 98.6734C512.476 102.099 513.568 105.118 515.061 107.731C516.556 110.286 518.48 112.318 520.836 113.827C523.249 115.336 526.15 116.091 529.54 116.091C533.733 116.091 537.151 115.25 539.795 113.566C542.495 111.882 544.621 109.559 546.172 106.599V66.5366C544.621 63.6343 542.495 61.3988 539.795 59.8312C537.151 58.2052 533.791 57.3927 529.712 57.3927C526.323 57.3927 523.421 58.1477 521.008 59.6569C518.652 61.1085 516.699 63.1111 515.148 65.6666C513.654 68.2212 512.534 71.2404 511.786 74.7234C511.097 78.1489 510.753 81.8648 510.753 85.871V87.7002ZM593.146 0H645.285V114.089H672V133.771H593.146V114.089H621.069V19.7694H593.146V0Z" fill="black"/>
<path fill-rule="evenodd" clip-rule="evenodd" d="M130.106 17.9599H23.3702C16.2424 17.9599 10.4643 23.8116 10.4643 31.03V139.124C10.4643 146.342 16.2424 152.194 23.3702 152.194H130.106C137.233 152.194 143.012 146.342 143.012 139.124V31.03C143.012 23.8116 137.233 17.9599 130.106 17.9599ZM23.3702 7.36249C10.4632 7.36249 0 17.9588 0 31.03V139.124C0 152.195 10.4632 162.791 23.3702 162.791H130.106C143.013 162.791 153.476 152.195 153.476 139.124V31.03C153.476 17.9588 143.013 7.36249 130.106 7.36249H23.3702Z" fill="black"/>
<path d="M82.0672 120.756C82.0672 124.138 81.6231 127.144 80.7349 129.775C79.8467 132.405 78.5699 134.622 76.9045 136.426C75.2391 138.229 73.2036 139.601 70.798 140.54C68.4294 141.48 65.7278 141.949 62.6931 141.949C61.3977 141.949 60.2135 141.874 59.1402 141.724C58.104 141.611 56.9937 141.367 55.8094 140.991L56.4756 130.338C56.8087 130.451 57.2158 130.545 57.6969 130.62C58.215 130.733 58.7331 130.808 59.2512 130.846C59.8064 130.921 60.343 130.977 60.8611 131.015C61.3793 131.052 61.8049 131.071 62.1379 131.071C64.2844 131.071 65.9313 130.15 67.0786 128.309C68.2259 126.505 68.7995 123.988 68.7995 120.756V49.2284C68.7995 45.8464 69.2621 42.8403 70.1874 40.2099C71.1496 37.5795 72.5004 35.3812 74.2398 33.6151C76.0163 31.849 78.1628 30.515 80.6794 29.6132C83.233 28.6738 86.1012 28.2041 89.284 28.2041C90.6903 28.2041 92.0781 28.3168 93.4474 28.5422C94.8538 28.7677 96.2601 29.0495 97.6665 29.3877L96.3341 39.6462C95.631 39.4584 94.8723 39.3268 94.0581 39.2517C93.2439 39.1389 92.3002 39.0826 91.2269 39.0826C88.2292 39.0826 85.9532 39.9844 84.3988 41.7881C82.8444 43.5542 82.0672 46.0343 82.0672 49.2284V120.756Z" fill="#0A8939"/>
</svg>
