<svg width="158" height="24" viewBox="0 0 158 24" fill="none" xmlns="http://www.w3.org/2000/svg">
<path d="M149.965 20.5C146.446 20.5 144.451 18.3539 144.451 15.2833C144.451 12.28 146.58 7.7525 151.937 7.7525C155.993 7.7525 158.309 10.8536 156.92 15H148.105C148.083 15.1345 148.078 15.3282 148.078 15.4851C148.078 16.785 149.035 17.5078 150.447 17.5078C151.657 17.5078 152.427 17.2491 152.965 16.375H156.558C155.303 19.2439 152.654 20.5 149.965 20.5ZM148.552 12.875H153.683C153.952 11.3733 152.883 10.6231 151.583 10.6231C150.328 10.6231 149.113 11.194 148.552 12.875Z" fill="currentColor"/>
<path d="M138.56 18.7349C137.552 20.0125 136.226 20.5 135.105 20.5C132.483 20.5 130.713 18.4436 130.713 15.485C130.713 11.7644 132.919 7.75 137.043 7.75C138.903 7.75 139.94 8.82832 140.433 9.88173L141.523 4.77425L145.472 3.87109L142.014 20.1246H138.264L138.56 18.7349ZM137.738 10.625C135.407 10.625 134.546 12.9075 134.546 14.9023C134.546 16.4264 135.255 17.5 136.644 17.5C139.02 17.5 139.903 14.8126 139.903 13.1765C139.903 11.8093 139.15 10.625 137.738 10.625Z" fill="currentColor"/>
<path d="M116.98 15.1937C116.98 12.1007 118.953 7.7525 124.108 7.7525C127.335 7.7525 129.847 9.43349 129.847 12.9748C129.847 16.0678 127.823 20.4922 122.668 20.4922C119.44 20.4922 116.98 18.735 116.98 15.1937ZM126.037 13.1541C126.037 11.4731 125.221 10.625 123.832 10.625C121.815 10.625 120.791 12.7058 120.791 15.0144C120.791 16.6954 121.528 17.5 122.918 17.5C124.935 17.5 126.037 15.4626 126.037 13.1541Z" fill="currentColor"/>
<path d="M108.268 9.85933C109.277 8.55936 110.824 7.75 112.797 7.75C114.971 7.75 116.18 8.91797 116.18 11.2714C116.18 11.8765 116.102 12.5713 115.945 13.3558L114.511 20.1246H110.801L112.145 13.8489C112.28 13.2437 112.347 12.7282 112.347 12.3024C112.347 11.2041 111.911 10.625 110.902 10.625C109.423 10.625 108.537 11.6972 108.066 13.8489L106.722 20.1246H103.023L104.368 13.8489C104.503 13.2437 104.57 12.7058 104.57 12.2799C104.57 11.2041 104.119 10.625 103.133 10.625C101.653 10.625 100.76 11.6972 100.311 13.8489L98.9665 20.1246H95.2684L97.816 8.125H101.402L101.096 9.61278C101.947 8.6266 103.052 7.75391 105.047 7.75391C106.705 7.75391 107.865 8.46971 108.268 9.85933Z" fill="currentColor"/>
<path d="M95.7772 11.8008C95.3289 11.7111 94.8106 11.6748 94.4296 11.6748C92.8606 11.6748 91.6787 12.2127 91.3201 14.0058L90.0193 20.1246H86.3885L88.9373 8.125H92.5604L92.1404 10.125C92.9647 8.75 95.4471 8.125 96.5623 8.125L95.7772 11.8008Z" fill="currentColor"/>
<path d="M79.2101 20.5C75.6912 20.5 73.6961 18.3539 73.6961 15.2833C73.6961 12.28 75.8254 7.7525 81.1821 7.7525C85.2389 7.7525 87.5548 10.8536 86.1652 15H77.3507C77.3283 15.1345 77.3241 15.3282 77.3241 15.4851C77.3241 16.785 78.2805 17.5078 79.6925 17.5078C80.9028 17.5078 81.6722 17.2491 82.2101 16.375H85.8039C84.5487 19.2439 81.8997 20.5 79.2101 20.5ZM77.798 12.875H82.9289C83.1978 11.3733 82.1289 10.6231 80.8289 10.6231C79.5738 10.6231 78.3583 11.194 77.798 12.875Z" fill="currentColor"/>
<path d="M65.0213 9.50071C66.0299 8.20075 67.3821 7.75 68.5027 7.75C71.1251 7.75 72.8553 9.74726 72.8553 12.7058C72.8553 16.4264 70.7488 20.5 66.6248 20.5C64.7645 20.5 63.6433 19.3625 63.1502 18.3091L62.1346 23.0986L58.1912 24L61.5623 8.125H65.3143L65.0213 9.50071ZM65.8776 17.502C68.2086 17.502 69.0603 15.2833 69.0603 13.2885C69.0603 11.7644 68.3655 10.623 66.9759 10.623C64.6001 10.623 63.7036 13.3782 63.7036 15.0144C63.7036 16.3816 64.4656 17.502 65.8776 17.502Z" fill="currentColor"/>
<path d="M56.574 8.125H60.2967L52.1898 23.0483L47.9446 23.9995L50.0662 20.0781L47.5189 8.12451H51.2733L52.7596 15.1426L56.574 8.125Z" fill="currentColor"/>
<path d="M47.2147 3.875L43.7645 20.1246H39.8885L41.2947 13.5H34.6717L33.2645 20.1246H29.3865L32.8382 3.875H36.7166L35.3904 10.125H42.0115L43.3275 3.875H47.2147Z" fill="currentColor"/>
<path d="M26.2899 0H17.6629L12.5652 24.0002H21.1919L26.2899 0Z" fill="currentColor"/>
<path d="M11.5398 3.05176e-05H2.9129L0.0505981 13.5H4.3006L2.08966 24.0005L15.5115 10.125H9.38654L11.5398 3.05176e-05Z" fill="currentColor"/>
</svg>