<?xml version="1.0" encoding="utf-8"?>
<!-- Generator: Adobe Illustrator 26.4.0, SVG Export Plug-In . SVG Version: 6.00 Build 0)  -->
<svg version="1.1" id="a" xmlns="http://www.w3.org/2000/svg" xmlns:xlink="http://www.w3.org/1999/xlink" x="0px" y="0px"
	 viewBox="0 0 2406 730" style="enable-background:new 0 0 2406 730;" xml:space="preserve">
<style type="text/css">
	.st0{fill:#122347;}
</style>
<g>
	<g>
		<g>
			<path class="st0" d="M84.3,334.5c-0.6,0-1.2-0.1-1.8-0.7l-66.9-58.7c-5.3-4.3-8.1-10.3-8.1-17.6c0-3.2,0.7-6.3,2.1-9.6
				c1.4-3,3.3-5.6,5.7-7.7l67.8-60.6c0.6-0.4,1.2-0.8,1.9-0.8h58.6c1.2,0,2.2,0.8,2.7,1.9c0.3,0.9,0.2,2.1-0.8,2.9l-78.9,70.8
				c-0.9,0.8-1.3,1.8-1.3,2.9s0.4,2.1,1.3,2.9l78.9,69.2c1.1,1,1.1,2.2,0.8,3.1s-1.2,1.8-2.6,1.8L84.3,334.5L84.3,334.5z"/>
			<path class="st0" d="M143.6,179.5c1.1,0,1.8,0.8,2.1,1.4c0.1,0.3,0.4,1.4-0.7,2.3l0,0l0,0l-78.9,70.8c-1,0.9-1.4,2-1.4,3.3
				s0.6,2.4,1.4,3.3l78.9,69.2c0.9,0.8,0.9,1.8,0.7,2.4s-1,1.4-2.1,1.4H84.3c-0.4,0-1-0.1-1.3-0.4l0,0l0,0l-66.9-58.7
				c-5.1-4.2-7.9-10.1-7.9-17.1c0-3.1,0.7-6.2,2-9.2c1.4-2.9,3.2-5.5,5.6-7.5l67.8-60.6c0.4-0.4,1-0.7,1.6-0.7L143.6,179.5
				 M143.6,178.4H85c-0.8,0-1.6,0.3-2.2,0.9L15,240c-2.3,2.1-4.3,4.8-5.8,7.8c-1.3,3.1-2.1,6.3-2.1,9.8c0,7.2,2.9,13.5,8.3,17.9
				l66.9,58.7c0.6,0.6,1.3,0.8,2.1,0.8h59.3c3.1,0,4.6-3.9,2.1-5.9L67,260c-1.4-1.3-1.4-3.7,0-5l78.9-70.8
				C148.1,182.3,146.6,178.4,143.6,178.4L143.6,178.4L143.6,178.4z"/>
		</g>
		<g>
			<path class="st0" d="M206.6,334.8c-5.6,0-11.6-1-17.7-2.8c-6.5-1.9-12.5-5.1-18.1-9.6c-5.3-4.2-10-10-13.8-17.2
				c-3.8-7.1-5.6-15.8-5.6-25.8v-48.3c0-10,1.9-18.7,5.7-25.7c3.6-7,8.2-12.8,13.8-17.2s11.7-7.7,18.1-9.6
				c6.1-1.9,12.1-2.8,17.7-2.8H271c10,0,18.7,1.9,25.7,5.5c7.1,3.7,12.9,8.3,17.2,13.8c4.5,5.6,7.6,11.7,9.6,18.4
				c2,6.5,2.9,12.5,2.9,17.9v48.3c0,6.6-0.9,12.7-2.6,18.1c-1.7,5.2-4,10-6.9,14.2c-3,4.2-6.3,7.8-10.1,10.7s-7.7,5.2-11.7,7
				c-3.7,1.7-7.8,2.9-12.3,3.9c-4.2,0.8-8.2,1.2-11.8,1.2L206.6,334.8L206.6,334.8z M206.8,222c-3.2,0-5.6,0.7-7.1,2.1
				c-1.3,1.3-2.1,3.7-2.1,6.8v48.3c0,3.1,0.7,5.5,2.1,6.9s3.8,2.1,7,2.1h64.1c3.2,0,5.6-0.7,7-2.1c1.3-1.6,2.1-3.9,2.1-7v-48
				c0-2.3-0.3-5.5-2-7c-1.6-1.3-3.9-2.1-7-2.1L206.8,222L206.8,222z"/>
			<path class="st0" d="M270.9,176.3c9.9,0,18.5,1.8,25.5,5.5c7,3.7,12.8,8.2,17,13.7c4.3,5.5,7.6,11.6,9.5,18.1
				c1.9,6.3,2.9,12.3,2.9,17.7v48.3c0,6.5-0.9,12.5-2.6,17.9c-1.7,5.1-3.9,9.9-6.8,14.1c-2.9,4.2-6.2,7.7-10,10.6
				c-3.8,2.8-7.7,5.1-11.6,6.9c-3.7,1.7-7.7,2.9-12.2,3.9c-4.2,0.8-8.1,1.2-11.7,1.2h-64.3c-5.6,0-11.3-0.9-17.5-2.8
				c-6.3-1.9-12.3-5-17.9-9.5c-5.3-4.2-9.9-10-13.7-17c-3.7-7-5.6-15.7-5.6-25.6v-48.3c0-9.9,1.9-18.5,5.6-25.5
				c3.6-6.9,8.1-12.7,13.7-17c5.6-4.5,11.6-7.6,17.9-9.5c6.1-1.9,12-2.8,17.5-2.8L270.9,176.3 M206.7,288.7h64.1
				c3.3,0,5.9-0.8,7.5-2.3c1.4-1.7,2.2-4.1,2.2-7.3v-48c0-2.4-0.3-5.8-2.2-7.5c-1.7-1.4-4.1-2.2-7.3-2.2h-64.1
				c-3.3,0-5.8,0.7-7.5,2.2c-1.6,1.6-2.2,3.9-2.2,7.1V279c0,3.2,0.8,5.8,2.2,7.2C200.8,287.9,203.4,288.7,206.7,288.7 M270.9,175.1
				h-64.3c-5.5,0-11.5,0.9-17.8,2.9c-6.6,1.9-12.7,5.2-18.2,9.7S160.2,198,156.7,205c-3.8,7.1-5.7,15.9-5.7,26v48.3
				c0,10.1,1.9,18.9,5.7,26.1c3.8,7,8.3,12.9,13.9,17.4s11.7,7.7,18.2,9.7c6.3,1.9,12.3,2.8,17.8,2.8h64.3c3.8,0,7.8-0.4,11.9-1.2
				c4.2-0.9,8.3-2.1,12.5-4c4.1-1.8,8-4.2,11.8-7c3.9-2.9,7.2-6.6,10.2-10.8c2.8-4.2,5.2-9.1,6.9-14.5c1.7-5.5,2.7-11.6,2.7-18.2
				v-48.3c0-5.6-1-11.7-2.9-18c-2-6.9-5.3-13-9.7-18.5c-4.5-5.7-10.3-10.3-17.4-14C289.6,177,280.9,175.2,270.9,175.1L270.9,175.1
				L270.9,175.1z M206.7,287.6c-3.1,0-5.3-0.7-6.6-1.9s-1.9-3.6-1.9-6.5v-48.3c0-2.9,0.7-5.1,1.9-6.3c1.3-1.2,3.6-1.9,6.7-1.9h64.1
				c3.1,0,5.2,0.7,6.6,1.9c1.4,1.3,1.8,4.3,1.8,6.6v48c0,3.1-0.7,5.2-1.9,6.6c-1.2,1.2-3.4,1.9-6.6,1.9H206.7L206.7,287.6z"/>
		</g>
		<g>
			<path class="st0" d="M404.7,334.8c-6.6,0-12.7-0.9-18.1-2.6c-5.2-1.7-10-4-14.2-7c-4.2-3-7.8-6.3-10.7-10.1
				c-2.9-3.8-5.2-7.7-7-11.7c-1.7-3.7-2.9-7.8-3.9-12.3c-0.8-4.3-1.2-8.2-1.2-11.7v-48.3c0-10,1.9-18.7,5.6-25.7
				c3.6-7,8.2-12.8,13.8-17.2s11.7-7.7,18.1-9.6c6.1-1.9,12.1-2.8,17.7-2.8h63.4c3.4,0,6.1,2.7,6.1,6.1v34c0,3.4-2.7,6.1-6.1,6.1
				h-63.2c-3.2,0-5.6,0.7-7.1,2.1c-1.3,1.3-2.1,3.7-2.1,6.8v48c0,3.3,0.7,5.8,2.1,7.2s3.7,2.1,6.8,2.1h64.3c3.2,0,5.6-0.7,7-2.1
				c1.3-1.4,2-3.6,2.1-6.5h0.1V119.1c0-3.4,2.7-6.1,6.1-6.1h34c3.4,0,6.1,2.7,6.1,6.1v160.3c0,6.6-0.9,12.7-2.6,18.1
				c-1.7,5.2-4,10-6.9,14.2c-3,4.2-6.3,7.8-10.1,10.7c-3.8,2.9-7.7,5.2-11.7,7c-3.7,1.7-7.8,2.9-12.3,3.9c-4.2,0.8-8.2,1.2-11.8,1.2
				L404.7,334.8L404.7,334.8z"/>
			<path class="st0" d="M518.1,113.6c3.1,0,5.6,2.4,5.6,5.6v160.3c0,6.5-0.9,12.5-2.6,17.9c-1.7,5.1-3.9,9.9-6.8,14.1
				c-2.9,4.2-6.3,7.7-10,10.6c-3.7,2.8-7.7,5.1-11.6,6.9c-3.7,1.7-7.7,2.9-12.2,3.9c-4.2,0.8-8.1,1.2-11.7,1.2h-64.3
				c-6.5,0-12.5-0.9-17.9-2.6c-5.1-1.7-9.9-3.9-14.1-6.9c-4.2-2.9-7.7-6.2-10.6-10c-2.8-3.8-5.1-7.7-6.9-11.6
				c-1.7-3.7-2.9-7.7-3.9-12.2c-0.8-4.3-1.2-8.2-1.2-11.6v-48.3c0-9.9,1.9-18.5,5.6-25.5c3.6-6.9,8.1-12.7,13.7-17
				c5.6-4.5,11.6-7.6,17.9-9.5c6.1-1.9,12-2.8,17.5-2.8H468c3.1,0,5.6,2.4,5.6,5.6v34c0,3.1-2.4,5.6-5.6,5.6h-63.1
				c-3.3,0-5.8,0.7-7.5,2.2c-1.6,1.6-2.2,3.9-2.2,7.1v48c0,3.4,0.8,6.1,2.2,7.6c1.6,1.6,3.9,2.2,7.1,2.2h64.3c3.3,0,5.9-0.8,7.5-2.3
				c1.3-1.4,2-3.6,2.2-6.2h0.1V119.1c0-3.1,2.4-5.6,5.6-5.6H518.1 M518.1,112.5h-34c-3.8,0-6.7,2.9-6.7,6.7V279h-0.1
				c0,3.1-0.7,5.2-1.9,6.6c-1.2,1.2-3.4,1.9-6.6,1.9h-64.3c-2.9,0-5.1-0.7-6.3-1.9s-1.9-3.7-1.9-6.8v-48c0-2.9,0.7-5.1,1.9-6.3
				c1.3-1.2,3.6-1.9,6.7-1.9h63.3c3.8,0,6.7-2.9,6.7-6.7v-34c0-3.8-3-6.7-6.7-6.7h-63.4c-5.5,0-11.5,0.9-17.8,2.9
				c-6.6,1.9-12.7,5.2-18.2,9.7c-5.6,4.5-10.3,10.3-13.9,17.4c-3.8,7.1-5.7,15.9-5.7,26v48.3c0,3.7,0.4,7.6,1.2,11.8
				c0.9,4.2,2.1,8.3,4,12.5c1.8,4.1,4.2,8,7,11.8c2.9,3.9,6.6,7.2,10.8,10.2c4.2,2.9,9,5.3,14.5,7s11.6,2.7,18.2,2.7h64.3
				c3.8,0,7.8-0.4,11.9-1.2c4.2-0.9,8.3-2.1,12.5-4s8-4.2,11.8-7c3.9-2.9,7.2-6.6,10.2-10.8c2.8-4.2,5.2-9.1,6.9-14.5
				c1.7-5.5,2.6-11.6,2.6-18.2V119.1C524.9,115.5,521.9,112.5,518.1,112.5L518.1,112.5L518.1,112.5z"/>
		</g>
		<g>
			<g>
				<path class="st0" d="M558.8,174.3h40.6c1.6,0,2.9,1.2,2.9,2.9v153.1c0,1.6-1.3,2.9-2.9,2.9h-40.6c-1.6,0-2.9-1.2-2.9-2.9V177.2
					C555.9,175.7,557.2,174.3,558.8,174.3z"/>
				<path class="st0" d="M599.4,174.9c1.2,0,2.3,1,2.3,2.3v153.1c0,1.2-1,2.3-2.3,2.3h-40.6c-1.3,0-2.3-1-2.3-2.3V177.2
					c0-1.2,1-2.3,2.3-2.3H599.4 M599.4,173.8h-40.6c-1.9,0-3.4,1.6-3.4,3.4v153.1c0,1.9,1.4,3.4,3.4,3.4h40.6c1.9,0,3.4-1.6,3.4-3.4
					V177.2C602.8,175.2,601.3,173.8,599.4,173.8L599.4,173.8z"/>
			</g>
			<g>
				<path class="st0" d="M558.8,111.7h40.6c1.6,0,2.9,1.2,2.9,2.9v37.3c0,1.6-1.3,2.9-2.9,2.9h-40.6c-1.6,0-2.9-1.2-2.9-2.9v-37.3
					C555.9,112.9,557.2,111.7,558.8,111.7z"/>
				<path class="st0" d="M599.4,112.2c1.2,0,2.3,1,2.3,2.3v37.3c0,1.2-1,2.3-2.3,2.3h-40.6c-1.3,0-2.3-1-2.3-2.3v-37.3
					c0-1.2,1-2.3,2.3-2.3H599.4 M599.4,111.1h-40.6c-1.9,0-3.4,1.6-3.4,3.4v37.3c0,1.9,1.4,3.4,3.4,3.4h40.6c1.9,0,3.4-1.6,3.4-3.4
					v-37.3C602.8,112.6,601.3,111.1,599.4,111.1L599.4,111.1z"/>
			</g>
		</g>
		<g>
			<path class="st0" d="M765.4,334.4c-1.9,0-3.4-1.6-3.4-3.4v-84.1c0-3.8-0.7-7.3-2-10.5c-1.4-3.1-3.1-5.6-5.3-7.8
				c-2.2-2.1-4.8-3.8-7.8-4.9c-3.1-1.1-6.5-1.8-10.1-1.8h-52.5c-2.4,0-4.6,2.1-4.6,4.6V331c0,1.9-1.6,3.4-3.4,3.4h-39.5
				c-1.9,0-3.4-1.6-3.4-3.4V198.6c0-3.2,0.6-6.3,1.8-9c1-2.6,2.7-5,5-7.3c1.9-1.9,4.3-3.6,7.5-4.9c2.8-1.2,5.8-1.8,9.1-1.8h80.3
				c4.7,0,9.8,0.6,15.2,1.6c5.3,1.1,10.8,2.9,16,5.3c5,2.2,10,5.3,15,9.1c4.9,3.8,9.2,8.3,12.9,13.6c3.8,5.5,6.8,11.6,8.9,18.4
				c2.2,7,3.2,14.8,3.2,23.3v84.1c0,1.9-1.6,3.4-3.4,3.4L765.4,334.4L765.4,334.4z"/>
			<path class="st0" d="M737,176.1c4.6,0,9.7,0.6,15.1,1.6c5.3,1.1,10.7,2.9,15.9,5.2c4.9,2.2,9.9,5.3,14.9,9
				c4.8,3.7,9.1,8.2,12.8,13.5c3.8,5.3,6.7,11.5,8.8,18.2c2.1,6.9,3.2,14.7,3.2,23v84.1c0,1.6-1.3,2.9-2.9,2.9h-39.5
				c-1.6,0-2.9-1.3-2.9-2.9v-84.1c0-3.9-0.7-7.5-2-10.7c-1.4-3.1-3.2-5.7-5.5-7.9c-2.3-2.2-4.9-3.8-8-5s-6.7-1.8-10.2-1.8h-52.5
				c-2.8,0-5.1,2.3-5.1,5.1v104.5c0,1.6-1.3,2.9-2.9,2.9h-39.5c-1.6,0-2.9-1.3-2.9-2.9V198.5c0-3.1,0.6-6.2,1.8-8.8
				c1-2.4,2.7-4.9,4.9-7.1c1.9-1.9,4.2-3.4,7.2-4.8c2.8-1.2,5.7-1.8,8.9-1.8L737,176.1 M737,175.1h-80.3c-3.3,0-6.3,0.6-9.3,1.8
				c-2.8,1.2-5.5,2.9-7.6,5s-4,4.7-5.1,7.5c-1.2,2.9-1.8,6-1.8,9.2V331c0,2.1,1.8,4,4,4h39.5c2.1,0,4-1.8,4-4V226.5c0-2.1,1.8-4,4-4
				h52.5c3.6,0,6.8,0.6,9.9,1.7c3,1.1,5.5,2.7,7.6,4.8c2.1,2.1,3.9,4.7,5.2,7.6c1.2,2.9,1.9,6.3,1.9,10.2v84.1c0,2.1,1.8,4,4,4H805
				c2.1,0,4-1.8,4-4v-84.1c0-8.7-1.1-16.5-3.3-23.4c-2.1-6.9-5.2-13.1-9-18.5c-3.8-5.3-8.1-10-13-13.8c-4.8-3.7-9.9-6.8-15.1-9.2
				c-5.2-2.3-10.7-4.2-16.1-5.3C747,175.7,741.8,175.1,737,175.1L737,175.1L737,175.1z"/>
		</g>
		<g>
			<path class="st0" d="M884.3,399c-2.6,0-4.7-2.1-4.7-4.7v-37.2c0-2.6,2.1-4.7,4.7-4.7h65c3.2,0,5.6-0.7,7-2.1
				c1.3-1.6,2.1-3.9,2.1-7V230.9c0-3.3-0.7-5.6-2-6.9c-1.7-1.8-5.1-2-7-2h-64.3c-3.8,0-5.6,1.3-6.6,2.3c-1.6,1.7-2.3,3.8-2.3,6.6
				v48.3c0,3.1,0.8,5.5,2.1,6.9s3.8,2.1,7,2.1h64.8c2.6,0,4.7,2.1,4.7,4.7v37c0,2.6-2.1,4.7-4.7,4.7h-65c-4.1,0-8.1-0.4-11.8-1.2
				c-4-0.8-8.1-2.1-12.2-3.9c-4-1.8-7.9-4.1-11.7-7c-4-3-7.3-6.7-10.1-10.7c-2.9-4.1-5.2-9-6.9-14.2c-1.7-5.5-2.6-11.6-2.6-18.1
				v-48.3c0-4.1,0.4-8.1,1.2-11.8c0.8-4,2.1-8.1,3.9-12.2c1.8-4,4.1-7.9,7-11.7c3-4,6.7-7.3,10.7-10.1c4.2-2.9,9.1-5.2,14.2-6.9
				c5.5-1.7,11.6-2.6,18.1-2.6h64.3c4.1,0,8,0.4,11.8,1.2c4.1,0.8,8.2,2.1,12.3,3.9c4,1.8,7.9,4.1,11.7,7c4,3,7.3,6.6,10.1,10.7
				c2.9,4.2,5.1,9,6.9,14.6c1.7,5.5,2.6,11.6,2.6,18.1v112.5c0,6.6-0.9,12.7-2.6,18.1c-1.7,5.2-4,10-6.9,14.2
				c-3,4.2-6.3,7.8-10.1,10.7c-3.8,2.9-7.7,5.2-11.7,7c-3.7,1.7-7.8,2.9-12.3,3.9c-4.5,0.9-8.2,1.2-11.8,1.2L884.3,399L884.3,399z"
				/>
			<path class="st0" d="M949.3,176.3c4.1,0,7.9,0.4,11.7,1.2c4,0.8,8.1,2.1,12.2,3.9c4,1.8,7.9,4.1,11.6,6.9c3.9,3,7.2,6.6,10,10.6
				c2.8,4.2,5,8.9,6.8,14.5c1.7,5.5,2.6,11.5,2.6,17.9v112.5c0,6.5-0.9,12.5-2.6,17.9c-1.7,5.1-3.9,9.9-6.8,14.1
				c-2.9,4.2-6.3,7.7-10,10.6c-3.7,2.8-7.7,5.1-11.6,6.9c-3.7,1.7-7.7,2.9-12.2,3.9c-4.3,0.8-8.2,1.2-11.7,1.2h-65
				c-2.2,0-4.1-1.9-4.1-4.1v-37.2c0-2.2,1.9-4.1,4.1-4.1h65c3.3,0,5.9-0.8,7.5-2.3c1.4-1.7,2.2-4.1,2.2-7.3V230.9
				c0-3.4-0.7-5.8-2.1-7.2c-1.8-1.8-5-2.1-7.3-2.1h-64.3c-4,0-5.9,1.4-6.9,2.6c-1.7,1.8-2.4,4-2.4,6.9v48.3c0,3.2,0.8,5.8,2.2,7.2
				c1.4,1.4,4,2.2,7.3,2.2h64.6c2.2,0,4.1,1.9,4.1,4.1v37c0,2.2-1.9,4.1-4.1,4.1h-65c-4.1,0-8-0.4-11.7-1.2c-4-0.8-8-2.1-12.1-3.9
				c-4-1.8-7.9-4.1-11.6-6.9c-3.9-3-7.2-6.6-10-10.6c-2.9-4.1-5.1-8.9-6.8-14.1c-1.7-5.5-2.6-11.5-2.6-17.9v-48.3
				c0-4.1,0.4-8,1.2-11.7c0.8-4,2.1-8,3.9-12.1c1.8-4,4.1-7.9,6.9-11.6c3-3.9,6.6-7.3,10.6-10c4.2-2.9,9-5.1,14.1-6.8
				c5.5-1.7,11.5-2.6,17.9-2.6L949.3,176.3 M949.3,175.2H885c-6.7,0-12.8,0.9-18.2,2.7c-5.3,1.7-10.2,4.1-14.5,6.9
				c-4.2,2.9-7.8,6.3-10.8,10.2c-2.8,3.8-5.2,7.7-7,11.8c-1.8,4.1-3.2,8.2-4,12.3c-0.9,4.1-1.2,8.2-1.2,11.9v48.3
				c0,6.7,0.9,12.8,2.6,18.2c1.7,5.5,4.1,10.3,6.9,14.5c2.8,4.2,6.3,7.8,10.2,10.8c3.8,2.8,7.7,5.2,11.8,7c4.1,1.8,8.3,3.2,12.3,4
				c4.1,0.9,8.1,1.2,11.9,1.2h65.1c2.8,0,5.2-2.3,5.2-5.2v-37c0-2.8-2.3-5.2-5.2-5.2h-64.8c-3.1,0-5.3-0.7-6.6-1.9
				c-1.2-1.2-1.9-3.6-1.9-6.5v-48.3c0-2.7,0.7-4.6,2.1-6.1c0.9-0.9,2.4-2.1,6.1-2.1h64.3c2.1,0,5.1,0.3,6.6,1.8
				c1.2,1.2,1.8,3.4,1.8,6.5v112.5c0,3.1-0.7,5.2-1.9,6.6c-1.2,1.2-3.4,1.9-6.6,1.9h-65c-2.8,0-5.2,2.3-5.2,5.2v37.2
				c0,2.8,2.3,5.2,5.2,5.2h65c3.8,0,7.7-0.4,11.9-1.2c4.2-0.9,8.3-2.1,12.5-4c4.1-1.9,8-4.2,11.8-7c3.9-2.9,7.2-6.6,10.2-10.8
				c2.8-4.2,5.2-9.1,6.9-14.5c1.7-5.5,2.6-11.6,2.6-18.2V231.3c0-6.7-0.9-12.8-2.6-18.2c-1.8-5.8-4.1-10.6-6.9-14.8
				c-2.8-4.2-6.3-7.8-10.2-10.8c-3.8-2.9-7.7-5.2-11.8-7s-8.3-3.2-12.5-4C957,175.5,953,175.2,949.3,175.2L949.3,175.2L949.3,175.2z
				"/>
		</g>
		<g>
			<path class="st0" d="M1272.8,334.4c-5.6,0-11.5-1-17.6-2.8c-6.3-1.9-12.2-5-17.7-9.3s-10.1-10-13.7-16.9
				c-3.7-7.1-5.5-15.6-5.5-25.3c0-5.6,0.9-11.5,2.8-17.6c1.9-6.3,5-12.3,9.3-17.8c4.3-5.5,10.1-10.1,16.9-13.7
				c7-3.7,15.6-5.5,25.3-5.5h68.8c0.4,0,0.9,0.4,0.9,0.9v42.9c0,0.4-0.4,0.9-0.9,0.9h-68.8c-3.2,0-5.7,0.9-7.2,2.7
				c-1.8,1.9-2.7,4.3-2.7,7.5c0,4.3,2,6.2,2.7,6.8c2.2,1.8,4.5,2.7,7.5,2.7h64.1c3.2,0,5.7-0.9,7.2-2.6c1.8-2,2.6-4.3,2.6-7.3v-49.7
				c0-4.1-1.6-6-2.7-7.2c-1.9-1.8-4.2-2.7-7.2-2.7h-82.8c-0.4,0-0.9-0.4-0.9-0.9v-42.8c0-0.4,0.4-0.9,0.9-0.9h82.8
				c5.6,0,11.5,1,17.6,2.8c6.3,1.9,12.2,5,17.7,9.3s10.1,10.1,13.7,16.9c3.7,7.1,5.5,15.6,5.5,25.3v6.2c0,0.6,0.2,1.1,0.7,1.4
				c0.3,0.3,0.9,0.6,1.3,0.6s1-0.2,1.3-0.6l68.2-61.2c0.1-0.1,0.3-0.2,0.6-0.2h64.3c0.6,0,0.8,0.4,0.9,0.6c0.1,0.3,0.1,0.7,0,0.9
				l-84.2,75.4c-0.4,0.3-0.7,0.9-0.7,1.4s0.2,1.1,0.7,1.6l84.3,73.9c0.3,0.3,0.3,0.7,0.2,1c-0.1,0.3-0.4,0.6-0.8,0.6h-65.1
				c-0.2,0-0.4-0.1-0.6-0.2l-67.3-59.2c0,0-0.2-0.1-0.3-0.2c-0.1,0-0.1-0.1-0.1-0.1c-0.3-0.3-0.9-0.6-1.3-0.6c-1.1,0-2,0.9-2,2v6.5
				c0,5.6-0.9,11.5-2.8,17.6c-1.9,6.3-5,12.2-9.3,17.7c-4.3,5.5-10.1,10.1-16.9,13.7c-7,3.7-15.6,5.5-25.3,5.5L1272.8,334.4
				L1272.8,334.4z"/>
			<path class="st0" d="M1337,176.3c5.6,0,11.3,0.9,17.4,2.8c6.2,1.9,12.1,5,17.5,9.2c5.5,4.3,10,9.9,13.6,16.8
				c3.6,7,5.5,15.5,5.5,25v6.2c0,1.4,1.1,2.4,2.6,2.4c0.7,0,1.2-0.2,1.7-0.7l68.3-61.2h0.1h64.3c0.1,0,0.2,0.1,0.3,0.2
				c0.1,0.1,0.1,0.2,0.1,0.3l-84.1,75.4c-0.6,0.4-0.9,1.2-0.9,1.9s0.3,1.4,0.9,1.9l84.3,73.9c0.2,0.1,0.1,0.3,0.1,0.3
				c0,0.1-0.1,0.1-0.3,0.1h-65.1c-0.1,0-0.1,0-0.1,0l0,0l0,0l0,0l-67.3-59.2c-0.1-0.1-0.2-0.2-0.3-0.2h-0.1l0,0
				c-0.4-0.4-1.1-0.8-1.8-0.8c-1.3,0-2.6,1.1-2.6,2.6v6.5c0,5.6-0.9,11.3-2.8,17.4c-1.9,6.2-5,12.1-9.2,17.5
				c-4.3,5.5-9.9,10-16.8,13.6c-7,3.6-15.5,5.5-25,5.5h-64.3c-5.6,0-11.3-0.9-17.4-2.8c-6.2-1.9-12.1-5-17.5-9.2
				c-5.5-4.3-10-10-13.6-16.8c-3.6-7-5.5-15.5-5.5-25c0-5.6,0.9-11.3,2.8-17.4c1.9-6.2,5-12.2,9.2-17.6c4.3-5.5,9.9-10,16.8-13.6
				c7-3.6,15.5-5.5,25-5.5h68.8c0.2,0,0.3,0.2,0.3,0.3v43.2c0,0.2-0.2,0.3-0.3,0.3h-68.8c-3.4,0-5.9,0.9-7.6,2.9
				c-1.9,2-2.8,4.6-2.8,7.8s0.9,5.5,2.9,7.2c2.3,1.9,4.7,2.8,7.8,2.8h64.1c3.4,0,6-0.9,7.7-2.8c1.8-2.1,2.7-4.5,2.7-7.7v-49.7
				c0-4.3-1.6-6.3-2.9-7.7c-2-1.9-4.5-2.8-7.6-2.8h-82.8c-0.2,0-0.3-0.2-0.3-0.3v-42.8c0-0.2,0.2-0.3,0.3-0.3H1337 M1337,175.1
				h-82.8c-0.8,0-1.4,0.7-1.4,1.4v42.8c0,0.8,0.7,1.4,1.4,1.4h82.8c2.9,0,5,0.8,6.8,2.4c1,1,2.4,2.9,2.4,6.8v49.7
				c0,2.9-0.8,5.1-2.3,6.9c-0.9,1-2.7,2.3-6.8,2.3H1273c-2.9,0-5-0.8-7-2.4c-1-0.9-2.4-2.7-2.4-6.3c0-2.9,0.8-5.2,2.4-7
				c0.9-1,2.7-2.4,6.8-2.4h68.8c0.8,0,1.4-0.7,1.4-1.4v-43.1c0-0.8-0.7-1.4-1.4-1.4h-68.8c-9.9,0-18.5,1.9-25.6,5.6
				c-6.9,3.7-12.7,8.2-17.1,13.8c-4.3,5.5-7.5,11.5-9.5,17.9c-1.9,6.2-2.9,12.2-2.9,17.7c0,9.9,1.9,18.5,5.6,25.6
				c3.7,6.9,8.2,12.7,13.8,17.1c5.5,4.3,11.5,7.5,17.8,9.5c6.2,1.9,12.1,2.8,17.7,2.8h64.3c9.9,0,18.5-1.9,25.6-5.6
				c6.9-3.7,12.7-8.3,17.1-13.9c4.3-5.5,7.5-11.5,9.5-17.8c1.9-6.2,2.9-12.1,2.9-17.7v-6.5c0-0.9,0.7-1.4,1.4-1.4
				c0.3,0,0.7,0.1,1,0.4c0.1,0.1,0.3,0.2,0.4,0.3l67.3,59.2c0.2,0.2,0.6,0.3,0.9,0.3h65.1c1.3,0,1.9-1.6,0.9-2.4l-84.3-73.9
				c-0.7-0.6-0.7-1.6,0-2.1l84.2-75.5c0.7-0.8,0-2.3-1.2-2.3h-64.3c-0.3,0-0.7,0.1-0.9,0.3l-68.2,61.2c-0.3,0.2-0.7,0.3-1,0.3
				c-0.8,0-1.4-0.6-1.4-1.3v-6.2c0-9.9-1.9-18.5-5.6-25.6c-3.7-6.9-8.2-12.7-13.8-17.1c-5.5-4.3-11.5-7.5-17.8-9.5
				C1348.6,176.1,1342.6,175.1,1337,175.1L1337,175.1L1337,175.1z"/>
		</g>
		<g>
			<path class="st0" d="M1558.9,334.5c-5.6,0-11.5-1-17.6-2.8c-6.3-1.9-12.2-5-17.7-9.3s-10.1-10-13.7-16.9
				c-3.7-7.1-5.5-15.6-5.5-25.3c0-5.6,0.9-11.5,2.8-17.6c1.9-6.3,5-12.3,9.3-17.8c4.3-5.5,10.1-10.1,16.9-13.7
				c7-3.7,15.6-5.5,25.3-5.5h69.6v44.7h-69.6c-3.2,0-5.7,0.9-7.2,2.7c-1.8,1.9-2.7,4.3-2.7,7.5c0,4.5,2,6.2,2.7,6.8
				c2.2,1.8,4.5,2.7,7.5,2.7h64.1c3.2,0,5.7-0.9,7.2-2.6c1.8-2,2.6-4.3,2.6-7.3v-49.7c0-4.1-1.6-6-2.7-7.2c-1.9-1.8-4.2-2.7-7.2-2.7
				h-83.6v-44.6h83.6c5.6,0,11.5,1,17.6,2.8c6.3,1.9,12.2,5,17.7,9.3c5.5,4.2,10,9.9,13.8,16.9c3.7,7.1,5.5,15.6,5.5,25.3v50
				c0,5.6-0.9,11.5-2.8,17.6c-1.9,6.3-5,12.2-9.3,17.7s-10.1,10.1-16.9,13.7c-7,3.7-15.6,5.5-25.3,5.5L1558.9,334.5L1558.9,334.5z"
				/>
			<path class="st0" d="M1623.1,176.3c5.6,0,11.3,0.9,17.4,2.8c6.2,1.9,12.1,5,17.5,9.2c5.3,4.1,9.9,9.8,13.7,16.8
				c3.6,7,5.5,15.5,5.5,25v50c0,5.6-0.9,11.3-2.8,17.4c-1.9,6.2-5,12.1-9.2,17.5c-4.3,5.5-9.9,10-16.8,13.6c-7,3.6-15.5,5.5-25,5.5
				h-64.3c-5.6,0-11.3-0.9-17.4-2.8c-6.2-1.9-12.1-5-17.5-9.2c-5.5-4.3-10-10-13.6-16.8c-3.6-7-5.5-15.5-5.5-25
				c0-5.6,0.9-11.3,2.8-17.4c1.9-6.2,5-12.2,9.2-17.6c4.3-5.5,9.9-10,16.8-13.6c7-3.6,15.5-5.5,25-5.5h69.1v43.6h-69.1
				c-3.4,0-5.9,0.9-7.6,2.9c-1.9,2-2.8,4.6-2.8,7.8s0.9,5.5,2.9,7.2c2.3,1.9,4.7,2.8,7.8,2.8h64.1c3.4,0,6-0.9,7.7-2.8
				c1.8-2.1,2.7-4.5,2.7-7.7v-49.7c0-4.3-1.6-6.3-2.9-7.7c-2-1.9-4.5-2.8-7.6-2.8h-83v-43.5L1623.1,176.3 M1623.1,175.1H1539v45.7
				h84.1c2.9,0,5,0.8,6.8,2.4c1,1,2.4,2.9,2.4,6.8v49.7c0,2.9-0.8,5.1-2.3,6.9c-0.9,1-2.7,2.3-6.8,2.3h-64.1c-2.9,0-5-0.8-7-2.4
				c-1-0.9-2.4-2.7-2.4-6.3c0-2.9,0.8-5.2,2.4-7c0.9-1,2.7-2.4,6.8-2.4h70.2v-45.8h-70.2c-9.9,0-18.5,1.9-25.6,5.6
				c-6.9,3.7-12.7,8.2-17.1,13.8c-4.3,5.5-7.5,11.5-9.5,17.9c-1.9,6.2-2.9,12.2-2.9,17.7c0,9.9,1.9,18.5,5.6,25.6
				c3.7,6.9,8.2,12.7,13.8,17.1c5.5,4.3,11.5,7.5,17.8,9.5c6.2,1.9,12.1,2.8,17.7,2.8h64.3c9.9,0,18.5-1.9,25.6-5.6
				c6.9-3.7,12.7-8.3,17.1-13.9c4.3-5.5,7.5-11.5,9.5-17.8c1.9-6.2,2.9-12.1,2.9-17.7v-50c0-9.9-1.9-18.5-5.6-25.6
				c-3.8-7-8.5-12.8-14-17.1c-5.5-4.3-11.5-7.5-17.8-9.5C1634.5,176.1,1628.6,175.1,1623.1,175.1L1623.1,175.1L1623.1,175.1z"/>
		</g>
		<g>
			<path class="st0" d="M1757.4,334.6c-6.6,0-12.6-0.9-18.1-2.6c-5.2-1.7-10-4-14.2-7c-4.2-3-7.8-6.3-10.7-10.1
				c-2.9-3.8-5.2-7.7-7-11.7c-1.7-3.7-2.9-7.8-3.9-12.3c-0.8-4.3-1.2-8.2-1.2-11.7v-48.3c0-10,1.9-18.7,5.7-25.7
				c3.6-7,8.2-12.8,13.8-17.2c5.6-4.5,11.7-7.7,18.1-9.6c6.1-1.9,12.1-2.8,17.7-2.8h63.2c3.6,0,6.5,2.9,6.5,6.5v33.5
				c0,3.6-2.9,6.5-6.5,6.5h-62.9c-3.2,0-5.6,0.7-7.1,2.1c-1.3,1.3-2.1,3.7-2.1,6.8v48c0,3.3,0.8,5.8,2.1,7.2s3.7,2.1,6.8,2.1h64.3
				c3.2,0,5.6-0.7,7-2.1c1.3-1.6,2.1-3.9,2.1-7V119.4c0-3.6,2.9-6.5,6.5-6.5h33.5c3.6,0,6.5,2.9,6.5,6.5v160
				c0,6.6-0.9,12.7-2.6,18.1c-1.7,5.2-4,10-6.9,14.2c-3,4.2-6.3,7.8-10.1,10.7c-3.8,2.9-7.7,5.2-11.7,7c-3.7,1.7-7.8,2.9-12.3,3.9
				c-4.2,0.8-8.2,1.2-11.8,1.2L1757.4,334.6L1757.4,334.6z"/>
			<path class="st0" d="M1870.6,113.5c3.2,0,5.9,2.7,5.9,5.9v160.1c0,6.5-0.9,12.5-2.6,17.9c-1.7,5.1-3.9,9.9-6.8,14.1
				c-2.9,4.2-6.3,7.7-10,10.6c-3.7,2.8-7.7,5.1-11.6,6.9c-3.7,1.7-7.7,2.9-12.2,3.9c-4.2,0.8-8.1,1.2-11.7,1.2h-64.3
				c-6.5,0-12.5-0.9-17.9-2.6c-5.1-1.7-9.9-3.9-14.1-6.9c-4.2-2.9-7.7-6.2-10.6-10c-2.8-3.8-5.1-7.7-6.9-11.6
				c-1.7-3.7-2.9-7.7-3.9-12.2c-0.8-4.3-1.2-8.2-1.2-11.6v-48.3c0-9.9,1.9-18.5,5.6-25.5c3.6-6.9,8.1-12.7,13.7-17
				c5.6-4.5,11.6-7.6,17.9-9.5c6.1-1.9,12-2.8,17.5-2.8h63.2c3.2,0,5.9,2.7,5.9,5.9v33.5c0,3.2-2.7,5.9-5.9,5.9h-62.9
				c-3.3,0-5.8,0.7-7.5,2.2c-1.4,1.6-2.2,3.9-2.2,7.1v48c0,3.4,0.8,6.1,2.2,7.6c1.4,1.6,3.9,2.2,7.1,2.2h64.3c3.4,0,5.9-0.8,7.5-2.3
				c1.4-1.7,2.2-4.1,2.2-7.3V119.4c0-3.2,2.7-5.9,5.9-5.9H1870.6 M1870.6,112.3h-33.5c-3.9,0-7,3.2-7,7V279l0,0
				c0,3.1-0.7,5.2-1.9,6.6c-1.2,1.2-3.4,1.9-6.6,1.9h-64.3c-3,0-5.1-0.7-6.3-1.9c-1.2-1.2-1.9-3.7-1.9-6.8v-48
				c0-2.9,0.7-5.1,1.9-6.3c1.3-1.2,3.6-1.9,6.7-1.9h62.9c3.9,0,7-3.2,7-7v-33.5c0-3.9-3.2-7-7-7h-63.2c-5.5,0-11.5,0.9-17.8,2.9
				c-6.6,1.9-12.7,5.2-18.2,9.7c-5.6,4.5-10.3,10.3-14,17.4c-3.8,7.1-5.7,15.9-5.7,26v48.3c0,3.7,0.4,7.6,1.2,11.8
				c0.9,4.2,2.1,8.3,4,12.5s4.2,8,7,11.8c3,3.9,6.6,7.2,10.8,10.2c4.2,2.9,9,5.3,14.5,7c5.5,1.7,11.6,2.7,18.2,2.7h64.3
				c3.8,0,7.8-0.4,11.9-1.2c4.2-0.9,8.5-2.1,12.5-4s8-4.2,11.8-7c3.9-2.9,7.2-6.6,10.2-10.8c2.9-4.2,5.2-9.1,6.9-14.5
				c1.7-5.5,2.6-11.6,2.6-18.2V119.4C1877.6,115.6,1874.5,112.3,1870.6,112.3L1870.6,112.3L1870.6,112.3z"/>
		</g>
		<g>
			<path class="st0" d="M1956.7,334.5c-5.6,0-11.5-1-17.6-2.8c-6.3-1.9-12.2-5-17.7-9.3s-10.1-10-13.7-16.9
				c-3.7-7.1-5.5-15.6-5.5-25.3v-50c0-5.6,0.9-11.5,2.8-17.6c1.9-6.3,5-12.2,9.3-17.7s10.1-10.1,16.9-13.7c7-3.7,15.6-5.5,25.3-5.5
				h64.3c5.6,0,11.5,1,17.6,2.8c6.3,1.9,12.2,5,17.7,9.3c5.5,4.2,10.1,9.9,13.7,16.9c3.7,7.1,5.5,15.6,5.5,25.3
				c0,5.6-0.9,11.5-2.8,17.6c-1.9,6.3-5,12.2-9.3,17.7s-10.1,10.1-16.9,13.7c-7.1,3.7-15.6,5.5-25.3,5.5h-63.2
				c-3.6,0-6.3-2.8-6.3-6.3v-31.8c0-3.6,2.8-6.3,6.3-6.3h63.2c3.2,0,5.7-0.9,7.2-2.7c1.8-1.9,2.7-4.3,2.7-7.5c0-4.1-1.6-6-2.7-7
				c-2-1.8-4.3-2.7-7.2-2.7h-64.3c-3.2,0-5.7,0.9-7.2,2.7c-1.8,1.9-2.7,4.3-2.7,7.5v49.7c0,4.2,1.6,6.1,2.7,7.1
				c1.9,1.8,4.3,2.7,7.5,2.7h63c3.6,0,6.3,2.8,6.3,6.3v31.9c0,3.6-2.8,6.3-6.3,6.3L1956.7,334.5L1956.7,334.5z"/>
			<path class="st0" d="M2021.1,176.3c5.6,0,11.3,0.9,17.4,2.8c6.2,1.9,12.1,5,17.5,9.2c5.5,4.2,10,9.8,13.6,16.8
				c3.6,7,5.5,15.5,5.5,25c0,5.6-0.9,11.3-2.8,17.4c-1.9,6.2-5,12.1-9.2,17.5c-4.3,5.5-9.9,10-16.8,13.6c-7,3.6-15.5,5.5-25,5.5
				h-63.2c-3.2,0-5.8-2.6-5.8-5.8v-31.8c0-3.2,2.6-5.8,5.8-5.8h63.2c3.4,0,5.9-0.9,7.6-2.9c1.9-2,2.8-4.6,2.8-7.8
				c0-4.3-1.7-6.3-2.9-7.5c-2.1-1.9-4.6-2.8-7.6-2.8h-64.3c-3.4,0-5.9,0.9-7.6,2.9c-1.9,2-2.8,4.6-2.8,7.8v49.7
				c0,4.5,1.7,6.5,2.9,7.6c2,1.9,4.6,2.8,7.8,2.8h63c3.2,0,5.8,2.6,5.8,5.8v31.9c0,3.2-2.6,5.8-5.8,5.8h-63.2
				c-5.6,0-11.3-0.9-17.4-2.8c-6.2-1.9-12.1-5-17.5-9.2c-5.5-4.3-10-10-13.6-16.8c-3.6-7-5.5-15.5-5.5-25v-50
				c0-5.6,0.9-11.3,2.8-17.4c1.9-6.2,5-12.1,9.2-17.5c4.3-5.5,9.9-10,16.8-13.6c7-3.6,15.5-5.5,25-5.5L2021.1,176.3 M2021.1,175.2
				h-64.3c-9.9,0-18.5,1.9-25.6,5.6c-6.9,3.7-12.7,8.2-17.1,13.8c-4.3,5.5-7.5,11.5-9.5,17.8c-1.9,6.2-2.9,12.1-2.9,17.7v50
				c0,9.9,1.9,18.5,5.6,25.6c3.7,6.9,8.2,12.7,13.8,17.1c5.5,4.3,11.5,7.5,17.8,9.5c6.2,1.9,12.1,2.8,17.7,2.8h63.2
				c3.9,0,6.9-3.1,6.9-6.9v-31.9c0-3.9-3.1-6.9-6.9-6.9h-63c-3,0-5.2-0.8-7-2.4c-1-0.9-2.4-2.7-2.4-6.7v-49.7c0-2.9,0.8-5.2,2.4-7
				c0.9-1,2.7-2.4,6.8-2.4h64.3c2.7,0,4.9,0.8,6.8,2.4c1,0.9,2.4,2.7,2.4,6.6c0,3-0.8,5.2-2.4,7c-0.9,1-2.7,2.4-6.8,2.4h-63.2
				c-3.9,0-6.9,3.1-6.9,6.9v31.8c0,3.9,3.1,6.9,6.9,6.9h63.2c9.9,0,18.5-1.9,25.6-5.6c6.9-3.7,12.7-8.3,17.1-13.9
				c4.3-5.5,7.5-11.5,9.5-17.8c1.9-6.2,2.9-12.1,2.9-17.7c0-9.9-1.9-18.5-5.6-25.6c-3.7-7-8.2-12.8-13.8-17.1
				c-5.5-4.3-11.5-7.5-17.8-9.5C2032.5,176.1,2026.6,175.2,2021.1,175.2L2021.1,175.2L2021.1,175.2z"/>
		</g>
		<g>
			<path class="st0" d="M2274.2,334.5c-1,0-2-0.9-2-2V230.8c0-3.3-0.7-5.6-2-6.9c-1.7-1.7-4.7-2-6.9-2h-22.1c-0.8,0-1.6,0.3-2.1,1
				c-0.6,0.7-0.9,1.4-0.8,2.2c0.1,1.9,0.2,3.8,0.2,5.7v101.7c0,1.1-0.9,2-2,2H2194c-1,0-2-0.9-2-2V230.8c0-3-0.7-5.3-2.1-6.8
				c-1.6-1.3-3.9-2.1-7.2-2.1h-37.9c-1.7,0-3.1,1.4-3.1,3.1v107.6c0,1.1-0.9,2-2,2h-42.6c-1,0-2-0.9-2-2V198.8c0-3.2,0.7-6.3,1.8-9
				c1-2.6,2.7-5,5-7.3c1.9-1.9,4.3-3.6,7.5-4.9c2.8-1.2,5.8-1.8,9.1-1.8h64.3c5.6,0,11.3,1,17.5,2.8c1.7,0.4,3.4,1.1,5.1,1.8
				c0.3,0.1,0.8,0.2,1.1,0.2c1.7,0,3-1.3,3-3c0-1,0.9-1.9,2-1.9h51.6c4.1,0,8.1,0.4,11.8,1.2c4,0.8,8,2,12.2,3.9
				c4,1.8,7.9,4.1,11.7,7c4,3,7.3,6.6,10.1,10.7c2.7,3.9,4.9,8.3,7.1,14.2c1.7,5.5,2.6,11.6,2.6,18v101.8c0,1.1-0.9,2-2,2H2274.2
				L2274.2,334.5z"/>
			<path class="st0" d="M2263.2,176.3c4.1,0,8,0.4,11.7,1.2c3.9,0.8,7.9,2,12.1,3.9c4,1.8,7.9,4.1,11.6,6.9c3.9,3,7.3,6.6,10,10.6
				c2.6,3.8,4.8,8.2,7,14c1.7,5.5,2.6,11.5,2.6,17.9v101.8c0,0.8-0.7,1.3-1.3,1.3h-42.6c-0.8,0-1.3-0.7-1.3-1.3V230.9
				c0-3.4-0.7-5.8-2.1-7.2c-1.8-1.8-4.9-2.1-7.2-2.1h-22.1c-1,0-1.9,0.4-2.6,1.1s-1,1.7-0.9,2.7c0.1,1.9,0.2,3.8,0.2,5.6v101.8
				c0,0.8-0.7,1.3-1.3,1.3H2194c-0.8,0-1.3-0.7-1.3-1.3V231.1c0-3.2-0.8-5.7-2.3-7.1c-1.6-1.4-4.1-2.2-7.6-2.2h-37.9
				c-2,0-3.6,1.7-3.6,3.6v107.5c0,0.8-0.7,1.3-1.3,1.3h-42.6c-0.8,0-1.3-0.7-1.3-1.3v-134c0-3.1,0.6-6.2,1.8-8.8
				c1-2.4,2.7-4.9,4.9-7.1c1.9-1.9,4.2-3.4,7.2-4.8c2.8-1.2,5.7-1.8,8.9-1.8h64.3c5.5,0,11.2,0.9,17.4,2.8c1.7,0.4,3.3,1.1,5,1.8
				c0.4,0.2,0.9,0.2,1.3,0.2c2,0,3.6-1.7,3.6-3.6c0-0.8,0.7-1.3,1.3-1.3L2263.2,176.3 M2263.2,175.2h-51.6c-1.3,0-2.4,1.1-2.4,2.4
				s-1.2,2.4-2.4,2.4c-0.3,0-0.7-0.1-0.9-0.2c-1.7-0.7-3.4-1.3-5.1-1.8c-6.2-1.9-12.1-2.9-17.6-2.9h-64.3c-3.3,0-6.3,0.6-9.3,1.8
				c-2.9,1.2-5.5,2.9-7.6,5s-4,4.7-5.1,7.5c-1.2,2.9-1.8,6-1.8,9.2v133.7c0,1.3,1.1,2.4,2.4,2.4h42.6c1.3,0,2.4-1.1,2.4-2.4V224.9
				c0-1.3,1.1-2.4,2.4-2.4h37.9c3.2,0,5.5,0.7,6.8,1.9c1.2,1.2,1.9,3.4,1.9,6.3v101.7c0,1.3,1.1,2.4,2.4,2.4h42.6
				c1.3,0,2.4-1.1,2.4-2.4V230.7c0-1.9-0.1-3.9-0.2-5.7c-0.1-1.4,1-2.7,2.3-2.7h22.1c2.1,0,5,0.3,6.5,1.8c1.2,1.2,1.8,3.4,1.8,6.5
				v101.7c0,1.3,1.1,2.4,2.4,2.4h42.6c1.3,0,2.4-1.1,2.4-2.4V230.6c0-6.7-0.9-12.8-2.7-18.2c-2-5.3-4.3-10.1-7.1-14.4
				s-6.3-7.8-10.2-10.8c-3.8-2.9-7.7-5.2-11.8-7c-4.1-1.8-8.2-3.2-12.4-4C2271.1,175.5,2266.9,175.2,2263.2,175.2L2263.2,175.2
				L2263.2,175.2z"/>
		</g>
		<g>
			<path class="st0" d="M2352.5,114.1h38.8c2.1,0,3.8,1.7,3.8,3.8v35.4c0,2.1-1.7,3.8-3.8,3.8h-38.8c-2.1,0-3.8-1.7-3.8-3.8v-35.4
				C2348.8,115.9,2350.5,114.1,2352.5,114.1z"/>
			<path class="st0" d="M2391.3,114.7c1.8,0,3.2,1.4,3.2,3.2v35.4c0,1.8-1.4,3.2-3.2,3.2h-38.8c-1.8,0-3.2-1.4-3.2-3.2v-35.4
				c0-1.7,1.4-3.2,3.2-3.2H2391.3 M2391.3,113.6h-38.8c-2.2,0-4.3,1.9-4.3,4.3v35.4c0,2.3,1.9,4.3,4.3,4.3h38.8
				c2.3,0,4.3-1.9,4.3-4.3v-35.4C2395.7,115.6,2393.8,113.6,2391.3,113.6L2391.3,113.6z"/>
		</g>
		<g>
			<path class="st0" d="M2352.6,334.5c-1,0-2.1-0.4-2.8-1.2c-0.7-0.7-1-1.6-1-2.6V179.3c0-2.1,1.7-3.8,3.8-3.8h38.8
				c2.1,0,3.8,1.7,3.8,3.8v151.4c0,2.1-1.7,3.8-3.8,3.8H2352.6L2352.6,334.5z"/>
			<path class="st0" d="M2391.4,176.1c1.8,0,3.2,1.4,3.2,3.2v151.4c0,1.8-1.4,3.2-3.2,3.2h-38.8c-0.9,0-1.8-0.3-2.3-1
				c-0.6-0.6-0.9-1.3-0.8-2.2V179.3c0-1.8,1.4-3.2,3.2-3.2H2391.4 M2391.4,175h-38.8c-2.3,0-4.3,1.9-4.3,4.3v151.4
				c-0.1,2.3,1.9,4.3,4.3,4.3h38.8c2.3,0,4.3-1.9,4.3-4.3V179.3C2395.8,177,2393.9,175,2391.4,175L2391.4,175z"/>
		</g>
	</g>
	<g>
		<g>
			<path class="st0" d="M150.9,509.7c0,3.6-0.4,6.8-1.3,9.3c-0.9,2.7-2,5.3-3.6,7.3c-1.4,2-3.2,4-5.2,5.5c-1.9,1.4-4,2.7-6.2,3.6
				c-2,1-4.3,1.6-6.5,2c-2.2,0.4-4.3,0.6-6.2,0.6l32.3,27.9h-23.7L98.3,538H87.1v-15.4H122c1.9-0.1,3.6-0.6,5.3-1.1
				c1.7-0.6,2.9-1.4,4.2-2.6c1.1-1.1,2-2.4,2.6-4c0.6-1.6,0.9-3.4,0.9-5.5v-9.6c0-0.9-0.1-1.4-0.3-2c-0.1-0.6-0.4-0.7-0.9-1
				c-0.3-0.1-0.7-0.3-1-0.4h-52V566H65.4v-77.4c0-1,0.1-2,0.6-3c0.4-0.9,0.9-1.7,1.6-2.4c0.7-0.7,1.4-1.3,2.4-1.6
				c0.9-0.4,2-0.6,3-0.6h58.6c3.4,0,6.3,0.6,8.8,1.9c2.3,1.3,4.3,2.7,5.9,4.7c1.4,1.9,2.4,4,3.2,6.2c0.6,2.2,1,4.3,1,6.2v9.8
				L150.9,509.7L150.9,509.7z"/>
			<path class="st0" d="M258.9,531.8c0,5.2-0.9,9.9-2.6,14.4c-1.7,4.5-4.3,8-7.5,11.3c-3.2,3.3-6.9,5.6-11.3,7.3
				c-4.5,1.7-9,2.6-14.2,2.6h-20.8c-5.2,0-9.8-0.9-14.2-2.6c-4.5-1.7-8-4.3-11.3-7.3c-3.2-3.2-5.7-6.9-7.5-11.3
				c-1.7-4.5-2.6-9-2.6-14.4v-16.2c0-5.2,0.9-9.9,2.6-14.2c1.7-4.5,4.3-8.2,7.5-11.3c3.2-3.2,6.9-5.6,11.3-7.3
				c4.5-1.7,9-2.6,14.2-2.6h21c5.2,0,9.8,0.9,14.2,2.6c4.5,1.7,8,4.3,11.3,7.3s5.6,6.9,7.5,11.3c1.7,4.5,2.6,9,2.6,14.2v16.2H258.9
				L258.9,531.8z M243.6,515.6c0-3-0.4-5.9-1.4-8.3c-1-2.4-2.3-4.6-4.2-6.3c-1.7-1.7-3.9-3-6.3-4.2c-2.4-1-5.2-1.4-8.2-1.4h-21
				c-3,0-5.7,0.4-8.2,1.4c-2.4,1-4.6,2.3-6.5,4.2c-1.7,1.7-3.2,3.7-4.2,6.3c-1,2.4-1.4,5.3-1.4,8.3v16.2c0,3,0.4,5.9,1.4,8.3
				c1,2.4,2.3,4.6,4.2,6.3c1.7,1.7,4,3,6.5,4.2c2.4,1,5.3,1.4,8.2,1.4h20.8c3,0,5.7-0.4,8.2-1.4s4.6-2.3,6.5-4.2
				c1.7-1.7,3.2-3.9,4.2-6.3c1-2.4,1.4-5.3,1.4-8.3L243.6,515.6L243.6,515.6z"/>
			<path class="st0" d="M362.2,547.5c0,1.9-0.3,4-1,6.2c-0.6,2.2-1.7,4.3-3.2,6c-1.4,1.9-3.3,3.3-5.9,4.7c-2.3,1.3-5.3,1.9-8.8,1.9
				h-58.6c-1.1,0-2.2-0.1-3-0.6s-1.7-0.9-2.4-1.6c-0.7-0.7-1.1-1.4-1.6-2.4c-0.4-0.9-0.6-1.9-0.6-3V489c0-1,0.1-2,0.6-3
				c0.4-0.9,0.9-1.7,1.6-2.4c0.7-0.7,1.4-1.3,2.4-1.6c0.9-0.4,2-0.6,3-0.6h51.6c1.9,0,4,0.3,6.2,1c2.2,0.7,4.3,1.7,6.2,3.2
				s3.3,3.4,4.7,5.9c1.3,2.3,1.9,5.3,1.9,8.8v2.9c0,2.7-0.4,5.7-1.3,8.8c-0.9,3-2.3,6.2-4.5,8.9c1.7,1,3.3,2.3,4.9,3.9
				c1.6,1.6,2.9,3.2,4,5.3c1.1,2,2,4.3,2.7,6.8c0.7,2.4,1,5.3,1,8.2V547.5L362.2,547.5L362.2,547.5z M346.8,544.6
				c0-2-0.3-3.9-0.9-5.5c-0.6-1.6-1.4-2.9-2.6-4.2c-1.1-1.3-2.4-2-4.2-2.6c-1.6-0.6-3.3-0.9-5.5-0.9H299v-15.7h27.9
				c2,0,3.9-0.3,5.5-0.9c1.6-0.6,3-1.4,4.2-2.6c1.1-1.1,2-2.4,2.6-4.2c0.6-1.6,0.9-3.4,0.9-5.5V500c0-2.2-1-3.4-3.2-3.4h-44v54.3h52
				c0.4,0,0.7-0.1,1-0.3c0.3-0.1,0.6-0.6,0.9-1c0.3-0.4,0.3-1.1,0.3-1.9L346.8,544.6L346.8,544.6L346.8,544.6z"/>
			<path class="st0" d="M468.2,531.8c0,5.2-0.9,9.9-2.6,14.4c-1.7,4.5-4.3,8-7.5,11.3c-3.2,3.3-6.9,5.6-11.3,7.3
				c-4.5,1.7-9,2.6-14.2,2.6h-21c-5.2,0-9.8-0.9-14.2-2.6c-4.5-1.7-8-4.3-11.3-7.3c-3.2-3.2-5.7-6.9-7.5-11.3
				c-1.7-4.5-2.6-9-2.6-14.4v-16.2c0-5.2,0.9-9.9,2.6-14.2c1.7-4.5,4.3-8.2,7.5-11.3c3.2-3,6.9-5.6,11.3-7.3c4.5-1.7,9-2.6,14.2-2.6
				h21c5.2,0,9.8,0.9,14.2,2.6c4.5,1.7,8,4.3,11.3,7.3s5.6,6.9,7.5,11.3c1.7,4.5,2.6,9,2.6,14.2L468.2,531.8L468.2,531.8z
				 M452.8,515.6c0-3-0.4-5.9-1.4-8.3c-1-2.4-2.3-4.6-4.2-6.3c-1.7-1.7-3.9-3-6.3-4.2c-2.4-1-5.2-1.4-8.2-1.4h-21
				c-3,0-5.7,0.4-8.2,1.4c-2.4,1-4.6,2.3-6.5,4.2c-1.7,1.7-3.2,3.7-4.2,6.3c-1,2.4-1.4,5.3-1.4,8.3v16.2c0,3,0.4,5.9,1.4,8.3
				c1,2.4,2.3,4.6,4.2,6.3c1.7,1.7,4,3,6.5,4.2c2.4,1,5.3,1.4,8.2,1.4h20.8c3,0,5.7-0.4,8.2-1.4c2.4-1,4.6-2.3,6.5-4.2
				c1.7-1.7,3.2-3.9,4.2-6.3c1-2.4,1.4-5.3,1.4-8.3L452.8,515.6L452.8,515.6z"/>
			<path class="st0" d="M562.6,496.5h-34v69.8h-15.4v-69.8H479v-15.4h83.6V496.5L562.6,496.5z"/>
			<path class="st0" d="M592.6,566.3h-15.4v-85.2h15.4V566.3z"/>
			<path class="st0" d="M690,566.3h-55.7c-1.4,0-2.9-0.1-4.6-0.4c-1.6-0.3-3.2-0.9-4.9-1.6c-1.7-0.7-3-1.6-4.6-2.7
				c-1.4-1.1-2.7-2.4-4-4.2c-1.1-1.6-2-3.6-2.6-5.6c-0.7-2-1-4.6-1-7.2v-41.8c0-1.4,0.1-2.9,0.4-4.6c0.3-1.6,0.9-3.2,1.6-4.9
				c0.7-1.7,1.6-3,2.7-4.6c1.1-1.6,2.4-2.7,4.2-4c1.7-1.3,3.6-2,5.6-2.6c2-0.7,4.6-1,7.2-1H690v15.4h-55.7c-2,0-3.6,0.6-4.7,1.6
				c-1,1-1.6,2.6-1.6,4.7v41.7c0,2,0.6,3.6,1.6,4.6c1,1,2.6,1.6,4.6,1.6h55.7L690,566.3L690,566.3z"/>
			<path class="st0" d="M789.4,541.2c0,3-0.4,5.9-1.1,8.2c-0.7,2.4-1.7,4.6-3,6.5c-1.3,1.9-2.7,3.3-4.5,4.7
				c-1.7,1.3-3.6,2.3-5.3,3.2c-1.7,0.9-3.6,1.4-5.6,1.9c-2,0.4-3.6,0.6-5.3,0.6H705v-15.4h59.5c2.9,0,5.3-0.9,6.9-2.6
				c1.6-1.7,2.4-4.2,2.4-7c0-1.4-0.1-2.7-0.6-4s-1-2.2-1.9-3s-1.7-1.6-2.9-2s-2.4-0.7-4-0.7H729c-2.4,0-5.2-0.4-8-1.3
				c-2.9-0.9-5.6-2.3-8-4.3c-2.4-2-4.6-4.6-6.2-7.8c-1.6-3.2-2.4-7.2-2.4-11.8s0.9-8.5,2.4-11.8c1.6-3.2,3.6-5.7,6.2-7.8
				s5.2-3.6,8-4.5c2.9-0.9,5.6-1.3,8-1.3h52.6v15.4H729c-2.9,0-5.3,0.9-6.9,2.6c-1.6,1.7-2.4,4.2-2.4,7c0,2.9,0.9,5.3,2.4,7
				c1.6,1.7,4,2.6,6.9,2.6h35.6c1.6,0,3.3,0.3,5.3,0.7c1.9,0.4,3.6,1,5.6,1.9c1.9,0.9,3.6,1.9,5.3,3.2c1.7,1.3,3,2.9,4.5,4.9
				s2.3,4,3,6.5C788.9,535.4,789.4,538.2,789.4,541.2L789.4,541.2z"/>
			<path class="st0" d="M931,566.3h-15.4v-21h-54.3v21H846v-42.5c0-6.2,1-11.9,3.2-17.1c2.2-5.3,5.2-9.6,8.9-13.5
				c3.9-3.7,8.3-6.8,13.5-8.8s10.8-3,16.9-3h34.8c1,0,2,0.1,3,0.6c0.9,0.4,1.7,0.9,2.4,1.6c0.7,0.7,1.3,1.6,1.6,2.4
				c0.4,0.9,0.6,1.9,0.6,3v77.3L931,566.3L931,566.3z M861.3,530h54.3v-33.5h-27c-0.4,0-1.4,0-2.9,0.1s-3.2,0.4-5.3,1
				c-2,0.6-4.2,1.4-6.3,2.4c-2.2,1.1-4.3,2.7-6.2,4.7c-1.9,2-3.3,4.6-4.6,7.6c-1.1,3-1.7,6.8-1.7,10.9v6.5L861.3,530L861.3,530z"/>
			<path class="st0" d="M1037.3,559.7c0,1.1-0.1,2.2-0.6,3c-0.4,0.9-1,1.7-1.6,2.4c-0.7,0.7-1.4,1.1-2.4,1.6c-0.9,0.4-1.9,0.6-3,0.6
				c-0.9,0-1.9-0.1-2.9-0.6c-1-0.3-1.7-0.9-2.6-1.7l-56.4-58.9V566h-15.4v-78.6c0-1.6,0.4-3,1.3-4.3c0.9-1.3,2-2.2,3.3-2.9
				c1.4-0.6,2.9-0.7,4.6-0.4c1.7,0.3,2.9,1,4,2.2l56.4,58.9V481h15.4v78.6L1037.3,559.7L1037.3,559.7z"/>
			<path class="st0" d="M1143.3,530.7c0,5.2-0.9,9.9-2.6,14.4s-4.3,8-7.5,11.3c-3.2,3-6.9,5.6-11.3,7.3c-4.5,1.7-9,2.6-14.2,2.6
				H1066c-1.1,0-2.2-0.1-3-0.6c-0.9-0.4-1.7-0.9-2.4-1.6c-0.7-0.7-1.1-1.4-1.6-2.4c-0.4-0.9-0.6-1.9-0.6-3V489c0-1,0.1-2,0.6-3
				c0.4-0.9,0.9-1.7,1.6-2.4c0.7-0.7,1.4-1.3,2.4-1.6c0.9-0.4,2-0.6,3-0.6h41.7c5.2,0,9.8,0.9,14.2,2.6c4.5,1.7,8,4.3,11.3,7.3
				c3.3,3,5.7,6.9,7.5,11.3c1.7,4.5,2.6,9,2.6,14.2V530.7L1143.3,530.7z M1127.9,516.8c0-3-0.4-5.7-1.4-8.2c-1-2.4-2.3-4.7-4.2-6.5
				c-1.7-1.7-4-3-6.5-4.2c-2.4-1-5.3-1.4-8.2-1.4h-34v54.3h34c3,0,5.7-0.4,8.2-1.4c2.4-1,4.6-2.3,6.5-4.2c1.7-1.7,3.2-3.9,4.2-6.3
				c1-2.4,1.4-5.3,1.4-8.3V516.8L1127.9,516.8z"/>
			<path class="st0" d="M1280.6,566.3h-55.7c-1.4,0-2.9-0.1-4.6-0.4c-1.6-0.3-3.2-0.9-4.9-1.6c-1.7-0.7-3-1.6-4.6-2.7
				c-1.6-1.1-2.7-2.4-4-4.2c-1.1-1.6-2-3.6-2.6-5.6c-0.7-2-1-4.6-1-7.2v-41.8c0-1.4,0.1-2.9,0.4-4.6c0.3-1.6,0.9-3.2,1.6-4.9
				s1.6-3,2.7-4.6c1.1-1.6,2.4-2.7,4.2-4c1.6-1.1,3.4-2,5.6-2.6c2-0.7,4.6-1,7.2-1h55.7v15.4h-55.7c-2,0-3.4,0.6-4.7,1.6
				c-1,1-1.6,2.6-1.6,4.7v41.7c0,2,0.6,3.6,1.6,4.6s2.6,1.6,4.6,1.6h55.7v15.7H1280.6z"/>
			<path class="st0" d="M1386.4,531.8c0,5.2-0.9,9.9-2.6,14.4c-1.7,4.5-4.3,8-7.5,11.3c-3.2,3.3-6.9,5.6-11.3,7.3s-9,2.6-14.2,2.6
				h-21c-5.2,0-9.8-0.9-14.2-2.6c-4.5-1.7-8-4.3-11.3-7.3c-3.2-3.2-5.7-6.9-7.5-11.3c-1.7-4.5-2.6-9-2.6-14.4v-16.2
				c0-5.2,0.9-9.9,2.6-14.2c1.7-4.5,4.3-8.2,7.5-11.3s6.9-5.6,11.3-7.3c4.5-1.7,9-2.6,14.2-2.6h21c5.2,0,9.8,0.9,14.2,2.6
				c4.5,1.7,8,4.3,11.3,7.3c3.3,3,5.6,6.9,7.5,11.3c1.7,4.5,2.6,9,2.6,14.2V531.8z M1371.1,515.6c0-3-0.4-5.9-1.4-8.3
				c-1-2.4-2.3-4.6-4.2-6.3c-1.7-1.7-3.9-3-6.3-4.2c-2.4-1-5.2-1.4-8.2-1.4h-21c-3,0-5.7,0.4-8.2,1.4c-2.4,1-4.6,2.3-6.5,4.2
				c-1.7,1.7-3.2,3.7-4.2,6.3c-1,2.4-1.4,5.3-1.4,8.3v16.2c0,3,0.4,5.9,1.4,8.3c1,2.4,2.3,4.6,4.2,6.3c1.7,1.7,4,3,6.5,4.2
				c2.4,1,5.3,1.4,8.2,1.4h20.8c3,0,5.7-0.4,8.2-1.4c2.4-1,4.6-2.3,6.5-4.2c1.7-1.7,3.2-3.9,4.2-6.3c1-2.4,1.4-5.3,1.4-8.3V515.6
				L1371.1,515.6z"/>
			<path class="st0" d="M1490,530.7c0,5.2-0.9,9.9-2.6,14.4c-1.7,4.5-4.3,8-7.5,11.3c-3.2,3-6.9,5.6-11.3,7.3s-9,2.6-14.2,2.6h-41.7
				c-1.1,0-2.2-0.1-3-0.6s-1.7-0.9-2.4-1.6c-0.7-0.7-1.1-1.4-1.6-2.4c-0.4-0.9-0.6-1.9-0.6-3V489c0-1,0.1-2,0.6-3
				c0.4-0.9,0.9-1.7,1.6-2.4c0.7-0.7,1.4-1.3,2.4-1.6c0.9-0.4,2-0.6,3-0.6h41.7c5.2,0,9.8,0.9,14.2,2.6c4.5,1.7,8,4.3,11.3,7.3
				c3.3,3,5.7,6.9,7.5,11.3s2.6,9,2.6,14.2V530.7L1490,530.7z M1474.6,516.8c0-3-0.4-5.7-1.4-8.2c-1-2.4-2.3-4.7-4.2-6.5
				c-1.7-1.7-4-3-6.5-4.2c-2.4-1-5.3-1.4-8.2-1.4h-34v54.3h34c3,0,5.7-0.4,8.2-1.4c2.4-1,4.6-2.3,6.5-4.2c1.7-1.7,3.2-3.9,4.2-6.3
				c1-2.4,1.4-5.3,1.4-8.3V516.8L1474.6,516.8z"/>
			<path class="st0" d="M1523.9,566.3h-15.5v-85.2h15.4v85.2H1523.9z"/>
			<path class="st0" d="M1630.2,559.7c0,1.1-0.1,2.2-0.6,3c-0.4,0.9-1,1.7-1.6,2.4c-0.7,0.7-1.4,1.1-2.4,1.6c-0.9,0.4-1.9,0.6-3,0.6
				c-0.9,0-1.9-0.1-2.9-0.6c-1-0.3-1.7-0.9-2.6-1.7l-56.4-58.9V566h-15.4v-78.6c0-1.6,0.4-3,1.3-4.3c0.9-1.3,2-2.2,3.3-2.9
				c1.4-0.6,2.9-0.7,4.6-0.4c1.7,0.3,2.9,1,4,2.2l56.4,58.9V481h15.4L1630.2,559.7L1630.2,559.7L1630.2,559.7z"/>
			<path class="st0" d="M1735.2,558.6c0,1.1-0.1,2.2-0.6,3c-0.4,0.9-0.9,1.7-1.6,2.4c-0.7,0.7-1.4,1.1-2.4,1.6c-0.9,0.4-2,0.6-3,0.6
				h-55.7c-1.4,0-2.9-0.1-4.6-0.4c-1.6-0.3-3.2-0.9-4.9-1.6c-1.7-0.7-3-1.6-4.6-2.7c-1.6-1.1-2.7-2.4-4-4.2c-1.1-1.6-2-3.6-2.6-5.6
				c-0.7-2-1-4.6-1-7.2v-41.7c0-1.4,0.1-2.9,0.4-4.6c0.3-1.6,0.9-3.2,1.6-4.9s1.6-3,2.7-4.6c1.1-1.6,2.4-2.7,4.2-4
				c1.6-1.1,3.4-2,5.6-2.6c2-0.7,4.6-1,7.2-1h62.8v15.4h-62.8c-2,0-3.4,0.6-4.7,1.6c-1,1-1.6,2.6-1.6,4.7v41.7c0,2,0.6,3.6,1.6,4.6
				c1,1,2.6,1.6,4.6,1.6h48.1v-19.4h-41.1v-15.5h48.8c1.1,0,2.2,0.1,3,0.6c0.9,0.4,1.7,1,2.4,1.7c0.7,0.7,1.1,1.4,1.6,2.4
				c0.4,0.9,0.6,1.9,0.6,2.9v34.9V558.6L1735.2,558.6z"/>
			<path class="st0" d="M1873.6,566.3h-55.7c-1.4,0-2.9-0.1-4.6-0.4c-1.6-0.3-3.2-0.9-4.9-1.6c-1.7-0.7-3-1.6-4.6-2.7
				c-1.6-1.1-2.7-2.4-4-4.2c-1.1-1.6-2-3.6-2.6-5.6c-0.7-2-1-4.6-1-7.2v-41.8c0-1.4,0.1-2.9,0.4-4.6c0.3-1.6,0.9-3.2,1.6-4.9
				c0.7-1.7,1.6-3,2.7-4.6c1.1-1.6,2.4-2.7,4.2-4c1.6-1.1,3.4-2,5.6-2.6c2-0.7,4.6-1,7.2-1h55.7v15.4h-55.7c-2,0-3.4,0.6-4.7,1.6
				c-1,1-1.6,2.6-1.6,4.7v41.7c0,2,0.6,3.6,1.6,4.6s2.6,1.6,4.6,1.6h55.7v15.7H1873.6z"/>
			<path class="st0" d="M1968.3,566.3h-55.7c-2.2,0-4.6-0.4-7-1.1c-2.4-0.7-4.9-2-7-3.6c-2.2-1.7-4-4-5.5-6.8
				c-1.4-2.7-2.2-6.2-2.2-10.1V489c0-1,0.1-2,0.6-3c0.4-0.9,0.9-1.7,1.6-2.4c0.7-0.7,1.4-1.3,2.4-1.6c0.9-0.4,2-0.6,3-0.6h69.5v15.4
				h-61.8v48.1c0,2,0.6,3.6,1.6,4.7c1,1,2.6,1.6,4.7,1.6h55.6v15.4L1968.3,566.3L1968.3,566.3z M1961.3,531.4h-48.8v-15.5h48.8
				V531.4z"/>
			<path class="st0" d="M2071.6,559.7c0,1.1-0.1,2.2-0.6,3c-0.4,0.9-1,1.7-1.6,2.4c-0.7,0.7-1.4,1.1-2.4,1.6c-0.9,0.4-1.9,0.6-3,0.6
				c-0.9,0-1.9-0.1-2.9-0.6c-1-0.3-1.7-0.9-2.6-1.7l-56.4-58.9V566h-15.4v-78.6c0-1.6,0.4-3,1.3-4.3c0.9-1.3,2-2.2,3.3-2.9
				c1.4-0.6,2.9-0.7,4.6-0.4c1.7,0.3,2.9,1,4,2.2l56.4,58.9V481h15.4L2071.6,559.7L2071.6,559.7L2071.6,559.7z"/>
			<path class="st0" d="M2169.5,496.5h-34v69.8h-15.4v-69.8h-34.2v-15.4h83.6V496.5L2169.5,496.5z"/>
			<path class="st0" d="M2261,566.3h-55.7c-2.2,0-4.6-0.4-7-1.1c-2.4-0.7-4.9-2-7-3.6c-2.2-1.7-4-4-5.5-6.8s-2.2-6.2-2.2-10.1V489
				c0-1,0.1-2,0.6-3c0.4-0.9,0.9-1.7,1.6-2.4c0.7-0.7,1.4-1.3,2.4-1.6c0.9-0.4,2-0.6,3-0.6h69.5v15.4h-61.9v48.1
				c0,2,0.6,3.6,1.6,4.7c1,1,2.6,1.6,4.7,1.6h55.6v15.4L2261,566.3L2261,566.3z M2254,531.4h-48.8v-15.5h48.8V531.4z"/>
			<path class="st0" d="M2364.3,509.7c0,3.6-0.4,6.8-1.3,9.3c-0.9,2.7-2,5.3-3.4,7.3c-1.4,2-3.2,4-5.2,5.5c-1.9,1.4-4,2.7-6.2,3.6
				c-2,1-4.3,1.6-6.5,2c-2.2,0.4-4.3,0.6-6.2,0.6l32.2,27.9h-23.8l-32.2-27.9h-11.2v-15.4h34.9c1.9-0.1,3.7-0.6,5.3-1.1
				c1.6-0.6,2.9-1.4,4.2-2.6s2-2.4,2.6-4c0.6-1.6,0.9-3.4,0.9-5.5v-9.6c0-0.9-0.1-1.4-0.3-2c-0.1-0.4-0.4-0.7-0.9-1
				c-0.3-0.1-0.7-0.3-1-0.4h-52.1V566h-15.4v-77.4c0-1,0.1-2,0.6-3c0.4-0.9,0.9-1.7,1.6-2.4c0.7-0.7,1.4-1.3,2.4-1.6
				c0.9-0.4,2-0.6,3-0.6h58.6c3.3,0,6.3,0.6,8.8,1.9c2.3,1.3,4.3,2.7,5.9,4.7c1.4,1.9,2.4,4,3.2,6.2c0.6,2.2,1,4.3,1,6.2v9.8
				L2364.3,509.7L2364.3,509.7z"/>
		</g>
	</g>
</g>
</svg>
