<svg width="97" height="36" viewBox="0 0 97 36" fill="none" xmlns="http://www.w3.org/2000/svg">
<path d="M19.4302 9.12C14.3518 9.12 10.9438 12.0768 10.9438 17.8128V21.9024C11.4595 21.649 12.0254 21.5145 12.5998 21.5088C13.1754 21.5089 13.7434 21.6402 14.2606 21.8928V17.7936C14.2606 14.0736 16.315 12.1632 19.4446 12.1632C22.5742 12.1632 24.5998 14.0736 24.5998 17.7936V26.7312H27.907V17.7936C27.9166 12.024 24.5086 9.12 19.4302 9.12Z" fill="#1A2735"/>
<path d="M29.7163 18.144C29.7163 12.9264 33.5563 9.10083 38.9659 9.10083C44.3755 9.10083 48.1483 12.9408 48.1483 18.144V19.3584H33.1915C33.6715 22.4208 35.9755 24.1248 38.9515 24.1248C41.1787 24.1248 42.7435 23.4288 43.7515 21.936H47.3995C46.0795 25.1328 42.9499 27.1872 38.9515 27.1872C33.5419 27.1872 29.7163 23.3616 29.7163 18.144ZM44.6683 16.4064C44.0059 13.656 41.7499 12.1632 38.9659 12.1632C36.1819 12.1632 33.9595 13.6944 33.2971 16.4064H44.6683Z" fill="#1A2735"/>
<path d="M49.915 18.144C49.915 12.9312 53.755 9.10559 59.1646 9.10559C64.5742 9.10559 68.4142 12.9456 68.4142 18.144C68.4142 23.3424 64.5742 27.1872 59.1646 27.1872C53.755 27.1872 49.915 23.3616 49.915 18.144ZM65.0782 18.144C65.0782 14.6688 62.7118 12.1632 59.1646 12.1632C55.6174 12.1632 53.2558 14.6688 53.2558 18.144C53.2558 21.6192 55.6174 24.1248 59.1598 24.1248C62.7022 24.1248 65.0782 21.624 65.0782 18.144Z" fill="#1A2735"/>
<path d="M87.3066 30.1536H87.6906C89.8122 30.1536 90.609 29.1936 90.609 26.7936V9.67682H93.9162V26.5728C93.9162 30.816 92.2458 33.0048 88.0026 33.0048H87.3066V30.1536Z" fill="#1A2735"/>
<path d="M85.6558 28.3872H82.3486V24.312H73.9726C73.2079 24.3387 72.4507 24.1533 71.7849 23.7763C71.119 23.3993 70.5704 22.8454 70.1998 22.176C69.8988 21.5469 69.7814 20.8455 69.8613 20.1526C69.9411 19.4597 70.2148 18.8035 70.651 18.2592L78.1678 8.39522C78.6874 7.69404 79.4146 7.1744 80.2463 6.91009C81.078 6.64579 81.9719 6.65026 82.8009 6.92288C83.6299 7.19549 84.3519 7.72239 84.8644 8.42873C85.3769 9.13507 85.6538 9.98494 85.6558 10.8576V21.3792H88.1374V24.312H85.6558V28.3872ZM73.4014 20.064C73.3026 20.2047 73.249 20.3721 73.2478 20.544C73.2472 20.6532 73.2682 20.7615 73.3097 20.8626C73.3512 20.9636 73.4124 21.0554 73.4896 21.1326C73.5668 21.2099 73.6586 21.271 73.7597 21.3125C73.8607 21.354 73.969 21.3751 74.0782 21.3744H82.3486V10.776C82.3547 10.5976 82.3021 10.4222 82.199 10.2765C82.0958 10.1309 81.9477 10.0231 81.7774 9.96962C81.679 9.94163 81.5773 9.9271 81.475 9.92642C81.3457 9.92634 81.2184 9.9583 81.1045 10.0195C80.9906 10.0806 80.8936 10.169 80.8222 10.2768L73.4014 20.064Z" fill="#1A2735"/>
<path d="M92.2797 2.65442C91.7194 2.65347 91.1713 2.81876 90.705 3.12937C90.2386 3.43997 89.8749 3.88194 89.6598 4.39933C89.4447 4.91673 89.388 5.4863 89.4967 6.03597C89.6054 6.58564 89.8748 7.0907 90.2706 7.48725C90.6665 7.88379 91.1711 8.15399 91.7206 8.26365C92.2701 8.37331 92.8398 8.31751 93.3575 8.10331C93.8753 7.8891 94.3179 7.52612 94.6293 7.0603C94.9407 6.59447 95.1069 6.04674 95.1069 5.48642C95.1069 4.73616 94.8092 4.01656 94.2791 3.48559C93.749 2.95463 93.0299 2.65569 92.2797 2.65442Z" fill="#018BFF"/>
<path d="M12.4558 22.56C11.8416 22.5607 11.2446 22.763 10.7566 23.136L7.6462 21.0096C7.71543 20.7611 7.75095 20.5044 7.7518 20.2464C7.75846 19.6861 7.59845 19.1364 7.29208 18.6672C6.98571 18.1979 6.54681 17.8303 6.03111 17.6111C5.51541 17.3918 4.94618 17.3307 4.3957 17.4356C3.84521 17.5404 3.33831 17.8066 2.93936 18.2001C2.54042 18.5936 2.26742 19.0968 2.15504 19.6459C2.04266 20.1949 2.09596 20.7649 2.30819 21.2835C2.52041 21.8022 2.88198 22.246 3.34697 22.5588C3.81197 22.8715 4.35942 23.039 4.9198 23.04C5.53419 23.0404 6.13151 22.8379 6.619 22.464L9.7198 24.6048C9.57896 25.1055 9.57896 25.6353 9.7198 26.136L6.6094 28.2624C6.12452 27.8905 5.5309 27.6881 4.9198 27.6864C4.35928 27.6855 3.81108 27.8509 3.34463 28.1617C2.87817 28.4725 2.51444 28.9148 2.2995 29.4324C2.08456 29.9501 2.02807 30.5199 2.13719 31.0697C2.24631 31.6195 2.51613 32.1246 2.91248 32.5209C3.30883 32.9173 3.81389 33.1871 4.36369 33.2962C4.91349 33.4054 5.48331 33.3489 6.00098 33.1339C6.51866 32.919 6.96091 32.5553 7.27173 32.0888C7.58255 31.6223 7.74795 31.0741 7.747 30.5136C7.74686 30.2591 7.71296 30.0057 7.6462 29.76L10.7566 27.6336C11.2446 28.0066 11.8416 28.209 12.4558 28.2096C13.1701 28.1586 13.8386 27.8388 14.3266 27.3147C14.8147 26.7905 15.086 26.101 15.086 25.3848C15.086 24.6687 14.8147 23.9791 14.3266 23.455C13.8386 22.9308 13.1701 22.6111 12.4558 22.56Z" fill="#018BFF"/>
</svg>
