<svg width="93" height="36" viewBox="0 0 93 36" fill="none" xmlns="http://www.w3.org/2000/svg">
<g clip-path="url(#clip0_207_572)">
<path d="M56.4092 24.1344H58.8351V15.2424H56.4092V24.1344ZM56.3062 12.9437C56.3062 12.1537 56.7462 11.7588 57.6264 11.7588C58.5063 11.7588 58.9466 12.1537 58.9466 12.9437C58.9466 13.3203 58.8365 13.6132 58.6166 13.8227C58.3965 14.0322 58.0665 14.1367 57.6264 14.1367C56.7462 14.1367 56.3062 13.739 56.3062 12.9437Z" fill="#0C344B"/>
<path fill-rule="evenodd" clip-rule="evenodd" d="M46.594 19.0042C47.3764 18.3414 47.7673 17.3846 47.7673 16.1332C47.7673 14.9295 47.4003 14.024 46.6659 13.4168C45.9315 12.8102 44.8592 12.5063 43.4485 12.5063H39.7344V24.1344H42.1999V19.9984H43.2578C44.7 19.9984 45.8121 19.6673 46.594 19.0042ZM43.0113 17.9783H42.1999V14.5267H43.3213C43.9948 14.5267 44.4891 14.6643 44.8047 14.9401C45.1201 15.2159 45.2779 15.6428 45.2779 16.2208C45.2779 16.7931 45.0898 17.2293 44.7132 17.5289C44.3366 17.8286 43.7695 17.9783 43.0113 17.9783Z" fill="#0C344B"/>
<path d="M55.1226 15.1469C54.9052 15.0991 54.6323 15.0753 54.3034 15.0753C53.7518 15.0753 53.2415 15.2278 52.7725 15.5325C52.3055 15.8349 51.9213 16.2491 51.6548 16.7376H51.5357L51.1776 15.2424H49.3403V24.1344H51.7663V19.6089C51.7663 18.893 51.9822 18.3361 52.4142 17.9385C52.8467 17.5408 53.4496 17.3419 54.2239 17.3419C54.505 17.3419 54.7435 17.3686 54.9398 17.4214L55.1226 15.1469ZM66.4252 23.5778C67.059 23.1004 67.3758 22.4061 67.3758 21.4939C67.3758 21.0538 67.2991 20.6747 67.1452 20.3565C66.9916 20.0383 66.7526 19.7575 66.4294 19.5134C66.1061 19.2697 65.597 19.0073 64.9021 18.7262C64.1228 18.4134 63.6178 18.1772 63.3873 18.0182C63.1567 17.8593 63.041 17.6711 63.041 17.4534C63.041 17.0664 63.3991 16.8729 64.1149 16.8729C64.5177 16.8729 64.9128 16.9339 65.2998 17.0555C65.6868 17.1779 66.1033 17.3341 66.5487 17.5251L67.2803 15.7754C66.2676 15.3089 65.2257 15.0755 64.1545 15.0755C63.0303 15.0755 62.1625 15.2915 61.5503 15.7237C60.9372 16.1559 60.6311 16.7668 60.6311 17.5568C60.6311 18.0182 60.7041 18.4066 60.8501 18.722C60.9956 19.0377 61.229 19.3174 61.5503 19.5612C61.8704 19.8052 62.3734 20.0703 63.057 20.3565C63.5342 20.5582 63.9161 20.7342 64.2026 20.8853C64.4887 21.0367 64.6904 21.1718 64.8072 21.2912C64.9238 21.4105 64.9819 21.5655 64.9819 21.7565C64.9819 22.2654 64.5418 22.5199 63.6614 22.5199C63.232 22.5199 62.7349 22.4482 62.1704 22.3053C61.6053 22.1621 61.0978 21.9846 60.6471 21.7722V23.7766C61.059 23.9506 61.4883 24.0798 61.9277 24.1622C62.3838 24.2498 62.9351 24.2937 63.5822 24.2937C64.8437 24.2937 65.7916 24.0552 66.4252 23.5778ZM76.986 24.1344H74.5601V18.9408C74.5601 18.2993 74.4525 17.818 74.2382 17.4972C74.0231 17.1765 73.6852 17.0159 73.2238 17.0159C72.6037 17.0159 72.153 17.2439 71.8718 17.7C71.5907 18.1561 71.4503 18.9062 71.4503 19.951V24.1344H69.0244V15.2424H70.8776L71.2037 16.3798H71.3391C71.5775 15.9714 71.9224 15.6518 72.3729 15.4213C72.8236 15.1907 73.3406 15.0753 73.924 15.0753C75.2549 15.0753 76.1561 15.5103 76.6282 16.3798H76.8428C77.0815 15.9661 77.4328 15.6454 77.8968 15.4173C78.3607 15.1893 78.8842 15.0753 79.4675 15.0753C80.4749 15.0753 81.2374 15.3339 81.7541 15.8507C82.2712 16.3677 82.5296 17.1962 82.5296 18.3361V24.1344H80.0958V18.9408C80.0958 18.2993 79.9882 17.818 79.7739 17.4972C79.5588 17.1765 79.2209 17.0159 78.7595 17.0159C78.1658 17.0159 77.7218 17.2282 77.4272 17.6523C77.1332 18.0766 76.986 18.7498 76.986 19.6724V24.1344Z" fill="#0C344B"/>
<path fill-rule="evenodd" clip-rule="evenodd" d="M89.8352 22.9254L90.3045 24.1344H91.9986V18.2089C91.9986 17.1484 91.6804 16.3584 91.0443 15.8389C90.4079 15.3193 89.4932 15.0592 88.3001 15.0592C87.0543 15.0592 85.9194 15.3272 84.896 15.8627L85.6992 17.5012C86.6589 17.0715 87.4941 16.8569 88.2047 16.8569C89.1272 16.8569 89.5886 17.3077 89.5886 18.2089V18.5987L88.0457 18.6464C86.7148 18.6942 85.7195 18.9422 85.0589 19.3901C84.3989 19.8383 84.069 20.5343 84.069 21.4779C84.069 22.3794 84.3141 23.0739 84.8045 23.5618C85.2951 24.0496 85.9669 24.2934 86.8209 24.2934C87.5155 24.2934 88.0788 24.1939 88.5108 23.9951C88.943 23.7963 89.3631 23.4399 89.7715 22.9254H89.8352ZM88.6501 20.0462L89.5886 20.0144V20.746C89.5886 21.2819 89.4201 21.7113 89.0834 22.0345C88.747 22.3581 88.2973 22.5198 87.7354 22.5198C86.9507 22.5198 86.5583 22.1778 86.5583 21.4939C86.5583 21.0165 86.7305 20.6615 87.0754 20.4281C87.42 20.195 87.9449 20.0675 88.6501 20.0462ZM27.3507 28.5658L11.2081 33.3402C10.7149 33.4862 10.2423 33.0596 10.3459 32.5622L16.1128 4.94411C16.2206 4.42792 16.9345 4.34591 17.1597 4.82419L27.8374 27.4983C28.0388 27.9261 27.809 28.4305 27.3507 28.5658ZM30.119 27.4396L17.7557 1.18586V1.1853C17.6021 0.862011 17.3638 0.586318 17.0662 0.387455C16.7686 0.188592 16.4228 0.0739724 16.0653 0.0557492C15.3129 0.0119376 14.6389 0.374787 14.2586 0.992361L0.850048 22.71C0.646346 23.038 0.540374 23.4174 0.544553 23.8035C0.548731 24.1896 0.662886 24.5666 0.873639 24.8902L7.42796 35.0432C7.81861 35.6493 8.49544 36 9.19896 36C9.39835 36 9.59888 35.972 9.79603 35.9135L28.8215 30.2866C29.1079 30.2026 29.3729 30.0582 29.5987 29.8631C29.8245 29.6679 30.0057 29.4266 30.1302 29.1553C30.2531 28.8857 30.3157 28.5924 30.3138 28.2961C30.3118 27.9998 30.2454 27.7077 30.119 27.4396Z" fill="#0C344B"/>
</g>
<defs>
<clipPath id="clip0_207_572">
<rect width="91.6497" height="36" fill="white" transform="translate(0.599609)"/>
</clipPath>
</defs>
</svg>
