<svg width="245" height="127" viewBox="0 0 245 127" fill="none" xmlns="http://www.w3.org/2000/svg">
<path d="M83.7984 16.8V50.4C83.7984 53.4928 86.4788 56 89.784 56C93.0892 56 95.7696 53.4928 95.7696 50.4V16.8C95.7696 13.7072 98.45 11.2 101.755 11.2H113.726C117.032 11.2 119.712 8.69277 119.712 5.6C119.712 2.50723 117.032 0 113.726 0H65.8416C62.5363 0 59.856 2.50723 59.856 5.6C59.856 8.69277 62.5363 11.2 65.8416 11.2H77.8128C81.118 11.2 83.7984 13.7072 83.7984 16.8Z" fill="white"/>
<path fill-rule="evenodd" clip-rule="evenodd" d="M118.234 40.6404L131.684 7.04043C133.386 2.78824 137.507 0 142.09 0H149.331C153.914 0 158.035 2.78824 159.737 7.04043L173.187 40.6404C176.133 47.9973 170.71 56 162.781 56H128.64C120.711 56 115.288 47.9973 118.234 40.6404ZM129.921 37.4642L137.615 18.3542C138.588 15.9358 140.945 14.35 143.567 14.35H147.709C150.331 14.35 152.688 15.9358 153.661 18.3542L161.355 37.4642C163.04 41.6484 159.938 46.2 155.403 46.2H135.873C131.338 46.2 128.236 41.6484 129.921 37.4642Z" fill="#FF3838"/>
<path fill-rule="evenodd" clip-rule="evenodd" d="M11.2085 0H37.2455C41.8287 0 45.9501 2.78824 47.6523 7.04043L55.2408 25.9973C55.7704 27.3203 56.0425 28.732 56.0425 30.1569V34.1954C56.0425 36.2216 55.4924 38.2098 54.4509 39.9483L48.0975 50.5529C46.0731 53.9318 42.4216 56 38.4806 56H11.2085C5.01816 56 0 50.9857 0 44.8V11.2C0 5.01447 5.01816 0 11.2085 0ZM17.1216 11.55H32.6427C35.3749 11.55 37.8318 13.1881 38.8464 15.6863L43.3701 26.8234C43.6858 27.6007 43.848 28.4301 43.848 29.2672V31.6398C43.848 32.8302 43.5201 33.9983 42.8992 35.0196L39.1118 41.2498C37.9051 43.2349 35.7283 44.45 33.379 44.45H17.1216C13.4314 44.45 10.44 41.5041 10.44 37.87V18.13C10.44 14.496 13.4314 11.55 17.1216 11.55Z" fill="white"/>
<path d="M6.04473 87.2297C6.26748 87.2501 6.5206 87.2706 6.80409 87.291C7.10784 87.291 7.4622 87.291 7.86719 87.291C10.2364 87.291 11.988 86.6884 13.122 85.4831C14.2762 84.2779 14.8533 82.613 14.8533 80.4885C14.8533 78.2618 14.3066 76.5765 13.2131 75.4325C12.1196 74.2886 10.3883 73.7166 8.01907 73.7166C7.69507 73.7166 7.36095 73.7268 7.01671 73.7472C6.67247 73.7472 6.34848 73.7676 6.04473 73.8085V87.2297ZM19.7436 80.4885C19.7436 82.327 19.4601 83.9306 18.8931 85.2993C18.3261 86.6679 17.5161 87.8017 16.4631 88.7005C15.4304 89.5993 14.1648 90.2735 12.6663 90.7229C11.1679 91.1723 9.48716 91.397 7.6242 91.397C6.77372 91.397 5.78149 91.3562 4.64751 91.2744C3.51354 91.2132 2.39981 91.0702 1.30634 90.8455V70.1621C2.39981 69.9578 3.53379 69.825 4.70826 69.7638C5.90299 69.6821 6.92559 69.6412 7.77607 69.6412C9.57828 69.6412 11.2084 69.8455 12.6663 70.254C14.1446 70.6626 15.4102 71.3061 16.4631 72.1845C17.5161 73.0629 18.3261 74.1864 18.8931 75.5551C19.4601 76.9238 19.7436 78.5682 19.7436 80.4885Z" fill="white"/>
<path d="M23.7015 91.1212V69.8863H37.9167V73.9004H28.4399V78.0677H36.8536V81.9899H28.4399V87.1071H38.6153V91.1212H23.7015Z" fill="white"/>
<path d="M48.7052 91.1212C47.875 89.344 47.0549 87.4953 46.2449 85.575C45.4349 83.6548 44.6655 81.755 43.9365 79.8756C43.2075 77.9962 42.5291 76.1986 41.9014 74.4826C41.2939 72.7667 40.7674 71.2346 40.3219 69.8863H45.5463C45.9513 71.112 46.3867 72.4398 46.8524 73.8698C47.3384 75.2793 47.8244 76.6888 48.3104 78.0984C48.8166 79.5079 49.3026 80.8562 49.7684 82.1431C50.2341 83.4301 50.6695 84.5434 51.0744 85.4831C51.4592 84.5434 51.8844 83.4301 52.3502 82.1431C52.8362 80.8562 53.3221 79.5079 53.8081 78.0984C54.3144 76.6888 54.8004 75.2793 55.2661 73.8698C55.7521 72.4398 56.1976 71.112 56.6026 69.8863H61.6447C61.179 71.2346 60.6424 72.7667 60.0349 74.4826C59.4274 76.1986 58.7592 77.9962 58.0302 79.8756C57.3012 81.755 56.5317 83.6548 55.7217 85.575C54.9117 87.4953 54.0916 89.344 53.2614 91.1212H48.7052Z" fill="white"/>
<path d="M87.278 69.8863V73.9617H80.9298V91.1212H76.1914V73.9617H69.8432V69.8863H87.278Z" fill="white"/>
<path d="M93.5905 80.4885C93.5905 81.5303 93.7119 82.47 93.9549 83.3075C94.2182 84.1451 94.5827 84.8703 95.0484 85.4831C95.5344 86.0755 96.1216 86.5351 96.8101 86.862C97.4986 87.1888 98.2883 87.3523 99.1793 87.3523C100.05 87.3523 100.83 87.1888 101.518 86.862C102.227 86.5351 102.814 86.0755 103.28 85.4831C103.766 84.8703 104.13 84.1451 104.373 83.3075C104.637 82.47 104.768 81.5303 104.768 80.4885C104.768 79.4466 104.637 78.5069 104.373 77.6694C104.13 76.8114 103.766 76.0862 103.28 75.4938C102.814 74.881 102.227 74.4111 101.518 74.0843C100.83 73.7574 100.05 73.594 99.1793 73.594C98.2883 73.594 97.4986 73.7676 96.8101 74.1149C96.1216 74.4418 95.5344 74.9116 95.0484 75.5245C94.5827 76.1169 94.2182 76.8421 93.9549 77.7C93.7119 78.5376 93.5905 79.4671 93.5905 80.4885ZM109.658 80.4885C109.658 82.3065 109.385 83.9102 108.838 85.2993C108.312 86.6679 107.583 87.8221 106.651 88.7618C105.72 89.6811 104.606 90.3756 103.31 90.8455C102.035 91.3153 100.658 91.5502 99.1793 91.5502C97.7416 91.5502 96.3849 91.3153 95.1092 90.8455C93.8334 90.3756 92.7197 89.6811 91.768 88.7618C90.8163 87.8221 90.067 86.6679 89.5203 85.2993C88.9735 83.9102 88.7002 82.3065 88.7002 80.4885C88.7002 78.6704 88.9837 77.077 89.5507 75.7083C90.1176 74.3192 90.877 73.1548 91.8287 72.2151C92.8007 71.2754 93.9144 70.5707 95.1699 70.1008C96.4456 69.631 97.7821 69.3961 99.1793 69.3961C100.617 69.3961 101.974 69.631 103.249 70.1008C104.525 70.5707 105.639 71.2754 106.591 72.2151C107.542 73.1548 108.292 74.3192 108.838 75.7083C109.385 77.077 109.658 78.6704 109.658 80.4885Z" fill="white"/>
<path d="M117.587 80.4885C117.587 81.5303 117.709 82.47 117.952 83.3075C118.215 84.1451 118.58 84.8703 119.045 85.4831C119.531 86.0755 120.119 86.5351 120.807 86.862C121.496 87.1888 122.285 87.3523 123.176 87.3523C124.047 87.3523 124.827 87.1888 125.515 86.862C126.224 86.5351 126.811 86.0755 127.277 85.4831C127.763 84.8703 128.127 84.1451 128.37 83.3075C128.633 82.47 128.765 81.5303 128.765 80.4885C128.765 79.4466 128.633 78.5069 128.37 77.6694C128.127 76.8114 127.763 76.0862 127.277 75.4938C126.811 74.881 126.224 74.4111 125.515 74.0843C124.827 73.7574 124.047 73.594 123.176 73.594C122.285 73.594 121.496 73.7676 120.807 74.1149C120.119 74.4418 119.531 74.9116 119.045 75.5245C118.58 76.1169 118.215 76.8421 117.952 77.7C117.709 78.5376 117.587 79.4671 117.587 80.4885ZM133.655 80.4885C133.655 82.3065 133.382 83.9102 132.835 85.2993C132.309 86.6679 131.58 87.8221 130.648 88.7618C129.717 89.6811 128.603 90.3756 127.307 90.8455C126.031 91.3153 124.654 91.5502 123.176 91.5502C121.739 91.5502 120.382 91.3153 119.106 90.8455C117.83 90.3756 116.717 89.6811 115.765 88.7618C114.813 87.8221 114.064 86.6679 113.517 85.2993C112.97 83.9102 112.697 82.3065 112.697 80.4885C112.697 78.6704 112.981 77.077 113.548 75.7083C114.115 74.3192 114.874 73.1548 115.826 72.2151C116.798 71.2754 117.911 70.5707 119.167 70.1008C120.443 69.631 121.779 69.3961 123.176 69.3961C124.614 69.3961 125.971 69.631 127.246 70.1008C128.522 70.5707 129.636 71.2754 130.588 72.2151C131.539 73.1548 132.289 74.3192 132.835 75.7083C133.382 77.077 133.655 78.6704 133.655 80.4885Z" fill="white"/>
<path d="M151.669 87.0152V91.1212H137.605V69.8863H142.344V87.0152H151.669Z" fill="white"/>
<path d="M160.965 87.4748C161.634 87.4748 162.18 87.4238 162.606 87.3216C163.051 87.1991 163.406 87.0458 163.669 86.862C163.932 86.6577 164.114 86.4228 164.216 86.1572C164.317 85.8917 164.367 85.5955 164.367 85.2686C164.367 84.5741 164.043 84.0021 163.395 83.5527C162.747 83.0828 161.634 82.5823 160.054 82.0512C159.366 81.8061 158.677 81.5303 157.989 81.2239C157.3 80.897 156.683 80.4987 156.136 80.0288C155.589 79.5386 155.144 78.9564 154.799 78.2822C154.455 77.5877 154.283 76.7501 154.283 75.7696C154.283 74.789 154.465 73.9106 154.83 73.1344C155.194 72.3377 155.711 71.6636 156.379 71.112C157.047 70.5605 157.857 70.1417 158.809 69.8557C159.761 69.5493 160.834 69.3961 162.029 69.3961C163.446 69.3961 164.671 69.5493 165.704 69.8557C166.737 70.1621 167.587 70.4992 168.255 70.8669L166.888 74.6358C166.301 74.3294 165.643 74.0639 164.914 73.8391C164.205 73.594 163.345 73.4714 162.332 73.4714C161.198 73.4714 160.378 73.6349 159.872 73.9617C159.386 74.2681 159.143 74.7482 159.143 75.4019C159.143 75.79 159.234 76.1169 159.416 76.3824C159.599 76.648 159.852 76.8931 160.176 77.1178C160.52 77.3221 160.905 77.5162 161.33 77.7C161.775 77.8635 162.261 78.0371 162.788 78.2209C163.881 78.6295 164.833 79.0381 165.643 79.4466C166.453 79.8348 167.121 80.2944 167.648 80.8255C168.195 81.3567 168.6 81.9797 168.863 82.6947C169.126 83.4097 169.258 84.2779 169.258 85.2993C169.258 87.2808 168.569 88.8231 167.192 89.9262C165.815 91.0089 163.74 91.5502 160.965 91.5502C160.034 91.5502 159.194 91.4889 158.444 91.3664C157.695 91.2642 157.027 91.1314 156.44 90.968C155.873 90.8046 155.377 90.631 154.951 90.4471C154.546 90.2633 154.202 90.0896 153.919 89.9262L155.255 86.1266C155.883 86.4739 156.652 86.7905 157.564 87.0765C158.495 87.342 159.629 87.4748 160.965 87.4748Z" fill="white"/>
<path d="M7.04709 122.905C7.71532 122.905 8.26206 122.854 8.6873 122.751C9.13279 122.629 9.48716 122.476 9.7504 122.292C10.0136 122.088 10.1959 121.853 10.2971 121.587C10.3984 121.321 10.449 121.025 10.449 120.698C10.449 120.004 10.125 119.432 9.47703 118.982C8.82905 118.513 7.71532 118.012 6.13586 117.481C5.44737 117.236 4.75889 116.96 4.0704 116.654C3.38192 116.327 2.7643 115.928 2.21757 115.459C1.67083 114.968 1.22534 114.386 0.881096 113.712C0.536854 113.017 0.364732 112.18 0.364732 111.199C0.364732 110.219 0.546978 109.34 0.91147 108.564C1.27596 107.767 1.79233 107.093 2.46056 106.542C3.1288 105.99 3.93878 105.571 4.89051 105.285C5.84224 104.979 6.91546 104.826 8.11019 104.826C9.52766 104.826 10.7528 104.979 11.7855 105.285C12.8182 105.592 13.6687 105.929 14.3369 106.297L12.9701 110.066C12.3828 109.759 11.7247 109.494 10.9957 109.269C10.287 109.024 9.42641 108.901 8.41393 108.901C7.27996 108.901 6.45985 109.065 5.95361 109.392C5.46762 109.698 5.22463 110.178 5.22463 110.832C5.22463 111.22 5.31575 111.547 5.49799 111.812C5.68024 112.078 5.93336 112.323 6.25735 112.548C6.6016 112.752 6.98634 112.946 7.41158 113.13C7.85707 113.293 8.34306 113.467 8.86955 113.651C9.96302 114.059 10.9148 114.468 11.7247 114.876C12.5347 115.265 13.203 115.724 13.7294 116.255C14.2762 116.786 14.6812 117.41 14.9444 118.124C15.2077 118.839 15.3393 119.708 15.3393 120.729C15.3393 122.711 14.6508 124.253 13.2738 125.356C11.8969 126.439 9.82128 126.98 7.04709 126.98C6.11561 126.98 5.27525 126.919 4.52602 126.796C3.77678 126.694 3.10855 126.561 2.52131 126.398C1.95432 126.234 1.45821 126.061 1.03297 125.877C0.627977 125.693 0.283734 125.519 0.000240326 125.356L1.33671 121.556C1.96445 121.904 2.73393 122.22 3.64516 122.506C4.57664 122.772 5.71062 122.905 7.04709 122.905Z" fill="white"/>
<path d="M18.9851 105.316H23.7235V126.551H18.9851V105.316Z" fill="white"/>
<path d="M42.7198 126.551C41.3631 124.12 39.895 121.72 38.3156 119.35C36.7361 116.981 35.0554 114.744 33.2734 112.64V126.551H28.5958V105.316H32.4533C33.1216 105.99 33.8607 106.818 34.6706 107.798C35.4806 108.779 36.3007 109.831 37.131 110.954C37.9814 112.057 38.8218 113.212 39.652 114.417C40.4823 115.602 41.2619 116.746 41.9909 117.849V105.316H46.6989V126.551H42.7198Z" fill="white"/>
<path d="M61.821 108.993C59.6138 108.993 58.0141 109.616 57.0219 110.862C56.0499 112.088 55.5639 113.773 55.5639 115.918C55.5639 116.96 55.6854 117.91 55.9284 118.768C56.1714 119.606 56.5359 120.331 57.0219 120.944C57.5079 121.556 58.1154 122.036 58.8443 122.384C59.5733 122.711 60.4238 122.874 61.3958 122.874C61.9223 122.874 62.3678 122.864 62.7323 122.843C63.117 122.823 63.4511 122.782 63.7346 122.721V115.336H68.473V125.846C67.906 126.071 66.9948 126.306 65.7393 126.551C64.4838 126.817 62.9348 126.949 61.092 126.949C59.5126 126.949 58.0749 126.704 56.7789 126.214C55.5032 125.724 54.4097 125.009 53.4985 124.069C52.5872 123.129 51.8785 121.975 51.3723 120.606C50.8863 119.238 50.6433 117.675 50.6433 115.918C50.6433 114.141 50.9166 112.568 51.4634 111.199C52.0101 109.831 52.7593 108.677 53.7111 107.737C54.6628 106.777 55.7765 106.052 57.0523 105.561C58.3482 105.071 59.7252 104.826 61.1832 104.826C62.1754 104.826 63.0664 104.897 63.8561 105.04C64.6661 105.163 65.3546 105.316 65.9216 105.5C66.5088 105.663 66.9847 105.837 67.3492 106.021C67.7339 106.205 68.0073 106.348 68.1693 106.45L66.8024 110.28C66.1544 109.933 65.4052 109.637 64.5547 109.392C63.7245 109.126 62.8133 108.993 61.821 108.993Z" fill="white"/>
<path d="M86.9755 126.551C86.7527 125.816 86.4996 125.06 86.2161 124.284C85.9529 123.507 85.6896 122.731 85.4264 121.955H77.2253C76.9621 122.731 76.6887 123.507 76.4052 124.284C76.142 125.06 75.899 125.816 75.6762 126.551H70.7556C71.5453 124.263 72.2946 122.149 73.0033 120.208C73.712 118.267 74.4005 116.439 75.0687 114.723C75.7572 113.007 76.4255 111.383 77.0735 109.851C77.7417 108.299 78.4302 106.787 79.1389 105.316H83.6647C84.3532 106.787 85.0315 108.299 85.6998 109.851C86.368 111.383 87.0362 113.007 87.7045 114.723C88.393 116.439 89.0916 118.267 89.8003 120.208C90.509 122.149 91.2583 124.263 92.048 126.551H86.9755ZM81.2955 110.127C81.1942 110.433 81.0424 110.852 80.8399 111.383C80.6374 111.914 80.4045 112.527 80.1413 113.222C79.878 113.916 79.5844 114.682 79.2604 115.52C78.9567 116.357 78.6428 117.236 78.3188 118.155H84.3026C83.9786 117.236 83.6647 116.357 83.3609 115.52C83.0572 114.682 82.7636 113.916 82.4801 113.222C82.2168 112.527 81.984 111.914 81.7815 111.383C81.579 110.852 81.417 110.433 81.2955 110.127Z" fill="white"/>
<path d="M101.091 105.071C104.229 105.071 106.639 105.633 108.32 106.756C110 107.859 110.841 109.678 110.841 112.211C110.841 114.764 109.99 116.613 108.289 117.757C106.588 118.88 104.158 119.442 100.999 119.442H99.5111V126.551H94.7727V105.623C95.8054 105.418 96.8989 105.275 98.0531 105.194C99.2073 105.112 100.22 105.071 101.091 105.071ZM101.394 109.146C101.05 109.146 100.706 109.157 100.362 109.177C100.038 109.197 99.7541 109.218 99.5111 109.238V115.367H100.999C102.64 115.367 103.875 115.142 104.705 114.693C105.535 114.243 105.95 113.406 105.95 112.18C105.95 111.588 105.839 111.097 105.616 110.709C105.414 110.321 105.11 110.015 104.705 109.79C104.32 109.545 103.844 109.381 103.277 109.3C102.71 109.197 102.083 109.146 101.394 109.146Z" fill="white"/>
<path d="M118.299 115.918C118.299 116.96 118.421 117.9 118.664 118.737C118.927 119.575 119.291 120.3 119.757 120.913C120.243 121.505 120.83 121.965 121.519 122.292C122.207 122.619 122.997 122.782 123.888 122.782C124.759 122.782 125.538 122.619 126.227 122.292C126.936 121.965 127.523 121.505 127.989 120.913C128.475 120.3 128.839 119.575 129.082 118.737C129.345 117.9 129.477 116.96 129.477 115.918C129.477 114.876 129.345 113.937 129.082 113.099C128.839 112.241 128.475 111.516 127.989 110.924C127.523 110.311 126.936 109.841 126.227 109.514C125.538 109.187 124.759 109.024 123.888 109.024C122.997 109.024 122.207 109.197 121.519 109.545C120.83 109.872 120.243 110.341 119.757 110.954C119.291 111.547 118.927 112.272 118.664 113.13C118.421 113.967 118.299 114.897 118.299 115.918ZM134.367 115.918C134.367 117.736 134.094 119.34 133.547 120.729C133.021 122.098 132.292 123.252 131.36 124.192C130.429 125.111 129.315 125.805 128.019 126.275C126.743 126.745 125.366 126.98 123.888 126.98C122.45 126.98 121.094 126.745 119.818 126.275C118.542 125.805 117.429 125.111 116.477 124.192C115.525 123.252 114.776 122.098 114.229 120.729C113.682 119.34 113.409 117.736 113.409 115.918C113.409 114.1 113.692 112.507 114.259 111.138C114.826 109.749 115.586 108.585 116.538 107.645C117.51 106.705 118.623 106 119.879 105.531C121.154 105.061 122.491 104.826 123.888 104.826C125.326 104.826 126.683 105.061 127.958 105.531C129.234 106 130.348 106.705 131.299 107.645C132.251 108.585 133 109.749 133.547 111.138C134.094 112.507 134.367 114.1 134.367 115.918Z" fill="white"/>
<path d="M144.483 105.071C147.642 105.071 150.062 105.643 151.743 106.787C153.423 107.91 154.264 109.667 154.264 112.057C154.264 113.549 153.919 114.764 153.231 115.704C152.563 116.623 151.591 117.348 150.315 117.879C150.74 118.41 151.186 119.023 151.651 119.718C152.117 120.392 152.573 121.107 153.018 121.863C153.484 122.598 153.93 123.374 154.355 124.192C154.78 124.988 155.175 125.775 155.539 126.551H150.224C149.839 125.856 149.444 125.152 149.039 124.437C148.655 123.722 148.25 123.027 147.824 122.353C147.419 121.679 147.014 121.046 146.609 120.453C146.204 119.84 145.799 119.289 145.394 118.799H143.056V126.551H138.317V105.623C139.35 105.418 140.413 105.275 141.506 105.194C142.62 105.112 143.612 105.071 144.483 105.071ZM144.757 109.146C144.412 109.146 144.098 109.157 143.815 109.177C143.552 109.197 143.299 109.218 143.056 109.238V114.999H144.392C146.174 114.999 147.45 114.774 148.219 114.325C148.989 113.875 149.373 113.109 149.373 112.027C149.373 110.985 148.979 110.249 148.189 109.821C147.419 109.371 146.275 109.146 144.757 109.146Z" fill="white"/>
<path d="M158.577 126.551V105.316H172.792V109.33H163.315V113.498H171.729V117.42H163.315V122.537H173.49V126.551H158.577Z" fill="white"/>
</svg>
