<?xml version="1.0" encoding="utf-8"?>
<!-- Generator: Adobe Illustrator 26.4.0, SVG Export Plug-In . SVG Version: 6.00 Build 0)  -->
<svg version="1.1" id="Layer_1" xmlns="http://www.w3.org/2000/svg" xmlns:xlink="http://www.w3.org/1999/xlink" x="0px" y="0px"
	 viewBox="0 0 245 128" style="enable-background:new 0 0 245 128;" xml:space="preserve">
<style type="text/css">
	.st0{fill-rule:evenodd;clip-rule:evenodd;fill:#FFFFFF;}
	.st1{fill-rule:evenodd;clip-rule:evenodd;fill:#008BF0;}
	.st2{fill:#FFFFFF;}
</style>
<path class="st0" d="M39.7,1H13.1C6.8,1,1.7,6.1,1.7,12.3v34.1c0,6.3,5.1,11.4,11.4,11.4H41c4,0,7.8-2.1,9.8-5.5l6.5-10.8
	c1.1-1.8,1.6-3.8,1.6-5.8v-4.1c0-1.4-0.3-2.9-0.8-4.2L50.3,8.1C48.6,3.8,44.4,1,39.7,1z M35,12.7H19.2c-3.8,0-6.8,3-6.8,6.7v20
	c0,3.7,3.1,6.7,6.8,6.7h16.6c2.4,0,4.6-1.2,5.9-3.2l3.9-6.3c0.6-1,1-2.2,1-3.4v-2.4c0-0.8-0.2-1.7-0.5-2.5l-4.6-11.3
	C40.3,14.4,37.8,12.7,35,12.7z"/>
<path class="st1" d="M136.1,8.1l-13.7,34.1c-3,7.5,2.5,15.6,10.6,15.6h34.9c8.1,0,13.6-8.1,10.6-15.6L164.8,8.1
	C163,3.8,158.8,1,154.1,1h-7.4C142.1,1,137.9,3.8,136.1,8.1z M142.2,19.6L134.3,39c-1.7,4.2,1.4,8.9,6.1,8.9h19.9
	c4.6,0,7.8-4.6,6.1-8.9l-7.9-19.4c-1-2.5-3.4-4.1-6.1-4.1h-4.2C145.6,15.5,143.2,17.2,142.2,19.6z"/>
<path class="st2" d="M87.2,52.1V18c0-3.1-2.7-5.7-6.1-5.7H68.9c-3.4,0-6.1-2.5-6.1-5.7c0-3.1,2.7-5.7,6.1-5.7h48.9
	c3.4,0,6.1,2.5,6.1,5.7c0,3.1-2.7,5.7-6.1,5.7h-12.2c-3.4,0-6.1,2.5-6.1,5.7v34.1c0,3.1-2.7,5.7-6.1,5.7S87.2,55.3,87.2,52.1z"/>
<path class="st2" d="M205,122.1c0.7,0,1.3-0.1,1.7-0.2c0.5-0.1,0.8-0.3,1.1-0.5c0.3-0.2,0.5-0.5,0.6-0.7c0.1-0.3,0.2-0.6,0.2-0.9
	c0-0.7-0.3-1.3-1-1.8c-0.7-0.5-1.8-1-3.5-1.6c-0.7-0.3-1.4-0.5-2.2-0.9c-0.7-0.3-1.4-0.8-1.9-1.2c-0.6-0.5-1-1.1-1.4-1.8
	c-0.4-0.7-0.5-1.6-0.5-2.6c0-1,0.2-1.9,0.6-2.7c0.4-0.8,0.9-1.5,1.6-2.1c0.7-0.6,1.5-1,2.5-1.3c1-0.3,2.1-0.5,3.4-0.5
	c1.5,0,2.8,0.2,3.8,0.5c1.1,0.3,2,0.7,2.7,1l-1.4,3.9c-0.6-0.3-1.3-0.6-2.1-0.8c-0.7-0.3-1.6-0.4-2.7-0.4c-1.2,0-2,0.2-2.6,0.5
	c-0.5,0.3-0.8,0.8-0.8,1.5c0,0.4,0.1,0.7,0.3,1c0.2,0.3,0.5,0.5,0.8,0.8c0.4,0.2,0.8,0.4,1.2,0.6c0.5,0.2,1,0.3,1.5,0.5
	c1.1,0.4,2.1,0.8,3,1.3c0.8,0.4,1.5,0.9,2.1,1.4c0.6,0.6,1,1.2,1.3,1.9c0.3,0.7,0.4,1.6,0.4,2.7c0,2.1-0.7,3.7-2.2,4.8
	c-1.4,1.1-3.6,1.7-6.5,1.7c-1,0-1.9-0.1-2.6-0.2c-0.8-0.1-1.5-0.2-2.1-0.4c-0.6-0.2-1.1-0.3-1.6-0.5c-0.4-0.2-0.8-0.4-1.1-0.5
	l1.4-3.9c0.7,0.4,1.5,0.7,2.4,1C202.4,122,203.6,122.1,205,122.1z"/>
<path class="st2" d="M179.7,125.9v-22h14.9v4.2h-9.9v4.3h8.8v4.1h-8.8v5.3h10.6v4.2H179.7z"/>
<path class="st2" d="M176.5,121.7v4.3h-14.7v-22h5v17.8H176.5z"/>
<path class="st2" d="M142.6,125.9v-22h14.9v4.2h-9.9v4.3h8.8v4.1h-8.8v5.3h10.6v4.2H142.6z"/>
<path class="st2" d="M131,107.7c-2.3,0-4,0.6-5,1.9c-1,1.3-1.5,3-1.5,5.2c0,1.1,0.1,2.1,0.4,3c0.3,0.9,0.6,1.6,1.1,2.3
	c0.5,0.6,1.1,1.1,1.9,1.5c0.8,0.3,1.7,0.5,2.7,0.5c0.6,0,1,0,1.4,0c0.4,0,0.8-0.1,1-0.1v-7.7h5v10.9c-0.6,0.2-1.5,0.5-2.9,0.7
	c-1.3,0.3-2.9,0.4-4.9,0.4c-1.7,0-3.2-0.3-4.5-0.8c-1.3-0.5-2.5-1.3-3.4-2.2c-1-1-1.7-2.2-2.2-3.6c-0.5-1.4-0.8-3-0.8-4.9
	c0-1.8,0.3-3.5,0.9-4.9c0.6-1.4,1.4-2.6,2.4-3.6c1-1,2.2-1.7,3.5-2.3c1.4-0.5,2.8-0.8,4.3-0.8c1,0,2,0.1,2.8,0.2
	c0.8,0.1,1.6,0.3,2.2,0.5c0.6,0.2,1.1,0.3,1.5,0.5c0.4,0.2,0.7,0.3,0.9,0.4l-1.4,4c-0.7-0.4-1.5-0.7-2.4-0.9
	C133,107.8,132,107.7,131,107.7z"/>
<path class="st2" d="M111,125.9c-1.4-2.5-3-5-4.6-7.5c-1.7-2.5-3.4-4.8-5.3-7v14.4h-4.9v-22h4c0.7,0.7,1.5,1.6,2.3,2.6
	c0.8,1,1.7,2.1,2.6,3.3c0.9,1.1,1.8,2.3,2.6,3.6c0.9,1.2,1.7,2.4,2.4,3.6v-13h4.9v22H111z"/>
<path class="st2" d="M88,125.9c-0.2-0.8-0.5-1.5-0.8-2.4c-0.3-0.8-0.6-1.6-0.8-2.4h-8.6c-0.3,0.8-0.6,1.6-0.9,2.4
	c-0.3,0.8-0.5,1.6-0.8,2.4h-5.1c0.8-2.4,1.6-4.6,2.4-6.6c0.7-2,1.5-3.9,2.2-5.7c0.7-1.8,1.4-3.5,2.1-5.1c0.7-1.6,1.4-3.2,2.2-4.7
	h4.7c0.7,1.5,1.4,3.1,2.1,4.7c0.7,1.6,1.4,3.3,2.1,5.1c0.7,1.8,1.5,3.7,2.2,5.7c0.7,2,1.5,4.2,2.4,6.6H88z M82.1,108.9
	c-0.1,0.3-0.3,0.8-0.5,1.3c-0.2,0.6-0.5,1.2-0.7,1.9c-0.3,0.7-0.6,1.5-0.9,2.4c-0.3,0.9-0.6,1.8-1,2.7h6.3c-0.3-1-0.7-1.9-1-2.7
	c-0.3-0.9-0.6-1.7-0.9-2.4c-0.3-0.7-0.5-1.4-0.7-1.9C82.4,109.6,82.2,109.2,82.1,108.9z"/>
<path class="st2" d="M53.2,122.1c0.7,0,1.3-0.1,1.7-0.2c0.5-0.1,0.8-0.3,1.1-0.5c0.3-0.2,0.5-0.5,0.6-0.7c0.1-0.3,0.2-0.6,0.2-0.9
	c0-0.7-0.3-1.3-1-1.8c-0.7-0.5-1.8-1-3.5-1.6c-0.7-0.3-1.4-0.5-2.2-0.9c-0.7-0.3-1.4-0.8-1.9-1.2c-0.6-0.5-1-1.1-1.4-1.8
	c-0.4-0.7-0.5-1.6-0.5-2.6c0-1,0.2-1.9,0.6-2.7c0.4-0.8,0.9-1.5,1.6-2.1s1.5-1,2.5-1.3c1-0.3,2.1-0.5,3.4-0.5c1.5,0,2.8,0.2,3.8,0.5
	c1.1,0.3,2,0.7,2.7,1l-1.4,3.9c-0.6-0.3-1.3-0.6-2.1-0.8c-0.7-0.3-1.6-0.4-2.7-0.4c-1.2,0-2,0.2-2.6,0.5c-0.5,0.3-0.8,0.8-0.8,1.5
	c0,0.4,0.1,0.7,0.3,1c0.2,0.3,0.5,0.5,0.8,0.8c0.4,0.2,0.8,0.4,1.2,0.6c0.5,0.2,1,0.3,1.5,0.5c1.1,0.4,2.1,0.8,3,1.3
	c0.8,0.4,1.5,0.9,2.1,1.4c0.6,0.6,1,1.2,1.3,1.9c0.3,0.7,0.4,1.6,0.4,2.7c0,2.1-0.7,3.7-2.2,4.8c-1.4,1.1-3.6,1.7-6.5,1.7
	c-1,0-1.9-0.1-2.6-0.2c-0.8-0.1-1.5-0.2-2.1-0.4c-0.6-0.2-1.1-0.3-1.6-0.5c-0.4-0.2-0.8-0.4-1.1-0.5l1.4-3.9c0.7,0.4,1.5,0.7,2.4,1
	C50.6,122,51.8,122.1,53.2,122.1z"/>
<path class="st2" d="M26.2,114.9c0,1.1,0.1,2.1,0.4,2.9c0.3,0.9,0.7,1.6,1.1,2.3c0.5,0.6,1.1,1.1,1.8,1.4c0.7,0.3,1.5,0.5,2.5,0.5
	c0.9,0,1.7-0.2,2.4-0.5c0.7-0.3,1.4-0.8,1.8-1.4c0.5-0.6,0.9-1.4,1.1-2.3c0.3-0.9,0.4-1.8,0.4-2.9s-0.1-2.1-0.4-2.9
	c-0.3-0.9-0.6-1.6-1.1-2.3c-0.5-0.6-1.1-1.1-1.8-1.5c-0.7-0.3-1.5-0.5-2.4-0.5c-0.9,0-1.8,0.2-2.5,0.5c-0.7,0.3-1.3,0.8-1.8,1.5
	c-0.5,0.6-0.9,1.4-1.1,2.3C26.3,112.9,26.2,113.8,26.2,114.9z M43,114.9c0,1.9-0.3,3.5-0.9,5c-0.6,1.4-1.3,2.6-2.3,3.6
	c-1,1-2.1,1.7-3.5,2.2c-1.3,0.5-2.8,0.7-4.3,0.7c-1.5,0-2.9-0.2-4.3-0.7c-1.3-0.5-2.5-1.2-3.5-2.2c-1-1-1.8-2.2-2.4-3.6
	c-0.6-1.4-0.9-3.1-0.9-5c0-1.9,0.3-3.5,0.9-5c0.6-1.4,1.4-2.6,2.4-3.6c1-1,2.2-1.7,3.5-2.2c1.3-0.5,2.7-0.7,4.2-0.7
	c1.5,0,2.9,0.2,4.3,0.7c1.3,0.5,2.5,1.2,3.5,2.2c1,1,1.8,2.2,2.4,3.6C42.7,111.4,43,113,43,114.9z"/>
<path class="st2" d="M19.5,121.7v4.3H4.8v-22h5v17.8H19.5z"/>
<path class="st2" d="M171.8,85.4c0.7,0,1.3-0.1,1.7-0.2c0.5-0.1,0.8-0.3,1.1-0.5c0.3-0.2,0.5-0.5,0.6-0.7c0.1-0.3,0.2-0.6,0.2-0.9
	c0-0.7-0.3-1.3-1-1.8c-0.7-0.5-1.8-1-3.5-1.6c-0.7-0.3-1.4-0.5-2.2-0.9c-0.7-0.3-1.4-0.8-1.9-1.2c-0.6-0.5-1-1.1-1.4-1.8
	c-0.4-0.7-0.5-1.6-0.5-2.6c0-1,0.2-1.9,0.6-2.7c0.4-0.8,0.9-1.5,1.6-2.1c0.7-0.6,1.5-1,2.5-1.3c1-0.3,2.1-0.5,3.4-0.5
	c1.5,0,2.8,0.2,3.8,0.5c1.1,0.3,2,0.7,2.7,1l-1.4,3.9c-0.6-0.3-1.3-0.6-2.1-0.8c-0.7-0.3-1.6-0.4-2.7-0.4c-1.2,0-2,0.2-2.6,0.5
	c-0.5,0.3-0.8,0.8-0.8,1.5c0,0.4,0.1,0.7,0.3,1c0.2,0.3,0.5,0.5,0.8,0.8c0.4,0.2,0.8,0.4,1.2,0.6c0.5,0.2,1,0.3,1.5,0.5
	c1.1,0.4,2.1,0.8,3,1.3c0.8,0.4,1.5,0.9,2.1,1.4c0.6,0.6,1,1.2,1.3,1.9c0.3,0.7,0.4,1.6,0.4,2.7c0,2.1-0.7,3.7-2.2,4.8
	c-1.4,1.1-3.6,1.7-6.5,1.7c-1,0-1.9-0.1-2.6-0.2c-0.8-0.1-1.5-0.2-2.1-0.4c-0.6-0.2-1.1-0.3-1.6-0.5c-0.4-0.2-0.8-0.4-1.1-0.5
	l1.4-3.9c0.7,0.4,1.5,0.7,2.4,1C169.3,85.2,170.4,85.4,171.8,85.4z"/>
<path class="st2" d="M162.1,84.9v4.3h-14.7v-22h5v17.8H162.1z"/>
<path class="st2" d="M126.4,78.1c0,1.1,0.1,2.1,0.4,2.9c0.3,0.9,0.7,1.6,1.1,2.3c0.5,0.6,1.1,1.1,1.8,1.4c0.7,0.3,1.5,0.5,2.5,0.5
	c0.9,0,1.7-0.2,2.4-0.5c0.7-0.3,1.4-0.8,1.8-1.4c0.5-0.6,0.9-1.4,1.1-2.3c0.3-0.9,0.4-1.8,0.4-2.9c0-1.1-0.1-2.1-0.4-2.9
	c-0.3-0.9-0.6-1.6-1.1-2.3c-0.5-0.6-1.1-1.1-1.8-1.5c-0.7-0.3-1.5-0.5-2.4-0.5c-0.9,0-1.8,0.2-2.5,0.5c-0.7,0.3-1.3,0.8-1.8,1.5
	c-0.5,0.6-0.9,1.4-1.1,2.3C126.6,76.1,126.4,77.1,126.4,78.1z M143.3,78.1c0,1.9-0.3,3.5-0.9,5c-0.6,1.4-1.3,2.6-2.3,3.6
	c-1,1-2.1,1.7-3.5,2.2c-1.3,0.5-2.8,0.7-4.3,0.7c-1.5,0-2.9-0.2-4.3-0.7c-1.3-0.5-2.5-1.2-3.5-2.2c-1-1-1.8-2.2-2.4-3.6
	c-0.6-1.4-0.9-3.1-0.9-5s0.3-3.5,0.9-5c0.6-1.4,1.4-2.6,2.4-3.6c1-1,2.2-1.7,3.5-2.2c1.3-0.5,2.7-0.7,4.2-0.7c1.5,0,2.9,0.2,4.3,0.7
	c1.3,0.5,2.5,1.2,3.5,2.2c1,1,1.8,2.2,2.4,3.6C143,74.6,143.3,76.3,143.3,78.1z"/>
<path class="st2" d="M101.3,78.1c0,1.1,0.1,2.1,0.4,2.9c0.3,0.9,0.7,1.6,1.1,2.3c0.5,0.6,1.1,1.1,1.8,1.4c0.7,0.3,1.5,0.5,2.5,0.5
	c0.9,0,1.7-0.2,2.4-0.5c0.7-0.3,1.4-0.8,1.8-1.4c0.5-0.6,0.9-1.4,1.1-2.3c0.3-0.9,0.4-1.8,0.4-2.9c0-1.1-0.1-2.1-0.4-2.9
	c-0.3-0.9-0.6-1.6-1.1-2.3c-0.5-0.6-1.1-1.1-1.8-1.5c-0.7-0.3-1.5-0.5-2.4-0.5c-0.9,0-1.8,0.2-2.5,0.5c-0.7,0.3-1.3,0.8-1.8,1.5
	c-0.5,0.6-0.9,1.4-1.1,2.3C101.5,76.1,101.3,77.1,101.3,78.1z M118.1,78.1c0,1.9-0.3,3.5-0.9,5c-0.6,1.4-1.3,2.6-2.3,3.6
	c-1,1-2.1,1.7-3.5,2.2c-1.3,0.5-2.8,0.7-4.3,0.7c-1.5,0-2.9-0.2-4.3-0.7c-1.3-0.5-2.5-1.2-3.5-2.2c-1-1-1.8-2.2-2.4-3.6
	c-0.6-1.4-0.9-3.1-0.9-5s0.3-3.5,0.9-5c0.6-1.4,1.4-2.6,2.4-3.6c1-1,2.2-1.7,3.5-2.2c1.3-0.5,2.7-0.7,4.2-0.7c1.5,0,2.9,0.2,4.3,0.7
	c1.3,0.5,2.5,1.2,3.5,2.2c1,1,1.8,2.2,2.4,3.6C117.9,74.6,118.1,76.3,118.1,78.1z"/>
<path class="st2" d="M94.7,67.1v4.2h-6.6v17.8h-5V71.4h-6.6v-4.2H94.7z"/>
<path class="st2" d="M54.4,89.2c-0.9-1.8-1.7-3.8-2.6-5.8c-0.8-2-1.7-4-2.4-5.9c-0.8-1.9-1.5-3.8-2.1-5.6c-0.6-1.8-1.2-3.4-1.7-4.8
	h5.5c0.4,1.3,0.9,2.6,1.4,4.1c0.5,1.5,1,2.9,1.5,4.4c0.5,1.5,1,2.9,1.5,4.2c0.5,1.3,0.9,2.5,1.4,3.5c0.4-1,0.8-2.1,1.3-3.5
	c0.5-1.3,1-2.7,1.5-4.2c0.5-1.5,1-2.9,1.5-4.4c0.5-1.5,1-2.9,1.4-4.1h5.3c-0.5,1.4-1,3-1.7,4.8c-0.6,1.8-1.3,3.6-2.1,5.6
	c-0.8,1.9-1.6,3.9-2.4,5.9c-0.8,2-1.7,3.9-2.6,5.8H54.4z"/>
<path class="st2" d="M28.2,89.2v-22h14.9v4.2h-9.9v4.3H42v4.1h-8.8V85h10.6v4.2H28.2z"/>
<path class="st2" d="M9.7,85.1c0.2,0,0.5,0,0.8,0.1c0.3,0,0.7,0,1.1,0c2.5,0,4.3-0.6,5.5-1.9c1.2-1.3,1.8-3,1.8-5.2
	c0-2.3-0.6-4.1-1.7-5.2c-1.1-1.2-3-1.8-5.4-1.8c-0.3,0-0.7,0-1,0c-0.4,0-0.7,0-1,0.1V85.1z M24,78.1c0,1.9-0.3,3.6-0.9,5
	c-0.6,1.4-1.4,2.6-2.5,3.5c-1.1,0.9-2.4,1.6-4,2.1c-1.6,0.5-3.3,0.7-5.3,0.7c-0.9,0-1.9,0-3.1-0.1c-1.2-0.1-2.4-0.2-3.5-0.4V67.4
	c1.1-0.2,2.3-0.3,3.6-0.4c1.3-0.1,2.3-0.1,3.2-0.1c1.9,0,3.6,0.2,5.1,0.6c1.5,0.4,2.9,1.1,4,2c1.1,0.9,1.9,2.1,2.5,3.5
	C23.8,74.4,24,76.1,24,78.1z"/>
</svg>
