<svg width="246" height="138" viewBox="0 0 246 138" fill="none" xmlns="http://www.w3.org/2000/svg">
<path d="M45.9064 10.538C46.0911 9.88396 46.1899 9.19411 46.1899 8.48136C46.1899 4.29563 42.782 0.9 38.5826 0.9C34.3831 0.9 30.9752 4.29563 30.9752 8.48136C30.9752 9.19501 31.0736 9.88499 31.2575 10.5388L14.0254 20.4563C12.6437 19.0461 10.7152 18.1703 8.58257 18.1703C4.38312 18.1703 0.975195 21.566 0.975195 25.7517C0.975195 29.2944 3.41646 32.2711 6.71266 33.1021V52.9126C3.41646 53.7436 0.975195 56.7203 0.975195 60.263C0.975195 64.4487 4.38312 67.8443 8.58257 67.8443C10.72 67.8443 12.6523 66.9647 14.0346 65.549L31.2587 75.462C31.074 76.116 30.9752 76.8059 30.9752 77.5186C30.9752 81.7044 34.3831 85.1 38.5826 85.1C42.782 85.1 46.1899 81.7044 46.1899 77.5186C46.1899 76.8059 46.0911 76.116 45.9064 75.462L63.1246 65.5524C64.5063 66.9646 66.4349 67.8443 68.5678 67.8443C72.7673 67.8443 76.1752 64.4487 76.1752 60.263C76.1752 56.7256 73.7412 53.7525 70.4525 52.9163V33.0984C73.7412 32.2622 76.1752 29.2891 76.1752 25.7517C76.1752 21.566 72.7673 18.1703 68.5678 18.1703C66.4379 18.1703 64.5116 19.0438 63.1303 20.4509L45.9064 10.538ZM15.9065 23.6955L33.141 13.7837C33.1808 13.8243 33.2211 13.8644 33.2619 13.9041L10.6334 52.9606C10.5782 52.9452 10.5229 52.9305 10.4672 52.9163V33.0984C13.756 32.2622 16.1899 29.2891 16.1899 25.7517C16.1899 25.0391 16.0912 24.3494 15.9065 23.6955ZM33.1447 72.2181L15.9102 62.3062C15.9255 62.2515 15.9403 62.1966 15.9544 62.1415H61.1973C61.212 62.1988 61.2274 62.256 61.2435 62.3128L44.0204 72.2181C42.639 70.8109 40.7126 69.9373 38.5826 69.9373C36.4525 69.9373 34.5261 70.8109 33.1447 72.2181ZM36.5286 15.7839C37.182 15.9656 37.8709 16.0627 38.5826 16.0627C39.294 16.0627 39.9827 15.9653 40.636 15.783L63.2566 54.8364C62.272 55.7937 61.5467 57.0146 61.196 58.3845H15.9544C15.6048 57.019 14.883 55.8015 13.9032 54.8456L36.5286 15.7839ZM66.6832 33.0984V52.9163C66.6293 52.93 66.5756 52.9443 66.5222 52.9591L43.8865 13.915C43.9268 13.8759 43.9667 13.8364 44.0061 13.7964L61.2403 23.7081C61.058 24.3583 60.9604 25.0437 60.9604 25.7517C60.9604 29.2891 63.3944 32.2622 66.6832 33.0984ZM28.173 49.2884L28.1763 49.356L28.2404 49.378L38.5206 52.9056L38.5531 52.9168L38.5856 52.9055L48.8216 49.378L48.8847 49.3563L48.8889 49.2897C48.9265 48.6891 48.8367 47.7712 48.4517 46.957C48.0733 46.1566 47.4062 45.4513 46.2959 45.2574C46.2352 44.8824 46.0895 44.3476 45.8231 43.875C45.5525 43.3951 45.1479 42.9638 44.5675 42.8493V42.343H45.441H45.541V42.243V40.4499V40.3499H45.441H42.6059V38.7567H44.6003H44.7003V38.6567V38.2304V38.135L44.6049 38.1305C43.7145 38.0893 42.2957 37.1651 41.0587 34.2032C39.8248 31.2488 38.7858 26.2952 38.6383 18.2693V18.2262L38.4383 18.2245C38.2983 26.2655 37.2482 31.2265 36.0015 34.1827C34.7516 37.1463 33.3184 38.0667 32.4283 38.1011L32.3321 38.1048V38.201V38.6273V38.7273H32.4321H34.4265V40.3205H31.5914H31.4914V40.4205V42.2136V42.3136H31.5914H32.4649V42.8199C31.8844 42.9343 31.4763 43.3654 31.2039 43.8454C30.9359 44.3177 30.7899 44.8525 30.7351 45.2289C29.6396 45.4306 28.9841 46.1398 28.6117 46.943C28.2326 47.7606 28.1429 48.6816 28.173 49.2884ZM35.5852 38.7273H36.2112V40.3205H35.5852V38.7273ZM37.3846 38.7273H38.0106V40.3205H37.3846V38.7273ZM39.184 38.7273H39.81V40.3205H39.184V38.7273ZM41.0129 38.7273H41.6389V40.3205H41.0129V38.7273Z" fill="#E10098" stroke="#E10098" stroke-width="0.2"/>
<path d="M1.97384 127.79C1.65921 127.79 1.43449 127.7 1.2547 127.52C1.0899 127.34 1 127.1 1 126.831V99.4235C1 99.1089 1.0899 98.8691 1.2547 98.6893C1.4195 98.5095 1.65921 98.4196 1.97384 98.4196H13.4652C15.5627 98.4196 17.2706 98.7642 18.604 99.4535C19.9375 100.143 20.9113 101.072 21.5406 102.241C22.1698 103.409 22.4844 104.728 22.4844 106.182C22.4844 107.335 22.2897 108.309 21.9151 109.134C21.5406 109.958 21.0761 110.632 20.5068 111.142C19.9524 111.666 19.3981 112.056 18.8737 112.34C19.9674 112.865 20.9413 113.734 21.7952 114.948C22.6492 116.146 23.0687 117.6 23.0687 119.308C23.0687 120.852 22.7241 122.26 22.02 123.549C21.3158 124.838 20.282 125.857 18.8887 126.636C17.5103 127.4 15.8024 127.79 13.7948 127.79H1.97384ZM5.12009 110.842H12.8359C14.6188 110.842 15.9822 110.422 16.9111 109.598C17.84 108.774 18.2894 107.65 18.2894 106.227C18.2894 104.803 17.825 103.709 16.9111 102.96C15.9822 102.211 14.6338 101.821 12.8359 101.821H5.12009V110.842ZM5.12009 124.388H13.2554C15.0383 124.388 16.4316 123.894 17.4055 122.92C18.3793 121.946 18.8737 120.732 18.8737 119.308C18.8737 117.825 18.3793 116.596 17.4055 115.637C16.4316 114.678 15.0383 114.183 13.2554 114.183H5.12009V124.388Z" fill="white"/>
<path d="M34.56 128.209C33.1667 128.209 31.8932 127.924 30.7396 127.37C29.586 126.816 28.6721 126.051 27.9679 125.107C27.2637 124.163 26.9191 123.084 26.9191 121.871C26.9191 119.938 27.6982 118.409 29.2713 117.255C30.8445 116.102 32.8821 115.352 35.3991 114.993L41.6466 114.109V112.895C41.6466 111.546 41.2571 110.497 40.493 109.748C39.7289 108.999 38.4704 108.609 36.7325 108.609C35.5039 108.609 34.5001 108.864 33.7061 109.358C32.927 109.868 32.3727 110.512 32.073 111.291C31.9082 111.711 31.6086 111.921 31.1891 111.921H29.3013C28.9867 111.921 28.762 111.831 28.6121 111.651C28.4623 111.471 28.3874 111.246 28.3874 111.007C28.3874 110.587 28.5522 110.063 28.8668 109.448C29.1815 108.834 29.6909 108.235 30.3501 107.65C31.0243 107.066 31.8783 106.571 32.927 106.167C33.9758 105.762 35.2492 105.552 36.7624 105.552C38.4404 105.552 39.8488 105.762 41.0024 106.197C42.156 106.631 43.0549 107.216 43.7142 107.935C44.3734 108.669 44.8528 109.493 45.1375 110.407C45.4371 111.336 45.5719 112.265 45.5719 113.224V126.816C45.5719 127.1 45.4821 127.325 45.3023 127.505C45.1225 127.685 44.8828 127.775 44.6131 127.775H42.6804C42.3658 127.775 42.141 127.685 41.9612 127.505C41.7964 127.325 41.7065 127.085 41.7065 126.816V125.017C41.347 125.527 40.8526 126.021 40.2383 126.501C39.624 126.995 38.8599 127.4 37.931 127.715C37.0022 128.029 35.9084 128.209 34.56 128.209ZM35.444 125.062C36.5976 125.062 37.6464 124.823 38.5903 124.328C39.5341 123.834 40.2832 123.069 40.8376 122.035C41.3769 121.002 41.6616 119.698 41.6616 118.139V116.971L36.7924 117.69C34.7998 117.975 33.3165 118.439 32.2977 119.098C31.2939 119.758 30.7845 120.582 30.7845 121.601C30.7845 122.38 31.0093 123.039 31.4737 123.549C31.9382 124.073 32.5225 124.448 33.2416 124.703C33.9608 124.958 34.6949 125.062 35.444 125.062Z" fill="white"/>
<path d="M52.5986 127.79C52.3139 127.79 52.0892 127.7 51.9094 127.52C51.7296 127.34 51.6397 127.1 51.6397 126.831V106.931C51.6397 106.646 51.7296 106.421 51.9094 106.242C52.0892 106.062 52.3289 105.972 52.5986 105.972H54.5762C54.8609 105.972 55.0856 106.062 55.2654 106.242C55.4452 106.421 55.5351 106.661 55.5351 106.931V108.774C56.2692 107.83 57.1831 107.051 58.2768 106.451C59.3855 105.852 60.7938 105.552 62.5317 105.552C64.3446 105.552 65.8878 105.957 67.1612 106.751C68.4347 107.545 69.3936 108.654 70.0528 110.063C70.712 111.471 71.0416 113.12 71.0416 114.993V126.831C71.0416 127.115 70.9517 127.34 70.7719 127.52C70.5921 127.7 70.3524 127.79 70.0827 127.79H67.9853C67.7006 127.79 67.4759 127.7 67.2961 127.52C67.1163 127.34 67.0264 127.1 67.0264 126.831V115.202C67.0264 113.239 66.547 111.711 65.6031 110.602C64.6592 109.493 63.2509 108.939 61.4081 108.939C59.6702 108.939 58.2768 109.493 57.2281 110.602C56.1793 111.711 55.6549 113.239 55.6549 115.202V126.831C55.6549 127.115 55.565 127.34 55.3853 127.52C55.2055 127.7 54.9658 127.79 54.6961 127.79H52.5986Z" fill="white"/>
<path d="M85.9938 137.02C84.0911 137.02 82.5329 136.765 81.3194 136.271C80.1058 135.761 79.147 135.162 78.4728 134.443C77.7836 133.724 77.3041 133.019 77.0045 132.3C76.7049 131.581 76.555 131.026 76.5251 130.607C76.4951 130.322 76.585 130.082 76.7948 129.887C77.0045 129.693 77.2293 129.588 77.4839 129.588H79.4915C79.7462 129.588 79.956 129.648 80.1208 129.753C80.2856 129.858 80.4354 130.097 80.5403 130.472C80.7051 130.891 80.9598 131.356 81.2894 131.88C81.619 132.405 82.1434 132.839 82.8475 133.229C83.5517 133.604 84.5255 133.798 85.784 133.798C87.1025 133.798 88.1962 133.619 89.0951 133.259C89.9941 132.899 90.6683 132.285 91.1327 131.416C91.5972 130.547 91.8219 129.348 91.8219 127.805V124.958C91.1477 125.827 90.2637 126.546 89.185 127.115C88.0913 127.685 86.7279 127.969 85.0799 127.969C83.5068 127.969 82.1733 127.7 81.0497 127.145C79.926 126.606 79.0121 125.857 78.308 124.928C77.5888 123.984 77.0644 122.92 76.7198 121.721C76.3753 120.522 76.1655 119.263 76.1056 117.945C76.0756 117.165 76.0756 116.386 76.1056 115.637C76.1655 114.318 76.3603 113.06 76.7198 111.861C77.0644 110.662 77.6038 109.583 78.308 108.624C79.0271 107.68 79.941 106.931 81.0497 106.376C82.1733 105.837 83.5068 105.552 85.0799 105.552C86.7579 105.552 88.1512 105.867 89.2599 106.481C90.3686 107.096 91.2675 107.86 91.9717 108.789V106.991C91.9717 106.706 92.0616 106.466 92.2414 106.272C92.4212 106.077 92.6609 105.972 92.9306 105.972H94.8633C95.1479 105.972 95.3876 106.077 95.5824 106.272C95.7772 106.466 95.882 106.706 95.882 106.991V127.34C95.882 129.213 95.5674 130.876 94.9382 132.33C94.3089 133.784 93.2751 134.937 91.8369 135.776C90.3686 136.601 88.4209 137.02 85.9938 137.02ZM85.9039 124.598C87.2973 124.598 88.4209 124.283 89.2749 123.639C90.1289 122.995 90.7581 122.185 91.1627 121.211C91.5672 120.237 91.7919 119.233 91.8069 118.229C91.8369 117.84 91.8518 117.36 91.8518 116.776C91.8518 116.206 91.8369 115.727 91.8069 115.322C91.7769 114.318 91.5672 113.329 91.1627 112.34C90.7581 111.366 90.1289 110.557 89.2749 109.913C88.4209 109.269 87.2973 108.954 85.9039 108.954C84.5106 108.954 83.3869 109.269 82.5479 109.898C81.7089 110.527 81.1096 111.351 80.75 112.37C80.3905 113.389 80.1807 114.483 80.1208 115.667C80.0908 116.401 80.0908 117.135 80.1208 117.885C80.1807 119.054 80.3905 120.162 80.75 121.181C81.1096 122.2 81.7089 123.024 82.5479 123.654C83.3869 124.283 84.5106 124.598 85.9039 124.598Z" fill="white"/>
<path d="M103.103 127.79C102.819 127.79 102.594 127.7 102.414 127.52C102.234 127.34 102.145 127.1 102.145 126.831V98.959C102.145 98.6743 102.234 98.4495 102.414 98.2697C102.594 98.0899 102.834 98 103.103 98H105.081C105.366 98 105.59 98.0899 105.77 98.2697C105.95 98.4495 106.04 98.6893 106.04 98.959V113.554L114.31 106.676C114.64 106.391 114.909 106.212 115.089 106.107C115.269 106.002 115.569 105.957 115.988 105.957H118.205C118.46 105.957 118.67 106.047 118.835 106.212C119 106.376 119.089 106.586 119.089 106.841C119.089 106.946 119.059 107.081 118.985 107.216C118.91 107.35 118.775 107.5 118.58 107.635L108.902 115.712L119.644 126.156C119.973 126.441 120.153 126.681 120.153 126.906C120.153 127.16 120.063 127.37 119.898 127.535C119.734 127.7 119.524 127.79 119.269 127.79H117.082C116.662 127.79 116.348 127.745 116.153 127.64C115.958 127.535 115.703 127.355 115.404 127.07L106.055 118.139V126.831C106.055 127.115 105.965 127.34 105.785 127.52C105.605 127.7 105.366 127.79 105.096 127.79H103.103Z" fill="white"/>
<path d="M131.674 128.209C129.547 128.209 127.779 127.805 126.341 126.995C124.917 126.186 123.824 125.062 123.075 123.624C122.326 122.185 121.906 120.537 121.816 118.694C121.786 118.214 121.771 117.615 121.771 116.866C121.771 116.132 121.786 115.532 121.816 115.083C121.906 113.209 122.326 111.561 123.09 110.138C123.854 108.714 124.962 107.59 126.386 106.781C127.809 105.972 129.577 105.567 131.674 105.567C133.772 105.567 135.54 105.972 136.963 106.781C138.386 107.59 139.48 108.714 140.259 110.138C141.023 111.561 141.458 113.209 141.533 115.083C141.563 115.532 141.578 116.132 141.578 116.866C141.578 117.6 141.563 118.214 141.533 118.694C141.443 120.537 141.023 122.185 140.274 123.624C139.525 125.062 138.431 126.186 137.008 126.995C135.585 127.805 133.802 128.209 131.674 128.209ZM131.674 124.972C133.412 124.972 134.791 124.418 135.824 123.309C136.858 122.2 137.413 120.582 137.503 118.469C137.532 118.05 137.547 117.525 137.547 116.881C137.547 116.236 137.532 115.712 137.503 115.292C137.413 113.165 136.858 111.546 135.824 110.452C134.791 109.343 133.412 108.789 131.674 108.789C129.937 108.789 128.543 109.343 127.494 110.452C126.446 111.561 125.891 113.18 125.831 115.292C125.801 115.712 125.786 116.236 125.786 116.881C125.786 117.525 125.801 118.05 125.831 118.469C125.891 120.597 126.446 122.215 127.494 123.309C128.558 124.418 129.937 124.972 131.674 124.972Z" fill="white"/>
<path d="M147.825 127.79C147.541 127.79 147.316 127.7 147.136 127.52C146.956 127.34 146.866 127.1 146.866 126.831V98.959C146.866 98.6743 146.956 98.4495 147.136 98.2697C147.316 98.0899 147.556 98 147.825 98H149.803C150.088 98 150.312 98.0899 150.492 98.2697C150.672 98.4495 150.762 98.6893 150.762 98.959V113.554L159.032 106.676C159.361 106.391 159.631 106.212 159.811 106.107C159.991 106.002 160.29 105.957 160.71 105.957H162.927C163.182 105.957 163.392 106.047 163.556 106.212C163.721 106.376 163.811 106.586 163.811 106.841C163.811 106.946 163.781 107.081 163.706 107.216C163.631 107.35 163.497 107.5 163.302 107.635L153.608 115.697L164.351 126.141C164.68 126.426 164.86 126.666 164.86 126.891C164.86 127.145 164.77 127.355 164.605 127.52C164.44 127.685 164.231 127.775 163.976 127.775H161.789C161.369 127.775 161.054 127.73 160.86 127.625C160.665 127.52 160.41 127.34 160.111 127.055L150.762 118.124V126.816C150.762 127.1 150.672 127.325 150.492 127.505C150.312 127.685 150.073 127.775 149.803 127.775H147.825V127.79Z" fill="white"/>
</svg>
