<?xml version="1.0" encoding="utf-8"?>
<!-- Generator: Adobe Illustrator 26.4.0, SVG Export Plug-In . SVG Version: 6.00 Build 0)  -->
<svg version="1.1" id="Layer_1" xmlns="http://www.w3.org/2000/svg" xmlns:xlink="http://www.w3.org/1999/xlink" x="0px" y="0px"
	 viewBox="0 0 246 138" style="enable-background:new 0 0 246 138;" xml:space="preserve">
<style type="text/css">
	.st0{fill:#E10098;}
	.st1{fill-rule:evenodd;clip-rule:evenodd;fill:#E10098;}
	.st2{fill:#FFFFFF;}
	.st3{font-family:'PTSans-Regular';}
	.st4{font-size:38px;}
</style>
<g>
	<g>
		<g>
			<g>
				<rect x="-10.5" y="33.8" transform="matrix(0.5 -0.866 0.866 0.5 -18.1763 39.8872)" class="st0" width="72" height="3.7"/>
			</g>
		</g>
		<g>
			<g>
				<rect x="5.1" y="60.9" class="st0" width="72" height="3.7"/>
			</g>
		</g>
		<g>
			<g>
				<rect x="23.6" y="51" transform="matrix(0.5 -0.866 0.866 0.5 -49.4728 57.9659)" class="st0" width="3.7" height="41.6"/>
			</g>
		</g>
		<g>
			<g>
				<rect x="54.9" y="-3.2" transform="matrix(0.5 -0.866 0.866 0.5 13.1084 57.9638)" class="st0" width="3.7" height="41.6"/>
			</g>
		</g>
		<g>
			<g>
				<rect x="4.7" y="15.7" transform="matrix(0.866 -0.5 0.5 0.866 -5.3948 15.0975)" class="st0" width="41.6" height="3.7"/>
			</g>
		</g>
		<g>
			<g>
				<rect x="54.9" y="-0.3" transform="matrix(0.866 -0.5 0.5 0.866 -10.2359 33.1712)" class="st0" width="3.7" height="72"/>
			</g>
		</g>
		<g>
			<g>
				<rect x="8" y="23.9" class="st0" width="3.7" height="41.6"/>
			</g>
		</g>
		<g>
			<g>
				<rect x="70.5" y="23.9" class="st0" width="3.7" height="41.6"/>
			</g>
		</g>
		<g>
			<g>
				<rect x="38.7" y="70.2" transform="matrix(0.866 -0.5 0.5 0.866 -28.3008 37.9979)" class="st0" width="36.2" height="3.3"/>
			</g>
		</g>
		<path class="st0" d="M79.2,66.7c-2.2,3.8-7,5-10.7,2.9c-3.8-2.2-5-7-2.9-10.7c2.2-3.8,7-5,10.7-2.9C80.1,58.2,81.4,63,79.2,66.7"
			/>
		<path class="st0" d="M16.6,30.6c-2.2,3.8-7,5-10.7,2.9c-3.8-2.2-5-7-2.9-10.7s7-5,10.7-2.9C17.5,22,18.7,26.8,16.6,30.6"/>
		<path class="st0" d="M3,66.7C0.8,63,2.1,58.2,5.9,56c3.8-2.2,8.5-0.9,10.7,2.9c2.2,3.8,0.9,8.5-2.9,10.7C10,71.8,5.2,70.5,3,66.7"
			/>
		<path class="st0" d="M65.6,30.6c-2.2-3.8-0.9-8.5,2.9-10.7c3.8-2.2,8.5-0.9,10.7,2.9c2.2,3.8,0.9,8.5-2.9,10.7
			C72.6,35.6,67.8,34.3,65.6,30.6"/>
		<path class="st0" d="M41.1,88.7c-4.3,0-7.8-3.5-7.8-7.8c0-4.3,3.5-7.8,7.8-7.8c4.3,0,7.8,3.5,7.8,7.8C49,85.2,45.5,88.7,41.1,88.7
			"/>
		<path class="st0" d="M41.1,16.4c-4.3,0-7.8-3.5-7.8-7.8s3.5-7.8,7.8-7.8c4.3,0,7.8,3.5,7.8,7.8S45.5,16.4,41.1,16.4"/>
	</g>
	<g>
		<path class="st1" d="M37.4,48.7h7.4h0.1c1.4,0,2.6-1.1,2.8-2.5h-2.8h-7.5h-2.8C34.7,47.6,35.9,48.7,37.4,48.7L37.4,48.7z"/>
		<path class="st1" d="M37.1,45.4H45c1.3-0.1,2.4-1.1,2.6-2.5h-2.8h-7.5h-2.8C34.7,44.3,35.8,45.3,37.1,45.4z"/>
		<path class="st1" d="M37.1,42.1H45c1.3-0.1,2.4-1.1,2.6-2.5H34.5C34.7,41,35.8,42,37.1,42.1z"/>
		<path class="st1" d="M34.5,36.3c0.2,1.4,1.4,2.5,2.8,2.5h7.5c1.4,0,2.6-1.1,2.8-2.5H34.5z"/>
		<path class="st1" d="M37.1,35.5H45c1.3-0.1,2.4-1.1,2.6-2.5H34.5C34.7,34.4,35.8,35.4,37.1,35.5z"/>
		<path class="st1" d="M37.1,32.2H45c1.3-0.1,2.4-1.1,2.6-2.5H34.5C34.7,31.1,35.8,32.2,37.1,32.2z"/>
		<path class="st1" d="M37.1,29H45c1.3-0.1,2.4-1.1,2.6-2.5H34.5C34.7,27.8,35.8,28.9,37.1,29z"/>
		<polygon class="st1" points="39.3,25.7 42.9,25.7 44.1,23.2 38,23.2 		"/>
		<g>
			<path class="st1" d="M42.3,59.5v-3c0-0.7-0.5-1.2-1.2-1.2H41c-0.7,0-1.2,0.5-1.2,1.2v3H42.3z"/>
			<path class="st1" d="M39,59.5v-3c0-1.1,0.9-2,2-2h0.1c1.1,0,2,0.9,2,2v3h3.5l-2.1-10h-6.7l-2.1,10H39z"/>
		</g>
		<path class="st1" d="M40.3,22.4v-2c0-0.4,0.3-0.7,0.7-0.7c0.4,0,0.7,0.3,0.7,0.7v2H40.3z"/>
	</g>
</g>
<text transform="matrix(1 0 0 1 4.6753 123.6426)" class="st2 st3 st4">Taipei</text>
</svg>
