<svg width="246" height="137" viewBox="0 0 246 137" fill="none" xmlns="http://www.w3.org/2000/svg">
<path fill-rule="evenodd" clip-rule="evenodd" d="M43.1405 5.45001L74.9147 23.714V60.2859L43.1405 78.55L11.3662 60.2859V23.714L43.1405 5.45001ZM14.9293 25.7888V52.6443L38.2724 12.3465L14.9293 25.7888ZM43.1405 11.0607L16.2343 57.4952H70.0467L43.1405 11.0607ZM66.4836 61.0457H19.7973L43.1405 74.4881L66.4836 61.0457ZM71.3517 52.6443L48.0085 12.3465L71.3517 25.7888V52.6443Z" fill="#E10098"/>
<path d="M43.1411 14.9765C47.3054 14.9765 50.6485 11.6305 50.6485 7.49556C50.6485 3.36058 47.3054 0 43.1411 0C38.9769 0 35.6338 3.34597 35.6338 7.48095C35.6338 11.6305 38.9916 14.9765 43.1411 14.9765Z" fill="#E10098"/>
<path d="M73.1265 32.2324C77.2907 32.2324 80.6338 28.8864 80.6338 24.7515C80.6338 20.6165 77.2761 17.2705 73.1265 17.2705C68.9623 17.2705 65.6191 20.6165 65.6191 24.7515C65.6191 28.8864 68.9916 32.2324 73.1265 32.2324Z" fill="#E10098"/>
<path d="M73.1265 66.7441C77.2907 66.7441 80.6338 63.3982 80.6338 59.2632C80.6338 55.1282 77.2761 51.7822 73.1265 51.7822C68.9623 51.7822 65.6191 55.1282 65.6191 59.2632C65.6338 63.3982 68.9916 66.7441 73.1265 66.7441Z" fill="#E10098"/>
<path d="M43.1411 84C47.3054 84 50.6485 80.654 50.6485 76.519C50.6485 72.3694 47.2907 69.0381 43.1411 69.0381C38.9769 69.0381 35.6338 72.3841 35.6338 76.519C35.6338 80.6686 38.9916 84 43.1411 84Z" fill="#E10098"/>
<path d="M13.1411 66.7441C17.3054 66.7441 20.6485 63.3982 20.6485 59.2632C20.6485 55.1282 17.2907 51.7822 13.1411 51.7822C8.99157 51.7822 5.63379 55.1282 5.63379 59.2632C5.63379 63.3982 9.00623 66.7441 13.1411 66.7441Z" fill="#E10098"/>
<path d="M13.1411 32.2324C17.3054 32.2324 20.6485 28.8864 20.6485 24.7515C20.6485 20.6165 17.2907 17.2705 13.1411 17.2705C8.99157 17.2705 5.63379 20.6311 5.63379 24.7515C5.63379 28.8718 9.00623 32.2324 13.1411 32.2324Z" fill="#E10098"/>
<path d="M40.2229 31.0927C38.0235 31.3703 36.3372 32.2178 34.6364 33.9127C33.2141 35.3154 32.3783 36.7911 32.041 38.486C31.3812 41.7443 32.2463 44.8127 34.563 47.1359C36.5132 49.123 38.7273 50.0435 41.5279 50.0143H42.9355L42.1144 49.7367C38.4194 48.5678 35.868 45.6894 35.2669 42.0219C35.0323 40.6777 35.0323 40.4585 35.2669 39.1143C35.6334 37.0249 36.4399 35.403 37.8915 33.9419C39.1378 32.7 40.1496 32.0863 41.7771 31.5165L42.8768 31.1512L42.305 31.0635C41.5865 30.932 41.5865 30.932 40.2229 31.0927Z" fill="#E10098"/>
<path d="M44.7683 33.3428C44.563 33.8688 44.475 33.9419 43.8005 34.0295L43.0674 34.161L43.5659 34.6578C44.0205 35.1108 44.0644 35.2277 43.9618 35.8413C43.8885 36.2358 43.8885 36.5281 43.9325 36.5281C43.9765 36.5281 44.2551 36.3966 44.5337 36.2066L45.0615 35.9144L45.7067 36.2358L46.3518 36.5573L46.2639 35.7975C46.1759 35.1108 46.1906 35.0377 46.6304 34.614C47.0263 34.2195 47.0703 34.161 46.8357 34.0442C46.6744 34.0149 46.3812 33.9565 46.1759 33.9565C45.8826 33.9565 45.7213 33.7958 45.5161 33.3136C45.3548 32.9922 45.1935 32.7145 45.1202 32.7145C45.0469 32.7876 44.9149 33.0214 44.7683 33.3428Z" fill="#E10098"/>
<path d="M39.2851 37.1855C38.9918 37.9161 38.7132 38.1207 38.0241 38.1207H37.3789L37.9068 38.6905C38.4053 39.2165 38.4346 39.3334 38.3467 39.874C38.2733 40.1955 38.2587 40.5169 38.2733 40.5315C38.3027 40.5607 38.5666 40.4585 38.9185 40.2977C39.4903 40.0055 39.5197 40.0055 40.0475 40.2977C40.81 40.6922 40.854 40.663 40.7367 39.9325C40.6487 39.3334 40.7074 39.2457 41.1033 38.8366C41.6311 38.3106 41.5431 38.1499 40.7074 38.1499C40.2675 38.1499 40.1355 38.0622 39.8276 37.4632L39.461 36.7764L39.2851 37.1855Z" fill="#E10098"/>
<path d="M50.3559 37.4193C50.0774 38.0184 49.9601 38.1061 49.5495 38.1061C48.6697 38.1061 48.5818 38.2376 49.1536 38.749C49.6081 39.1435 49.6521 39.2019 49.5495 39.8448C49.4762 40.2101 49.4615 40.5023 49.4762 40.5315C49.5055 40.5608 49.7694 40.4585 50.1213 40.2978C50.6932 40.0055 50.7225 40.0055 51.2504 40.2978C51.5436 40.4585 51.8516 40.5754 51.8955 40.59C51.9689 40.59 51.9689 40.2978 51.9249 39.9032C51.8369 39.2604 51.8516 39.2165 52.3208 38.8512C52.9659 38.3252 52.9219 38.1645 52.1888 38.1645C51.6609 38.1645 51.529 38.0915 51.2944 37.7116C50.7225 36.6596 50.7225 36.6596 50.3559 37.4193Z" fill="#E10098"/>
<path d="M41.4251 43.7752C41.1318 44.462 40.8532 44.6665 40.2521 44.6665C39.6069 44.6665 39.5922 44.798 40.1787 45.324C40.5746 45.7185 40.5746 45.777 40.472 46.3761C40.3987 46.7413 40.34 47.0628 40.34 47.1358C40.34 47.2089 40.6333 47.1066 40.9852 46.8582L41.6304 46.4637L42.2315 46.7559C42.5541 46.9167 42.8327 47.0482 42.8767 47.0336C42.906 47.0043 42.8767 46.7121 42.8034 46.3761C42.7154 45.8062 42.7301 45.7185 43.2433 45.1925C43.7711 44.6227 43.7711 44.6227 43.4046 44.6227C42.6421 44.6227 42.3048 44.4181 41.9969 43.8629C41.8356 43.5415 41.6743 43.2639 41.6304 43.2639C41.645 43.3223 41.557 43.5269 41.4251 43.7752Z" fill="#E10098"/>
<path d="M48.243 43.863C47.9644 44.462 47.6711 44.6666 46.894 44.6666H46.4541L47.026 45.2364C47.5538 45.7624 47.5978 45.8793 47.4805 46.4784C47.4512 46.8437 47.4512 47.1359 47.4805 47.1359C47.5538 47.1359 47.8031 47.0044 48.1257 46.8583C48.6242 46.6245 48.6975 46.6245 49.1814 46.8583C49.4746 46.9898 49.7826 47.1359 49.8265 47.1359C49.8705 47.1359 49.8559 46.8437 49.8265 46.4784C49.7386 45.8793 49.7972 45.7916 50.1931 45.3825C50.6917 44.8858 50.6917 44.6958 50.1198 44.6958C49.5186 44.6958 49.2987 44.5351 48.9468 43.8922C48.7855 43.5707 48.6242 43.2931 48.5802 43.2931C48.5655 43.2785 48.4043 43.5707 48.243 43.863Z" fill="#E10098"/>
<path d="M16.5554 127.847C14.1812 127.847 12.1733 127.481 10.5612 126.735C8.94903 126.003 7.70328 125.051 6.85324 123.88C5.98855 122.724 5.53421 121.494 5.47559 120.206C5.47559 119.987 5.56353 119.796 5.7394 119.606C5.91527 119.43 6.13511 119.342 6.3696 119.342H8.46539C8.78782 119.342 9.03697 119.43 9.19818 119.591C9.3594 119.752 9.47665 119.943 9.52062 120.162C9.68183 120.821 10.0336 121.465 10.5465 122.109C11.0595 122.753 11.8069 123.28 12.7889 123.705C13.7562 124.129 15.0166 124.334 16.5408 124.334C18.9004 124.334 20.6298 123.924 21.729 123.09C22.8428 122.255 23.3851 121.143 23.3851 119.752C23.3851 118.801 23.092 118.025 22.5057 117.439C21.9195 116.854 21.0255 116.327 19.8237 115.859C18.6219 115.39 17.0537 114.892 15.1485 114.336C13.1553 113.765 11.4992 113.136 10.1801 112.448C8.8611 111.76 7.89381 110.911 7.24895 109.901C6.60409 108.891 6.28166 107.603 6.28166 106.051C6.28166 104.573 6.67737 103.255 7.46879 102.099C8.26021 100.942 9.41802 100.02 10.9129 99.332C12.4225 98.6441 14.2252 98.3074 16.3356 98.3074C18.0357 98.3074 19.5159 98.5269 20.791 98.9807C22.066 99.4345 23.1213 100.035 23.9713 100.781C24.8214 101.528 25.4662 102.333 25.9059 103.197C26.3456 104.06 26.5801 104.895 26.6094 105.714C26.6094 105.905 26.5361 106.095 26.4042 106.271C26.2723 106.446 26.0525 106.534 25.7447 106.534H23.5756C23.3851 106.534 23.1799 106.475 22.9747 106.373C22.7695 106.271 22.6083 106.066 22.5057 105.758C22.3445 104.631 21.7143 103.694 20.6151 102.933C19.5159 102.172 18.0943 101.791 16.3503 101.791C14.5769 101.791 13.126 102.128 12.0268 102.816C10.9129 103.504 10.3707 104.558 10.3707 106.007C10.3707 106.929 10.6345 107.705 11.1474 108.32C11.6604 108.935 12.4811 109.476 13.6096 109.945C14.7381 110.413 16.189 110.896 18.0064 111.423C20.1901 112.023 21.9928 112.653 23.3851 113.326C24.7774 114 25.818 114.834 26.4775 115.829C27.1516 116.825 27.4887 118.098 27.4887 119.664C27.4887 121.392 27.0344 122.856 26.1404 124.071C25.2317 125.286 23.9713 126.222 22.3445 126.852C20.6884 127.525 18.7685 127.847 16.5554 127.847Z" fill="white"/>
<path d="M32.9263 102.143C32.6478 102.143 32.428 102.055 32.2521 101.879C32.0762 101.703 31.9883 101.469 31.9883 101.206V98.9954C31.9883 98.7173 32.0762 98.4831 32.2521 98.2928C32.428 98.1025 32.6625 98 32.9263 98H35.5057C35.7842 98 36.0186 98.1025 36.2092 98.2928C36.3997 98.4831 36.5023 98.7173 36.5023 98.9954V101.206C36.5023 101.484 36.3997 101.703 36.2092 101.879C36.0186 102.055 35.7842 102.143 35.5057 102.143H32.9263ZM33.2633 127.437C32.9849 127.437 32.765 127.35 32.5892 127.174C32.4133 126.998 32.3254 126.764 32.3254 126.501V107.061C32.3254 106.783 32.4133 106.563 32.5892 106.388C32.765 106.212 32.9995 106.124 33.2633 106.124H35.2272C35.5057 106.124 35.7255 106.212 35.9014 106.388C36.0773 106.563 36.1652 106.798 36.1652 107.061V126.486C36.1652 126.764 36.0773 126.984 35.9014 127.159C35.7255 127.335 35.491 127.423 35.2272 127.423H33.2633V127.437Z" fill="white"/>
<path d="M43.1851 127.437C42.9066 127.437 42.6867 127.35 42.5109 127.174C42.335 126.998 42.2471 126.764 42.2471 126.501V107.061C42.2471 106.783 42.335 106.563 42.5109 106.388C42.6867 106.212 42.9212 106.124 43.1851 106.124H45.1196C45.3981 106.124 45.6179 106.212 45.7938 106.388C45.9697 106.563 46.0576 106.798 46.0576 107.061V108.862C46.7757 107.939 47.6697 107.178 48.7396 106.593C49.8242 106.007 51.2018 105.714 52.9019 105.714C54.6753 105.714 56.1848 106.11 57.4306 106.885C58.6763 107.661 59.6143 108.744 60.2592 110.12C60.904 111.496 61.2264 113.107 61.2264 114.936V126.501C61.2264 126.779 61.1385 126.998 60.9626 127.174C60.7868 127.35 60.5523 127.437 60.2885 127.437H58.2366C57.9582 127.437 57.7383 127.35 57.5625 127.174C57.3866 126.998 57.2987 126.764 57.2987 126.501V115.141C57.2987 113.224 56.8297 111.731 55.9064 110.647C54.983 109.564 53.6054 109.023 51.8027 109.023C50.1026 109.023 48.7396 109.564 47.7137 110.647C46.6878 111.731 46.1748 113.224 46.1748 115.141V126.501C46.1748 126.779 46.0869 126.998 45.911 127.174C45.7352 127.35 45.5007 127.437 45.2369 127.437H43.1851Z" fill="white"/>
<path d="M75.8531 136.454C73.9918 136.454 72.4676 136.206 71.2804 135.723C70.0933 135.225 69.1553 134.639 68.4958 133.937C67.8216 133.234 67.3527 132.546 67.0595 131.843C66.7664 131.141 66.6199 130.599 66.5905 130.189C66.5612 129.911 66.6492 129.677 66.8544 129.487C67.0595 129.296 67.2794 129.194 67.5285 129.194H69.4924C69.7416 129.194 69.9467 129.253 70.108 129.355C70.2692 129.457 70.4157 129.692 70.5183 130.058C70.6795 130.467 70.9287 130.921 71.2511 131.434C71.5736 131.946 72.0865 132.37 72.7753 132.751C73.4642 133.117 74.4168 133.307 75.6479 133.307C76.9376 133.307 78.0075 133.132 78.8868 132.78C79.7662 132.429 80.4257 131.829 80.88 130.98C81.3344 130.131 81.5542 128.96 81.5542 127.452V124.671C80.8947 125.52 80.03 126.222 78.9748 126.779C77.9049 127.335 76.5712 127.613 74.9591 127.613C73.4202 127.613 72.1158 127.35 71.0166 126.808C69.9174 126.281 69.0234 125.549 68.3346 124.641C67.6311 123.719 67.1182 122.68 66.7811 121.509C66.444 120.338 66.2388 119.108 66.1802 117.82C66.1509 117.059 66.1509 116.298 66.1802 115.566C66.2388 114.278 66.4293 113.048 66.7811 111.877C67.1182 110.706 67.6458 109.652 68.3346 108.715C69.0381 107.793 69.9321 107.061 71.0166 106.519C72.1158 105.992 73.4202 105.714 74.9591 105.714C76.6005 105.714 77.9635 106.022 79.048 106.622C80.1326 107.222 81.0119 107.969 81.7008 108.876V107.12C81.7008 106.841 81.7887 106.607 81.9646 106.417C82.1404 106.227 82.3749 106.124 82.6387 106.124H84.5294C84.8078 106.124 85.0423 106.227 85.2328 106.417C85.4234 106.607 85.526 106.841 85.526 107.12V126.998C85.526 128.828 85.2182 130.453 84.6026 131.873C83.9871 133.293 82.9758 134.42 81.5689 135.24C80.1326 136.045 78.2273 136.454 75.8531 136.454ZM75.7651 124.319C77.1281 124.319 78.2273 124.012 79.0627 123.383C79.8981 122.753 80.5136 121.963 80.9094 121.011C81.3051 120.06 81.5249 119.079 81.5396 118.098C81.5689 117.718 81.5835 117.249 81.5835 116.678C81.5835 116.122 81.5689 115.654 81.5396 115.258C81.5102 114.278 81.3051 113.312 80.9094 112.345C80.5136 111.394 79.8981 110.603 79.0627 109.974C78.2273 109.345 77.1281 109.037 75.7651 109.037C74.4021 109.037 73.303 109.345 72.4822 109.959C71.6615 110.574 71.0753 111.379 70.7235 112.375C70.3718 113.37 70.1666 114.439 70.108 115.595C70.0786 116.312 70.0786 117.03 70.108 117.762C70.1666 118.903 70.3718 119.987 70.7235 120.982C71.0753 121.977 71.6615 122.782 72.4822 123.397C73.303 124.012 74.4021 124.319 75.7651 124.319Z" fill="white"/>
<path d="M97.5585 127.847C96.1955 127.847 94.9497 127.569 93.8212 127.027C92.6927 126.486 91.7987 125.739 91.1099 124.817C90.4211 123.895 90.084 122.841 90.084 121.655C90.084 119.767 90.8461 118.274 92.385 117.147C93.9238 116.02 95.917 115.288 98.3792 114.936L104.491 114.073V112.887C104.491 111.57 104.11 110.545 103.362 109.813C102.615 109.081 101.384 108.7 99.6836 108.7C98.4818 108.7 97.4998 108.949 96.7231 109.432C95.961 109.93 95.4187 110.56 95.1256 111.321C94.9644 111.731 94.6713 111.936 94.2609 111.936H92.4143C92.1065 111.936 91.8866 111.848 91.7401 111.672C91.5935 111.496 91.5202 111.277 91.5202 111.043C91.5202 110.633 91.6815 110.12 91.9892 109.52C92.297 108.92 92.7953 108.335 93.4402 107.764C94.0997 107.193 94.9351 106.71 95.961 106.314C96.9869 105.919 98.2326 105.714 99.7129 105.714C101.354 105.714 102.732 105.919 103.861 106.344C104.989 106.768 105.868 107.339 106.513 108.042C107.158 108.759 107.627 109.564 107.906 110.457C108.199 111.365 108.331 112.272 108.331 113.209V126.486C108.331 126.764 108.243 126.984 108.067 127.159C107.891 127.335 107.656 127.423 107.393 127.423H105.502C105.194 127.423 104.974 127.335 104.798 127.159C104.637 126.984 104.549 126.749 104.549 126.486V124.729C104.198 125.227 103.714 125.71 103.113 126.178C102.512 126.662 101.765 127.057 100.856 127.364C99.9474 127.672 98.8775 127.847 97.5585 127.847ZM98.4232 124.773C99.5517 124.773 100.578 124.539 101.501 124.056C102.424 123.573 103.157 122.826 103.699 121.816C104.227 120.806 104.505 119.533 104.505 118.01V116.869L99.7422 117.571C97.793 117.849 96.342 118.303 95.3454 118.947C94.3635 119.591 93.8652 120.396 93.8652 121.392C93.8652 122.153 94.085 122.797 94.5394 123.295C94.9937 123.807 95.5653 124.173 96.2688 124.422C96.9576 124.656 97.6757 124.773 98.4232 124.773Z" fill="white"/>
<path d="M115.249 135.225C114.97 135.225 114.75 135.137 114.574 134.961C114.398 134.786 114.311 134.552 114.311 134.288V107.061C114.311 106.783 114.398 106.563 114.574 106.388C114.75 106.212 114.985 106.124 115.249 106.124H117.139C117.418 106.124 117.637 106.212 117.813 106.388C117.989 106.563 118.077 106.798 118.077 107.061V108.862C118.737 107.954 119.616 107.207 120.701 106.607C121.8 106.007 123.163 105.7 124.804 105.7C126.343 105.7 127.647 105.963 128.717 106.476C129.802 106.988 130.681 107.705 131.385 108.613C132.088 109.52 132.616 110.545 132.967 111.687C133.319 112.828 133.524 114.058 133.583 115.376C133.612 115.815 133.627 116.283 133.627 116.766C133.627 117.264 133.612 117.718 133.583 118.157C133.524 119.445 133.319 120.66 132.967 121.831C132.616 122.987 132.088 124.012 131.385 124.905C130.681 125.798 129.802 126.501 128.717 127.042C127.633 127.569 126.328 127.847 124.804 127.847C123.221 127.847 121.888 127.555 120.803 126.969C119.719 126.383 118.839 125.652 118.15 124.773V134.288C118.15 134.566 118.062 134.786 117.901 134.961C117.74 135.137 117.52 135.225 117.242 135.225H115.249ZM123.939 124.524C125.361 124.524 126.475 124.217 127.281 123.602C128.087 122.987 128.673 122.182 129.025 121.187C129.377 120.191 129.582 119.123 129.641 117.966C129.67 117.176 129.67 116.386 129.641 115.595C129.582 114.453 129.377 113.37 129.025 112.375C128.673 111.379 128.087 110.574 127.281 109.959C126.475 109.345 125.361 109.037 123.939 109.037C122.606 109.037 121.507 109.345 120.671 109.974C119.836 110.603 119.22 111.409 118.825 112.375C118.429 113.341 118.209 114.336 118.15 115.346C118.121 115.785 118.106 116.298 118.106 116.898C118.106 117.498 118.121 118.025 118.15 118.493C118.18 119.445 118.4 120.396 118.825 121.319C119.25 122.241 119.88 123.017 120.73 123.617C121.595 124.232 122.664 124.524 123.939 124.524Z" fill="white"/>
<path d="M147.462 127.847C145.381 127.847 143.651 127.452 142.244 126.662C140.852 125.871 139.782 124.773 139.049 123.368C138.317 121.963 137.906 120.352 137.818 118.552C137.789 118.084 137.774 117.498 137.774 116.766C137.774 116.049 137.789 115.463 137.818 115.024C137.906 113.194 138.317 111.584 139.064 110.194C139.812 108.803 140.896 107.705 142.288 106.915C143.681 106.124 145.41 105.729 147.462 105.729C149.514 105.729 151.243 106.124 152.635 106.915C154.028 107.705 155.098 108.803 155.86 110.194C156.607 111.584 157.032 113.194 157.106 115.024C157.135 115.463 157.149 116.049 157.149 116.766C157.149 117.483 157.135 118.084 157.106 118.552C157.018 120.352 156.607 121.963 155.874 123.368C155.142 124.773 154.072 125.871 152.679 126.662C151.272 127.452 149.543 127.847 147.462 127.847ZM147.462 124.685C149.162 124.685 150.51 124.144 151.522 123.061C152.533 121.977 153.075 120.396 153.163 118.332C153.192 117.923 153.207 117.41 153.207 116.781C153.207 116.151 153.192 115.639 153.163 115.229C153.075 113.151 152.533 111.57 151.522 110.501C150.51 109.418 149.162 108.876 147.462 108.876C145.762 108.876 144.399 109.418 143.373 110.501C142.347 111.584 141.805 113.165 141.746 115.229C141.717 115.639 141.702 116.151 141.702 116.781C141.702 117.41 141.717 117.923 141.746 118.332C141.805 120.411 142.347 121.992 143.373 123.061C144.399 124.158 145.762 124.685 147.462 124.685Z" fill="white"/>
<path d="M163.217 127.437C162.939 127.437 162.719 127.35 162.543 127.174C162.367 126.998 162.279 126.764 162.279 126.501V107.105C162.279 106.827 162.367 106.593 162.543 106.402C162.719 106.212 162.953 106.11 163.217 106.11H165.108C165.386 106.11 165.621 106.212 165.811 106.402C166.002 106.593 166.104 106.827 166.104 107.105V108.905C166.647 107.983 167.409 107.281 168.361 106.812C169.314 106.344 170.487 106.11 171.85 106.11H173.447C173.726 106.11 173.945 106.197 174.121 106.373C174.297 106.549 174.385 106.783 174.385 107.046V108.744C174.385 109.023 174.297 109.242 174.121 109.403C173.945 109.564 173.711 109.652 173.447 109.652H170.985C169.505 109.652 168.347 110.077 167.497 110.94C166.647 111.804 166.222 112.975 166.222 114.439V126.486C166.222 126.764 166.119 126.984 165.929 127.159C165.738 127.335 165.504 127.423 165.225 127.423H163.217V127.437Z" fill="white"/>
<path d="M185.992 127.847C183.149 127.847 180.892 126.984 179.221 125.242C177.55 123.5 176.642 121.143 176.466 118.128C176.437 117.776 176.422 117.308 176.422 116.752C176.422 116.195 176.437 115.727 176.466 115.376C176.568 113.429 177.023 111.731 177.814 110.267C178.606 108.803 179.69 107.676 181.082 106.885C182.46 106.095 184.087 105.7 185.948 105.7C188.029 105.7 189.773 106.139 191.18 107.017C192.587 107.895 193.657 109.14 194.405 110.75C195.137 112.36 195.518 114.248 195.518 116.4V117.103C195.518 117.41 195.431 117.63 195.255 117.805C195.079 117.966 194.844 118.054 194.581 118.054H180.379C180.379 118.084 180.379 118.142 180.379 118.215C180.379 118.289 180.379 118.362 180.379 118.42C180.438 119.547 180.687 120.587 181.112 121.553C181.551 122.519 182.182 123.309 183.017 123.91C183.852 124.51 184.834 124.817 185.948 124.817C186.93 124.817 187.751 124.671 188.41 124.363C189.07 124.056 189.598 123.734 190.008 123.353C190.418 122.987 190.697 122.695 190.829 122.475C191.078 122.153 191.268 121.948 191.4 121.875C191.532 121.802 191.752 121.772 192.06 121.772H194.068C194.317 121.772 194.522 121.846 194.698 121.992C194.874 122.138 194.947 122.358 194.918 122.621C194.888 123.031 194.668 123.529 194.258 124.115C193.848 124.7 193.261 125.286 192.514 125.856C191.767 126.427 190.829 126.896 189.729 127.276C188.645 127.657 187.384 127.847 185.992 127.847ZM180.364 115.229H191.605V115.112C191.605 113.882 191.386 112.785 190.931 111.833C190.477 110.882 189.832 110.12 188.982 109.564C188.132 109.008 187.121 108.73 185.948 108.73C184.776 108.73 183.764 109.008 182.929 109.564C182.094 110.12 181.464 110.882 181.024 111.833C180.584 112.785 180.364 113.882 180.364 115.112V115.229Z" fill="white"/>
</svg>
