<?xml version="1.0" encoding="utf-8"?>
<!-- Generator: Adobe Illustrator 26.4.0, SVG Export Plug-In . SVG Version: 6.00 Build 0)  -->
<svg version="1.1" id="Layer_1" xmlns="http://www.w3.org/2000/svg" xmlns:xlink="http://www.w3.org/1999/xlink" x="0px" y="0px"
	 viewBox="0 0 245 128" style="enable-background:new 0 0 245 128;" xml:space="preserve">
<style type="text/css">
	.st0{enable-background:new    ;}
	.st1{fill:#FFFFFF;}
</style>
<g class="st0">
	<path class="st1" d="M109.6,38.7c-0.3,0-0.6-0.1-0.8-0.3c-0.1-0.2-0.2-0.6-0.2-1v-3.6c0-0.6,0.2-1.1,0.7-1.7
		c0.4-0.6,1.1-0.9,1.9-1.2c0.8-0.3,1.7-0.4,2.7-0.4c1.1,0,2.1,0.1,3,0.3c0.9,0.2,1.7,0.4,2.3,0.7c0.8,0.2,1.5,0.4,2.3,0.7
		c0.8,0.2,1.7,0.3,2.8,0.3c0.8,0,1.5-0.2,2.1-0.6c0.6-0.3,1-0.7,1.3-0.9c0.1-0.1,0.2-0.1,0.3-0.2c0.1-0.1,0.2-0.1,0.4-0.1
		c0.3,0,0.7,0.1,0.8,0.3c0.1,0.2,0.2,0.6,0.2,1.1v3.6c0,0.6-0.2,1.1-0.7,1.7c-0.4,0.6-1.1,0.9-1.9,1.2c-0.8,0.3-1.7,0.4-2.7,0.4
		c-1.1,0-2-0.1-2.9-0.3c-0.9-0.2-1.7-0.4-2.3-0.7c-0.8-0.2-1.5-0.4-2.3-0.7c-0.8-0.2-1.8-0.3-2.8-0.3c-0.8,0-1.5,0.2-2.1,0.6
		c-0.6,0.3-1,0.7-1.3,0.9c-0.1,0.1-0.2,0.1-0.3,0.2S109.8,38.6,109.6,38.7z"/>
	<path class="st1" d="M145.2,48.9c-0.3,0-0.6-0.1-0.9-0.3c-0.2-0.2-0.3-0.6-0.3-0.9V16.7c0-0.3,0.1-0.7,0.3-0.9
		c0.2-0.2,0.6-0.3,0.9-0.3h5.2c0.6,0,0.9,0.1,1.2,0.4c0.2,0.2,0.4,0.4,0.4,0.7l8.4,15l8.4-15c0.1-0.1,0.2-0.3,0.6-0.7
		c0.2-0.2,0.7-0.4,1.2-0.4h5.1c0.3,0,0.7,0.1,0.9,0.3c0.2,0.2,0.3,0.6,0.3,0.9v31c0,0.3-0.1,0.6-0.3,0.9c-0.2,0.3-0.6,0.3-0.9,0.3
		h-5.6c-0.3,0-0.7-0.1-0.9-0.3c-0.2-0.2-0.3-0.6-0.3-0.9v-18l-5.3,9.9c-0.1,0.3-0.3,0.6-0.7,0.8c-0.2,0.2-0.6,0.3-1,0.3h-2.4
		c-0.4,0-0.8-0.1-1.1-0.3c-0.2-0.2-0.4-0.4-0.7-0.8l-5.4-9.9v17.9c0,0.3-0.1,0.6-0.3,0.9c-0.2,0.2-0.6,0.3-0.9,0.3H145.2z"/>
	<path class="st1" d="M196.4,49.3c-3,0-5.5-0.4-7.7-1.4c-2.2-1-3.9-2.4-5.1-4.3s-1.9-4.3-2-7.1c0-1.3,0-2.7,0-4.2s0-2.9,0-4.3
		c0.1-2.8,0.8-5.1,2-7.1s2.9-3.4,5.1-4.4c2.2-1,4.7-1.4,7.7-1.4c2.1,0,4.1,0.2,5.9,0.8c1.8,0.6,3.3,1.3,4.6,2.3
		c1.3,1,2.4,2.2,3.1,3.6c0.8,1.4,1.1,3,1.2,4.7c0,0.3-0.1,0.6-0.2,0.7c-0.2,0.2-0.4,0.3-0.8,0.3h-6.4c-0.4,0-0.8-0.1-1-0.2
		c-0.2-0.2-0.4-0.6-0.6-1c-0.4-1.7-1.2-2.9-2.2-3.4c-1-0.7-2.2-0.9-3.6-0.9c-1.8,0-3.1,0.4-4.2,1.4c-1,1-1.5,2.5-1.7,4.9
		c-0.1,2.7-0.1,5.3,0,8.1c0.1,2.2,0.7,3.9,1.7,4.9c1,1,2.4,1.4,4.2,1.4c1.4,0,2.7-0.3,3.8-1c1-0.7,1.8-1.8,2.1-3.4
		c0.1-0.4,0.3-0.8,0.6-1c0.2-0.2,0.6-0.2,1-0.2h6.4c0.3,0,0.6,0.1,0.8,0.3c0.2,0.2,0.3,0.4,0.2,0.7c0,1.8-0.4,3.4-1.2,4.7
		c-0.8,1.4-1.8,2.7-3.1,3.6c-1.3,1-2.9,1.8-4.6,2.3C200.4,49.1,198.5,49.3,196.4,49.3z"/>
	<path class="st1" d="M216.6,48.9c-0.3,0-0.7-0.1-0.9-0.3c-0.2-0.2-0.3-0.6-0.3-0.9V16.7c0-0.3,0.1-0.7,0.3-0.9
		c0.2-0.2,0.6-0.3,0.9-0.3h13.4c2.7,0,5,0.4,6.8,1.2c2,0.8,3.5,2,4.5,3.6c1.1,1.7,1.7,3.6,1.7,6.2c0,2.4-0.6,4.4-1.7,6.1
		c-1.1,1.5-2.7,2.8-4.5,3.5c-2,0.8-4.3,1.1-6.8,1.1h-5.6v10.5c0,0.3-0.1,0.6-0.3,0.9c-0.2,0.3-0.6,0.3-0.9,0.3h-6.5V48.9z
		 M224.1,30.6h5.6c1.3,0,2.4-0.3,3.3-1c0.8-0.7,1.2-1.8,1.2-3.2c0-1.2-0.3-2.2-1.1-3.1c-0.7-0.8-1.9-1.2-3.4-1.2h-5.6V30.6z"/>
	<path class="st1" d="M17.8,106.6c-3.2,0-5.9-0.4-8-1.3s-3.6-2.1-4.7-3.5c-1.1-1.4-1.7-3-1.8-4.6c0-0.2,0.1-0.4,0.3-0.7
		s0.4-0.3,0.8-0.3h6c0.4,0,0.8,0.1,1,0.2c0.2,0.1,0.4,0.3,0.7,0.7c0.2,0.4,0.7,0.9,1.1,1.4c0.4,0.4,1.1,0.8,1.9,1.1
		c0.8,0.2,1.7,0.4,2.8,0.4c1.9,0,3.2-0.3,4.2-0.9c0.9-0.6,1.4-1.3,1.4-2.3c0-0.8-0.2-1.3-0.8-1.8c-0.6-0.4-1.3-0.9-2.4-1.2
		c-1.1-0.3-2.7-0.8-4.5-1.1c-2.4-0.6-4.5-1.2-6.2-2c-1.7-0.8-3-1.9-3.9-3.2c-0.9-1.3-1.3-3-1.3-5s0.6-3.6,1.7-5.2
		c1.1-1.5,2.7-2.8,4.6-3.5c2-0.9,4.3-1.3,7-1.3c2.2,0,4.1,0.3,5.7,0.9c1.7,0.6,3.1,1.3,4.2,2.3c1.1,1,2,2,2.7,3
		c0.6,1.1,0.9,2.1,0.9,3.1c0,0.2-0.1,0.4-0.2,0.7c-0.2,0.2-0.4,0.3-0.8,0.3h-6.3c-0.3,0-0.7-0.1-0.9-0.2c-0.2-0.1-0.4-0.3-0.7-0.7
		c-0.2-0.7-0.7-1.3-1.5-1.9c-0.8-0.6-1.9-0.8-3.2-0.8c-1.4,0-2.5,0.2-3.3,0.8c-0.8,0.4-1.2,1.2-1.2,2.3c0,0.7,0.2,1.2,0.7,1.7
		c0.4,0.4,1.1,0.9,2.1,1.2c1,0.3,2.4,0.7,4.1,1.1c2.9,0.6,5.2,1.2,7,2c1.8,0.8,3.1,1.9,4,3.1c0.9,1.3,1.2,2.9,1.2,4.9
		c0,2.2-0.7,4-1.9,5.6c-1.2,1.5-3,2.8-5.1,3.6C23.1,106.2,20.7,106.6,17.8,106.6z"/>
	<path class="st1" d="M36.8,77.7c-0.3,0-0.7-0.1-0.9-0.3c-0.2-0.2-0.3-0.6-0.3-0.9v-4.3c0-0.3,0.1-0.6,0.3-0.9
		c0.2-0.2,0.6-0.3,0.9-0.3h5.7c0.3,0,0.6,0.1,0.9,0.3c0.2,0.2,0.3,0.6,0.3,0.9v4.3c0,0.3-0.1,0.7-0.3,0.9c-0.2,0.2-0.6,0.3-0.9,0.3
		H36.8z M36.8,106.1c-0.3,0-0.7-0.1-0.9-0.3c-0.2-0.2-0.3-0.6-0.3-0.9V82.5c0-0.3,0.1-0.7,0.3-0.9c0.2-0.2,0.6-0.3,0.9-0.3h5.6
		c0.3,0,0.7,0.1,0.9,0.3c0.2,0.2,0.3,0.6,0.3,0.9v22.3c0,0.3-0.1,0.6-0.3,0.9c-0.2,0.2-0.6,0.3-0.9,0.3
		C42.4,106.1,36.8,106.1,36.8,106.1z"/>
	<path class="st1" d="M49.6,106.1c-0.3,0-0.7-0.1-0.9-0.3c-0.2-0.2-0.3-0.6-0.3-0.9V82.5c0-0.3,0.1-0.7,0.3-0.9
		c0.2-0.2,0.6-0.3,0.9-0.3h5.5c0.3,0,0.7,0.1,0.9,0.3c0.2,0.2,0.3,0.6,0.3,0.9v1.8c0.8-1,1.9-1.8,3.2-2.4c1.3-0.7,2.9-1,4.7-1
		c1.9,0,3.4,0.4,4.9,1.2c1.4,0.8,2.5,2,3.3,3.6c0.8,1.5,1.2,3.5,1.2,6V105c0,0.3-0.1,0.6-0.3,0.9c-0.2,0.2-0.6,0.3-0.9,0.3h-6
		c-0.3,0-0.6-0.1-0.9-0.3c-0.2-0.2-0.3-0.6-0.3-0.9v-13c0-1.5-0.3-2.7-1.1-3.4c-0.7-0.9-1.7-1.3-3.1-1.3c-1.3,0-2.3,0.4-3.1,1.2
		s-1.2,2-1.2,3.4v13c0,0.3-0.1,0.6-0.3,0.9c-0.2,0.3-0.6,0.3-0.9,0.3C55.6,106.1,49.6,106.1,49.6,106.1z"/>
	<path class="st1" d="M90.4,116.6c-2.4,0-4.5-0.3-6.1-1c-1.7-0.7-2.9-1.4-3.9-2.3c-0.9-0.9-1.7-1.8-2-2.7c-0.4-0.9-0.7-1.5-0.7-2.1
		c0-0.3,0.1-0.7,0.3-0.9c0.2-0.2,0.6-0.3,0.9-0.3h6.1c0.3,0,0.6,0.1,0.8,0.2s0.3,0.4,0.4,0.8c0.2,0.3,0.4,0.7,0.7,1.1
		c0.2,0.3,0.7,0.7,1.1,0.9c0.4,0.2,1.2,0.3,2,0.3c1,0,1.8-0.1,2.4-0.4c0.7-0.3,1.1-0.8,1.4-1.4c0.3-0.7,0.4-1.5,0.4-2.8v-3.2
		c-0.8,0.8-1.7,1.4-2.8,1.9c-1.1,0.4-2.5,0.8-4.2,0.8c-1.7,0-3.1-0.2-4.3-0.7c-1.2-0.4-2.3-1.2-3.1-2.1c-0.8-1-1.4-2.1-1.9-3.5
		c-0.4-1.4-0.8-3-0.9-4.7c0-0.8,0-1.7,0-2.5c0.1-1.7,0.3-3.2,0.8-4.6c0.4-1.4,1.1-2.5,1.9-3.5c0.9-1,1.9-1.8,3.1-2.2
		c1.2-0.6,2.7-0.8,4.3-0.8c1.8,0,3.2,0.3,4.4,1c1.2,0.7,2.2,1.4,3,2.4v-1.8c0-0.3,0.1-0.6,0.3-0.9c0.2-0.2,0.6-0.3,0.9-0.3h5.5
		c0.3,0,0.7,0.1,0.9,0.3c0.2,0.2,0.3,0.6,0.3,0.9v23c0,2.4-0.4,4.4-1.4,6.1c-1,1.7-2.4,2.9-4.2,3.8S93.1,116.6,90.4,116.6z
		 M90.1,99.3c1,0,1.9-0.2,2.4-0.7c0.7-0.4,1.1-1,1.4-1.8c0.3-0.7,0.4-1.4,0.6-2.2c0-0.3,0-0.9,0-1.4c0-0.7,0-1.1,0-1.4
		c0-0.8-0.2-1.5-0.6-2.3c-0.3-0.7-0.8-1.2-1.4-1.7c-0.7-0.4-1.4-0.7-2.4-0.7c-1,0-1.9,0.2-2.5,0.7c-0.7,0.4-1.1,1.1-1.3,1.8
		c-0.2,0.8-0.4,1.7-0.6,2.5c0,0.7,0,1.4,0,2.1c0.1,0.9,0.2,1.8,0.6,2.5c0.2,0.8,0.7,1.3,1.3,1.8C88.2,99.1,89.1,99.3,90.1,99.3z"/>
	<path class="st1" d="M115.2,106.6c-1.8,0-3.2-0.3-4.6-1c-1.3-0.7-2.4-1.5-3.2-2.7c-0.8-1.1-1.2-2.3-1.2-3.8c0-2.2,0.9-4.1,2.8-5.4
		s4.3-2.2,7.3-2.7l6-0.9v-0.7c0-1.1-0.2-2-0.7-2.7c-0.4-0.7-1.3-0.9-2.7-0.9c-0.9,0-1.7,0.2-2.2,0.6s-1,0.8-1.3,1.4
		c-0.3,0.4-0.7,0.7-1.2,0.7h-5.3c-0.3,0-0.7-0.1-0.8-0.3c-0.1-0.2-0.2-0.4-0.2-0.8c0-0.6,0.2-1.2,0.7-2c0.4-0.8,1.1-1.4,2-2.2
		c0.9-0.8,2-1.3,3.4-1.8c1.4-0.4,3.1-0.7,5.1-0.7c2,0,3.8,0.2,5.2,0.7c1.4,0.4,2.7,1.1,3.5,2c0.9,0.9,1.5,1.9,2,3
		c0.4,1.1,0.7,2.4,0.7,3.9v14.4c0,0.3-0.1,0.6-0.3,0.9c-0.2,0.2-0.6,0.3-0.9,0.3h-5.5c-0.3,0-0.7-0.1-0.9-0.3
		c-0.2-0.2-0.3-0.6-0.3-0.9v-1.7c-0.4,0.6-1,1.2-1.7,1.7c-0.7,0.6-1.5,0.9-2.4,1.2S116.4,106.6,115.2,106.6z M117.4,101.1
		c0.9,0,1.8-0.2,2.5-0.6c0.8-0.4,1.3-1,1.8-1.9c0.4-0.9,0.7-1.9,0.7-3.2v-0.7l-4.1,0.7c-1.5,0.2-2.5,0.7-3.3,1.2
		c-0.7,0.6-1,1.1-1,1.9c0,0.6,0.1,1,0.4,1.4c0.3,0.3,0.8,0.7,1.2,0.9C116.2,101,116.7,101.1,117.4,101.1z"/>
	<path class="st1" d="M136.3,115.1c-0.3,0-0.7-0.1-0.9-0.3c-0.2-0.2-0.3-0.6-0.3-0.9V82.5c0-0.3,0.1-0.7,0.3-0.9
		c0.2-0.2,0.6-0.3,0.9-0.3h5.4c0.3,0,0.6,0.1,0.9,0.3c0.2,0.2,0.3,0.6,0.3,0.9v1.8c0.8-1,1.8-1.8,3-2.4c1.2-0.7,2.7-1,4.4-1
		c1.5,0,3,0.2,4.2,0.8c1.2,0.4,2.2,1.2,3.1,2.2c0.9,1,1.5,2.1,2,3.5c0.4,1.3,0.8,3,0.8,4.7c0,0.7,0,1.2,0,1.8s0,1.1,0,1.8
		c-0.1,1.8-0.3,3.3-0.8,4.6c-0.4,1.3-1.1,2.5-2,3.5c-0.9,1-1.9,1.7-3.1,2.2s-2.7,0.8-4.2,0.8c-1.5,0-2.9-0.3-4.1-0.9
		s-2.1-1.3-2.9-2.3v10.6c0,0.3-0.1,0.6-0.3,0.9c-0.2,0.2-0.6,0.3-0.9,0.3h-5.9V115.1z M147.7,100.2c1.1,0,1.9-0.2,2.5-0.7
		c0.6-0.4,1-1,1.3-1.8c0.2-0.8,0.4-1.7,0.6-2.5c0.1-1,0.1-2,0-3c-0.1-0.9-0.2-1.8-0.6-2.5c-0.2-0.8-0.7-1.3-1.3-1.8
		c-0.6-0.4-1.4-0.7-2.5-0.7c-1,0-1.9,0.2-2.4,0.7c-0.7,0.4-1.1,1.1-1.4,1.8c-0.3,0.8-0.4,1.5-0.6,2.4c0,0.6,0,1.2,0,1.8s0,1.2,0,1.8
		c0,0.8,0.2,1.5,0.6,2.2c0.3,0.7,0.8,1.2,1.4,1.7C145.8,100,146.7,100.2,147.7,100.2z"/>
	<path class="st1" d="M176,106.6c-2.7,0-5-0.4-6.7-1.3c-1.9-0.9-3.2-2.1-4.2-3.6c-1-1.5-1.5-3.5-1.7-5.7c0-0.7,0-1.3,0-2.2
		s0-1.5,0-2.1c0.1-2.2,0.7-4.2,1.8-5.7c1-1.5,2.4-2.8,4.3-3.6s4-1.3,6.6-1.3c2.7,0,4.9,0.4,6.6,1.3c1.9,0.9,3.2,2.1,4.3,3.6
		c1,1.5,1.5,3.5,1.8,5.7c0,0.6,0,1.3,0,2.1c0,0.8,0,1.5,0,2.2c-0.1,2.2-0.7,4.2-1.7,5.7s-2.3,2.9-4.2,3.6
		C181.1,106.1,178.7,106.6,176,106.6z M176,100.8c1.4,0,2.4-0.4,3.1-1.3c0.7-0.9,1-2.1,1.1-3.9c0-0.4,0-1.1,0-1.9c0-0.8,0-1.4,0-1.9
		c-0.1-1.7-0.4-3-1.1-3.9c-0.7-0.9-1.7-1.3-3.1-1.3c-1.3,0-2.4,0.4-3.1,1.3c-0.7,0.9-1.1,2.2-1.1,3.9c0,0.4,0,1.1,0,1.9
		c0,0.8,0,1.4,0,1.9c0.1,1.8,0.4,3,1.1,3.9S174.7,100.8,176,100.8z"/>
	<path class="st1" d="M193.8,106.1c-0.3,0-0.7-0.1-0.9-0.3c-0.2-0.2-0.3-0.6-0.3-0.9V82.5c0-0.3,0.1-0.6,0.3-0.9
		c0.2-0.2,0.6-0.3,0.9-0.3h5.5c0.3,0,0.7,0.1,0.9,0.3c0.2,0.2,0.3,0.6,0.3,0.9v1.9c0.8-1,1.9-1.8,3-2.3c1.2-0.6,2.5-0.8,4-0.8h2.1
		c0.3,0,0.7,0.1,0.9,0.3c0.2,0.2,0.3,0.6,0.3,0.9v4.9c0,0.3-0.1,0.6-0.3,0.9c-0.2,0.2-0.6,0.3-0.9,0.3H205c-1.3,0-2.3,0.3-3,1.1
		c-0.7,0.7-1.1,1.8-1.1,3v12.1c0,0.3-0.1,0.6-0.3,0.9c-0.2,0.3-0.6,0.3-0.9,0.3C199.7,106.1,193.8,106.1,193.8,106.1z"/>
	<path class="st1" d="M224.7,106.6c-3.8,0-6.7-1-8.9-3.1c-2.2-2-3.4-5.1-3.5-9.1c0-0.2,0-0.6,0-0.9s0-0.7,0-0.8
		c0.1-2.5,0.7-4.6,1.7-6.4c1-1.8,2.4-3.2,4.3-4.1c1.9-0.9,4-1.4,6.4-1.4c2.8,0,5.1,0.6,7,1.7c1.9,1.1,3.2,2.7,4.1,4.5
		c0.9,1.9,1.4,4.1,1.4,6.5v1.1c0,0.3-0.1,0.7-0.3,0.9c-0.2,0.2-0.6,0.3-0.9,0.3h-15.2V96c0,0.1,0,0.1,0,0.2c0,0.9,0.2,1.8,0.6,2.5
		c0.3,0.8,0.8,1.3,1.3,1.8c0.6,0.4,1.3,0.7,2.2,0.7c0.7,0,1.2-0.1,1.5-0.3c0.4-0.2,0.8-0.4,1.1-0.7c0.3-0.2,0.6-0.6,0.7-0.7
		c0.3-0.3,0.6-0.6,0.7-0.7c0.2-0.1,0.4-0.1,0.9-0.1h6c0.3,0,0.6,0.1,0.8,0.3c0.2,0.2,0.3,0.4,0.2,0.8c0,0.6-0.3,1.2-0.8,2
		c-0.6,0.8-1.2,1.5-2.2,2.3c-1,0.8-2.2,1.3-3.6,1.9C228.5,106.6,226.6,106.6,224.7,106.6z M220.7,91.2h8.1V91c0-1-0.1-2-0.4-2.7
		c-0.3-0.8-0.8-1.3-1.4-1.8s-1.3-0.7-2.2-0.7c-0.8,0-1.5,0.2-2.1,0.7s-1.1,1-1.4,1.8C220.9,89.2,220.7,90.1,220.7,91.2L220.7,91.2z"
		/>
</g>
</svg>
