<?xml version="1.0" encoding="utf-8"?>
<!-- Generator: Adobe Illustrator 26.4.0, SVG Export Plug-In . SVG Version: 6.00 Build 0)  -->
<svg version="1.1" id="Layer_1" xmlns="http://www.w3.org/2000/svg" xmlns:xlink="http://www.w3.org/1999/xlink" x="0px" y="0px"
	 viewBox="0 0 245 128" style="enable-background:new 0 0 245 128;" xml:space="preserve">
<style type="text/css">
	.st0{enable-background:new    ;}
	.st1{fill:#FFFFFF;}
</style>
<g class="st0">
	<path class="st1" d="M88.3,34.7c-0.4,0-0.7-0.1-0.8-0.4c-0.2-0.3-0.2-0.7-0.2-1.2V29c0-0.6,0.3-1.3,0.8-1.8c0.5-0.6,1.2-1,2.1-1.4
		c0.9-0.4,1.9-0.5,3-0.5c1.3,0,2.4,0.1,3.3,0.3c1,0.2,1.8,0.5,2.7,0.7c0.8,0.3,1.7,0.5,2.6,0.7c0.9,0.2,1.9,0.3,3.1,0.3
		c0.9,0,1.7-0.2,2.4-0.6c0.7-0.4,1.2-0.7,1.5-0.9c0.1-0.1,0.3-0.1,0.4-0.2c0.1-0.1,0.3-0.1,0.5-0.2c0.4,0,0.7,0.1,0.9,0.4
		c0.1,0.3,0.2,0.7,0.2,1.2v4.1c0,0.6-0.3,1.3-0.8,1.8c-0.5,0.6-1.2,1-2.1,1.4c-0.9,0.4-1.9,0.5-3,0.5c-1.2,0-2.3-0.1-3.3-0.3
		c-1-0.2-1.8-0.5-2.7-0.7c-0.8-0.3-1.7-0.5-2.6-0.7c-0.9-0.2-1.9-0.3-3.1-0.3c-0.9,0-1.7,0.2-2.4,0.6c-0.6,0.4-1.1,0.7-1.5,0.9
		c-0.1,0.1-0.3,0.1-0.4,0.2C88.7,34.6,88.5,34.7,88.3,34.7z"/>
	<path class="st1" d="M128.6,46.2c-0.4,0-0.7-0.1-0.9-0.4s-0.4-0.6-0.4-0.9v-35c0-0.4,0.1-0.7,0.4-1c0.3-0.3,0.6-0.4,0.9-0.4h5.8
		c0.6,0,1.1,0.2,1.3,0.5c0.3,0.3,0.5,0.5,0.5,0.7l9.5,17l9.5-17c0.1-0.2,0.3-0.4,0.6-0.7c0.3-0.3,0.7-0.5,1.3-0.5h5.8
		c0.4,0,0.7,0.1,1,0.4c0.3,0.3,0.4,0.6,0.4,1v35c0,0.4-0.1,0.7-0.4,0.9s-0.6,0.4-1,0.4h-6.4c-0.4,0-0.7-0.1-1-0.4s-0.4-0.6-0.4-0.9
		V24.7l-6,11.3c-0.2,0.3-0.4,0.6-0.7,0.9c-0.3,0.3-0.7,0.4-1.2,0.4h-2.8c-0.5,0-0.9-0.1-1.2-0.4c-0.3-0.3-0.5-0.5-0.7-0.9l-6.1-11.3
		v20.2c0,0.4-0.1,0.7-0.4,0.9s-0.6,0.4-1,0.4H128.6z"/>
	<path class="st1" d="M186.5,46.8c-3.4,0-6.3-0.6-8.7-1.7c-2.4-1.1-4.3-2.7-5.7-4.9c-1.3-2.2-2.1-4.8-2.2-8c0-1.5-0.1-3.1-0.1-4.7
		c0-1.7,0-3.3,0.1-4.9c0.1-3.1,0.9-5.8,2.3-8c1.4-2.2,3.3-3.8,5.7-5c2.4-1.1,5.3-1.7,8.7-1.7c2.4,0,4.6,0.3,6.6,0.9
		c2,0.6,3.8,1.5,5.3,2.6s2.7,2.5,3.5,4.1c0.8,1.6,1.3,3.4,1.3,5.4c0,0.3-0.1,0.6-0.3,0.8c-0.2,0.2-0.5,0.3-0.8,0.3h-7.3
		c-0.5,0-0.8-0.1-1.1-0.3c-0.3-0.2-0.5-0.6-0.6-1.1c-0.5-1.9-1.3-3.2-2.5-3.9c-1.1-0.7-2.5-1.1-4.2-1.1c-2,0-3.5,0.5-4.7,1.6
		c-1.2,1.1-1.8,2.9-1.9,5.5c-0.1,2.9-0.1,6,0,9.1c0.1,2.6,0.7,4.4,1.9,5.5c1.1,1.1,2.7,1.6,4.7,1.6c1.7,0,3.1-0.4,4.2-1.1
		c1.1-0.7,2-2,2.4-3.9c0.1-0.5,0.4-0.9,0.6-1.1c0.3-0.2,0.6-0.3,1.1-0.3h7.3c0.3,0,0.6,0.1,0.8,0.3c0.2,0.2,0.3,0.5,0.3,0.8
		c0,2-0.5,3.8-1.3,5.4c-0.8,1.6-2,3-3.5,4.1c-1.5,1.1-3.3,2-5.3,2.6C191,46.5,188.8,46.8,186.5,46.8z"/>
	<path class="st1" d="M209.3,46.2c-0.4,0-0.7-0.1-1-0.4c-0.3-0.3-0.4-0.6-0.4-0.9v-35c0-0.4,0.1-0.7,0.4-1c0.3-0.3,0.6-0.4,1-0.4
		h15.1c3,0,5.6,0.5,7.8,1.4c2.2,0.9,3.9,2.3,5.2,4.1c1.2,1.8,1.9,4.1,1.9,7c0,2.8-0.6,5-1.9,6.8c-1.2,1.8-3,3.1-5.2,4
		c-2.2,0.9-4.8,1.3-7.8,1.3h-6.4v11.8c0,0.4-0.1,0.7-0.4,0.9s-0.6,0.4-1,0.4H209.3z M217.8,25.6h6.3c1.5,0,2.8-0.4,3.7-1.2
		c0.9-0.8,1.4-2,1.4-3.6c0-1.4-0.4-2.5-1.2-3.4c-0.8-0.9-2.1-1.4-3.9-1.4h-6.3V25.6z"/>
	<path class="st1" d="M14.1,110.9c-0.4,0-0.7-0.1-1-0.4c-0.3-0.3-0.4-0.6-0.4-0.9v-35c0-0.4,0.1-0.7,0.4-1c0.3-0.3,0.6-0.4,1-0.4
		h16.4c3.1,0,5.6,0.4,7.6,1.3c2,0.9,3.4,2.1,4.4,3.7c1,1.6,1.4,3.5,1.4,5.7c0,1.3-0.2,2.4-0.7,3.4c-0.5,1-1.1,1.8-1.8,2.5
		c-0.7,0.6-1.4,1.1-2,1.4c1.4,0.6,2.6,1.7,3.6,3.2c1.1,1.5,1.6,3.2,1.6,5.2c0,2.4-0.5,4.4-1.6,6.1c-1.1,1.7-2.6,3-4.6,3.9
		c-2,0.9-4.5,1.4-7.5,1.4H14.1z M22.5,88.1h7c1.5,0,2.6-0.4,3.3-1.2c0.7-0.8,1.1-1.7,1.1-2.9s-0.4-2.1-1.1-2.8
		c-0.7-0.7-1.8-1.1-3.3-1.1h-7V88.1z M22.5,103.9H30c1.5,0,2.7-0.4,3.5-1.3c0.8-0.9,1.2-1.9,1.2-3.1c0-1.3-0.4-2.3-1.2-3.2
		c-0.8-0.9-2-1.3-3.5-1.3h-7.5V103.9z"/>
	<path class="st1" d="M57.6,111.4c-1.9,0-3.7-0.4-5.2-1.1c-1.5-0.7-2.7-1.7-3.6-3c-0.9-1.3-1.3-2.7-1.3-4.3c0-2.6,1-4.6,3.1-6.1
		c2.1-1.5,4.8-2.5,8.3-3l6.7-1v-0.8c0-1.3-0.3-2.3-0.8-3c-0.5-0.7-1.5-1-3-1c-1,0-1.8,0.2-2.5,0.6c-0.6,0.4-1.1,0.9-1.5,1.6
		c-0.3,0.5-0.8,0.7-1.3,0.7h-6c-0.4,0-0.7-0.1-0.9-0.3s-0.3-0.5-0.3-0.8c0-0.6,0.2-1.4,0.7-2.2c0.5-0.8,1.2-1.7,2.2-2.5
		c1-0.8,2.3-1.5,3.9-2c1.6-0.5,3.5-0.8,5.8-0.8c2.3,0,4.3,0.3,5.9,0.8c1.7,0.5,3,1.3,4,2.3c1,1,1.8,2.1,2.3,3.4s0.7,2.8,0.7,4.3
		v16.4c0,0.4-0.1,0.7-0.4,0.9c-0.3,0.3-0.6,0.4-0.9,0.4h-6.3c-0.4,0-0.7-0.1-1-0.4c-0.3-0.3-0.4-0.6-0.4-0.9v-1.9
		c-0.5,0.7-1.1,1.3-1.9,1.9c-0.8,0.6-1.7,1-2.8,1.4C60.2,111.3,59,111.4,57.6,111.4z M60.1,105.3c1,0,2-0.2,2.8-0.7
		c0.8-0.4,1.5-1.1,2-2.1c0.5-1,0.7-2.1,0.7-3.6v-0.8L61.1,99c-1.7,0.3-2.9,0.7-3.7,1.3c-0.8,0.6-1.2,1.3-1.2,2.1
		c0,0.6,0.2,1.1,0.5,1.6c0.4,0.4,0.8,0.8,1.4,1C58.8,105.2,59.5,105.3,60.1,105.3z"/>
	<path class="st1" d="M81.4,110.9c-0.4,0-0.7-0.1-1-0.4c-0.3-0.3-0.4-0.6-0.4-0.9V84.2c0-0.4,0.1-0.7,0.4-1c0.3-0.3,0.6-0.4,1-0.4
		h6.2c0.4,0,0.7,0.1,1,0.4s0.4,0.6,0.4,1v2c0.9-1.1,2.1-2,3.6-2.8c1.5-0.8,3.3-1.1,5.3-1.1c2.1,0,3.9,0.5,5.5,1.4
		c1.6,0.9,2.9,2.3,3.8,4.1c0.9,1.8,1.4,4,1.4,6.7v15c0,0.4-0.1,0.7-0.4,0.9c-0.3,0.3-0.6,0.4-1,0.4h-6.8c-0.4,0-0.7-0.1-0.9-0.4
		s-0.4-0.6-0.4-0.9V94.8c0-1.7-0.4-3-1.2-3.9c-0.8-0.9-2-1.4-3.6-1.4c-1.5,0-2.6,0.5-3.5,1.4c-0.9,0.9-1.3,2.2-1.3,3.9v14.7
		c0,0.4-0.1,0.7-0.4,0.9c-0.3,0.3-0.6,0.4-0.9,0.4H81.4z"/>
	<path class="st1" d="M127.6,122.7c-2.8,0-5.1-0.4-6.9-1.1c-1.8-0.7-3.3-1.6-4.3-2.6c-1.1-1-1.8-2-2.3-3c-0.5-1-0.7-1.8-0.8-2.3
		c0-0.4,0.1-0.7,0.4-1c0.3-0.3,0.6-0.4,1-0.4h6.8c0.4,0,0.6,0.1,0.9,0.3c0.2,0.2,0.4,0.5,0.5,0.9c0.2,0.4,0.5,0.8,0.8,1.2
		c0.3,0.4,0.7,0.8,1.3,1.1s1.3,0.4,2.3,0.4c1.1,0,2-0.2,2.7-0.5c0.7-0.3,1.3-0.9,1.6-1.7c0.4-0.8,0.5-1.8,0.5-3.1v-3.6
		c-0.8,0.9-1.9,1.6-3.2,2.2s-2.9,0.8-4.7,0.8c-1.8,0-3.4-0.3-4.9-0.8c-1.4-0.5-2.6-1.3-3.5-2.4c-0.9-1.1-1.7-2.4-2.2-3.9
		c-0.5-1.5-0.8-3.3-0.9-5.3c0-0.9,0-1.9,0-2.9c0.1-1.9,0.4-3.6,0.9-5.2c0.5-1.6,1.2-2.9,2.2-4c1-1.1,2.1-1.9,3.5-2.5
		c1.4-0.6,3-0.9,4.9-0.9c1.9,0,3.6,0.4,5,1.1s2.5,1.7,3.4,2.8v-2c0-0.4,0.1-0.7,0.4-0.9s0.6-0.4,1-0.4h6.2c0.4,0,0.7,0.1,1,0.4
		s0.4,0.6,0.4,0.9v25.9c0,2.7-0.5,5-1.6,6.9c-1.1,1.9-2.7,3.3-4.8,4.3S130.5,122.7,127.6,122.7z M127.2,103.3c1.1,0,2.1-0.3,2.8-0.8
		s1.2-1.1,1.6-1.9c0.3-0.8,0.5-1.6,0.6-2.5c0-0.4,0.1-1,0.1-1.7c0-0.7,0-1.3-0.1-1.6c0-0.9-0.2-1.8-0.6-2.6s-0.9-1.4-1.6-1.9
		s-1.7-0.7-2.8-0.7c-1.2,0-2.1,0.3-2.8,0.8c-0.7,0.5-1.2,1.2-1.5,2s-0.5,1.8-0.6,2.9c0,0.8,0,1.6,0,2.4c0.1,1,0.3,2,0.6,2.9
		s0.8,1.5,1.5,2C125.1,103,126,103.3,127.2,103.3z"/>
	<path class="st1" d="M148.4,110.9c-0.4,0-0.7-0.1-1-0.4c-0.3-0.3-0.4-0.6-0.4-0.9V74c0-0.4,0.1-0.7,0.4-1c0.3-0.3,0.6-0.4,1-0.4
		h6.3c0.4,0,0.7,0.1,0.9,0.4c0.3,0.3,0.4,0.6,0.4,1V92l7.5-8.2c0.2-0.2,0.4-0.5,0.7-0.6c0.3-0.2,0.6-0.3,1.1-0.3h7.2
		c0.3,0,0.6,0.1,0.8,0.4c0.2,0.2,0.4,0.5,0.4,0.8c0,0.1,0,0.3-0.1,0.5c-0.1,0.2-0.2,0.3-0.4,0.4l-9.7,10.5l11,13.4
		c0.3,0.3,0.4,0.6,0.4,0.8c0,0.4-0.1,0.7-0.3,0.9c-0.2,0.2-0.5,0.4-0.9,0.4h-7.4c-0.5,0-0.9-0.1-1.2-0.3c-0.3-0.2-0.5-0.4-0.7-0.6
		L156,99.7v9.8c0,0.4-0.1,0.7-0.4,0.9s-0.6,0.4-0.9,0.4H148.4z"/>
	<path class="st1" d="M189.7,111.4c-3,0-5.6-0.5-7.6-1.5c-2.1-1-3.6-2.4-4.7-4.2c-1.1-1.8-1.7-4-1.9-6.5c0-0.7-0.1-1.5-0.1-2.5
		s0-1.7,0.1-2.4c0.1-2.5,0.8-4.7,1.9-6.5c1.1-1.8,2.8-3.2,4.8-4.1c2.1-1,4.6-1.5,7.5-1.5c2.9,0,5.5,0.5,7.5,1.5
		c2.1,1,3.7,2.4,4.8,4.1c1.1,1.8,1.8,4,1.9,6.5c0,0.7,0.1,1.5,0.1,2.4s0,1.7-0.1,2.5c-0.1,2.5-0.8,4.7-1.9,6.5
		c-1.1,1.8-2.7,3.2-4.7,4.2C195.3,110.9,192.7,111.4,189.7,111.4z M189.7,104.9c1.6,0,2.8-0.5,3.5-1.5c0.7-1,1.2-2.4,1.3-4.4
		c0-0.5,0.1-1.3,0.1-2.2c0-0.9,0-1.6-0.1-2.2c-0.1-1.9-0.5-3.3-1.3-4.3c-0.7-1-1.9-1.5-3.5-1.5c-1.5,0-2.7,0.5-3.5,1.5
		c-0.8,1-1.2,2.4-1.3,4.3c0,0.5-0.1,1.3-0.1,2.2c0,0.9,0,1.6,0.1,2.2c0.1,1.9,0.5,3.4,1.3,4.4C187,104.4,188.1,104.9,189.7,104.9z"
		/>
	<path class="st1" d="M209.8,110.9c-0.4,0-0.7-0.1-1-0.4c-0.3-0.3-0.4-0.6-0.4-0.9V74c0-0.4,0.1-0.7,0.4-1c0.3-0.3,0.6-0.4,1-0.4
		h6.3c0.4,0,0.7,0.1,0.9,0.4c0.3,0.3,0.4,0.6,0.4,1V92l7.5-8.2c0.2-0.2,0.4-0.5,0.7-0.6c0.3-0.2,0.6-0.3,1.1-0.3h7.2
		c0.3,0,0.6,0.1,0.8,0.4c0.2,0.2,0.4,0.5,0.4,0.8c0,0.1,0,0.3-0.1,0.5c-0.1,0.2-0.2,0.3-0.4,0.4l-9.7,10.5l11,13.4
		c0.3,0.3,0.4,0.6,0.4,0.8c0,0.4-0.1,0.7-0.3,0.9c-0.2,0.2-0.5,0.4-0.9,0.4h-7.4c-0.5,0-0.9-0.1-1.2-0.3c-0.3-0.2-0.5-0.4-0.7-0.6
		l-8.5-10.2v9.8c0,0.4-0.1,0.7-0.4,0.9s-0.6,0.4-0.9,0.4H209.8z"/>
</g>
</svg>
