<?xml version="1.0" encoding="UTF-8"?>
<svg id="Layer_1" data-name="Layer 1" xmlns="http://www.w3.org/2000/svg" viewBox="0 0 98.91 132.25">
  <defs>
    <style>
      .cls-1 {
        letter-spacing: 0em;
      }

      .cls-2, .cls-3 {
        fill: #e10098;
      }

      .cls-4 {
        fill: #fff;
        font-family: PTSans-Regular, 'PT Sans';
        font-size: 38px;
      }

      .cls-3 {
        fill-rule: evenodd;
      }

      .cls-5 {
        letter-spacing: -.1em;
      }
    </style>
  </defs>
  <g>
    <g>
      <rect class="cls-2" x="-12.48" y="33.12" width="72.01" height="3.73" transform="translate(-18.54 37.86) rotate(-60)"/>
      <rect class="cls-2" x="3.16" y="60.25" width="72.01" height="3.73"/>
      <rect class="cls-2" x="21.66" y="50.33" width="3.73" height="41.59" transform="translate(-49.84 55.94) rotate(-60)"/>
      <rect class="cls-2" x="52.95" y="-3.86" width="3.73" height="41.59" transform="translate(12.75 55.94) rotate(-60)"/>
      <rect class="cls-2" x="2.74" y="15.05" width="41.59" height="3.73" transform="translate(-5.3 14.04) rotate(-30)"/>
      <rect class="cls-2" x="52.98" y="-1.02" width="3.73" height="72.01" transform="translate(-10.15 32.11) rotate(-30)"/>
      <rect class="cls-2" x="6.02" y="23.22" width="3.73" height="41.59"/>
      <rect class="cls-2" x="68.61" y="23.22" width="3.73" height="41.59"/>
      <rect class="cls-2" x="36.73" y="69.48" width="36.17" height="3.26" transform="translate(-28.21 36.94) rotate(-30)"/>
      <path class="cls-2" d="M77.28,66.03c-2.16,3.75-6.97,5.04-10.72,2.88s-5.04-6.97-2.88-10.72c2.16-3.75,6.97-5.04,10.72-2.88,3.78,2.18,5.06,6.97,2.88,10.72"/>
      <path class="cls-2" d="M14.65,29.86c-2.16,3.75-6.97,5.04-10.72,2.88C.17,30.58-1.11,25.76,1.05,22.01c2.16-3.75,6.97-5.04,10.72-2.88,3.75,2.18,5.04,6.97,2.88,10.72"/>
      <path class="cls-2" d="M1.07,66.03c-2.16-3.75-.88-8.54,2.88-10.72,3.75-2.16,8.54-.88,10.72,2.88,2.16,3.75,.88,8.54-2.88,10.72-3.78,2.16-8.57,.88-10.72-2.88"/>
      <path class="cls-2" d="M63.7,29.86c-2.16-3.75-.88-8.54,2.88-10.72,3.75-2.16,8.54-.88,10.72,2.88,2.16,3.75,.88,8.54-2.88,10.72-3.75,2.16-8.57,.88-10.72-2.88"/>
      <path class="cls-2" d="M39.18,88.04c-4.34,0-7.85-3.51-7.85-7.85s3.51-7.85,7.85-7.85,7.85,3.51,7.85,7.85-3.51,7.85-7.85,7.85"/>
      <path class="cls-2" d="M39.18,15.69c-4.34,0-7.85-3.51-7.85-7.85s3.51-7.85,7.85-7.85,7.85,3.51,7.85,7.85-3.51,7.85-7.85,7.85"/>
    </g>
    <g>
      <path class="cls-3" d="M35.45,47.97h7.44c1.42,0,2.62-1.06,2.79-2.48h-13.1c.18,1.41,1.38,2.47,2.79,2.48h.07Z"/>
      <path class="cls-3" d="M35.17,44.68h7.94c1.33-.1,2.42-1.13,2.58-2.47h-13.1c.16,1.35,1.26,2.37,2.58,2.47Z"/>
      <path class="cls-3" d="M35.17,41.4h7.93c1.33-.1,2.42-1.13,2.58-2.47h-13.1c.16,1.35,1.26,2.37,2.58,2.47Z"/>
      <path class="cls-3" d="M32.59,35.64c.18,1.41,1.38,2.47,2.79,2.48h7.51c1.42,0,2.62-1.06,2.79-2.48h-13.1Z"/>
      <path class="cls-3" d="M35.17,34.84h7.94c1.33-.1,2.42-1.13,2.58-2.47h-13.1c.16,1.35,1.26,2.37,2.58,2.47Z"/>
      <path class="cls-3" d="M35.17,31.55h7.94c1.33-.1,2.42-1.13,2.58-2.47h-13.1c.16,1.35,1.26,2.37,2.58,2.47Z"/>
      <path class="cls-3" d="M35.18,28.27h7.92c1.33-.1,2.41-1.13,2.58-2.47h-13.1c.17,1.34,1.27,2.37,2.6,2.47Z"/>
      <polygon class="cls-3" points="37.33 24.99 40.95 24.99 42.18 22.52 36.1 22.52 37.33 24.99"/>
      <g>
        <path class="cls-3" d="M40.38,58.75v-3.02c0-.67-.54-1.21-1.21-1.21h-.06c-.67,0-1.21,.54-1.21,1.21v3.02h2.48Z"/>
        <path class="cls-3" d="M37.09,58.75v-3.02c0-1.11,.9-2.01,2.01-2.01h.06c1.11,0,2.01,.9,2.01,2.01v3.02h3.46l-2.14-9.98h-6.73l-2.14,9.98h3.46Z"/>
      </g>
      <path class="cls-3" d="M38.41,21.65v-2c0-.4,.32-.73,.73-.73s.73,.32,.73,.73v2h-1.45Z"/>
    </g>
  </g>
  <text class="cls-4" transform="translate(2.74 122.94)"><tspan class="cls-5" x="0" y="0">T</tspan><tspan class="cls-1" x="17.1" y="0">aipei</tspan></text>
</svg>