<?xml version="1.0" encoding="utf-8"?>
<!-- Generator: Adobe Illustrator 26.4.0, SVG Export Plug-In . SVG Version: 6.00 Build 0)  -->
<svg version="1.1" id="Layer_1" xmlns="http://www.w3.org/2000/svg" xmlns:xlink="http://www.w3.org/1999/xlink" x="0px" y="0px"
	 viewBox="0 0 1797 585.4" style="enable-background:new 0 0 1797 585.4;" xml:space="preserve">
<style type="text/css">
	.st0{fill-rule:evenodd;clip-rule:evenodd;fill:#221A43;}
	.st1{fill:#221A43;}
	.st2{fill-rule:evenodd;clip-rule:evenodd;fill:#1261FD;}
</style>
<path class="st0" d="M418.9,398.2h52.3v-21.9h1.2c4.5,6.7,11,12.7,19.4,18.1c9.6,6.1,22.9,9,39.6,9c15.2,0,29.4-3.7,42.3-11.1l0,0
	l0,0c13-7.7,23.5-18.8,31.3-33.2c7.9-14.5,11.8-32,11.8-52.1v-5.9c0-20.2-3.9-37.6-11.8-52.1c-7.8-14.4-18.3-25.4-31.3-32.8
	c-13-7.6-27.1-11.4-42.3-11.4c-11.2,0-20.9,1.4-28.9,4.2c-7.6,2.5-14,5.9-19,10.1l0,0l0,0c-4.1,3.6-7.5,7.5-10.2,11.6H472v-95.5
	h-53.1V398.2z M550.5,264.8L550.5,264.8L550.5,264.8c8.7,8.2,13.2,20.5,13.2,37.4v3.7c0,16.9-4.6,29.3-13.2,37.7
	c-8.8,8.3-19.7,12.6-33.1,12.6c-13.3,0-24.3-4.2-33.1-12.6c-8.6-8.4-13.2-20.8-13.2-37.7v-3.7c0-16.9,4.6-29.2,13.2-37.3l0,0l0,0
	c8.8-8.6,19.7-12.9,33.1-12.9C531,251.9,542,256.2,550.5,264.8z"/>
<path class="st0" d="M677.1,392c14.9,7.6,31.7,11.4,50.2,11.4c18.5,0,35.3-3.8,50.2-11.4c15-7.6,26.8-18.7,35.4-33.1
	c8.7-14.5,12.9-31.9,12.9-51.9v-5.9c0-20-4.3-37.4-12.9-51.9c-8.6-14.5-20.5-25.5-35.4-33.1c-14.9-7.6-31.7-11.4-50.2-11.4
	c-18.5,0-35.3,3.8-50.2,11.4c-15,7.6-26.8,18.7-35.4,33.1c-8.7,14.5-12.9,31.9-12.9,51.9v5.9c0,20,4.3,37.4,12.9,51.9
	C650.3,373.3,662.1,384.3,677.1,392z M759.9,265.5L759.9,265.5L759.9,265.5c8.5,8.2,12.9,20.3,12.9,36.7v3.7
	c0,16.4-4.4,28.6-12.9,37c-8.5,8.3-19.3,12.5-32.7,12.5c-13.3,0-24.1-4.2-32.7-12.5c-8.4-8.4-12.9-20.6-12.9-37v-3.7
	c0-16.4,4.5-28.5,12.8-36.6l0,0l0,0c8.6-8.6,19.4-12.9,32.7-12.9C740.9,252.6,751.7,256.9,759.9,265.5z"/>
<path class="st0" d="M846.9,398.2h52.3v-21.9h1.2c4.5,6.7,11,12.7,19.4,18.1c9.6,6.1,22.9,9,39.6,9c15.2,0,29.3-3.7,42.3-11.1l0,0
	l0,0c13-7.7,23.5-18.8,31.3-33.2c7.9-14.5,11.8-32,11.8-52.1v-5.9c0-20.2-3.9-37.6-11.8-52.1c-7.8-14.4-18.3-25.4-31.3-32.8
	c-13-7.6-27.1-11.4-42.3-11.4c-11.2,0-20.9,1.4-28.9,4.2c-7.6,2.5-14,5.9-19,10.1l0,0l0,0c-4.1,3.6-7.5,7.5-10.2,11.6h-1.2v-95.5
	h-53.1V398.2z M978.5,264.8L978.5,264.8L978.5,264.8c8.7,8.2,13.2,20.5,13.2,37.4v3.7c0,16.9-4.6,29.3-13.2,37.7
	c-8.8,8.3-19.7,12.6-33.1,12.6c-13.3,0-24.3-4.2-33.1-12.6c-8.6-8.4-13.2-20.8-13.2-37.7v-3.7c0-16.9,4.6-29.2,13.2-37.3l0,0l0,0
	c8.8-8.6,19.7-12.9,33.1-12.9C959,251.9,969.9,256.2,978.5,264.8z"/>
<path class="st1" d="M1103.9,325.3l-49.1,12.7l0.5,3.1c3.3,19.9,13,35.4,28.9,46.2c15.8,10.7,36,16,60.1,16
	c23.7,0,42.9-5.2,57.3-16.1l0,0c14.9-11.2,22.2-27,22.2-47c0-13.3-3.4-24.2-10.7-32.3c-6.8-8.1-16.1-14.1-27.8-18.2
	c-11.2-4.2-23.7-7.6-37.5-10l-10.2-1.8c-8.1-1.4-14.2-3.4-18.6-5.8c-3.8-2.3-5.6-5.5-5.6-10.1c0-4.1,1.7-7.2,5.3-9.5l0.1,0l0.1,0
	c3.8-2.6,9.7-4.1,18.1-4.1c8.3,0,14.9,1.8,20,5.3l0,0l0,0c5.1,3.3,8.7,8.9,10.5,17.5l0.8,3.7l49.7-15.3l-0.9-3.3
	c-4.4-15.5-13.7-28-27.7-37.4c-14.1-9.5-31.7-14.1-52.4-14.1c-22,0-40.1,5-54,15.3c-14.2,10.2-21.2,25.1-21.2,44.1
	c0,12.6,3.4,23.2,10.3,31.5c6.7,8,15.6,14.3,26.6,18.9l0,0l0,0c10.7,4.2,22.5,7.6,35.4,10.1l0,0l10.3,1.8
	c10.6,1.9,17.8,4.4,22.1,7.2l0.1,0l0.1,0c3.8,2.3,5.6,5.5,5.6,9.8c0,4.3-1.9,8.1-6.3,11.5c-4.2,3-11.3,4.8-21.7,4.8
	c-6.7,0-12.9-0.9-18.6-2.7c-5.2-2-9.7-5.1-13.5-9.5c-3.4-4.3-6.1-10.4-7.7-18.6L1103.9,325.3z"/>
<path class="st1" d="M1242.7,135.2v263h53.1v-263H1242.7z"/>
<path class="st0" d="M1361.7,391.5L1361.7,391.5L1361.7,391.5c14.5,7.9,31.1,11.8,49.6,11.8c16.9,0,31.1-2.6,42.5-8l0,0l0,0
	c11-5.5,20-12.1,26.7-19.8c6.7-7.7,11.9-14.8,15.4-21.5l1.7-3.1l-44-23.1l-1.5,3.3c-3,6.4-7.3,12.2-13.1,17.6
	c-5.2,4.8-13.7,7.5-26.2,7.5c-11.9,0-21.8-3.6-29.9-10.8c-7.2-6.4-11.3-14.4-12.5-24.3h131.8v-19.2c0-19-3.7-35.8-11.4-50.3
	c-7.6-14.7-18.3-26.1-32-34.3c-13.8-8.4-29.9-12.6-48.2-12.6c-18.6,0-35,4-49.3,12.2c-14.2,7.9-25.3,19.2-33.2,33.9
	c-7.9,14.5-11.8,31.6-11.8,51v4.4c0,19.5,3.9,36.7,11.7,51.4l0,0l0,0C1336.3,372.1,1347.5,383.4,1361.7,391.5z M1436.9,260.5
	L1436.9,260.5L1436.9,260.5c5.9,5,9.6,11.3,11.1,19.1h-76.6c2-7.9,5.9-14.2,11.5-19.1c6.5-5.7,15.5-8.7,27.3-8.7
	C1421.6,251.9,1430.3,254.9,1436.9,260.5z"/>
<path class="st0" d="M1556,392.2L1556,392.2c13.2,7.4,27.3,11.1,42.3,11.1c16.9,0,30.2-2.8,39.6-9c8.4-5.4,14.9-11.4,19.4-18.1h1.2
	v21.9h52.3v-263h-53.1v95.5h-1.1c-2.6-4.1-6.1-8-10.4-11.6c-5.1-4.3-11.6-7.6-19.4-10.1c-7.8-2.9-17.4-4.2-28.6-4.2
	c-15.2,0-29.4,3.8-42.3,11.4c-13,7.4-23.5,18.4-31.3,32.8c-7.9,14.5-11.8,32-11.8,52.1v5.9c0,20.2,3.9,37.6,11.8,52.1
	C1532.5,373.5,1542.9,384.6,1556,392.2L1556,392.2z M1645.2,264.8L1645.2,264.8L1645.2,264.8c8.7,8.2,13.2,20.5,13.2,37.4v3.7
	c0,16.9-4.6,29.3-13.2,37.7c-8.8,8.3-19.7,12.6-33.1,12.6c-13.3,0-24.3-4.2-33.1-12.6c-8.6-8.4-13.2-20.8-13.2-37.7v-3.7
	c0-16.9,4.6-29.2,13.2-37.3l0,0l0,0c8.8-8.6,19.7-12.9,33.1-12.9C1625.8,251.9,1636.7,256.2,1645.2,264.8z"/>
<path class="st2" d="M108.7,99.4c17.5,0,31.7,14.2,31.7,31.7v28.2l0,9c0.4,29.5,24.4,53.2,54,53.2s53.5-23.8,54-53.2l0-9v-28.2
	c0-17.5,14.2-31.7,31.7-31.7c17.5,0,31.7,14.2,31.7,31.7v198.8c-0.1,64.8-52.6,117.2-117.3,117.2c-64.7,0-117.2-52.5-117.3-117.2
	V131.1C77,113.6,91.2,99.4,108.7,99.4z M194.5,387.7c32.3,0,58.5-26.2,58.5-58.5s-26.2-58.5-58.5-58.5s-58.5,26.2-58.5,58.5
	S162.2,387.7,194.5,387.7z"/>
</svg>
