<?xml version="1.0" encoding="utf-8"?>
<!-- Generator: Adobe Illustrator 26.4.0, SVG Export Plug-In . SVG Version: 6.00 Build 0)  -->
<svg version="1.1" id="Layer_2_00000171698807579852701060000010102281004964610958_"
	 xmlns="http://www.w3.org/2000/svg" xmlns:xlink="http://www.w3.org/1999/xlink" x="0px" y="0px" viewBox="0 0 237.4 206.9"
	 style="enable-background:new 0 0 237.4 206.9;" xml:space="preserve">
<style type="text/css">
	.st0{fill:none;stroke:#E4E4E4;stroke-width:2.5837;stroke-miterlimit:10;}
	.st1{fill:#FED76E;}
	.st2{fill:none;stroke:#FED76E;stroke-width:2.5837;stroke-miterlimit:10;}
	.st3{fill:#FFFFFF;}
	.st4{fill:#E4E4E4;stroke:#E4E4E4;stroke-width:2.5837;stroke-miterlimit:10;}
	.st5{fill:#00C0C6;stroke:#00C0C6;stroke-miterlimit:10;}
	.st6{fill:none;stroke:#00C0C6;stroke-width:2.5837;stroke-miterlimit:10;}
</style>
<g>
	<g>
		<g>
			<path class="st0" d="M211.4,101.4c0,52.3-41.4,94.7-92.4,94.7c-51,0-92.4-42.4-92.4-94.7c0-52.3,41.4-94.7,92.4-94.7
				C170,6.7,211.4,49.1,211.4,101.4z"/>
			<path class="st0" d="M165.1,101.4c0,52.3-20.7,94.7-46.2,94.7c-25.5,0-46.2-42.4-46.2-94.7c0-52.3,20.7-94.7,46.2-94.7
				C144.5,6.7,165.1,49.1,165.1,101.4z"/>
			<path class="st0" d="M187.8,38.3c-16.9,9.7-41.5,15.8-68.9,15.8c-27.4,0-52-6.1-68.9-15.8"/>
			<path class="st0" d="M50.1,164.6c16.9-9.7,41.5-15.8,68.9-15.8c27.4,0,52,6.1,68.9,15.8"/>
			<line class="st0" x1="26.5" y1="101.4" x2="211.4" y2="101.4"/>
			<line class="st0" x1="118.9" y1="6.7" x2="118.9" y2="196.1"/>
			<path class="st1" d="M87.7,101.4c0,8.5-6.7,15.3-15,15.3c-8.3,0-15-6.9-15-15.3c0-8.5,6.7-15.3,15-15.3
				C81,86.1,87.7,93,87.7,101.4"/>
			<path class="st2" d="M87.7,101.4c0,8.5-6.7,15.3-15,15.3c-8.3,0-15-6.9-15-15.3c0-8.5,6.7-15.3,15-15.3
				C81,86.1,87.7,93,87.7,101.4z"/>
			<path class="st3" d="M172.6,153.1c0,8.5-6.7,15.3-14.9,15.3c-8.3,0-15-6.9-15-15.3c0-8.5,6.7-15.3,15-15.3
				C165.9,137.8,172.6,144.7,172.6,153.1"/>
			<path class="st4" d="M172.6,153.1c0,8.5-6.7,15.3-14.9,15.3c-8.3,0-15-6.9-15-15.3c0-8.5,6.7-15.3,15-15.3
				C165.9,137.8,172.6,144.7,172.6,153.1z"/>
			<path class="st5" d="M133.9,54.1c0,8.5-6.7,15.3-15,15.3c-8.3,0-15-6.9-15-15.3c0-8.5,6.7-15.3,15-15.3
				C127.2,38.8,133.9,45.6,133.9,54.1"/>
			<path class="st6" d="M133.9,54.1c0,8.5-6.7,15.3-15,15.3c-8.3,0-15-6.9-15-15.3c0-8.5,6.7-15.3,15-15.3
				C127.2,38.8,133.9,45.6,133.9,54.1z"/>
		</g>
	</g>
</g>
</svg>
