<?xml version="1.0" encoding="utf-8"?>
<!-- Generator: Adobe Illustrator 26.4.0, SVG Export Plug-In . SVG Version: 6.00 Build 0)  -->
<svg version="1.1" id="Layer_1" xmlns="http://www.w3.org/2000/svg" xmlns:xlink="http://www.w3.org/1999/xlink" x="0px" y="0px"
	 viewBox="0 0 1990 585.4" style="enable-background:new 0 0 1990 585.4;" xml:space="preserve">
<style type="text/css">
	.st0{fill:#008844;}
	.st1{fill:#018844;}
	.st2{fill:none;}
</style>
<rect x="221.2" y="205.2" class="st0" width="211.8" height="28.8"/>
<g>
	<polygon class="st1" points="471.6,177.5 500,161.4 446.3,68.3 340.1,68.3 340.1,101 427.4,101 	"/>
	<polygon class="st1" points="118.3,279.5 162,203.9 133.8,187.4 80.6,279.5 132.1,368.5 160.5,352.5 	"/>
	<polygon class="st1" points="176.9,380.7 148.4,396.7 202.5,490.3 307.4,490.3 307.4,457.6 221.3,457.6 	"/>
	<polygon class="st1" points="516.4,189.9 487.9,205.9 530.4,279.5 486.4,355.6 514.6,372.1 568.2,279.5 	"/>
</g>
<rect x="238.5" y="265.6" class="st0" width="75.2" height="28.8"/>
<rect x="313.5" y="320.5" class="st0" width="87.7" height="28.8"/>
<circle class="st1" cx="215.3" cy="104.5" r="42.2"/>
<circle class="st1" cx="427" cy="442" r="42.2"/>
<rect x="856.2" y="289.4" class="st2" width="2.7" height="0"/>
<g>
	<path class="st1" d="M674.3,364.5c-1.9,0-3.5-0.7-4.7-2c-1.2-1.3-1.8-2.8-1.8-4.6V188.7c0-1.9,0.6-3.5,1.8-4.7
		c1.2-1.2,2.8-1.8,4.7-1.8H742c17,0,31.5,2.7,43.5,8.2c12,5.5,21.2,13.5,27.6,24c6.4,10.5,9.9,23.5,10.4,38.9
		c0.2,7.6,0.3,14.3,0.3,20.1c0,5.7-0.1,12.3-0.3,19.8c-0.7,16.1-4.1,29.5-10.3,40.1c-6.2,10.6-15.1,18.5-26.8,23.6
		c-11.7,5.1-26.1,7.7-43.1,7.7H674.3z M714.6,327H742c7.5,0,13.7-1.2,18.6-3.5c4.9-2.3,8.7-6,11.2-11.1c2.5-5,3.9-11.6,4-19.8
		c0.3-5,0.6-9.5,0.7-13.5c0.1-4,0.1-8,0-12c-0.1-4-0.3-8.4-0.7-13.3c-0.4-11.8-3.4-20.4-9.2-25.9c-5.8-5.5-14.5-8.2-25.9-8.2h-26
		V327z"/>
	<path class="st1" d="M913.9,367.1c-20.5,0-36.8-5.6-49-16.7c-12.2-11.1-18.5-27.6-19-49.5c0-1.2,0-2.8,0-4.7c0-1.9,0-3.4,0-4.4
		c0.5-13.7,3.6-25.5,9.2-35.3c5.6-9.8,13.5-17.3,23.4-22.4c10-5.1,21.7-7.7,35-7.7c15.3,0,27.9,3,37.9,9.1
		c10,6.1,17.5,14.3,22.5,24.7c5,10.4,7.6,22.3,7.6,35.7v6.3c0,1.9-0.6,3.5-1.8,4.7c-1.2,1.2-2.8,1.8-4.7,1.8h-83.3
		c0,0.2,0,0.4,0,0.8c0,0.4,0,0.7,0,1c0.2,5,1.1,9.6,2.7,13.8c1.6,4.2,4.1,7.5,7.3,9.9c3.2,2.4,7.2,3.6,11.8,3.6
		c3.5,0,6.4-0.6,8.7-1.7c2.3-1.1,4.3-2.4,5.9-3.9c1.6-1.5,2.8-2.7,3.6-3.8c1.6-1.9,2.8-3.1,3.8-3.5c1-0.4,2.5-0.7,4.6-0.7h32.3
		c1.7,0,3.2,0.5,4.3,1.6c1.1,1,1.6,2.4,1.4,4.2c-0.2,3-1.7,6.5-4.4,10.7c-2.8,4.2-6.8,8.3-12.1,12.4c-5.3,4.1-11.9,7.4-19.9,10
		C933.7,365.8,924.4,367.1,913.9,367.1z M891.7,283h44v-0.5c0-5.7-0.8-10.6-2.5-14.7c-1.7-4.1-4.2-7.2-7.6-9.5
		c-3.4-2.3-7.4-3.4-12.1-3.4c-4.5,0-8.4,1.1-11.7,3.4c-3.3,2.3-5.8,5.4-7.6,9.5c-1.7,4.1-2.6,9-2.6,14.7V283z"/>
	<path class="st1" d="M1088.9,367.1c-9.6,0-17.6-1.7-24.2-4.9c-6.6-3.3-12-7.5-16.1-12.5v8.3c0,1.7-0.7,3.3-2,4.6
		c-1.3,1.3-2.8,2-4.6,2h-29.4c-1.9,0-3.5-0.7-4.7-2c-1.2-1.3-1.8-2.8-1.8-4.6V186.1c0-1.9,0.6-3.5,1.8-4.7c1.2-1.2,2.8-1.8,4.7-1.8
		h31.8c1.9,0,3.5,0.6,4.7,1.8c1.2,1.2,1.8,2.8,1.8,4.7v55.7c4.3-4.5,9.6-8.2,15.9-11.1c6.3-2.9,13.6-4.3,22.1-4.3
		c8.7,0,16.4,1.4,23,4.3c6.7,2.9,12.4,6.9,17.1,12.2c4.7,5.3,8.3,11.7,10.9,19.3s4.1,15.9,4.4,25.1c0.2,3.5,0.3,6.6,0.3,9.2
		c0,2.7-0.1,5.8-0.3,9.2c-0.3,9.7-1.8,18.4-4.4,25.9s-6.3,14-11.1,19.3c-4.8,5.3-10.5,9.3-17.1,12
		C1105.2,365.8,1097.5,367.1,1088.9,367.1z M1074.8,332.2c5.9,0,10.5-1.2,13.8-3.6c3.3-2.4,5.7-5.7,7.2-9.9
		c1.5-4.2,2.4-8.8,2.7-13.8c0.3-5.4,0.3-10.8,0-16.1c-0.3-5-1.3-9.6-2.7-13.8c-1.5-4.2-3.9-7.5-7.2-9.9c-3.3-2.4-7.9-3.6-13.8-3.6
		c-5.4,0-9.8,1.2-13.3,3.5c-3.5,2.3-6.1,5.4-7.8,9.1c-1.7,3.7-2.7,7.8-2.9,12.1c-0.2,3.3-0.3,6.5-0.3,9.6s0.1,6.4,0.3,9.9
		c0.3,4.7,1.3,9,2.9,13c1.6,4,4.1,7.3,7.6,9.8C1064.7,331,1069.2,332.2,1074.8,332.2z"/>
	<path class="st1" d="M1220.1,367.1c-9.9,0-18.7-2.3-26.4-6.8c-7.7-4.5-13.8-11.2-18.1-19.9c-4.3-8.8-6.5-19.5-6.5-32.2v-72.7
		c0-1.9,0.6-3.5,1.8-4.7c1.2-1.2,2.8-1.8,4.7-1.8h32.6c1.9,0,3.5,0.6,4.8,1.8c1.3,1.2,2,2.8,2,4.7v71.1c0,17,7.6,25.5,22.7,25.5
		c7.1,0,12.8-2.2,17.1-6.6c4.3-4.4,6.4-10.7,6.4-18.9v-71.1c0-1.9,0.6-3.5,1.8-4.7c1.2-1.2,2.8-1.8,4.7-1.8h32.6
		c1.9,0,3.5,0.6,4.7,1.8c1.2,1.2,1.8,2.8,1.8,4.7V358c0,1.7-0.6,3.3-1.8,4.6c-1.2,1.3-2.8,2-4.7,2h-30.2c-1.7,0-3.3-0.7-4.6-2
		c-1.3-1.3-2-2.8-2-4.6v-9.9c-4.5,6.2-10.4,11-17.6,14.2C1238.6,365.5,1230,367.1,1220.1,367.1z"/>
	<path class="st1" d="M1403.7,421.8c-13.4,0-24.4-1.7-33.2-5.2c-8.8-3.5-15.7-7.6-20.8-12.5c-5.1-4.9-8.8-9.7-11.1-14.5
		c-2.3-4.8-3.5-8.6-3.6-11.3c-0.2-1.9,0.4-3.5,1.8-4.8c1.4-1.3,3-2,4.9-2h33.1c1.7,0,3.1,0.4,4.2,1.3c1,0.9,1.9,2.3,2.6,4.2
		c1,1.9,2.3,3.9,3.6,5.9c1.4,2,3.4,3.7,6.1,5.1c2.7,1.4,6.4,2.1,11.1,2.1c5.2,0,9.5-0.8,13-2.5c3.5-1.7,6.1-4.3,7.8-8.1
		c1.7-3.7,2.6-8.7,2.6-15v-17.4c-4,4.3-9.1,7.9-15.4,10.5c-6.2,2.7-13.8,4-22.7,4c-8.9,0-16.7-1.3-23.4-3.9s-12.4-6.5-16.9-11.7
		c-4.5-5.2-8-11.5-10.5-19c-2.5-7.5-4-16.1-4.6-25.8c-0.2-4.5-0.2-9.1,0-13.8c0.5-9.2,2-17.6,4.4-25.1c2.4-7.6,5.9-14,10.5-19.3
		c4.6-5.3,10.3-9.4,17.1-12.2c6.8-2.9,14.6-4.3,23.4-4.3c9.4,0,17.4,1.8,24.1,5.3c6.7,3.6,12.2,8,16.5,13.4v-9.6
		c0-1.7,0.6-3.3,1.8-4.6c1.2-1.3,2.8-2,4.7-2h30c1.9,0,3.5,0.7,4.8,2c1.3,1.3,2,2.8,2,4.6v125.3c0,13.2-2.6,24.3-7.9,33.3
		c-5.3,9-13,15.9-23.2,20.6C1430.4,419.5,1418.1,421.8,1403.7,421.8z M1401.9,327.8c5.6,0,10.1-1.2,13.5-3.6c3.5-2.4,6-5.6,7.7-9.4
		c1.6-3.8,2.6-7.9,2.7-12.2c0.2-1.9,0.3-4.6,0.3-8.1c0-3.5-0.1-6.1-0.3-7.8c-0.2-4.5-1.1-8.7-2.7-12.5c-1.7-3.8-4.2-6.9-7.7-9.2
		c-3.5-2.3-8-3.5-13.5-3.5c-5.7,0-10.3,1.2-13.7,3.6c-3.4,2.4-5.8,5.7-7.3,9.9c-1.5,4.2-2.4,8.8-2.7,13.8c-0.2,3.8-0.2,7.7,0,11.7
		c0.3,5,1.3,9.6,2.7,13.8c1.5,4.2,3.9,7.5,7.3,9.9C1391.6,326.6,1396.2,327.8,1401.9,327.8z"/>
	<path class="st1" d="M1568.8,421.8c-13.4,0-24.4-1.7-33.2-5.2c-8.8-3.5-15.7-7.6-20.8-12.5c-5.1-4.9-8.8-9.7-11.1-14.5
		c-2.3-4.8-3.5-8.6-3.6-11.3c-0.2-1.9,0.4-3.5,1.8-4.8c1.4-1.3,3-2,4.9-2h33.1c1.7,0,3.1,0.4,4.2,1.3c1,0.9,1.9,2.3,2.6,4.2
		c1,1.9,2.3,3.9,3.6,5.9c1.4,2,3.4,3.7,6.1,5.1c2.7,1.4,6.4,2.1,11.1,2.1c5.2,0,9.5-0.8,13-2.5c3.5-1.7,6.1-4.3,7.8-8.1
		c1.7-3.7,2.6-8.7,2.6-15v-17.4c-4,4.3-9.1,7.9-15.4,10.5c-6.2,2.7-13.8,4-22.7,4c-8.9,0-16.7-1.3-23.4-3.9s-12.4-6.5-16.9-11.7
		c-4.5-5.2-8-11.5-10.5-19c-2.5-7.5-4-16.1-4.6-25.8c-0.2-4.5-0.2-9.1,0-13.8c0.5-9.2,2-17.6,4.4-25.1c2.4-7.6,5.9-14,10.5-19.3
		c4.6-5.3,10.3-9.4,17.1-12.2c6.8-2.9,14.6-4.3,23.4-4.3c9.4,0,17.4,1.8,24.1,5.3c6.7,3.6,12.2,8,16.5,13.4v-9.6
		c0-1.7,0.6-3.3,1.8-4.6c1.2-1.3,2.8-2,4.7-2h30c1.9,0,3.5,0.7,4.8,2c1.3,1.3,2,2.8,2,4.6v125.3c0,13.2-2.6,24.3-7.9,33.3
		c-5.3,9-13,15.9-23.2,20.6C1595.5,419.5,1583.3,421.8,1568.8,421.8z M1567,327.8c5.6,0,10.1-1.2,13.5-3.6c3.5-2.4,6-5.6,7.7-9.4
		c1.6-3.8,2.6-7.9,2.7-12.2c0.2-1.9,0.3-4.6,0.3-8.1c0-3.5-0.1-6.1-0.3-7.8c-0.2-4.5-1.1-8.7-2.7-12.5c-1.7-3.8-4.2-6.9-7.7-9.2
		c-3.5-2.3-8-3.5-13.5-3.5c-5.7,0-10.3,1.2-13.7,3.6c-3.4,2.4-5.8,5.7-7.3,9.9c-1.5,4.2-2.4,8.8-2.7,13.8c-0.2,3.8-0.2,7.7,0,11.7
		c0.3,5,1.3,9.6,2.7,13.8c1.5,4.2,3.9,7.5,7.3,9.9C1556.7,326.6,1561.3,327.8,1567,327.8z"/>
	<path class="st1" d="M1730,367.1c-20.5,0-36.8-5.6-49-16.7c-12.2-11.1-18.5-27.6-19-49.5c0-1.2,0-2.8,0-4.7c0-1.9,0-3.4,0-4.4
		c0.5-13.7,3.6-25.5,9.2-35.3c5.6-9.8,13.5-17.3,23.4-22.4c10-5.1,21.7-7.7,35-7.7c15.3,0,27.9,3,37.9,9.1
		c10,6.1,17.5,14.3,22.5,24.7c5,10.4,7.6,22.3,7.6,35.7v6.3c0,1.9-0.6,3.5-1.8,4.7c-1.2,1.2-2.8,1.8-4.7,1.8h-83.3
		c0,0.2,0,0.4,0,0.8c0,0.4,0,0.7,0,1c0.2,5,1.1,9.6,2.7,13.8c1.6,4.2,4.1,7.5,7.3,9.9c3.2,2.4,7.2,3.6,11.9,3.6
		c3.5,0,6.4-0.6,8.7-1.7c2.3-1.1,4.3-2.4,5.9-3.9c1.6-1.5,2.8-2.7,3.6-3.8c1.6-1.9,2.8-3.1,3.8-3.5c1-0.4,2.5-0.7,4.6-0.7h32.3
		c1.7,0,3.2,0.5,4.3,1.6c1.1,1,1.6,2.4,1.4,4.2c-0.2,3-1.7,6.5-4.4,10.7c-2.8,4.2-6.8,8.3-12.1,12.4c-5.3,4.1-11.9,7.4-19.9,10
		C1749.9,365.8,1740.6,367.1,1730,367.1z M1707.9,283h44v-0.5c0-5.7-0.8-10.6-2.5-14.7c-1.7-4.1-4.2-7.2-7.6-9.5
		c-3.4-2.3-7.4-3.4-12.1-3.4c-4.5,0-8.4,1.1-11.7,3.4c-3.3,2.3-5.8,5.4-7.6,9.5c-1.7,4.1-2.6,9-2.6,14.7V283z"/>
	<path class="st1" d="M1828.8,364.5c-1.9,0-3.5-0.7-4.7-2c-1.2-1.3-1.8-2.8-1.8-4.6V235.6c0-1.7,0.6-3.3,1.8-4.6
		c1.2-1.3,2.8-2,4.7-2h30c1.9,0,3.5,0.7,4.8,2c1.3,1.3,2,2.8,2,4.6V246c4.5-5.4,10-9.5,16.5-12.5c6.5-3,13.8-4.4,22-4.4h11.5
		c1.9,0,3.5,0.6,4.7,1.8c1.2,1.2,1.8,2.8,1.8,4.7v26.8c0,1.7-0.6,3.3-1.8,4.6c-1.2,1.3-2.8,2-4.7,2h-25.3c-7.1,0-12.6,2-16.5,5.9
		c-3.9,3.9-5.9,9.4-5.9,16.5V358c0,1.7-0.7,3.3-2,4.6c-1.3,1.3-2.9,2-4.8,2H1828.8z"/>
</g>
</svg>
