<?xml version="1.0" encoding="utf-8"?>
<!-- Generator: Adobe Illustrator 26.4.0, SVG Export Plug-In . SVG Version: 6.00 Build 0)  -->
<svg version="1.1" id="Layer_1" xmlns="http://www.w3.org/2000/svg" xmlns:xlink="http://www.w3.org/1999/xlink" x="0px" y="0px"
	 viewBox="0 0 103.3 99.7" style="enable-background:new 0 0 103.3 99.7;" xml:space="preserve">
<style type="text/css">
	.st0{fill:#FFFFFF;stroke:#FFFFFF;stroke-miterlimit:10;}
	.st1{fill:#FFD76E;}
	.st2{fill:#27BDC3;}
	.st3{fill:#1A2735;}
</style>
<rect x="0.2" y="0" class="st0" width="102.7" height="98.9"/>
<g id="d">
	<rect x="18" y="63.6" class="st1" width="24" height="29.3"/>
	<rect x="46.8" y="7.6" class="st2" width="35.8" height="35.8"/>
	<g>
		<path class="st3" d="M49.1,63.7H37.3v26.4H22.4V17.9h26.8c8.5,0,15.1,1.9,19.8,5.7c4.6,3.8,6.9,9.2,6.9,16.1c0,4.9-1.1,9-3.2,12.3
			C70.6,55.4,67.4,58,63,60l15.6,29.5v0.7h-16L49.1,63.7z M37.3,51.7h12c3.7,0,6.6-1,8.7-2.9c2.1-1.9,3.1-4.5,3.1-7.9
			c0-3.4-1-6.1-2.9-8c-1.9-2-4.9-2.9-8.9-2.9h-12V51.7z"/>
	</g>
</g>
</svg>
