<?xml version="1.0" encoding="utf-8"?>
<!-- Generator: Adobe Illustrator 26.4.0, SVG Export Plug-In . SVG Version: 6.00 Build 0)  -->
<svg version="1.1" id="Layer_1" xmlns="http://www.w3.org/2000/svg" xmlns:xlink="http://www.w3.org/1999/xlink" x="0px" y="0px"
	 viewBox="0 0 1660.2 585.4" style="enable-background:new 0 0 1660.2 585.4;" xml:space="preserve">
<style type="text/css">
	.st0{fill-rule:evenodd;clip-rule:evenodd;fill:#E10098;}
	.st1{fill:#E10098;}
	.st2{fill:#E535AB;}
</style>
<path class="st0" d="M293.2,39.5l216.7,125v250.3l-216.7,125l-216.7-125V164.5L293.2,39.5z M100.8,178.7v183.8L260,86.7L100.8,178.7
	z M293.2,77.9L109.7,395.7h367L293.2,77.9z M452.4,420H134l159.2,92L452.4,420z M485.6,362.5L326.4,86.7l159.2,92V362.5z"/>
<path class="st1" d="M293.2,104.7c28.4,0,51.2-22.9,51.2-51.2S321.6,2.2,293.2,2.2c-28.4,0-51.2,22.9-51.2,51.2
	C242,81.8,264.9,104.7,293.2,104.7z"/>
<path class="st1" d="M497.7,222.8c28.4,0,51.2-22.9,51.2-51.2s-22.9-51.2-51.2-51.2c-28.4,0-51.2,22.9-51.2,51.2
	S469.5,222.8,497.7,222.8z"/>
<path class="st1" d="M497.7,459c28.4,0,51.2-22.9,51.2-51.2s-22.9-51.2-51.2-51.2c-28.4,0-51.2,22.9-51.2,51.2
	C446.6,436.1,469.5,459,497.7,459z"/>
<path class="st1" d="M293.2,577.1c28.4,0,51.2-22.9,51.2-51.2c0-28.4-22.9-51.2-51.2-51.2c-28.4,0-51.2,22.9-51.2,51.2
	C242,554.3,264.9,577.1,293.2,577.1z"/>
<path class="st1" d="M88.6,459c28.4,0,51.2-22.9,51.2-51.2s-22.9-51.2-51.2-51.2s-51.2,22.9-51.2,51.2S60.4,459,88.6,459z"/>
<path class="st1" d="M88.6,222.8c28.4,0,51.2-22.9,51.2-51.2s-22.9-51.2-51.2-51.2s-51.2,23-51.2,51.2S60.4,222.8,88.6,222.8z"/>
<path class="st1" d="M336,252.1v-14.8h3v-18.9h-6.4v-13.8l-19.5-13.2l-15.4-45.7h-8.2L274,191.5l-19.5,13.2v13.8h-6.4v18.9h3v14.8
	c-10.5,1.5-18.6,10.6-18.6,21.5v78.5c0,9.8,6.6,18.2,15.6,20.9H339c9-2.7,15.6-11.1,15.6-20.9v-78.5
	C354.6,262.8,346.4,253.7,336,252.1L336,252.1z M293.6,269.3c24.1,0,43.6,19.5,43.6,43.6s-19.5,43.6-43.6,43.6S250,337,250,312.9
	S269.5,269.3,293.6,269.3z"/>
<path class="st2" d="M294.5,322.6c1,0,1.9-0.3,2.7-0.8c1.3-0.9,2-2.3,2-4v-30.5h-6.5v28.1l-28.8-10.1l-2.2,6.2l31.1,10.9
	C293.4,322.5,294,322.6,294.5,322.6L294.5,322.6z"/>
<g>
	<path class="st1" d="M651.6,386.1c-2.1,0-3.7-0.6-4.9-1.9c-1.1-1.2-1.7-2.8-1.7-4.7V192.2c0-1.9,0.6-3.5,1.7-4.7
		c1.1-1.2,2.8-1.9,4.9-1.9h15.2c1.9,0,3.5,0.6,4.7,1.9c1.2,1.2,1.9,2.8,1.9,4.7v168.9h95.1c2.1,0,3.8,0.6,5,1.9
		c1.2,1.2,1.9,2.9,1.9,5v11.5c0,1.9-0.6,3.5-1.9,4.7c-1.2,1.2-2.9,1.9-5,1.9H651.6z"/>
	<path class="st1" d="M860.4,388.9c-14.5,0-26.6-2.8-36.4-8.3c-9.7-5.5-17.2-13.2-22.3-23.1c-5.2-9.8-8-21-8.6-33.6
		c-0.2-3.2-0.3-7.4-0.3-12.5c0-5.1,0.1-9.1,0.3-12.2c0.6-12.8,3.5-24.1,8.7-33.8c5.2-9.7,12.7-17.4,22.5-22.9
		c9.7-5.5,21.8-8.3,36.1-8.3s26.3,2.8,36.1,8.3c9.7,5.5,17.2,13.2,22.5,22.9c5.2,9.7,8.2,21,8.7,33.8c0.2,3.1,0.3,7.1,0.3,12.2
		c0,5.1-0.1,9.2-0.3,12.5c-0.6,12.6-3.4,23.8-8.6,33.6c-5.2,9.8-12.6,17.5-22.3,23.1C887,386.2,874.9,388.9,860.4,388.9z
		 M860.4,366.9c11.8,0,21.3-3.8,28.3-11.3c7.1-7.5,10.9-18.6,11.5-33.1c0.2-2.9,0.3-6.5,0.3-10.9c0-4.4-0.1-8-0.3-10.9
		c-0.6-14.5-4.4-25.5-11.5-33.1c-7.1-7.5-16.5-11.3-28.3-11.3c-11.8,0-21.3,3.8-28.5,11.3c-7.2,7.5-10.9,18.6-11.3,33.1
		c-0.2,2.9-0.3,6.5-0.3,10.9c0,4.4,0.1,8,0.3,10.9c0.4,14.5,4.2,25.5,11.3,33.1C839.1,363.1,848.6,366.9,860.4,366.9z"/>
	<path class="st1" d="M970.3,386.1c-1.9,0-3.5-0.6-4.7-1.9c-1.2-1.2-1.9-2.8-1.9-4.7V243.8c0-1.9,0.6-3.5,1.9-4.7
		c1.2-1.2,2.8-1.9,4.7-1.9h13.5c1.9,0,3.5,0.6,4.7,1.9c1.2,1.2,1.9,2.8,1.9,4.7v12.6c5-6.5,11.2-11.8,18.8-15.9
		c7.5-4.1,17.2-6.2,29.1-6.2c12.4,0,23,2.7,31.6,8.2c8.7,5.4,15.3,13,19.8,22.6c4.5,9.6,6.7,20.9,6.7,33.6v80.7
		c0,1.9-0.6,3.5-1.9,4.7c-1.2,1.2-2.8,1.9-4.7,1.9h-14.3c-1.9,0-3.5-0.6-4.7-1.9c-1.2-1.2-1.9-2.8-1.9-4.7v-79.3
		c0-13.4-3.2-23.8-9.7-31.4c-6.5-7.5-16-11.3-28.6-11.3c-11.8,0-21.3,3.8-28.5,11.3c-7.2,7.5-10.7,18-10.7,31.4v79.3
		c0,1.9-0.6,3.5-1.9,4.7c-1.2,1.2-2.8,1.9-4.7,1.9H970.3z"/>
	<path class="st1" d="M1191.7,388.9c-10.5,0-19.6-1.9-27.2-5.6c-7.6-3.7-13.9-8.8-18.8-15.2c-4.9-6.4-8.5-13.7-10.9-21.9
		c-2.4-8.2-3.8-16.9-4.2-26.1c-0.2-3.1-0.3-5.9-0.3-8.6c0-2.7,0.1-5.5,0.3-8.6c0.4-9,1.8-17.6,4.2-25.8c2.4-8.2,6-15.6,10.9-22
		c4.9-6.5,11.1-11.6,18.8-15.3c7.6-3.7,16.7-5.6,27.2-5.6c11.3,0,20.6,2,28.1,6c7.4,4,13.6,9,18.3,14.9v-65.9c0-1.9,0.6-3.5,1.9-4.7
		c1.2-1.2,2.8-1.9,4.7-1.9h13.7c1.9,0,3.5,0.6,4.7,1.9c1.2,1.2,1.9,2.8,1.9,4.7v190.1c0,1.9-0.6,3.5-1.9,4.7
		c-1.2,1.2-2.8,1.9-4.7,1.9h-12.9c-2.1,0-3.7-0.6-4.9-1.9c-1.1-1.2-1.7-2.8-1.7-4.7v-12c-4.8,6.1-11,11.2-18.6,15.3
		C1212.7,386.9,1203.1,388.9,1191.7,388.9z M1197.7,365.7c9.5,0,17.2-2.2,22.9-6.6c5.7-4.4,10-10,12.9-16.8
		c2.9-6.8,4.4-13.7,4.6-20.8c0.2-3.1,0.3-6.7,0.3-11c0-4.3-0.1-8-0.3-11c-0.2-6.7-1.8-13.3-4.7-19.8c-3-6.5-7.4-11.8-13.2-16
		c-5.8-4.2-13.3-6.3-22.5-6.3c-9.7,0-17.5,2.1-23.2,6.4c-5.7,4.3-9.8,9.9-12.3,16.9c-2.5,7-3.9,14.5-4.3,22.5
		c-0.2,5.5-0.2,11.1,0,16.6c0.4,8,1.8,15.5,4.3,22.5c2.5,7,6.6,12.6,12.3,16.9C1180.2,363.6,1188,365.7,1197.7,365.7z"/>
	<path class="st1" d="M1368.6,388.9c-14.5,0-26.6-2.8-36.4-8.3c-9.7-5.5-17.2-13.2-22.3-23.1c-5.2-9.8-8-21-8.6-33.6
		c-0.2-3.2-0.3-7.4-0.3-12.5c0-5.1,0.1-9.1,0.3-12.2c0.6-12.8,3.5-24.1,8.7-33.8c5.2-9.7,12.7-17.4,22.5-22.9
		c9.7-5.5,21.8-8.3,36.1-8.3c14.3,0,26.3,2.8,36.1,8.3c9.7,5.5,17.2,13.2,22.5,22.9c5.2,9.7,8.2,21,8.7,33.8
		c0.2,3.1,0.3,7.1,0.3,12.2c0,5.1-0.1,9.2-0.3,12.5c-0.6,12.6-3.4,23.8-8.6,33.6c-5.2,9.8-12.6,17.5-22.3,23.1
		C1395.3,386.2,1383.2,388.9,1368.6,388.9z M1368.6,366.9c11.8,0,21.3-3.8,28.3-11.3c7.1-7.5,10.9-18.6,11.5-33.1
		c0.2-2.9,0.3-6.5,0.3-10.9c0-4.4-0.1-8-0.3-10.9c-0.6-14.5-4.4-25.5-11.5-33.1c-7.1-7.5-16.5-11.3-28.3-11.3
		c-11.8,0-21.3,3.8-28.5,11.3c-7.2,7.5-10.9,18.6-11.3,33.1c-0.2,2.9-0.3,6.5-0.3,10.9c0,4.4,0.1,8,0.3,10.9
		c0.4,14.5,4.2,25.5,11.3,33.1C1347.3,363.1,1356.8,366.9,1368.6,366.9z"/>
	<path class="st1" d="M1478.6,386.1c-1.9,0-3.5-0.6-4.7-1.9c-1.2-1.2-1.9-2.8-1.9-4.7V243.8c0-1.9,0.6-3.5,1.9-4.7
		c1.2-1.2,2.8-1.9,4.7-1.9h13.5c1.9,0,3.5,0.6,4.7,1.9c1.2,1.2,1.9,2.8,1.9,4.7v12.6c5-6.5,11.2-11.8,18.8-15.9
		c7.5-4.1,17.2-6.2,29.1-6.2c12.4,0,23,2.7,31.6,8.2c8.7,5.4,15.3,13,19.8,22.6c4.5,9.6,6.7,20.9,6.7,33.6v80.7
		c0,1.9-0.6,3.5-1.9,4.7c-1.2,1.2-2.8,1.9-4.7,1.9h-14.3c-1.9,0-3.5-0.6-4.7-1.9c-1.2-1.2-1.9-2.8-1.9-4.7v-79.3
		c0-13.4-3.2-23.8-9.7-31.4c-6.5-7.5-16-11.3-28.6-11.3c-11.8,0-21.3,3.8-28.5,11.3c-7.2,7.5-10.7,18-10.7,31.4v79.3
		c0,1.9-0.6,3.5-1.9,4.7c-1.2,1.2-2.8,1.9-4.7,1.9H1478.6z"/>
</g>
</svg>
