<?xml version="1.0" encoding="utf-8"?>
<!-- Generator: Adobe Illustrator 26.4.0, SVG Export Plug-In . SVG Version: 6.00 Build 0)  -->
<svg version="1.1" id="Layer_1" xmlns="http://www.w3.org/2000/svg" xmlns:xlink="http://www.w3.org/1999/xlink" x="0px" y="0px"
	 viewBox="0 0 2059.8 585.4" style="enable-background:new 0 0 2059.8 585.4;" xml:space="preserve">
<style type="text/css">
	.st0{fill-rule:evenodd;clip-rule:evenodd;fill:#E10098;}
	.st1{fill:#E10098;}
	.st2{enable-background:new    ;}
</style>
<path class="st0" d="M293.2,39.5l216.7,125v250.3l-216.7,125l-216.7-125V164.5L293.2,39.5z M100.8,178.7v183.8L260,86.7L100.8,178.7
	z M293.2,77.9L109.7,395.7h367L293.2,77.9z M452.4,420H134l159.2,92L452.4,420z M485.6,362.5L326.4,86.7l159.2,92V362.5z"/>
<path class="st1" d="M293.2,104.7c28.4,0,51.2-22.9,51.2-51.2S321.6,2.2,293.2,2.2c-28.4,0-51.2,22.9-51.2,51.2
	C242,81.8,264.9,104.7,293.2,104.7z"/>
<path class="st1" d="M497.7,222.8c28.4,0,51.2-22.9,51.2-51.2s-22.9-51.2-51.2-51.2c-28.4,0-51.2,22.9-51.2,51.2
	S469.5,222.8,497.7,222.8z"/>
<path class="st1" d="M497.7,459c28.4,0,51.2-22.9,51.2-51.2s-22.9-51.2-51.2-51.2c-28.4,0-51.2,22.9-51.2,51.2
	C446.6,436.1,469.5,459,497.7,459z"/>
<path class="st1" d="M293.2,577.1c28.4,0,51.2-22.9,51.2-51.2c0-28.4-22.9-51.2-51.2-51.2c-28.4,0-51.2,22.9-51.2,51.2
	C242,554.3,264.9,577.1,293.2,577.1z"/>
<path class="st1" d="M88.6,459c28.4,0,51.2-22.9,51.2-51.2s-22.9-51.2-51.2-51.2s-51.2,22.9-51.2,51.2S60.4,459,88.6,459z"/>
<path class="st1" d="M88.6,222.8c28.4,0,51.2-22.9,51.2-51.2s-22.9-51.2-51.2-51.2s-51.2,23-51.2,51.2S60.4,222.8,88.6,222.8z"/>
<g>
	<path class="st1" d="M273.3,215c-15,1.9-26.5,7.7-38.1,19.3c-9.7,9.6-15.4,19.7-17.7,31.3c-4.5,22.3,1.4,43.3,17.2,59.2
		c13.3,13.6,28.4,19.9,47.5,19.7h9.6l-5.6-1.9c-25.2-8-42.6-27.7-46.7-52.8c-1.6-9.2-1.6-10.7,0-19.9c2.5-14.3,8-25.4,17.9-35.4
		c8.5-8.5,15.4-12.7,26.5-16.6l7.5-2.5l-3.9-0.6C282.6,213.9,282.6,213.9,273.3,215z"/>
	<path class="st1" d="M304.3,230.4c-1.4,3.6-2,4.1-6.6,4.7l-5,0.9l3.4,3.4c3.1,3.1,3.4,3.9,2.7,8.1c-0.5,2.7-0.5,4.7-0.2,4.7
		c0.3,0,2.2-0.9,4.1-2.2l3.6-2l4.4,2.2l4.4,2.2l-0.6-5.2c-0.6-4.7-0.5-5.2,2.5-8.1c2.7-2.7,3-3.1,1.4-3.9c-1.1-0.2-3.1-0.6-4.5-0.6
		c-2,0-3.1-1.1-4.5-4.4c-1.1-2.2-2.2-4.1-2.7-4.1C306.2,226.6,305.3,228.2,304.3,230.4z"/>
	<path class="st1" d="M266.9,256.7c-2,5-3.9,6.4-8.6,6.4h-4.4l3.6,3.9c3.4,3.6,3.6,4.4,3,8.1c-0.5,2.2-0.6,4.4-0.5,4.5
		c0.2,0.2,2-0.5,4.4-1.6c3.9-2,4.1-2,7.7,0c5.2,2.7,5.5,2.5,4.7-2.5c-0.6-4.1-0.2-4.7,2.5-7.5c3.6-3.6,3-4.7-2.7-4.7
		c-3,0-3.9-0.6-6-4.7l-2.5-4.7L266.9,256.7z"/>
	<path class="st1" d="M342.4,258.3c-1.9,4.1-2.7,4.7-5.5,4.7c-6,0-6.6,0.9-2.7,4.4c3.1,2.7,3.4,3.1,2.7,7.5
		c-0.5,2.5-0.6,4.5-0.5,4.7c0.2,0.2,2-0.5,4.4-1.6c3.9-2,4.1-2,7.7,0c2,1.1,4.1,1.9,4.4,2c0.5,0,0.5-2,0.2-4.7
		c-0.6-4.4-0.5-4.7,2.7-7.2c4.4-3.6,4.1-4.7-0.9-4.7c-3.6,0-4.5-0.5-6.1-3.1C344.9,253.1,344.9,253.1,342.4,258.3z"/>
	<path class="st1" d="M281.5,301.8c-2,4.7-3.9,6.1-8,6.1c-4.4,0-4.5,0.9-0.5,4.5c2.7,2.7,2.7,3.1,2,7.2c-0.5,2.5-0.9,4.7-0.9,5.2
		s2-0.2,4.4-1.9l4.4-2.7l4.1,2c2.2,1.1,4.1,2,4.4,1.9c0.2-0.2,0-2.2-0.5-4.5c-0.6-3.9-0.5-4.5,3-8.1c3.6-3.9,3.6-3.9,1.1-3.9
		c-5.2,0-7.5-1.4-9.6-5.2c-1.1-2.2-2.2-4.1-2.5-4.1C283,298.7,282.4,300.1,281.5,301.8z"/>
	<path class="st1" d="M328,302.4c-1.9,4.1-3.9,5.5-9.2,5.5h-3l3.9,3.9c3.6,3.6,3.9,4.4,3.1,8.5c-0.2,2.5-0.2,4.5,0,4.5
		c0.5,0,2.2-0.9,4.4-1.9c3.4-1.6,3.9-1.6,7.2,0c2,0.9,4.1,1.9,4.4,1.9s0.2-2,0-4.5c-0.6-4.1-0.2-4.7,2.5-7.5
		c3.4-3.4,3.4-4.7-0.5-4.7c-4.1,0-5.6-1.1-8-5.5c-1.1-2.2-2.2-4.1-2.5-4.1C330.2,298.4,329.1,300.4,328,302.4z"/>
</g>
<g class="st2">
	<path class="st1" d="M736.2,384.5c-16.2,0-29.9-2.5-40.9-7.6c-11-5-19.5-11.5-25.3-19.5c-5.9-7.9-9-16.3-9.4-25.1
		c0-1.5,0.6-2.8,1.8-4.1c1.2-1.2,2.7-1.8,4.3-1.8H681c2.2,0,3.9,0.6,5,1.7c1.1,1.1,1.9,2.4,2.2,3.9c1.1,4.5,3.5,8.9,7,13.3
		c3.5,4.4,8.6,8,15.3,10.9c6.6,2.9,15.2,4.3,25.6,4.3c16.1,0,27.9-2.8,35.4-8.5c7.6-5.7,11.3-13.3,11.3-22.8c0-6.5-2-11.8-6-15.8
		c-4-4-10.1-7.6-18.3-10.8c-8.2-3.2-18.9-6.6-31.9-10.4c-13.6-3.9-24.9-8.2-33.9-12.9c-9-4.7-15.6-10.5-20-17.4
		c-4.4-6.9-6.6-15.7-6.6-26.3c0-10.1,2.7-19.1,8.1-27c5.4-7.9,13.3-14.2,23.5-18.9c10.3-4.7,22.6-7,37-7c11.6,0,21.7,1.5,30.4,4.6
		c8.7,3.1,15.9,7.2,21.7,12.3c5.8,5.1,10.2,10.6,13.2,16.5c3,5.9,4.6,11.6,4.8,17.2c0,1.3-0.5,2.6-1.4,3.8c-0.9,1.2-2.4,1.8-4.5,1.8
		h-14.8c-1.3,0-2.7-0.4-4.1-1.1c-1.4-0.7-2.5-2.1-3.2-4.2c-1.1-7.7-5.4-14.1-12.9-19.3c-7.5-5.2-17.2-7.8-29.1-7.8
		c-12.1,0-22,2.3-29.5,7c-7.6,4.7-11.3,11.9-11.3,21.8c0,6.3,1.8,11.6,5.3,15.8c3.5,4.2,9.1,7.9,16.8,11.1c7.7,3.2,17.6,6.5,30,10.1
		c14.9,4.1,27.2,8.4,36.7,13c9.5,4.6,16.6,10.3,21.1,17.1c4.6,6.8,6.9,15.5,6.9,26.2c0,11.8-3.1,21.8-9.2,30.1
		c-6.2,8.3-14.8,14.7-25.9,19C764.4,382.3,751.3,384.5,736.2,384.5z"/>
	<path class="st1" d="M847.9,208.9c-1.9,0-3.4-0.6-4.6-1.8c-1.2-1.2-1.8-2.8-1.8-4.6v-15.1c0-1.9,0.6-3.5,1.8-4.8
		c1.2-1.3,2.8-2,4.6-2h17.6c1.9,0,3.5,0.7,4.8,2c1.3,1.3,2,2.9,2,4.8v15.1c0,1.9-0.7,3.4-2,4.6c-1.3,1.2-2.9,1.8-4.8,1.8H847.9z
		 M850.2,381.7c-1.9,0-3.4-0.6-4.6-1.8c-1.2-1.2-1.8-2.8-1.8-4.6V242.5c0-1.9,0.6-3.4,1.8-4.6c1.2-1.2,2.8-1.8,4.6-1.8h13.4
		c1.9,0,3.4,0.6,4.6,1.8c1.2,1.2,1.8,2.8,1.8,4.6v132.7c0,1.9-0.6,3.4-1.8,4.6c-1.2,1.2-2.8,1.8-4.6,1.8H850.2z"/>
	<path class="st1" d="M917.9,381.7c-1.9,0-3.4-0.6-4.6-1.8c-1.2-1.2-1.8-2.8-1.8-4.6V242.5c0-1.9,0.6-3.4,1.8-4.6
		c1.2-1.2,2.8-1.8,4.6-1.8h13.2c1.9,0,3.4,0.6,4.6,1.8c1.2,1.2,1.8,2.8,1.8,4.6v12.3c4.9-6.3,11-11.5,18.3-15.5c7.4-4,16.8-6,28.4-6
		c12.1,0,22.4,2.7,30.9,8c8.5,5.3,14.9,12.7,19.3,22.1c4.4,9.4,6.6,20.4,6.6,32.9v79c0,1.9-0.6,3.4-1.8,4.6
		c-1.2,1.2-2.8,1.8-4.6,1.8h-14c-1.9,0-3.4-0.6-4.6-1.8c-1.2-1.2-1.8-2.8-1.8-4.6v-77.6c0-13.1-3.2-23.3-9.5-30.7
		c-6.3-7.4-15.7-11.1-28-11.1c-11.6,0-20.9,3.7-27.9,11.1c-7,7.4-10.5,17.6-10.5,30.7v77.6c0,1.9-0.6,3.4-1.8,4.6
		c-1.2,1.2-2.8,1.8-4.6,1.8H917.9z"/>
	<path class="st1" d="M1140.8,443.3c-12.7,0-23.1-1.7-31.2-5c-8.1-3.4-14.5-7.4-19-12.2c-4.6-4.8-7.8-9.5-9.8-14.3
		c-2-4.8-3-8.5-3.2-11.3c-0.2-1.9,0.4-3.5,1.8-4.8c1.4-1.3,2.9-2,4.6-2h13.4c1.7,0,3.1,0.4,4.2,1.1c1.1,0.7,2.1,2.3,2.8,4.8
		c1.1,2.8,2.8,5.9,5,9.4c2.2,3.5,5.7,6.4,10.4,9c4.7,2.5,11.2,3.8,19.6,3.8c8.8,0,16.1-1.2,22.1-3.6c6-2.4,10.5-6.5,13.6-12.3
		c3.1-5.8,4.6-13.8,4.6-24.1v-19c-4.5,5.8-10.4,10.6-17.6,14.4c-7.3,3.8-16.4,5.7-27.4,5.7c-10.5,0-19.4-1.8-26.9-5.5
		c-7.5-3.6-13.6-8.6-18.3-14.8c-4.8-6.3-8.3-13.4-10.6-21.4c-2.3-8-3.7-16.4-4.1-25.2c-0.2-5.2-0.2-10.4,0-15.4
		c0.4-8.8,1.7-17.2,4.1-25.2c2.3-8,5.9-15.2,10.6-21.6c4.8-6.3,10.9-11.3,18.3-15c7.5-3.6,16.4-5.5,26.9-5.5
		c11.2,0,20.5,2.1,27.9,6.2c7.4,4.1,13.4,9.2,18.1,15.4v-12c0-1.9,0.6-3.5,1.8-4.8c1.2-1.3,2.8-2,4.6-2h12.9c1.9,0,3.5,0.7,4.8,2
		c1.3,1.3,2,2.9,2,4.8v135.8c0,12.5-2.1,23.6-6.3,33.3c-4.2,9.7-11.1,17.4-20.7,23C1170,440.5,1157,443.3,1140.8,443.3z
		 M1140.2,360.4c9.3,0,16.8-2.1,22.5-6.4c5.7-4.3,9.9-9.7,12.6-16.2c2.7-6.5,4.2-13.2,4.3-19.9c0.2-2.6,0.3-5.8,0.3-9.7
		c0-3.8-0.1-7-0.3-9.7c-0.2-6.7-1.6-13.3-4.3-19.9c-2.7-6.5-6.9-11.9-12.6-16.2c-5.7-4.3-13.2-6.4-22.5-6.4
		c-9.3,0-16.8,2.1-22.4,6.3c-5.6,4.2-9.6,9.7-12,16.5c-2.4,6.8-3.8,14.1-4.2,22c-0.2,4.9-0.2,9.8,0,14.8c0.4,7.8,1.8,15.2,4.2,22
		c2.4,6.8,6.4,12.3,12,16.5C1123.4,358.3,1130.9,360.4,1140.2,360.4z"/>
	<path class="st1" d="M1288.9,384.5c-9.3,0-17.8-1.9-25.5-5.6c-7.7-3.7-13.8-8.8-18.5-15.1c-4.7-6.3-7-13.5-7-21.6
		c0-12.9,5.2-23.1,15.7-30.8c10.5-7.7,24.1-12.7,40.9-15.1l41.7-5.9v-8.1c0-9-2.6-16-7.7-21c-5.1-5-13.5-7.6-25.1-7.6
		c-8.2,0-14.9,1.7-20.2,5c-5.2,3.4-8.9,7.7-10.9,12.9c-1.1,2.8-3.1,4.2-5.9,4.2h-12.6c-2.1,0-3.6-0.6-4.6-1.8
		c-1-1.2-1.5-2.7-1.5-4.3c0-2.8,1.1-6.3,3.2-10.4c2.1-4.1,5.5-8.1,9.9-12c4.5-3.9,10.2-7.2,17.2-9.9c7-2.7,15.5-4.1,25.6-4.1
		c11.2,0,20.6,1.4,28.3,4.3c7.7,2.9,13.7,6.8,18.1,11.6c4.4,4.9,7.6,10.4,9.5,16.5c2,6.2,2.9,12.4,2.9,18.8v90.7
		c0,1.9-0.6,3.4-1.8,4.6c-1.2,1.2-2.8,1.8-4.6,1.8h-12.9c-2.1,0-3.6-0.6-4.8-1.8c-1.1-1.2-1.7-2.8-1.7-4.6v-12
		c-2.4,3.4-5.7,6.7-9.8,9.9c-4.1,3.3-9.2,6-15.4,8.1S1297.9,384.5,1288.9,384.5z M1294.8,363.5c7.7,0,14.7-1.6,21-4.9
		c6.3-3.3,11.3-8.4,15-15.3c3.6-6.9,5.5-15.6,5.5-26v-7.8l-32.5,4.8c-13.3,1.9-23.2,5-30,9.4c-6.7,4.4-10.1,9.9-10.1,16.7
		c0,5.2,1.5,9.6,4.6,13c3.1,3.5,7,6,11.8,7.7C1284.8,362.7,1289.7,363.5,1294.8,363.5z"/>
	<path class="st1" d="M1409.6,434.9c-1.9,0-3.4-0.6-4.6-1.8c-1.2-1.2-1.8-2.8-1.8-4.6V242.5c0-1.9,0.6-3.4,1.8-4.6
		c1.2-1.2,2.8-1.8,4.6-1.8h12.9c1.9,0,3.4,0.6,4.6,1.8c1.2,1.2,1.8,2.8,1.8,4.6v12.3c4.5-6.2,10.5-11.3,17.9-15.4
		c7.5-4.1,16.8-6.2,28-6.2c10.5,0,19.4,1.8,26.7,5.3c7.4,3.5,13.4,8.4,18.2,14.6s8.4,13.2,10.8,21c2.4,7.8,3.8,16.2,4.2,25.2
		c0.2,3,0.3,6.2,0.3,9.5c0,3.4-0.1,6.5-0.3,9.5c-0.4,8.8-1.8,17.1-4.2,25.1c-2.4,7.9-6,14.9-10.8,21c-4.8,6.1-10.8,10.9-18.2,14.6
		c-7.4,3.6-16.3,5.5-26.7,5.5c-10.8,0-19.9-2-27.3-6c-7.4-4-13.4-9-18.1-15v65c0,1.9-0.6,3.4-1.7,4.6c-1.1,1.2-2.6,1.8-4.5,1.8
		H1409.6z M1468.9,361.8c9.7,0,17.3-2.1,22.8-6.3c5.5-4.2,9.5-9.7,11.9-16.5c2.4-6.8,3.8-14.1,4.2-22c0.2-5.4,0.2-10.8,0-16.2
		c-0.4-7.8-1.8-15.2-4.2-22c-2.4-6.8-6.4-12.3-11.9-16.5c-5.5-4.2-13.1-6.3-22.8-6.3c-9.1,0-16.6,2.1-22.3,6.4
		c-5.7,4.3-9.9,9.8-12.6,16.4c-2.7,6.6-4.2,13.4-4.6,20.3c-0.2,3-0.3,6.5-0.3,10.6c0,4.1,0.1,7.7,0.3,10.9c0.2,6.5,1.7,13,4.6,19.3
		c2.9,6.3,7.2,11.6,13,15.7C1452.9,359.8,1460.2,361.8,1468.9,361.8z"/>
	<path class="st1" d="M1629.4,384.5c-14.2,0-26-2.7-35.6-8.1c-9.5-5.4-16.8-12.9-21.8-22.5c-5-9.6-7.8-20.6-8.4-32.9
		c-0.2-3.2-0.3-7.2-0.3-12.2c0-4.9,0.1-8.9,0.3-11.9c0.6-12.5,3.4-23.5,8.5-33c5.1-9.5,12.5-17,22-22.4c9.5-5.4,21.3-8.1,35.3-8.1
		s25.8,2.7,35.3,8.1c9.5,5.4,16.8,12.9,22,22.4c5.1,9.5,8,20.5,8.5,33c0.2,3,0.3,7,0.3,11.9c0,4.9-0.1,9-0.3,12.2
		c-0.6,12.3-3.4,23.3-8.4,32.9c-5,9.6-12.3,17.1-21.8,22.5C1655.4,381.8,1643.6,384.5,1629.4,384.5z M1629.4,362.9
		c11.6,0,20.8-3.7,27.7-11.1c6.9-7.4,10.6-18.2,11.2-32.3c0.2-2.8,0.3-6.3,0.3-10.6c0-4.3-0.1-7.8-0.3-10.6
		c-0.6-14.2-4.3-25-11.2-32.3c-6.9-7.4-16.1-11.1-27.7-11.1c-11.6,0-20.9,3.7-27.9,11.1c-7,7.4-10.7,18.2-11.1,32.3
		c-0.2,2.8-0.3,6.3-0.3,10.6c0,4.3,0.1,7.8,0.3,10.6c0.4,14.2,4.1,25,11.1,32.3C1608.5,359.3,1617.8,362.9,1629.4,362.9z"/>
	<path class="st1" d="M1736.9,381.7c-1.9,0-3.4-0.6-4.6-1.8c-1.2-1.2-1.8-2.8-1.8-4.6V242.8c0-1.9,0.6-3.5,1.8-4.8
		c1.2-1.3,2.8-2,4.6-2h12.9c1.9,0,3.5,0.7,4.8,2c1.3,1.3,2,2.9,2,4.8v12.3c3.7-6.3,8.9-11.1,15.4-14.3c6.5-3.2,14.5-4.8,23.8-4.8
		h10.9c1.9,0,3.4,0.6,4.6,1.8c1.2,1.2,1.8,2.8,1.8,4.6V254c0,1.9-0.6,3.4-1.8,4.5c-1.2,1.1-2.8,1.7-4.6,1.7h-16.8
		c-10.1,0-18,2.9-23.8,8.8c-5.8,5.9-8.7,13.9-8.7,23.9v82.3c0,1.9-0.7,3.4-2,4.6c-1.3,1.2-2.9,1.8-4.8,1.8H1736.9z"/>
	<path class="st1" d="M1892.3,384.5c-19.4,0-34.8-5.9-46.2-17.8c-11.4-11.9-17.6-28-18.8-48.6c-0.2-2.4-0.3-5.6-0.3-9.4
		c0-3.8,0.1-7,0.3-9.4c0.7-13.3,3.8-24.9,9.2-34.9c5.4-10,12.8-17.7,22.3-23.1c9.4-5.4,20.5-8.1,33.2-8.1c14.2,0,26.1,3,35.7,9
		c9.6,6,16.9,14.5,22,25.5c5,11,7.6,23.9,7.6,38.6v4.8c0,2.1-0.6,3.6-1.8,4.8c-1.2,1.1-2.8,1.7-4.6,1.7h-96.9c0,0.2,0,0.6,0,1.1
		s0,1,0,1.4c0.4,7.7,2.1,14.8,5,21.4c3,6.6,7.3,12,13,16.1c5.7,4.1,12.4,6.2,20,6.2c6.7,0,12.3-1,16.8-3.1c4.5-2.1,8.1-4.3,10.9-6.9
		c2.8-2.5,4.7-4.5,5.6-6c1.7-2.2,3-3.6,3.9-4.1c0.9-0.5,2.4-0.7,4.5-0.7h13.7c1.7,0,3.1,0.5,4.3,1.5c1.2,1,1.7,2.5,1.5,4.3
		c-0.2,2.8-1.7,6.2-4.5,10.2c-2.8,4-6.8,8-11.9,11.9c-5.1,3.9-11.5,7.1-19,9.7C1910.4,383.2,1901.8,384.5,1892.3,384.5z
		 M1853.9,298.3h76.7v-0.8c0-8.4-1.5-15.9-4.6-22.4c-3.1-6.5-7.5-11.7-13.3-15.5c-5.8-3.8-12.7-5.7-20.7-5.7c-8,0-14.9,1.9-20.6,5.7
		c-5.7,3.8-10,9-13,15.5c-3,6.5-4.5,14-4.5,22.4V298.3z"/>
</g>
</svg>
