<svg xmlns="http://www.w3.org/2000/svg" xmlns:xlink="http://www.w3.org/1999/xlink" viewBox="0 0 1796.97 585.36"><defs><style>.cls-1{fill:url(#linear-gradient);}</style><linearGradient id="linear-gradient" x1="239.13" y1="292.54" x2="1557.25" y2="296.21" gradientUnits="userSpaceOnUse"><stop offset="0" stop-color="#ffbe6e"/><stop offset="1" stop-color="#f6169b"/></linearGradient></defs><g id="Layer_2" data-name="Layer 2"><g id="Layer_1-2" data-name="Layer 1"><path class="cls-1" d="M201.78,305.28l-82.44,60.25a11.48,11.48,0,0,1-2,13.51l-.09.09,58.15,65a17.6,17.6,0,0,1,9.83-3c.44,0,.85,0,1.28.05l17.46-134.22a12,12,0,0,1-2.15-1.67Zm159.6-83.42a11.24,11.24,0,0,1,2.31,7.37c0-.15,0-.3,0-.45A11.5,11.5,0,0,0,361.38,221.86Zm-.13,14a11.3,11.3,0,0,1-5.75,3.92,11.47,11.47,0,0,0,4.83-2.88,11,11,0,0,0,.91-1ZM302.49,373.27a11.47,11.47,0,0,1,.37,4.31,11.61,11.61,0,0,0-.37-4.31Zm-17,13c-1.32-.71-2.19-1.43-2.21-1.73A11.64,11.64,0,0,0,285.51,386.26Zm-5.55-9a12,12,0,0,1,.15-2.93,12.48,12.48,0,0,0-.17,2c0,.3,0,.59,0,.88Zm.57-7.14-.27-.62h0l.26.62Zm-.76-1.88-.22-.54h0l.21.55ZM219.55,224.65c.06-.15.12-.31.19-.46C219.67,224.34,219.61,224.5,219.55,224.65Zm.72-1.53c.14-.22.27-.45.42-.66Zm-5,63.81a11.73,11.73,0,0,1,2.71,2h0a11.41,11.41,0,0,0-2.69-2Zm3.79,3.25c.09.11.16.23.24.33C219.2,290.4,219.13,290.29,219,290.18Zm45.18,116.54a24.49,24.49,0,0,0,7.42,5.67,21,21,0,0,1-3.2-1.87,27.23,27.23,0,0,1-4.22-3.8Zm29.65,2.76a11.83,11.83,0,0,1,2.23.48A11.8,11.8,0,0,0,293.87,409.48Zm6.72,3.21c.05.05.08.07.09.07h0l-.08-.07Zm11.52-1a25.89,25.89,0,0,0,5.59-4.23,25.33,25.33,0,0,1-3.56,3c-.64.44-1.32.85-2,1.24ZM365.2,301.07a11.21,11.21,0,0,1-2.35-7.82c0,.27,0,.54,0,.83A11.37,11.37,0,0,0,365.2,301.07Zm.69-14.82a11.29,11.29,0,0,1,7-3.59,11.49,11.49,0,0,0-6.73,3.28h0l-.29.3Zm-74.45,96.66a6.51,6.51,0,0,0,4.6-11.12h0a6.51,6.51,0,0,0-11.11,4.61,6.45,6.45,0,0,0,1.9,4.6h0a6.46,6.46,0,0,0,4.6,1.91Zm2.48-209V364.43l.1-.26,0-.12,50.71-126.53c-.23-.19-.46-.4-.67-.61h0a11.46,11.46,0,0,1-.81-15.34l-45.71-49.14a11.08,11.08,0,0,1-3.65,1.5Zm-5,190.51V173.92a11.26,11.26,0,0,1-3.77-1.58l-45.86,49.33a11.48,11.48,0,0,1-.37,14.65l49.88,127.76,0,.08.09.26ZM235.47,218.51l46.23-49.73a11.41,11.41,0,0,1-1.75-6.09,11,11,0,0,1,.12-1.63l-68.61-41.35A17.78,17.78,0,0,1,198.79,132l4.93,21.26c.3,0,.59,0,.89,0a11.45,11.45,0,0,1,8.12,3.37h0a11.51,11.51,0,0,1,.34,15.9l18,44.81a11.35,11.35,0,0,1,4.42,1.2Zm65.64-49.61,46.08,49.54a11.29,11.29,0,0,1,4.33-1.14l18.25-44.85a11.48,11.48,0,0,1,.39-15.84h0a11.44,11.44,0,0,1,8.12-3.36,12.08,12.08,0,0,1,1.47.09l6.19-21a17.64,17.64,0,0,1-10-5v0a17.75,17.75,0,0,1-3.18-4.31l-70.12,37.1a11.35,11.35,0,0,1,.29,2.56,11.47,11.47,0,0,1-1.82,6.21Zm51.12,66.38a6.52,6.52,0,0,0,6.51-6.52,6.54,6.54,0,0,0-1.91-4.6h0a6.53,6.53,0,0,0-8.57-.56h0a5.7,5.7,0,0,0-.64.56,6.53,6.53,0,0,0,0,9.21h0a6.46,6.46,0,0,0,4.6,1.91Zm-121.93,0a6.51,6.51,0,0,0,4.6-11.12h0c-.16-.16-.34-.32-.52-.47h0l0,0h0a6.51,6.51,0,0,0-8.63,9.73h0a6.52,6.52,0,0,0,4.61,1.91Zm198.27-64a6.51,6.51,0,0,0,4.61-11.12h0a6.52,6.52,0,0,0-9.22,9.21h0a6.5,6.5,0,0,0,4.61,1.91Zm5.93,3.34a11.49,11.49,0,0,1-5.34,1.63L382.9,286.43l0,0L462.53,225a11.48,11.48,0,0,1,1.68-12.36l-29.72-38Zm-16.28-14.83a11.6,11.6,0,0,1,2.22-3.14h0L399,129.12a17.56,17.56,0,0,1-7.85,3.25L384.43,155a11.44,11.44,0,0,1,2,1.57h0a11.62,11.62,0,0,1,2.23,3.15h29.59Zm6.44-5.82a11.27,11.27,0,0,1,3.9-.69,11.48,11.48,0,0,1,8.13,3.36h0a11.49,11.49,0,0,1,1.41,14.55l30.07,38.5a11.49,11.49,0,0,1,4.76-1,11.2,11.2,0,0,1,4.34.86l42.55-61.41a11.39,11.39,0,0,1-1.24-4.94L405.22,120.68a17.36,17.36,0,0,1-2.67,4.94l22.1,28.3ZM154.31,171.24a6.51,6.51,0,0,0,4.6-11.12h0a6.51,6.51,0,0,0-9.21,9.21h0a6.46,6.46,0,0,0,4.61,1.91Zm-.58,5a11.32,11.32,0,0,1-3.82-.86l-39.15,57.23.07.07h0a17.7,17.7,0,0,1,5.2,12.55,17.41,17.41,0,0,1-1,5.71l84.79,40.41a11.38,11.38,0,0,1,1.36-1.88L153.73,176.21Zm-7.89-3.71a11.44,11.44,0,0,1-3-7.75l-80.4-15.58A11.91,11.91,0,0,1,60.92,151a10.49,10.49,0,0,1-1.29,1.11l33.8,76a17.74,17.74,0,0,1,13.33,1.47l39.08-57.11Zm-2-12.61a11.4,11.4,0,0,1,2.29-3.27h0a11.47,11.47,0,0,1,16.24,0h0a11.22,11.22,0,0,1,2.23,3.14h29.59a11.38,11.38,0,0,1,2.23-3.13h0a11.94,11.94,0,0,1,2.47-1.88l-5.16-22.18a17.67,17.67,0,0,1-11.94-5.19h0a17.84,17.84,0,0,1-4.2-6.68L64.29,143.13c0,.44-.05.88-.1,1.31ZM409.45,43.62a6.5,6.5,0,0,0,4.6-11.11h0A6.51,6.51,0,0,0,403,37.11a6.59,6.59,0,0,0,.34,2.09h0v0h0a6.52,6.52,0,0,0,1.55,2.48h0a6.5,6.5,0,0,0,4.61,1.91Zm6.8,2.76a11.42,11.42,0,0,1-6.8,2.23,4.35,4.35,0,0,1-.51,0L395.47,98.51a18.09,18.09,0,0,1,5.55,3.76h0a17.72,17.72,0,0,1,5.2,12.55c0,.33,0,.65,0,1l113.36,22.45c.13-.31.29-.61.44-.9l-103.76-91Zm-12.12.92a11.38,11.38,0,0,1-2.8-2.06h0a12.57,12.57,0,0,1-1.67-2.12L302.9,76.4a10.8,10.8,0,0,1,.07,1.29,11.2,11.2,0,0,1-.09,1.43L374,104.58A18.27,18.27,0,0,1,376,102.3v0a17.69,17.69,0,0,1,12.53-5.2,17.48,17.48,0,0,1,2.18.14L404.14,47.3ZM398,38.41c0-.41-.07-.82-.07-1.23l-96.5-20.9a11.45,11.45,0,0,1-7.88,6.39l.3,43.77a11.46,11.46,0,0,1,5.72,3.12h0a11.44,11.44,0,0,1,1.68,2.12Zm1-6.11A11.94,11.94,0,0,1,401.32,29h0a11.49,11.49,0,0,1,16.24,0h0a11.52,11.52,0,0,1,1.94,13.67l103.76,91a11.47,11.47,0,0,1,14.92,1.14h0a11.5,11.5,0,0,1,0,16.25,11.67,11.67,0,0,1-2,1.62L570,247.49a13.07,13.07,0,0,1,1.42-.08,11.4,11.4,0,0,1,8.11,3.37h0a11.5,11.5,0,0,1-7.24,19.59L554.74,393.23a11.36,11.36,0,0,1,4.06,2.64h0a11.49,11.49,0,0,1-12.87,18.59l-66.18,88.26q.36.3.69.63h0A11.49,11.49,0,1,1,464.2,519.6h0a11.54,11.54,0,0,1-2.38-3.46L302.49,573.73v.13A11.49,11.49,0,0,1,282.87,582h0a11.46,11.46,0,0,1-3.37-8l-158-57.65a11.71,11.71,0,0,1-1.56,1.95,11.49,11.49,0,0,1-16.26,0h0a11.46,11.46,0,0,1-.59-15.6l-66.14-88.2a11.52,11.52,0,0,1-12.87-2.34h0a11.47,11.47,0,0,1,0-16.24h0a11.56,11.56,0,0,1,4.06-2.63L10.61,270.38A11.4,11.4,0,0,1,3.37,267h0a11.47,11.47,0,0,1,0-16.24h0a11.44,11.44,0,0,1,8.11-3.37,13.2,13.2,0,0,1,1.42.09l33.76-94.88a11.16,11.16,0,0,1-2-1.61h0a11.47,11.47,0,0,1,0-16.24h0a11.47,11.47,0,0,1,8.12-3.37,11.35,11.35,0,0,1,6.79,2.23l103.77-91A11.46,11.46,0,0,1,165.29,29h0a11.49,11.49,0,0,1,16.24,0h0a11.52,11.52,0,0,1,2.3,3.3L279.5,11.45a11.42,11.42,0,0,1,3.37-8.08h0a11.47,11.47,0,0,1,16.24,0h0a11.43,11.43,0,0,1,3.37,8.06L399,32.33Zm-20.72,139a6.51,6.51,0,0,0,4.6-11.12h0a6.51,6.51,0,0,0-11.11,4.61,6.45,6.45,0,0,0,1.9,4.6h0a6.47,6.47,0,0,0,4.6,1.92Zm151.8-21.87a6.52,6.52,0,0,0,4.6-11.13h0a6.51,6.51,0,0,0-9.21,9.21h0a6.48,6.48,0,0,0,4.6,1.91Zm1.42,4.9a13.37,13.37,0,0,1-1.42.08,10.45,10.45,0,0,1-1.13-.05L488.09,279.09a17.53,17.53,0,0,1,4.7,3.38h0a17.58,17.58,0,0,1,2.87,3.76L560,260.72a10.94,10.94,0,0,1-.15-1.83,11.47,11.47,0,0,1,3.37-8.12h0a12.39,12.39,0,0,1,2-1.6L531.5,154.28Zm-7.28-1.53a9.65,9.65,0,0,1-1.08-.72l-41.77,60.28a11.5,11.5,0,0,1-5.75,19l4,46h.63a17.52,17.52,0,0,1,3.1.28l40.87-124.79ZM473,226.62a6.52,6.52,0,0,0,4.61-11.12h0a6.52,6.52,0,0,0-9.21,9.22h0a6.5,6.5,0,0,0,4.61,1.91Zm-2.3,4.76a11.54,11.54,0,0,1-5.07-2.45l-80.21,61.93c.08.27.15.54.21.83l77,3.08a17.7,17.7,0,0,1,5.2-12.29h0a17.8,17.8,0,0,1,7-4.31l-4.07-46.78Zm-96.32,69.2a6.52,6.52,0,0,0,4.6-11.12h0a6.51,6.51,0,0,0-11.11,4.6,6.53,6.53,0,0,0,1.9,4.61h0a6.52,6.52,0,0,0,4.61,1.91Zm6.72,2.82a11,11,0,0,1-1.59,1l17.65,145.51c.48,0,1-.06,1.45-.06a17.72,17.72,0,0,1,9.85,3l58.21-81.09-.4-.38h0a11.47,11.47,0,0,1-3.37-8.12,11.6,11.6,0,0,1,.94-4.57l-82.74-55.24Zm4.48-6.74a11.16,11.16,0,0,1-1.15,3l82.34,55a11.43,11.43,0,0,1,6.11-2.81l3.43-39.52a17.76,17.76,0,0,1-8.54-4.74v0a17.75,17.75,0,0,1-4.55-7.77l-77.64-3.11ZM571.37,265.4a6.51,6.51,0,0,0,4.6-11.12h0a6.51,6.51,0,0,0-9.21,9.21h0a6.45,6.45,0,0,0,4.6,1.9Zm-4,4.26a11.67,11.67,0,0,1-1.78-.86l-81.73,87.89a11.42,11.42,0,0,1,2,6.52,11.64,11.64,0,0,1-.42,3.09L542,396.5c.2-.21.39-.43.61-.65h0a11.52,11.52,0,0,1,7.24-3.34Zm-5.41-4.24-.06-.08-64.34,25.5a17.8,17.8,0,0,1-4.71,16.72,17.67,17.67,0,0,1-11.58,5.16l-3.43,39.53a11.71,11.71,0,0,1,2.37,1.05l81.75-87.88Zm-87.56,104.3A6.51,6.51,0,0,0,479,358.6h0l-.11-.11h0l0-.05-.05-.06a6.59,6.59,0,0,0-3.75-1.65h-.62a6.51,6.51,0,0,0-4.61,11.11h0a6.46,6.46,0,0,0,4.6,1.91Zm8.12,1.62a11.46,11.46,0,0,1-5.89,3.15l-2.77,125.56a12.38,12.38,0,0,1,1.52.3L542,411.46a11.53,11.53,0,0,1-2.35-10.58l-56.56-30.19c-.19.22-.39.44-.6.65Zm-10.85,3a6.36,6.36,0,0,1-.66-.19l-58.81,81.95a17.78,17.78,0,0,1,2.82,18.2l48.3,30.07c.3-.37.61-.73,1-1.08h0a11.45,11.45,0,0,1,4.6-2.8Zm79.08,36.11a6.52,6.52,0,0,0,4.61-11.12h0a6.46,6.46,0,0,0-4.6-1.91,6.51,6.51,0,0,0-4.61,11.11h0a6.5,6.5,0,0,0,4.61,1.91ZM291,18a6.51,6.51,0,0,0,4.6-11.12h0a6.51,6.51,0,0,0-9.21,9.21h0A6.48,6.48,0,0,0,291,18Zm-2.41,4.73a11.53,11.53,0,0,1-5.72-3.11h0a11.61,11.61,0,0,1-2.31-3.3L184.94,37.16c0,.42,0,.84-.07,1.25l96.81,33.27a11.84,11.84,0,0,1,1.67-2.11h0a11.46,11.46,0,0,1,5.56-3.08l-.31-43.77Zm2.84,146.5A6.5,6.5,0,0,0,298,162.7a6.46,6.46,0,0,0-1.91-4.6h0a6.51,6.51,0,0,0-9.35,9.07l.1.1,0,0h0a6.45,6.45,0,0,0,4.6,1.9Zm-9.57-12.87a12.22,12.22,0,0,1,1.45-1.76h0a11.52,11.52,0,0,1,5.61-3.09l-.7-62.77a11.5,11.5,0,0,1-4.89-2.91h0a11.16,11.16,0,0,1-1-1.09l-68.84,30.46,68.33,41.17Zm12-4.87a11.57,11.57,0,0,1,5.66,3.1h0a11.8,11.8,0,0,1,.94,1.07l70.58-37.33a18.2,18.2,0,0,1-.34-3.49,17.62,17.62,0,0,1,1-5.78L301.21,83.81a12.32,12.32,0,0,1-1.6,2A11.42,11.42,0,0,1,293.22,89l.7,62.43Zm-2.43-67.28a6.51,6.51,0,0,0,4.6-11.12h0a6.52,6.52,0,0,0-10.75,2.44l0,0v0h0a6.51,6.51,0,0,0,.3,4.89h0a6.39,6.39,0,0,0,1.26,1.78h0a6.46,6.46,0,0,0,4.6,1.91Zm-11.22-4a11.68,11.68,0,0,1-.28-2.53,11.15,11.15,0,0,1,.07-1.29L183.25,43.12a11.39,11.39,0,0,1-1.67,2.12,11.19,11.19,0,0,1-2.81,2.06l13.47,49.91a19.31,19.31,0,0,1,2.17-.13,17.67,17.67,0,0,1,12.53,5.2h0a17.75,17.75,0,0,1,4.68,8.29L280.27,80.2ZM173.45,43.62a6.51,6.51,0,0,0,4.61-11.11h0a6.51,6.51,0,0,0-9.21,9.21h0a6.5,6.5,0,0,0,4.61,1.91Zm.52,5h-.52a11.44,11.44,0,0,1-6.8-2.23l-103.76,91c.16.29.31.6.44.9l113.36-22.45c0-.32,0-.65,0-1a17.68,17.68,0,0,1,5.19-12.53h0a18,18,0,0,1,5.55-3.77L174,48.6Zm30.64,122.64a6.51,6.51,0,0,0,4.61-11.11h0a6.51,6.51,0,1,0-9.21,9.21h0a6.5,6.5,0,0,0,4.61,1.91ZM52.81,149.37a6.51,6.51,0,0,0,4.61-11.12h0a6.52,6.52,0,0,0-9.22,9.22h0a6.53,6.53,0,0,0,4.61,1.9Zm2.29,4.76a11.47,11.47,0,0,1-2.29.23,10.89,10.89,0,0,1-1.41-.09L17.63,249.16a10.4,10.4,0,0,1,2,1.6h0a11.4,11.4,0,0,1,2.57,3.93l58.35-9.21v-.29a17.67,17.67,0,0,1,5.2-12.52v0a17.93,17.93,0,0,1,3.13-2.49l-33.81-76ZM203.58,295.35h0a6.36,6.36,0,0,0-.23,1.71,6.51,6.51,0,0,0,1.9,4.6h0a6.52,6.52,0,0,0,11.12-4.61,6.46,6.46,0,0,0-1.91-4.61h0a6.53,6.53,0,0,0-9.21,0,6.52,6.52,0,0,0-1.68,2.89Zm-5.18.79-85.53-40.78a19.16,19.16,0,0,1-2,2.38,17.81,17.81,0,0,1-8.54,4.75l8.41,97a11.36,11.36,0,0,1,5.41,2.22l83-60.64a11.26,11.26,0,0,1-.74-4c0-.32,0-.62,0-.93Zm10.87,12.4a4,4,0,0,1-.49,0l-17.4,133.71a17.84,17.84,0,0,1,6.39,4.1h0a17.69,17.69,0,0,1,4.74,8.52l77.64-29.72a50.12,50.12,0,0,1-8.3-1.92,34.12,34.12,0,0,1-9.16-4.56,41.28,41.28,0,0,1-9.55-9.92h0a80.11,80.11,0,0,1-7.88-14.42l-36-85.75ZM109.22,377.42a6.52,6.52,0,0,0,4.61-11.12h0a6.48,6.48,0,0,0-4.61-1.91l-.5,0h-.13a6.51,6.51,0,0,0-4,11.08h0a6.46,6.46,0,0,0,4.6,1.91Zm3.74,4.37a8.54,8.54,0,0,1-1,.29l2.32,116.83a11.37,11.37,0,0,1,5.5,2.93l49.56-35.18a17.67,17.67,0,0,1,2.39-19.26L113,381.79Zm-6,.39A11.46,11.46,0,0,1,101.1,379h0a11.47,11.47,0,0,1-1.2-1.41L43.5,401.84a10.89,10.89,0,0,1,.2,2.15,11.45,11.45,0,0,1-2.78,7.49l66.14,88.19a11.26,11.26,0,0,1,2.21-.74L107,382.19Zm-9-9.13a11.59,11.59,0,0,1-.2-2.14,11.39,11.39,0,0,1,2.25-6.82L17,269a11.29,11.29,0,0,1-1.45.67L33.1,392.52a11.54,11.54,0,0,1,7.24,3.33h0a10.13,10.13,0,0,1,1.2,1.42l56.4-24.21Zm5.79-12.23a12.06,12.06,0,0,1,2-.88l-8.42-97a17.73,17.73,0,0,1-11.58-5.18h0a17.73,17.73,0,0,1-4.41-7.34L23,259.59a11.37,11.37,0,0,1-2.22,6.12l82.94,95.1ZM32.21,410.48a6.51,6.51,0,0,0,4.61-11.11h0a6.47,6.47,0,0,0-4.6-1.9,6.51,6.51,0,0,0-4.61,11.11h0a6.47,6.47,0,0,0,4.61,1.9Zm79.6,106.16a6.51,6.51,0,0,0,4.61-11.11h0a6.52,6.52,0,0,0-9.22,9.21h0a6.49,6.49,0,0,0,4.61,1.9ZM122.53,506a11.53,11.53,0,0,1,.78,4.17,10.73,10.73,0,0,1-.11,1.51l156.48,57.09-88.8-93.05a17.73,17.73,0,0,1-18.18-4.28h0c-.2-.2-.39-.41-.59-.62L122.53,506Zm349.83,12A6.51,6.51,0,0,0,477,506.85h0a6.52,6.52,0,0,0-9.22,9.21h0a6.5,6.5,0,0,0,4.61,1.91Zm-11.49-6.77a11,11,0,0,1,.27-2.24l-48.71-30.31a16.57,16.57,0,0,1-1.31,1.47,17.75,17.75,0,0,1-23.24,1.62L301,568.09l.4.75,159.5-57.64ZM292.58,427.41a6.51,6.51,0,0,0,4.6-11.11h0a6.51,6.51,0,0,0-10.07,8.13l.1.17a9.39,9.39,0,0,0,.76.91h0a6.48,6.48,0,0,0,4.6,1.89Zm7.63,2.09a11.4,11.4,0,0,1-5.2,2.64l-1.45,61.69a11.46,11.46,0,0,1,5.58,3.09h0a11.44,11.44,0,0,1,2.41,3.55l79.9-28.2a17.75,17.75,0,0,1-.63-4.69,17.28,17.28,0,0,1,.65-4.74l-81.12-33.26-.15-.07ZM290,432.12a11.29,11.29,0,0,1-5.59-3.09h0l-.16-.15L202.94,460a17.59,17.59,0,0,1-1.36,5.76l79,34.51a11.55,11.55,0,0,1,2.34-3.35h0a11.41,11.41,0,0,1,5.68-3.11L290,432.12ZM303.33,425a3.89,3.89,0,0,1-.16.38l80.3,32.91A17.68,17.68,0,0,1,386,455h0a17.73,17.73,0,0,1,6.2-4L374.67,306.09l-37,88.2a75.91,75.91,0,0,1-8,14.49,41.09,41.09,0,0,1-9.86,9.92,36.08,36.08,0,0,1-8,4.07,49.14,49.14,0,0,1-8.4,2.2ZM291,511.55h.06a6.5,6.5,0,0,0,6.45-6.51,6.52,6.52,0,0,0-1.91-4.6h0a6.53,6.53,0,0,0-9.21,0,6.53,6.53,0,0,0,0,9.21h0a6.52,6.52,0,0,0,4.54,1.91H291Zm8.13,1.62a11.44,11.44,0,0,1-5.64,3.09v46.37a11.54,11.54,0,0,1,4.08,1.8l86.79-86.22c-.32-.44-.64-.9-.93-1.37l-80.94,28.58a11.4,11.4,0,0,1-3.36,7.75Zm-10.62,3.09a11.44,11.44,0,0,1-5.64-3.09h0a11.51,11.51,0,0,1-3.37-7.9L199,470.07a15.4,15.4,0,0,1-1.21,1.34,17.5,17.5,0,0,1-2.28,1.93l87.8,92a11.52,11.52,0,0,1,5.22-2.7V516.27Zm2.49,64.1a6.51,6.51,0,0,0,4.6-11.12h0a6.45,6.45,0,0,0-4.54-1.9H291a6.51,6.51,0,0,0-4.55,11.11h0a6.52,6.52,0,0,0,4.61,1.9ZM185.24,468.62A9.76,9.76,0,0,0,192.15,452h0a9.77,9.77,0,0,0-13.82,13.82h0A9.71,9.71,0,0,0,185.24,468.62Zm213.34,8.71a9.76,9.76,0,0,0,6.9-16.66h0a9.77,9.77,0,0,0-13.82,13.82h0A9.73,9.73,0,0,0,398.58,477.33Zm81.69-172.55a9.77,9.77,0,0,0,6.9-16.67h0a9.77,9.77,0,0,0-13.82,13.82h0A9.73,9.73,0,0,0,480.27,304.78ZM388.5,124.6a9.77,9.77,0,0,0,6.9-16.67h0a9.78,9.78,0,0,0-13.83,13.83h0A9.73,9.73,0,0,0,388.5,124.6Zm-194.1,0a9.77,9.77,0,0,0,6.91-16.67h0a9.78,9.78,0,0,0-13.83,13.83h0A9.73,9.73,0,0,0,194.4,124.6ZM11.53,265.41a6.51,6.51,0,0,0,4.6-11.11h0a6.51,6.51,0,0,0-9.21,9.21h0a6.49,6.49,0,0,0,4.6,1.9ZM98.32,255a9.77,9.77,0,0,0,6.9-16.67h0A9.78,9.78,0,0,0,91.4,252.12h0A9.73,9.73,0,0,0,98.32,255Zm712.29-43.32a44.67,44.67,0,0,1-20.82,16q-13.37,5.28-31.11,5.29-17.94,0-31.86-8.42a56,56,0,0,1-21.53-24q-7.62-15.52-7.81-36v-12.8q0-33.18,15.47-51.43t43.51-18.25q23,0,37,11.75t17.14,33.32H791.25q-5.44-29.23-34.69-29.24-19.45,0-29.49,13.68t-10.13,39.61v12q0,24.72,11.29,39.3t30.55,14.59a67.45,67.45,0,0,0,19.06-2.42,29.43,29.43,0,0,0,13.51-8.14v-32.9h-34V157.82h53.24Zm82.08-73.1a55.91,55.91,0,0,0-9.18-.71q-18.35,0-24.9,15.63v77.44H840V121.82H858.1l.31,12.6q9.17-14.61,26-14.62,5.45,0,8.27,1.41Zm80.47,92.36q-1.62-3.22-2.63-11.49-13,13.51-31,13.51-16.14,0-26.47-9.13a29.51,29.51,0,0,1-10.34-23.14q0-17,13-26.47t36.45-9.43h18.15V156.2q0-9.78-5.85-15.57t-17.24-5.8q-10,0-16.74,5t-6.75,12.2H904.89q0-8.17,5.8-15.78a39.52,39.52,0,0,1,15.73-12,52.89,52.89,0,0,1,21.83-4.44q18.86,0,29.54,9.43t11.1,26v50.21q0,15,3.83,23.9v1.61Zm-31-14.22a32.85,32.85,0,0,0,16.64-4.53,27.47,27.47,0,0,0,11.39-11.8V178H955.61q-34.27,0-34.28,20.07,0,8.77,5.85,13.71T942.2,216.7Zm168.09-39.12q0,24.91-11.39,40.13T1068,232.94q-19.86,0-31.26-12.61v52.54h-18.65v-151h17l.91,12.1q11.39-14.11,31.66-14.12,19.66,0,31.11,14.83t11.44,41.24Zm-18.65-2.12q0-18.45-7.87-29.14t-21.58-10.69q-16.93,0-25.41,15v52.13q8.37,14.93,25.61,14.92a25.21,25.21,0,0,0,21.33-10.64Q1091.64,196.44,1091.64,175.46Zm61-40.43q12.4-15.23,32.27-15.23,34.59,0,34.89,39v72.09h-18.66v-72.2q-.09-11.79-5.39-17.44t-16.49-5.65a27,27,0,0,0-15.93,4.84,33,33,0,0,0-10.69,12.71v77.74H1134V76h18.65Zm210.14,27.22q0,21.28-6.76,36.66t-19,24.05l26.21,20.57-13.2,12.2-31-24.61a63,63,0,0,1-15.33,1.82q-17.34,0-30.75-8.52t-20.83-24.3q-7.39-15.78-7.61-36.56V153q0-21.18,7.36-37.41t20.83-24.86q13.45-8.62,30.8-8.62,17.75,0,31.21,8.57t20.72,24.66q7.26,16.08,7.26,37.56Zm-19.36-9.47q0-25.92-10.34-40t-29.49-14.06q-18.25,0-28.79,14T1264,151.46v10.79q0,25.22,10.54,39.73t29.29,14.52q18.76,0,29-13.66t10.59-39.17Zm68.67,62.31h69.57v15.83h-89V84.11h19.46ZM766.46,463l40.15-133.24h40.64L785.56,506.89H747.47L686,329.72h40.52Zm94.91-121.8a17.29,17.29,0,0,1,5.29-13Q872,323,881.08,323t14.36,5.11a18.59,18.59,0,0,1-.06,26.16q-5.42,5.1-14.3,5.11t-14.3-5.11A17.27,17.27,0,0,1,861.37,341.16Zm37.35,165.73H863.44V375.23h35.28ZM999,470.5q0-6.45-6.39-10.16t-20.5-6.63q-47-9.85-47-39.91,0-17.52,14.54-29.26t38-11.75q25.06,0,40.09,11.81t15,30.66H997.65a17,17,0,0,0-4.87-12.47q-4.86-4.94-15.21-4.93-8.88,0-13.75,4A12.7,12.7,0,0,0,959,412.1q0,5.83,5.53,9.43t18.68,6.2a153.73,153.73,0,0,1,22.15,5.9q27.85,10.23,27.86,35.41,0,18-15.45,29.15t-39.91,11.13q-16.56,0-29.39-5.9a49.33,49.33,0,0,1-20.14-16.19A37.62,37.62,0,0,1,921,465h33.34q.49,9.36,6.94,14.36t17.28,5q10.1,0,15.27-3.83A11.91,11.91,0,0,0,999,470.5Zm135.67,23q-13,15.83-36,15.82-21.18,0-32.31-12.17T1055,461.5V375.23h35.17v85.15q0,20.6,18.74,20.59,17.88,0,24.58-12.43V375.23h35.28V506.89h-33.09Zm136.89,13.39a39.19,39.19,0,0,1-3.52-11.81q-12.78,14.24-33.22,14.24-19.35,0-32.07-11.2A36,36,0,0,1,1190,469.89q0-20.92,15.51-32.12t44.84-11.32h16.19v-7.54q0-9.12-4.69-14.6t-14.78-5.48q-8.89,0-13.94,4.26t-5.05,11.68H1193A35.3,35.3,0,0,1,1200,393.6q7-9.74,20-15.27a72.74,72.74,0,0,1,29-5.54q24.35,0,38.64,12.23t14.29,34.38v57.07q.12,18.73,5.24,28.35v2.07Zm-29.08-24.46a30.32,30.32,0,0,0,14.36-3.47,22.76,22.76,0,0,0,9.74-9.31V447h-13.15q-26.4,0-28.1,18.25l-.13,2.07a14.06,14.06,0,0,0,4.63,10.83Q1234.44,482.43,1242.47,482.43ZM1366,506.89h-35.29V320H1366Zm28.72-165.73a17.29,17.29,0,0,1,5.29-13q5.29-5.11,14.42-5.11t14.36,5.11a18.59,18.59,0,0,1-.06,26.16q-5.42,5.1-14.3,5.11t-14.3-5.11A17.27,17.27,0,0,1,1394.7,341.16Zm37.35,165.73h-35.29V375.23h35.29Zm69.36-28.36h64.37v28.36H1456.51V485.47l61.94-81.89h-60.11V375.23h105.49v20.71Zm147,30.79q-29,0-47.15-17.77t-18.19-47.33v-3.41q0-19.83,7.66-35.47a56.34,56.34,0,0,1,21.72-24.09q14.05-8.46,32.07-8.46,27,0,42.52,17t15.52,48.31v14.35h-83.84q1.71,12.9,10.28,20.69t21.72,7.79q20.32,0,31.76-14.73l17.28,19.35a52.63,52.63,0,0,1-21.42,17.46A70.2,70.2,0,0,1,1648.4,509.32Zm-4-108.18q-10.47,0-17,7.09t-8.33,20.29H1668v-2.81q-.24-11.73-6.32-18.15T1644.39,401.14Zm152.1,7.06a95.43,95.43,0,0,0-12.66-1q-19.95,0-26.16,13.51v86.15h-35.16V375.23h33.21l1,15.69q10.59-18.12,29.32-18.13a36.6,36.6,0,0,1,11,1.59Z"/></g></g></svg>