<?xml version="1.0" encoding="utf-8"?>
<!-- Generator: Adobe Illustrator 26.4.0, SVG Export Plug-In . SVG Version: 6.00 Build 0)  -->
<svg version="1.1" id="Layer_1" xmlns="http://www.w3.org/2000/svg" xmlns:xlink="http://www.w3.org/1999/xlink" x="0px" y="0px"
	 viewBox="0 0 1797 585.4" style="enable-background:new 0 0 1797 585.4;" xml:space="preserve">
<style type="text/css">
	.st0{fill:#E10098;}
	.st1{fill-rule:evenodd;clip-rule:evenodd;fill:#E10098;}
</style>
<g>
	<path class="st0" d="M653.3,389.6c-2.1,0-3.6-0.6-4.8-1.8c-1.1-1.2-1.7-2.8-1.7-4.6V200.3c0-2.1,0.6-3.7,1.7-4.9
		c1.1-1.2,2.7-1.8,4.8-1.8H730c14,0,25.4,2.3,34.3,6.9c8.9,4.6,15.4,10.8,19.6,18.6c4.2,7.8,6.3,16.6,6.3,26.3
		c0,7.7-1.3,14.2-3.8,19.7c-2.5,5.5-5.6,10-9.4,13.4c-3.7,3.5-7.4,6.1-10.9,8c7.3,3.5,13.8,9.3,19.5,17.4c5.7,8,8.5,17.7,8.5,29.1
		c0,10.3-2.3,19.7-7,28.3c-4.7,8.6-11.6,15.4-20.9,20.6c-9.2,5.1-20.6,7.7-34,7.7H653.3z M674.3,276.5h51.5c11.9,0,21-2.8,27.2-8.3
		c6.2-5.5,9.2-13,9.2-22.5s-3.1-16.8-9.2-21.8c-6.2-5-15.2-7.6-27.2-7.6h-51.5V276.5z M674.3,366.9h54.3c11.9,0,21.2-3.3,27.7-9.8
		c6.5-6.5,9.8-14.6,9.8-24.1c0-9.9-3.3-18.1-9.8-24.5c-6.5-6.4-15.8-9.7-27.7-9.7h-54.3V366.9z"/>
	<path class="st0" d="M870.8,392.4c-9.3,0-17.8-1.9-25.5-5.6c-7.7-3.7-13.8-8.8-18.5-15.1c-4.7-6.3-7-13.5-7-21.6
		c0-12.9,5.2-23.1,15.7-30.8c10.5-7.7,24.1-12.7,40.9-15.1l41.7-5.9v-8.1c0-9-2.6-16-7.7-21c-5.1-5-13.5-7.6-25.1-7.6
		c-8.2,0-14.9,1.7-20.2,5c-5.2,3.4-8.9,7.7-10.9,12.9c-1.1,2.8-3.1,4.2-5.9,4.2h-12.6c-2.1,0-3.6-0.6-4.6-1.8
		c-1-1.2-1.5-2.7-1.5-4.3c0-2.8,1.1-6.3,3.2-10.4c2.1-4.1,5.5-8.1,9.9-12c4.5-3.9,10.2-7.2,17.2-9.9c7-2.7,15.5-4.1,25.6-4.1
		c11.2,0,20.6,1.4,28.3,4.3c7.7,2.9,13.7,6.8,18.1,11.6c4.4,4.9,7.6,10.4,9.5,16.5c2,6.2,2.9,12.4,2.9,18.8v90.7
		c0,1.9-0.6,3.4-1.8,4.6c-1.2,1.2-2.8,1.8-4.6,1.8h-12.9c-2.1,0-3.6-0.6-4.8-1.8c-1.1-1.2-1.7-2.8-1.7-4.6v-12
		c-2.4,3.4-5.7,6.7-9.8,9.9c-4.1,3.3-9.2,6-15.4,8.1S879.8,392.4,870.8,392.4z M876.7,371.4c7.7,0,14.7-1.6,21-4.9
		c6.3-3.3,11.3-8.4,15-15.3c3.6-6.9,5.5-15.6,5.5-26v-7.8l-32.5,4.8c-13.3,1.9-23.2,5-30,9.4c-6.7,4.4-10.1,9.9-10.1,16.7
		c0,5.2,1.5,9.6,4.6,13c3.1,3.5,7,6,11.8,7.7S871.7,371.4,876.7,371.4z"/>
	<path class="st0" d="M991.2,389.6c-1.9,0-3.4-0.6-4.6-1.8c-1.2-1.2-1.8-2.8-1.8-4.6V250.4c0-1.9,0.6-3.4,1.8-4.6
		c1.2-1.2,2.8-1.8,4.6-1.8h13.2c1.9,0,3.4,0.6,4.6,1.8c1.2,1.2,1.8,2.8,1.8,4.6v12.3c4.9-6.3,11-11.5,18.3-15.5c7.4-4,16.8-6,28.4-6
		c12.1,0,22.4,2.7,30.9,8c8.5,5.3,14.9,12.7,19.3,22.1c4.4,9.4,6.6,20.4,6.6,32.9v79c0,1.9-0.6,3.4-1.8,4.6
		c-1.2,1.2-2.8,1.8-4.6,1.8h-14c-1.9,0-3.4-0.6-4.6-1.8c-1.2-1.2-1.8-2.8-1.8-4.6v-77.6c0-13.1-3.2-23.3-9.5-30.7
		c-6.3-7.4-15.7-11.1-28-11.1c-11.6,0-20.9,3.7-27.9,11.1c-7,7.4-10.5,17.6-10.5,30.7v77.6c0,1.9-0.6,3.4-1.8,4.6
		c-1.2,1.2-2.8,1.8-4.6,1.8H991.2z"/>
	<path class="st0" d="M1214.1,451.2c-12.7,0-23.1-1.7-31.2-5c-8.1-3.4-14.5-7.4-19-12.2c-4.6-4.8-7.8-9.5-9.8-14.3
		c-2-4.8-3-8.5-3.2-11.3c-0.2-1.9,0.4-3.5,1.8-4.8c1.4-1.3,2.9-2,4.6-2h13.4c1.7,0,3.1,0.4,4.2,1.1c1.1,0.7,2.1,2.3,2.8,4.8
		c1.1,2.8,2.8,5.9,5,9.4c2.2,3.5,5.7,6.4,10.4,9c4.7,2.5,11.2,3.8,19.6,3.8c8.8,0,16.1-1.2,22.1-3.6c6-2.4,10.5-6.5,13.6-12.3
		c3.1-5.8,4.6-13.8,4.6-24.1v-19c-4.5,5.8-10.4,10.6-17.6,14.4c-7.3,3.8-16.4,5.7-27.4,5.7c-10.5,0-19.4-1.8-26.9-5.5
		c-7.5-3.6-13.6-8.6-18.3-14.8c-4.8-6.3-8.3-13.4-10.6-21.4c-2.3-8-3.7-16.4-4.1-25.2c-0.2-5.2-0.2-10.4,0-15.4
		c0.4-8.8,1.7-17.2,4.1-25.2c2.3-8,5.9-15.2,10.6-21.6c4.8-6.3,10.9-11.3,18.3-15c7.5-3.6,16.4-5.5,26.9-5.5
		c11.2,0,20.5,2.1,27.9,6.2c7.4,4.1,13.4,9.2,18.1,15.4v-12c0-1.9,0.6-3.5,1.8-4.8c1.2-1.3,2.8-2,4.6-2h12.9c1.9,0,3.5,0.7,4.8,2
		c1.3,1.3,2,2.9,2,4.8v135.8c0,12.5-2.1,23.6-6.3,33.3c-4.2,9.7-11.1,17.4-20.7,23C1243.3,448.4,1230.3,451.2,1214.1,451.2z
		 M1213.5,368.3c9.3,0,16.8-2.1,22.5-6.4c5.7-4.3,9.9-9.7,12.6-16.2c2.7-6.5,4.2-13.2,4.3-19.9c0.2-2.6,0.3-5.8,0.3-9.7
		c0-3.8-0.1-7-0.3-9.7c-0.2-6.7-1.6-13.3-4.3-19.9c-2.7-6.5-6.9-11.9-12.6-16.2c-5.7-4.3-13.2-6.4-22.5-6.4
		c-9.3,0-16.8,2.1-22.4,6.3c-5.6,4.2-9.6,9.7-12,16.5c-2.4,6.8-3.8,14.1-4.2,22c-0.2,4.9-0.2,9.8,0,14.8c0.4,7.8,1.8,15.2,4.2,22
		c2.4,6.8,6.4,12.3,12,16.5C1196.7,366.2,1204.2,368.3,1213.5,368.3z"/>
	<path class="st0" d="M1328.3,389.6c-1.9,0-3.4-0.6-4.6-1.8c-1.2-1.2-1.8-2.8-1.8-4.6V197.2c0-1.9,0.6-3.4,1.8-4.6
		c1.2-1.2,2.8-1.8,4.6-1.8h13.2c1.9,0,3.4,0.6,4.6,1.8c1.2,1.2,1.8,2.8,1.8,4.6v97.4l55.2-45.9c2.2-1.9,4-3.1,5.2-3.8
		c1.2-0.7,3.2-1,6-1h14.8c1.7,0,3.1,0.6,4.2,1.7c1.1,1.1,1.7,2.5,1.7,4.2c0,0.7-0.2,1.6-0.7,2.5c-0.5,0.9-1.4,1.9-2.7,2.8L1367,309
		l71.7,69.7c2.2,1.9,3.4,3.5,3.4,5c0,1.7-0.6,3.1-1.7,4.2c-1.1,1.1-2.5,1.7-4.2,1.7h-14.6c-2.8,0-4.9-0.3-6.2-1
		c-1.3-0.7-3-1.9-5-3.8l-62.4-59.6v58c0,1.9-0.6,3.4-1.8,4.6c-1.2,1.2-2.8,1.8-4.6,1.8H1328.3z"/>
	<path class="st0" d="M1519,392.4c-14.2,0-26-2.7-35.6-8.1c-9.5-5.4-16.8-12.9-21.8-22.5c-5-9.6-7.8-20.6-8.4-32.9
		c-0.2-3.2-0.3-7.2-0.3-12.2c0-4.9,0.1-8.9,0.3-11.9c0.6-12.5,3.4-23.5,8.5-33c5.1-9.5,12.5-17,22-22.4c9.5-5.4,21.3-8.1,35.3-8.1
		s25.8,2.7,35.3,8.1c9.5,5.4,16.8,12.9,22,22.4c5.1,9.5,8,20.5,8.5,33c0.2,3,0.3,7,0.3,11.9c0,4.9-0.1,9-0.3,12.2
		c-0.6,12.3-3.4,23.3-8.4,32.9c-5,9.6-12.3,17.1-21.8,22.5C1545.1,389.7,1533.2,392.4,1519,392.4z M1519,370.8
		c11.6,0,20.8-3.7,27.7-11.1c6.9-7.4,10.6-18.2,11.2-32.3c0.2-2.8,0.3-6.3,0.3-10.6c0-4.3-0.1-7.8-0.3-10.6
		c-0.6-14.2-4.3-25-11.2-32.3c-6.9-7.4-16.1-11.1-27.7-11.1c-11.6,0-20.9,3.7-27.9,11.1c-7,7.4-10.7,18.2-11.1,32.3
		c-0.2,2.8-0.3,6.3-0.3,10.6c0,4.3,0.1,7.8,0.3,10.6c0.4,14.2,4.1,25,11.1,32.3C1498.2,367.1,1507.4,370.8,1519,370.8z"/>
	<path class="st0" d="M1626.8,389.6c-1.9,0-3.4-0.6-4.6-1.8c-1.2-1.2-1.8-2.8-1.8-4.6V197.2c0-1.9,0.6-3.4,1.8-4.6
		c1.2-1.2,2.8-1.8,4.6-1.8h13.2c1.9,0,3.4,0.6,4.6,1.8c1.2,1.2,1.8,2.8,1.8,4.6v97.4l55.2-45.9c2.2-1.9,4-3.1,5.2-3.8
		c1.2-0.7,3.2-1,6-1h14.8c1.7,0,3.1,0.6,4.2,1.7c1.1,1.1,1.7,2.5,1.7,4.2c0,0.7-0.2,1.6-0.7,2.5c-0.5,0.9-1.4,1.9-2.7,2.8
		l-64.7,53.8l71.7,69.7c2.2,1.9,3.4,3.5,3.4,5c0,1.7-0.6,3.1-1.7,4.2c-1.1,1.1-2.5,1.7-4.2,1.7h-14.6c-2.8,0-4.9-0.3-6.2-1
		c-1.3-0.7-3-1.9-5-3.8l-62.4-59.6v58c0,1.9-0.6,3.4-1.8,4.6c-1.2,1.2-2.8,1.8-4.6,1.8H1626.8z"/>
</g>
<path class="st1" d="M267.9,45.2l215.4,124.4v248.7L267.9,542.7L52.5,418.3V169.6L267.9,45.2z M76.6,183.5v182.7l158.2-274
	L76.6,183.5z M267.9,83.3L85.5,399.3h364.8L267.9,83.3z M426.1,423.5H109.7l158.2,91.3L426.1,423.5z M459.2,366.3l-158.3-274
	l158.2,91.3v182.7H459.2z"/>
<path class="st0" d="M267.9,110c28.1,0,50.9-22.8,50.9-50.9S296,8.2,267.9,8.2S217,31,217,59.1C217,87.3,239.8,110,267.9,110z"/>
<path class="st0" d="M471.2,227.5c28.1,0,50.9-22.8,50.9-50.9s-22.8-50.9-50.9-50.9s-50.9,22.8-50.9,50.9S443.1,227.5,471.2,227.5z"
	/>
<path class="st0" d="M471.2,462.3c28.1,0,50.9-22.8,50.9-50.9s-22.8-50.9-50.9-50.9s-50.9,22.8-50.9,50.9
	C420.3,439.4,443.1,462.3,471.2,462.3z"/>
<path class="st0" d="M267.9,579.7c28.1,0,50.9-22.8,50.9-50.9c0-28.1-22.8-50.9-50.9-50.9S217,500.7,217,528.8
	C217,556.9,239.8,579.7,267.9,579.7z"/>
<path class="st0" d="M64.5,462.3c28.1,0,50.9-22.8,50.9-50.9s-22.8-50.9-50.9-50.9s-50.9,22.8-50.9,50.9S36.4,462.3,64.5,462.3z"/>
<path class="st0" d="M64.5,227.5c28.1,0,50.9-22.8,50.9-50.9s-22.8-50.9-50.9-50.9s-50.9,22.8-50.9,50.9S36.4,227.5,64.5,227.5z"/>
<path class="st1" d="M198,336.7l69.7,24l69.4-24c0.5-8-2.4-24.5-17.5-26.8c-0.7-5-3.9-15.3-11.8-16.4v-4.7h6.6v-12.2h-19.9v-12.2
	h14.2v-2.9c-12.9-0.6-39.1-26.5-41.1-135.8v235.1V125.4c-1.9,109.5-28.5,135.4-41.4,135.9v2.9h14.2v12.2h-19.9v12.2h6.6v4.7
	c-7.9,1.1-11.2,11.4-11.8,16.4C200.4,312.1,197.6,328.6,198,336.7z M246.9,264.2h5.6v12.2h-5.6V264.2z M259.1,264.2h5.6v12.2h-5.6
	V264.2z M271.3,264.2h5.6v12.2h-5.6V264.2z M283.7,264.2h5.6v12.2h-5.6V264.2z"/>
</svg>
