<?xml version="1.0" encoding="utf-8"?>
<!-- Generator: Adobe Illustrator 26.4.0, SVG Export Plug-In . SVG Version: 6.00 Build 0)  -->
<svg version="1.1" id="Layer_1" xmlns="http://www.w3.org/2000/svg" xmlns:xlink="http://www.w3.org/1999/xlink" x="0px" y="0px"
	 viewBox="0 0 1660.2 585.4" style="enable-background:new 0 0 1660.2 585.4;" xml:space="preserve">
<style type="text/css">
	.st0{fill:#20B4D5;}
	.st1{fill:#1B2838;}
</style>
<path class="st0" d="M511.1,209.1c12.5-38.4,4.9-115.3-19.2-143.7c-2.5-3.1-7.3-3.3-10.4-0.8c-0.6,0.4-1,1-1.4,1.8l-29.8,46.3
	c-7.5,9.2-20.6,11.4-30.6,4.9c-68.4-44.1-156.5-44.1-224.9,0c-10,6.5-23.1,4.3-30.6-4.9l-29.8-46.3c-2.2-3.5-6.7-4.5-10.2-2.4
	c-0.6,0.4-1.2,0.8-1.6,1.4c-24.1,28.4-31.8,105.1-19.2,143.7c4.1,12.7,5.1,26.3,2.7,39.4c-2.4,12.9-4.9,28.8-4.9,39.8
	c0,112.6,92.2,203.9,205.9,203.9S513,400.8,513,288.3c0-11-2.4-26.7-4.9-39.8C505.8,235.3,506.8,221.8,511.1,209.1z M306.9,446.7
	c-87.8,0-159.2-70.8-159.2-157.9c0-2.9,0-5.7,0.2-8.4c5.7-88,81.6-154.7,169.4-149c20,1.4,39.6,6.3,57.8,14.9
	c52.7,24.5,87.7,76.1,91,134.1c0.2,2.7,0.2,5.7,0.2,8.4C466.4,375.9,395,446.7,306.9,446.7z"/>
<path class="st0" d="M376.2,349.7l-40.8-70l-34.9-58.2c-0.8-1.4-2.4-2.2-3.9-2.2h-33.3c-1.6,0-3.1,1-3.9,2.4c-0.8,1.4-0.8,3.1,0,4.5
	l33.3,55.7l-44.9,67.5c-1,1.4-1,3.1-0.2,4.7c0.8,1.4,2.4,2.4,4.1,2.4h33.5c1.6,0,3.1-0.8,3.9-2.2l24.1-37.5L335,354
	c0.8,1.4,2.4,2.2,3.9,2.2H372c1.6,0,3.1-0.8,3.9-2.2C376.9,352.8,376.9,351,376.2,349.7z"/>
<path class="st1" d="M702.6,171.8h42.6v230.6h-42.6v-98.2h-48v98.4h-42.6V171.8h42.6V272h48V171.8z"/>
<path class="st1" d="M876.2,402.4l-8.8-47.8h-51l-8,47.8H766l46.9-230.6h57.1l49,230.6H876.2z M821.9,322.8h39.4l-20.4-110.4
	L821.9,322.8z"/>
<path class="st1" d="M1013.4,360.3v-49.4c0-3.9-0.8-6.5-2.2-7.8c-1.4-1.4-4.1-2-8-2h-29.8c-25.3,0-38-12.2-38-36.5v-56.7
	c0-24.1,13.3-36.3,39.8-36.3h40.6c26.7,0,39.8,12,39.8,36.3v32.2h-42.7v-26.3c0-3.9-0.8-6.5-2.2-7.8c-1.4-1.4-4.1-2-8.2-2h-14.1
	c-4.1,0-7.1,0.6-8.4,2c-1.4,1.4-2.2,3.9-2.2,7.8v46.5c0,3.9,0.8,6.5,2.2,7.8c1.4,1.4,4.3,2,8.4,2h29.2c25.9,0,38.8,12,38.8,35.9
	v60.4c0,24.1-13.3,36.3-40.2,36.3h-39.8c-26.9,0-40.2-12.2-40.2-36.3v-31.8h42.4v25.9c0,3.9,0.8,6.5,2.2,7.8c1.4,1.4,4.3,2,8.4,2
	h14.1c3.9,0,6.7-0.6,8-2C1012.9,366.9,1013.4,364.2,1013.4,360.3z"/>
<path class="st1" d="M1169.5,171.8h42.4v194.5c0,24.1-13.3,36.3-40.2,36.3h-45.1c-26.9,0-40.2-12.2-40.2-36.3V171.8h42.6v188.6
	c0,3.9,0.8,6.5,2.2,7.8s4.1,2,8.2,2h19.6c4.1,0,7.1-0.6,8.4-2s2.2-3.9,2.2-7.8L1169.5,171.8z"/>
<path class="st1" d="M1289.5,312.4v90h-42.4V171.8h85.7c26.9,0,40.2,12,40.2,36.3v68.4c0,20-9,31.8-27.1,35.1l38.8,91H1339l-35.5-90
	L1289.5,312.4z M1289.5,203.8v77.5h30.6c3.9,0,6.7-0.8,8.2-2s2.2-3.9,2.2-7.8v-57.8c0-3.9-0.8-6.5-2.2-7.8s-4.1-2-8.2-2
	L1289.5,203.8z"/>
<path class="st1" d="M1501.5,402.4l-8.8-47.8h-51l-8.2,47.8h-42.4l46.9-230.6h57.3l49.2,230.6H1501.5z M1447.2,322.8h39.4
	l-20.2-110.4L1447.2,322.8z"/>
</svg>
