<?xml version="1.0" encoding="utf-8"?>
<!-- Generator: Adobe Illustrator 26.4.0, SVG Export Plug-In . SVG Version: 6.00 Build 0)  -->
<svg version="1.1" id="Layer_1" xmlns="http://www.w3.org/2000/svg" xmlns:xlink="http://www.w3.org/1999/xlink" x="0px" y="0px"
	 viewBox="0 0 72 72" style="enable-background:new 0 0 72 72;" xml:space="preserve">
<style type="text/css">
	.st0{fill:#1A2735;}
	.st1{fill:#FFFFFF;}
</style>
<g>
	<path class="st0" d="M37.1,71.5h-2.3C15.7,71.5,0.3,56.1,0.3,37v-2.3c0-19.1,15.5-34.5,34.5-34.5h2.3c19.1,0,34.5,15.5,34.5,34.5
		V37C71.6,56.1,56.2,71.5,37.1,71.5z"/>
	<g id="logo_00000149351339912443314960000010653387720544831409_">
		<rect x="17.2" y="29.3" class="st1" width="8" height="25.8"/>
		<path class="st1" d="M55.3,38.9v16.3h-8V42.4c0-0.8,0-1.5,0-2.2c-0.2-3.2-1.5-4.8-4.3-4.8c-0.7,0-1.4,0.2-2,0.5
			c-1.7,0.8-2.8,2.8-2.9,6.5v12.8h-8V29.3h7.7l0.1,3.3c2.3-2.8,5.3-4.5,9.4-4.2C53.1,29.4,55.2,33.4,55.3,38.9z"/>
		<path class="st1" d="M25.9,21.1c0-2.6-2.1-4.6-4.6-4.6s-4.6,2.1-4.6,4.6s2.1,4.6,4.6,4.6S25.9,23.7,25.9,21.1z"/>
	</g>
</g>
</svg>
