<?xml version="1.0" encoding="utf-8"?>
<!-- Generator: Adobe Illustrator 26.4.0, SVG Export Plug-In . SVG Version: 6.00 Build 0)  -->
<svg version="1.1" id="Layer_1" xmlns="http://www.w3.org/2000/svg" xmlns:xlink="http://www.w3.org/1999/xlink" x="0px" y="0px"
	 viewBox="0 0 72 72" style="enable-background:new 0 0 72 72;" xml:space="preserve">
<style type="text/css">
	.st0{fill-rule:evenodd;clip-rule:evenodd;fill:#FFFFFF;}
	.st1{fill-rule:evenodd;clip-rule:evenodd;fill:#E4E4E4;}
	.st2{fill-rule:evenodd;clip-rule:evenodd;fill:#192635;}
</style>
<g>
	<path class="st0" d="M62,62H51.3V43.8c0-5-1.9-7.8-5.8-7.8c-4.3,0-6.5,2.9-6.5,7.8V62H28.6V27.3h10.3V32c0,0,3.1-5.7,10.5-5.7
		S62,30.8,62,40.1V62z M16.3,22.8c-3.5,0-6.3-2.9-6.3-6.4s2.8-6.4,6.3-6.4s6.3,2.9,6.3,6.4S19.9,22.8,16.3,22.8z M11,62h10.7V27.3
		H11V62z"/>
</g>
<g>
	<path class="st1" d="M8,72.3h56c4.4,0,8-3.6,8-8v-56c0-4.4-3.6-8-8-8H8c-4.4,0-8,3.6-8,8v56C0,68.8,3.6,72.3,8,72.3z"/>
	<path class="st2" d="M62,62.3H51.3V44.1c0-5-1.9-7.8-5.8-7.8c-4.3,0-6.5,2.9-6.5,7.8v18.2H28.6V27.7h10.3v4.6c0,0,3.1-5.7,10.5-5.7
		S62,31.1,62,40.4V62.3z M16.4,23.1c-3.5,0-6.3-2.9-6.3-6.4s2.8-6.4,6.3-6.4s6.3,2.9,6.3,6.4S19.9,23.1,16.4,23.1z M11,62.3h10.7
		V27.7H11V62.3z"/>
</g>
</svg>
