<?xml version="1.0" encoding="utf-8"?>
<!-- Generator: Adobe Illustrator 26.4.0, SVG Export Plug-In . SVG Version: 6.00 Build 0)  -->
<svg version="1.1" id="Layer_1" xmlns="http://www.w3.org/2000/svg" xmlns:xlink="http://www.w3.org/1999/xlink" x="0px" y="0px"
	 viewBox="0 0 1797 585.4" style="enable-background:new 0 0 1797 585.4;" xml:space="preserve">
<style type="text/css">
	.st0{fill:#0081FB;}
	.st1{fill:url(#Logo1_00000096021772378416993410000000864620641332986033_);}
	.st2{fill:url(#Logo2_00000180337781702614691370000008210820915879510714_);}
	.st3{fill:#192830;}
</style>
<path id="Logo0" class="st0" d="M111.2,322.2c0,19.4,4.3,34.3,9.8,43.3c7.3,11.8,18.2,16.8,29.3,16.8c14.3,0,27.4-3.6,52.6-38.4
	c20.2-28,44-67.2,60.1-91.8l27.1-41.7c18.9-29,40.7-61.2,65.7-83c20.4-17.8,42.5-27.7,64.6-27.7c37.2,0,72.7,21.6,99.8,62
	c29.7,44.3,44.1,100.1,44.1,157.7c0,34.2-6.7,59.4-18.2,79.3c-11.1,19.2-32.7,38.4-69.1,38.4v-54.8c31.2,0,38.9-28.6,38.9-61.4
	c0-46.7-10.9-98.5-34.9-135.5c-17-26.3-39.1-42.3-63.3-42.3c-26.2,0-47.4,19.8-71.1,55.1c-12.6,18.7-25.6,41.6-40.1,67.4l-16,28.4
	c-32.2,57-40.3,70-56.4,91.4c-28.2,37.5-52.2,51.8-83.9,51.8c-37.6,0-61.3-16.3-76.1-40.8c-12-20-17.9-46.2-17.9-76.1L111.2,322.2z"
	/>
<linearGradient id="Logo1_00000021829448249252144090000002541449433841570178_" gradientUnits="userSpaceOnUse" x1="166.4803" y1="326.3856" x2="516.3437" y2="308.7157" gradientTransform="matrix(1 0 0 -1 0 586)">
	<stop  offset="0" style="stop-color:#0064E1"/>
	<stop  offset="0.4" style="stop-color:#0064E1"/>
	<stop  offset="0.83" style="stop-color:#0073EE"/>
	<stop  offset="1" style="stop-color:#0082FB"/>
</linearGradient>
<path id="Logo1" style="fill:url(#Logo1_00000021829448249252144090000002541449433841570178_);" d="M99.6,165.5
	c25.2-38.8,61.5-65.9,103.1-65.9c24.1,0,48.1,7.1,73.1,27.6c27.4,22.4,56.6,59.2,93,119.8l13.1,21.8c31.5,52.5,49.5,79.5,60,92.3
	c13.5,16.4,23,21.2,35.2,21.2c31.2,0,38.9-28.6,38.9-61.4l48.4-1.5c0,34.2-6.7,59.4-18.2,79.3c-11.1,19.2-32.7,38.4-69.1,38.4
	c-22.6,0-42.7-4.9-64.8-25.8c-17-16-36.9-44.5-52.3-70.2L314.5,265c-22.9-38.2-43.8-66.7-56-79.6c-13.1-13.9-29.8-30.6-56.6-30.6
	c-21.7,0-40.1,15.2-55.5,38.5L99.6,165.5z"/>
<linearGradient id="Logo2_00000089532623717117344830000002112177344177208208_" gradientUnits="userSpaceOnUse" x1="129.5312" y1="240.7764" x2="129.5312" y2="369.7664" gradientTransform="matrix(1 0 0 -1 0 586)">
	<stop  offset="0" style="stop-color:#0082FB"/>
	<stop  offset="1" style="stop-color:#0064E0"/>
</linearGradient>
<path id="Logo2" style="fill:url(#Logo2_00000089532623717117344830000002112177344177208208_);" d="M201.8,154.8
	c-21.7,0-40.1,15.2-55.5,38.5c-21.8,32.9-35.1,81.9-35.1,128.9c0,19.4,4.3,34.3,9.8,43.3l-46.8,30.8c-12-20-17.9-46.2-17.9-76.1
	c0-54.3,14.9-111,43.3-154.7c25.2-38.8,61.5-65.9,103.1-65.9L201.8,154.8z"/>
<path id="Text" class="st3" d="M671.1,110.3h63.5l107.9,195.3l108-195.3h62.1v320.9h-51.8V185.2l-94.7,170.3h-48.6l-94.7-170.3
	v245.9h-51.8V110.3z M1174.9,229.9c-37.1,0-59.5,28-64.9,62.6h126.1C1233.5,256.8,1213,229.9,1174.9,229.9L1174.9,229.9z
	 M1058.7,312.2c0-72.8,47.1-125.8,117.1-125.8c68.9,0,110,52.3,110,129.7v14.2h-175.8c6.2,37.7,31.2,63,71.5,63
	c32.1,0,52.2-9.8,71.3-27.7l27.5,33.7c-25.9,23.8-58.9,37.6-100.6,37.6C1103.9,436.9,1058.7,381.6,1058.7,312.2z M1348.7,234.5H1301
	v-42.4h47.7V122h50v70.1h72.4v42.4h-72.4V342c0,36.7,11.7,49.7,40.6,49.7c13.2,0,20.7-1.1,31.9-3v41.9c-13.9,3.9-27.1,5.7-41.5,5.7
	c-53.9,0-80.9-29.5-80.9-88.5L1348.7,234.5z M1681.5,275.8c-10-25.3-32.4-44-65.3-44c-42.8,0-70.1,30.3-70.1,79.8
	c0,48.2,25.2,80,68.1,80c33.7,0,57.8-19.6,67.4-44V275.8z M1731.4,431.2h-49.1v-33.5c-13.7,19.7-38.7,39.2-79.1,39.2
	c-65,0-108.4-54.4-108.4-125.4c0-71.6,44.5-125.2,111.2-125.2c33,0,58.8,13.2,76.3,36.5v-30.7h49.1V431.2z"/>
</svg>
