<?xml version="1.0" encoding="UTF-8"?>
<svg id="Layer_2" data-name="Layer 2" xmlns="http://www.w3.org/2000/svg" viewBox="0 0 237.45 206.89">
  <defs>
    <style>
      .cls-1 {
        fill: #00c0c6;
      }

      .cls-2 {
        fill: #e4e4e4;
      }
    </style>
  </defs>
  <g id="Layer_1-2" data-name="Layer 1">
    <path class="cls-2" d="M109.77,146.73c-20.63,0-37.42-16.78-37.42-37.42s16.79-37.42,37.42-37.42,37.42,16.79,37.42,37.42-16.79,37.42-37.42,37.42Zm0-71.49c-18.79,0-34.07,15.28-34.07,34.07s15.29,34.07,34.07,34.07,34.07-15.28,34.07-34.07-15.29-34.07-34.07-34.07Z"/>
    <g>
      <path class="cls-1" d="M128.92,109.31c0,10.57-8.57,19.14-19.14,19.14s-19.14-8.57-19.14-19.14,8.57-19.14,19.14-19.14,19.14,8.57,19.14,19.14Z"/>
      <path class="cls-1" d="M109.77,130.13c-11.48,0-20.81-9.34-20.81-20.81s9.34-20.82,20.81-20.82,20.82,9.34,20.82,20.82-9.34,20.81-20.82,20.81Zm0-38.28c-9.63,0-17.47,7.84-17.47,17.47s7.83,17.47,17.47,17.47,17.47-7.84,17.47-17.47-7.83-17.47-17.47-17.47Z"/>
    </g>
    <g>
      <path class="cls-2" d="M140.17,21.12c0,10.74-8.71,19.45-19.45,19.45s-19.45-8.71-19.45-19.45S109.98,1.67,120.72,1.67s19.45,8.71,19.45,19.45Z"/>
      <path class="cls-2" d="M120.73,42.24c-11.65,0-21.12-9.48-21.12-21.12S109.08,0,120.73,0s21.12,9.48,21.12,21.12-9.47,21.12-21.12,21.12Zm0-38.89c-9.8,0-17.77,7.97-17.77,17.77s7.97,17.77,17.77,17.77,17.77-7.97,17.77-17.77-7.97-17.77-17.77-17.77Z"/>
    </g>
    <g>
      <path class="cls-2" d="M235.78,63.62c0,10.74-8.71,19.45-19.45,19.45s-19.45-8.71-19.45-19.45,8.71-19.45,19.45-19.45,19.45,8.71,19.45,19.45Z"/>
      <path class="cls-2" d="M216.33,84.74c-11.65,0-21.12-9.48-21.12-21.12s9.48-21.12,21.12-21.12,21.12,9.48,21.12,21.12-9.48,21.12-21.12,21.12Zm0-38.89c-9.8,0-17.77,7.97-17.77,17.77s7.97,17.77,17.77,17.77,17.77-7.97,17.77-17.77-7.97-17.77-17.77-17.77Z"/>
    </g>
    <g>
      <path class="cls-2" d="M208.78,183.14c0,10.74-8.71,19.45-19.45,19.45s-19.45-8.71-19.45-19.45,8.71-19.45,19.45-19.45,19.45,8.71,19.45,19.45Z"/>
      <path class="cls-2" d="M189.33,204.26c-11.65,0-21.12-9.48-21.12-21.12s9.48-21.12,21.12-21.12,21.12,9.48,21.12,21.12-9.48,21.12-21.12,21.12Zm0-38.9c-9.8,0-17.77,7.97-17.77,17.78s7.97,17.77,17.77,17.77,17.77-7.97,17.77-17.77-7.97-17.78-17.77-17.78Z"/>
    </g>
    <g>
      <path class="cls-2" d="M40.57,173.8c0,10.74-8.71,19.45-19.45,19.45S1.67,184.54,1.67,173.8s8.71-19.45,19.45-19.45,19.45,8.71,19.45,19.45Z"/>
      <path class="cls-2" d="M21.12,194.92c-11.65,0-21.12-9.48-21.12-21.12s9.48-21.12,21.12-21.12,21.12,9.48,21.12,21.12-9.48,21.12-21.12,21.12Zm0-38.9c-9.8,0-17.77,7.97-17.77,17.78s7.97,17.77,17.77,17.77,17.77-7.97,17.77-17.77-7.97-17.78-17.77-17.78Z"/>
    </g>
    <g>
      <path class="cls-2" d="M60.02,83.07c0,10.74-8.71,19.45-19.45,19.45s-19.45-8.71-19.45-19.45,8.71-19.45,19.45-19.45,19.45,8.71,19.45,19.45Z"/>
      <path class="cls-2" d="M40.57,104.19c-11.65,0-21.12-9.48-21.12-21.12s9.48-21.12,21.12-21.12,21.12,9.48,21.12,21.12-9.48,21.12-21.12,21.12Zm0-38.9c-9.8,0-17.77,7.97-17.77,17.77s7.97,17.78,17.77,17.78,17.77-7.97,17.77-17.78-7.97-17.77-17.77-17.77Z"/>
    </g>
    <path class="cls-2" d="M114.2,73.95c-.07,0-.13,0-.2-.01-.92-.11-1.57-.94-1.47-1.86l3.79-31.71c.11-.92,.95-1.59,1.86-1.46,.92,.11,1.57,.94,1.47,1.86l-3.79,31.71c-.1,.85-.82,1.47-1.66,1.47Z"/>
    <path class="cls-2" d="M142.74,97.15c-.65,0-1.28-.39-1.54-1.03-.36-.85,.04-1.83,.9-2.19l56.04-23.52c.85-.35,1.83,.05,2.19,.9,.36,.85-.04,1.83-.9,2.19l-56.04,23.52c-.21,.09-.43,.13-.65,.13Z"/>
    <path class="cls-2" d="M174.99,171.7c-.4,0-.8-.14-1.12-.43l-39.58-35.81c-.69-.62-.74-1.68-.12-2.37,.62-.68,1.68-.73,2.36-.12l39.58,35.81c.69,.62,.74,1.68,.12,2.37-.33,.36-.78,.55-1.24,.55Z"/>
    <path class="cls-2" d="M75.83,99.77c-.2,0-.41-.04-.61-.11l-17.63-6.86c-.86-.33-1.29-1.3-.95-2.17,.33-.86,1.31-1.29,2.17-.95l17.63,6.86c.86,.33,1.29,1.3,.95,2.17-.26,.66-.89,1.07-1.56,1.07Z"/>
    <path class="cls-2" d="M37.71,165.36c-.51,0-1-.23-1.33-.66-.56-.74-.42-1.79,.32-2.35l43.38-33.06c.74-.57,1.79-.42,2.35,.32,.56,.74,.42,1.79-.32,2.35l-43.38,33.06c-.3,.23-.66,.34-1.01,.34Z"/>
    <path class="cls-2" d="M101.3,206.89c-7.52,0-13.64-6.12-13.64-13.64s6.12-13.64,13.64-13.64,13.64,6.12,13.64,13.64-6.12,13.64-13.64,13.64Zm0-23.93c-5.67,0-10.29,4.62-10.29,10.29s4.62,10.29,10.29,10.29,10.29-4.61,10.29-10.29-4.62-10.29-10.29-10.29Z"/>
    <path class="cls-2" d="M102.4,182.96s-.1,0-.15,0c-.92-.08-1.6-.89-1.52-1.81l1.7-19.81c.08-.92,.87-1.6,1.81-1.52,.92,.08,1.6,.89,1.52,1.81l-1.7,19.81c-.08,.87-.81,1.53-1.67,1.53Zm2.56-29.82s-.1,0-.15,0c-.92-.08-1.6-.89-1.52-1.81l.57-6.67c.08-.92,.88-1.6,1.81-1.52,.92,.08,1.6,.89,1.52,1.81l-.57,6.67c-.08,.87-.81,1.53-1.67,1.53Z"/>
    <path class="cls-2" d="M179.07,143.16c-1.63,0-3.29-.29-4.9-.92-7.01-2.71-10.52-10.63-7.81-17.64,1.31-3.4,3.87-6.08,7.2-7.56,3.33-1.48,7.04-1.56,10.44-.25,7.01,2.71,10.52,10.62,7.81,17.64-2.09,5.41-7.27,8.73-12.74,8.73Zm.01-23.94c-1.42,0-2.83,.29-4.16,.89-2.51,1.11-4.44,3.14-5.44,5.7-2.04,5.29,.6,11.26,5.89,13.31,5.29,2.05,11.26-.6,13.31-5.89,2.04-5.29-.6-11.26-5.89-13.31h0c-1.21-.47-2.46-.7-3.71-.7Z"/>
    <path class="cls-2" d="M167.12,127.7c-.15,0-.31-.02-.47-.07l-23.02-6.71c-.89-.26-1.4-1.19-1.14-2.08,.26-.89,1.17-1.39,2.08-1.14l23.02,6.71c.89,.26,1.4,1.19,1.14,2.08-.21,.73-.88,1.21-1.61,1.21Z"/>
    <path class="cls-2" d="M31.37,30.95c-3.64,0-7.07-1.42-9.65-4-5.32-5.32-5.32-13.97,0-19.29,5.32-5.32,13.97-5.32,19.29,0,5.32,5.32,5.32,13.97,0,19.29-2.58,2.58-6,4-9.65,4Zm0-23.93c-2.64,0-5.27,1-7.28,3.01-4.01,4.01-4.01,10.54,0,14.55,3.89,3.89,10.67,3.89,14.55,0,4.01-4.01,4.01-10.54,0-14.55-2.01-2-4.64-3.01-7.28-3.01Z"/>
    <path class="cls-2" d="M87.54,83.03c-.47,0-.94-.2-1.27-.59l-4.36-5.08c-.6-.7-.52-1.76,.18-2.36,.7-.6,1.76-.52,2.36,.18l4.36,5.08c.6,.7,.52,1.76-.18,2.36-.32,.27-.7,.41-1.09,.41Zm-10.91-12.71c-.47,0-.94-.2-1.27-.59l-26.17-30.5c-.6-.7-.52-1.76,.18-2.36,.7-.59,1.76-.52,2.36,.18l26.17,30.5c.6,.7,.52,1.76-.18,2.36-.32,.27-.7,.4-1.09,.4Zm-30.54-35.58c-.47,0-.94-.2-1.27-.59l-4.36-5.08c-.6-.7-.52-1.76,.18-2.36,.7-.6,1.76-.52,2.36,.18l4.36,5.08c.6,.7,.52,1.76-.18,2.36-.32,.27-.7,.4-1.09,.4Z"/>
  </g>
</svg>