<?xml version="1.0" encoding="utf-8"?>
<!-- Generator: Adobe Illustrator 26.4.0, SVG Export Plug-In . SVG Version: 6.00 Build 0)  -->
<svg version="1.1" id="Layer_2_00000171698807579852701060000010102281004964610958_"
	 xmlns="http://www.w3.org/2000/svg" xmlns:xlink="http://www.w3.org/1999/xlink" x="0px" y="0px" viewBox="0 0 237.4 206.9"
	 style="enable-background:new 0 0 237.4 206.9;" xml:space="preserve">
<style type="text/css">
	.st0{fill:#E4E4E4;}
	.st1{fill:#00C0C6;}
</style>
<g id="Layer_1-2">
	<path class="st0" d="M116.7,136.6c-17.6,1.1-32.6-12.2-33.7-29.8c-1.1-17.6,12.3-32.6,29.8-33.7s32.6,12.2,33.7,29.8
		S134,135.5,116.7,136.6z M112.9,75.9c-16.1,1-28.1,14.7-27.1,30.7s14.7,28.1,30.7,27.1c16.1-1,28.1-14.7,27.1-30.7
		C142.7,87,128.8,74.9,112.9,75.9z"/>
	<g>
		<path class="st1" d="M131,103.8c0.6,9.1-6.4,16.7-15.3,17.3s-16.7-6.4-17.3-15.3s6.4-16.7,15.3-17.3S130.4,94.8,131,103.8z"/>
		<path class="st1" d="M115.8,122.6c-9.8,0.6-18.2-6.8-18.8-16.6c-0.6-9.8,6.8-18.2,16.6-18.8c9.8-0.6,18.2,6.8,18.8,16.6
			C133,113.6,125.4,122,115.8,122.6z M113.8,90.1c-8.1,0.5-14.6,7.6-14,15.9s7.6,14.6,15.9,14s14.6-7.6,14-15.9S122,89.5,113.8,90.1
			z"/>
	</g>
	<g>
		<path class="st0" d="M135.9,28.4c0.6,9.1-6.4,16.8-15.3,17.4c-9,0.6-16.9-6.4-17.5-15.5s6.4-16.8,15.3-17.4S135.3,19.1,135.9,28.4
			z"/>
		<path class="st0" d="M120.4,47.3c-10,0.6-18.4-7-19-16.8c-0.6-9.8,7-18.4,16.8-19c9.8-0.6,18.4,7,19,16.8S130.4,46.6,120.4,47.3z
			 M118.4,14.2c-8.3,0.5-14.7,7.7-14.2,16.1c0.5,8.3,7.7,14.7,16.1,14.2s14.7-7.7,14.2-16.1C134,20.1,126.7,13.7,118.4,14.2z"/>
	</g>
	<g>
		<path class="st0" d="M219.3,59.4c0.6,9.1-6.4,17-15.3,17.6c-9.1,0.6-16.8-6.4-17.4-15.5c-0.6-9.2,6.4-17,15.3-17.6
			C210.9,43.3,218.7,50.3,219.3,59.4z"/>
		<path class="st0" d="M203.8,78.3c-9.8,0.6-18.4-7-19-16.8c-0.6-9.8,7-18.4,16.8-19c9.8-0.6,18.4,7,19,16.8
			C221.2,69.1,213.8,77.7,203.8,78.3z M201.8,45.3c-8.3,0.5-14.7,7.7-14.2,16.1s7.7,14.7,16.1,14.2c8.4-0.5,14.7-7.7,14.2-16.1
			C217.4,51,210.1,44.8,201.8,45.3z"/>
	</g>
	<g>
		<path class="st0" d="M202.8,162.4c0.6,9.1-6.4,16.8-15.3,17.4s-16.8-6.4-17.4-15.3s6.4-16.8,15.3-17.4S202.2,153.3,202.8,162.4z"
			/>
		<path class="st0" d="M187.3,181.5c-9.8,0.6-18.4-7-19-16.8c-0.6-9.8,7-18.4,16.8-19c9.8-0.6,18.4,7,19,16.8
			C204.7,172.2,197.3,180.8,187.3,181.5z M185.3,148.4c-8.3,0.5-14.7,7.7-14.2,16.1c0.5,8.3,7.7,14.7,16.1,14.2
			c8.3-0.5,14.7-7.7,14.2-16.1C200.7,154.3,193.5,147.9,185.3,148.4z"/>
	</g>
	<g>
		<path class="st0" d="M59.3,163.3c0.6,9.1-6.4,16.8-15.5,17.4c-9.2,0.6-16.9-6.3-17.5-15.3c-0.6-9.1,6.4-16.8,15.5-17.4
			C50.9,147.4,58.8,154.3,59.3,163.3z"/>
		<path class="st0" d="M43.8,182.2c-9.8,0.6-18.4-7-19-16.8c-0.6-9.8,7-18.4,16.8-19c9.8-0.6,18.4,7,19,16.8
			C61.3,173.2,53.8,181.6,43.8,182.2z M41.7,149.2c-8.3,0.5-14.7,7.7-14.2,16.1c0.5,8.3,7.7,14.7,16.1,14.2s14.7-7.7,14.2-16.1
			C57.3,155.1,50.1,148.7,41.7,149.2z"/>
	</g>
	<g>
		<path class="st0" d="M70.9,85.2c0.6,9.1-6.4,17-15.5,17.6s-17-6.4-17.6-15.3c-0.6-9,6.2-17.1,15.5-17.7
			C62.6,69.2,70.3,76.1,70.9,85.2z"/>
		<path class="st0" d="M55.7,104.3c-9.8,0.6-18.4-7-19-16.8c-0.6-9.8,7-18.4,16.8-19s18.4,6.9,19,16.7C73,95,65.4,103.7,55.7,104.3z
			 M53.6,71.1c-8.3,0.5-14.7,7.7-14.2,16.1s7.7,14.7,16.1,14.2c8.4-0.5,14.7-7.7,14.2-16.1C69.2,76.9,61.9,70.5,53.6,71.1z"/>
	</g>
	<path class="st0" d="M116.5,74.6C116.3,74.6,116.3,74.6,116.5,74.6c-0.9,0.1-1.5-0.6-1.6-1.6l1.6-27.2c0-0.7,0.6-1.3,1.6-1.4
		c0.7,0,1.3,0.6,1.4,1.6l-1.6,27.2C117.8,73.9,117.1,74.5,116.5,74.6z"/>
	<path class="st0" d="M141.9,92.8c-0.6,0-1.1-0.3-1.4-0.8c-0.4-0.7-0.1-1.5,0.6-1.8l46.4-22.9c0.7-0.2,1.5-0.1,1.8,0.6
		c0.4,0.7,0.1,1.5-0.6,1.8l-46.4,22.9C142.3,92.8,142.1,92.8,141.9,92.8L141.9,92.8z"/>
	<path class="st0" d="M173.4,154.5c-0.4,0-0.7,0-0.9-0.3l-35.4-28.4c-0.6-0.6-0.7-1.5-0.1-2c0.6-0.5,1.5-0.7,2-0.1l35.4,28.4
		c0.6,0.6,0.7,1.5,0.1,2C174.1,154.3,173.7,154.5,173.4,154.5L173.4,154.5z"/>
	<path class="st0" d="M85.3,98.5c-0.2,0-0.4,0-0.6,0l-15.3-5c-0.7-0.2-1.2-1-1-1.7c0.2-0.7,1-1.2,1.8-0.8l15.3,5
		c0.7,0.2,1.2,1,0.8,1.8C86.3,98.1,85.9,98.5,85.3,98.5L85.3,98.5z"/>
	<path class="st0" d="M56.3,156.5c-0.4,0-0.9-0.1-1.1-0.5c-0.6-0.6-0.5-1.5,0.1-2l35.2-30.3c0.6-0.6,1.5-0.5,2,0.1
		c0.4,0.6,0.5,1.5-0.1,2L57.2,156C57,156.2,56.7,156.4,56.3,156.5L56.3,156.5z"/>
	<path class="st0" d="M112.5,188.3c-6.5,0.4-11.9-4.5-12.3-10.9c-0.4-6.4,4.5-11.9,10.9-12.3c6.4-0.4,11.9,4.5,12.3,10.9
		C123.7,182.4,119,187.9,112.5,188.3z M111.2,168.1c-4.8,0.3-8.4,4.4-8.1,9.2c0.3,4.8,4.4,8.4,9.2,8.1c4.8-0.3,8.4-4.4,8.1-9.2
		C120.2,171.4,116.2,167.7,111.2,168.1z"/>
	<path class="st0" d="M112.2,168L112.2,168c-0.9,0.1-1.5-0.6-1.6-1.4l0.5-16.9c0-0.7,0.6-1.3,1.4-1.4c0.8,0,1.3,0.6,1.4,1.4
		l-0.5,16.9C113.6,167.1,112.9,168,112.2,168L112.2,168z M112.8,142.4L112.8,142.4c-0.9,0.1-1.5-0.6-1.6-1.4l0.2-5.7
		c0-0.7,0.6-1.3,1.4-1.4c0.8,0,1.3,0.6,1.4,1.4l-0.2,5.7C114.1,141.7,113.5,142.4,112.8,142.4L112.8,142.4z"/>
	<path class="st0" d="M175.4,129.9c-1.3,0.1-2.8,0-4.3-0.4c-6-1.8-9.4-8.5-7.6-14.6c0.9-3.1,3-5.4,5.7-6.9c2.7-1.5,5.8-1.7,8.9-0.8
		c6,1.8,9.4,8.5,7.6,14.6C184.2,126.6,180,129.6,175.4,129.9z M174.1,109.6c-1.1,0.1-2.4,0.3-3.4,0.9c-2.1,1-3.5,2.8-4.3,5.1
		c-1.4,4.5,1.2,9.5,5.7,11c4.5,1.4,9.5-1.2,11-5.7c1.4-4.5-1.2-9.5-5.7-11l0,0C176.1,109.7,175,109.6,174.1,109.6L174.1,109.6z"/>
	<path class="st0" d="M164.4,117.5c0,0-0.2,0-0.4,0l-19.9-4.5c-0.7-0.2-1.2-1-1-1.7c0.2-0.7,1-1.2,1.7-1l19.9,4.5
		c0.7,0.2,1.2,1,1,1.7C165.5,117.1,165,117.4,164.4,117.5z"/>
	<path class="st0" d="M43.8,42.4c-3.1,0.2-6.2-0.7-8.3-2.8c-4.7-4.1-5.1-11.5-1-16.4s11.5-5.1,16.4-1s5.1,11.5,1,16.4
		C49.8,40.7,47,42.2,43.8,42.4L43.8,42.4z M42.5,22.1c-2.2,0.1-4.3,1.2-6.1,3c-3.1,3.5-2.7,9.1,0.8,12.4c3.5,3.1,9.3,2.7,12.4-0.8
		s2.7-9.1-0.8-12.4C47.1,22.6,44.7,22,42.5,22.1L42.5,22.1z"/>
	<path class="st0" d="M94.4,83.7c-0.4,0-0.7-0.2-1.1-0.5l-4-4.1c-0.6-0.6-0.5-1.5,0.1-2c0.6-0.6,1.5-0.5,2,0.1l4,4.1
		c0.6,0.6,0.5,1.5-0.1,2C94.8,83.5,94.8,83.7,94.4,83.7z M84.5,73.3c-0.4,0-0.7-0.2-1.1-0.5L59.6,48.2c-0.6-0.6-0.5-1.5,0.1-2
		c0.6-0.6,1.5-0.5,2,0.1l23.8,24.8c0.6,0.6,0.5,1.5-0.1,2C85,73.3,84.6,73.3,84.5,73.3L84.5,73.3z M56.6,44.7
		c-0.4,0-0.7-0.2-1.1-0.5l-4-4.1c-0.6-0.6-0.5-1.5,0.1-2c0.6-0.6,1.5-0.5,2,0.1l4,4.1c0.6,0.6,0.5,1.5-0.1,2
		C57.3,44.7,57,44.7,56.6,44.7L56.6,44.7z"/>
</g>
</svg>
