<?xml version="1.0" encoding="utf-8"?>
<!-- Generator: Adobe Illustrator 26.4.0, SVG Export Plug-In . SVG Version: 6.00 Build 0)  -->
<svg version="1.1" id="Layer_1" xmlns="http://www.w3.org/2000/svg" xmlns:xlink="http://www.w3.org/1999/xlink" x="0px" y="0px"
	 viewBox="0 0 1797 585.4" style="enable-background:new 0 0 1797 585.4;" xml:space="preserve">
<style type="text/css">
	.st0{fill:#FFFFFF;filter:url(#Adobe_OpacityMaskFilter);}
	.st1{mask:url(#mask0_592_30171_00000176041173752464549970000008845436493283145857_);}
	.st2{fill-rule:evenodd;clip-rule:evenodd;fill:#24BEE1;}
	.st3{fill-rule:evenodd;clip-rule:evenodd;fill:#414748;}
</style>
<defs>
	<filter id="Adobe_OpacityMaskFilter" filterUnits="userSpaceOnUse" x="357.1" y="99.9" width="54.9" height="355">
		<feColorMatrix  type="matrix" values="1 0 0 0 0  0 1 0 0 0  0 0 1 0 0  0 0 0 1 0"/>
	</filter>
</defs>
<mask maskUnits="userSpaceOnUse" x="357.1" y="99.9" width="54.9" height="355" id="mask0_592_30171_00000176041173752464549970000008845436493283145857_">
	<path class="st0" d="M357.1,99.9H412v355h-54.9V99.9z"/>
</mask>
<g class="st1">
	<path class="st2" d="M395,397.3c-4.1-5.4-5.6-12.4-5.7-19.1c-0.1-7.7,1.7-15.8,7-21.8c5.6-6.6,13.2-12.5,14.9-21.5
		c1.1-7,1.2-14.5-2.3-20.9c-4.1-8.7-13.6-13.4-17.1-22.4c-3.3-8.7-3.4-18.7-0.3-27.5c3.8-10.5,15.3-15.8,18.8-26.3
		c2.1-6.8,2.1-14.3,0-21.1c-3.6-10.6-15.3-15.8-18.8-26.4c-3.3-9.6-3.4-21.4,3.2-29.7c3.2-4.2,7.4-7.6,10.6-11.8
		c6.4-7.8,7.7-18.7,5.9-28.3c-3.2-13.7-18.3-23.2-32.2-19.9c-7.9,1.5-14.8,6.9-18.7,13.8c-5.6,10.4-3.9,24.4,4.6,32.9
		c4.6,4.8,9.5,9.7,12.3,15.8c3.1,6.5,2.2,14,2,21c-0.9,10-8.7,17-15.1,24c-7.7,8.1-8.8,20.6-5.1,30.7c3.8,9.3,13.4,14.6,17.6,23.6
		c3.5,6.2,2.7,13.5,2.7,20.3c-0.1,6-3,11.6-6.7,16.2c-4.2,5.5-10.2,9.7-13,16.2c-3.5,8.1-3.4,17.5,0.2,25.6
		c4.1,8.3,12.6,13.3,16.8,21.5c3.9,7.1,3,15.4,2.6,23.2c-1.2,9.8-9.1,16.6-15.3,23.5c-9.5,10.4-9.1,28.4,1.3,38.1
		c5.6,5.6,13.7,8.7,21.7,8c8-0.7,15.3-5.1,20.1-11.3c5.5-7.6,6.2-17.8,3.3-26.4C407.5,408.9,399.9,404,395,397.3z"/>
</g>
<path class="st2" d="M351.6,359.7c-5-5.8-11.5-10.7-14.3-18c-3.5-9-3.5-19.5,0.1-28.5c2.6-6.4,8.1-10.7,12.5-15.8
	c3.9-4.4,6.8-9.9,7-15.8c0.3-5.8,0.4-12-2.4-17.3c-3.8-8.3-12.5-12.9-16.4-21c-4.2-8.5-4.5-18.7-1.8-27.7c2-6.6,6.9-11.8,11.7-16.5
	c5.7-5.5,9.4-13.1,8.9-21.1c0.6-9.1-4-18.3-11.9-23.2c-6-4.4-13.7-5.3-20.9-4.1c-7.4,1.7-14.3,6.2-18.1,12.9
	c-4.2,6.7-4.1,15-2.6,22.5c2.8,11,14.2,16.4,18.7,26.5c4.2,9.7,4,21.2-0.7,30.7c-4.3,8.5-13.4,13.6-17,22.5
	c-2.3,5-1.9,10.6-1.8,15.9c0.2,5.2,2.5,10,5.7,14c4.6,5.6,10.5,10.1,13.6,16.8c4.5,9.6,4.2,21.1-0.2,30.6
	c-4.5,9.8-15.8,15.1-18.3,25.9c-1.4,7.2-1.5,15.3,2.4,21.9c4.9,8.3,14.1,14.1,23.9,13.9c12.6,0.3,24.5-9.3,26.8-21.5
	C357.8,375.1,357,366.2,351.6,359.7z M445.6,339.2c-2.4-8.4-2.3-17.8,1-26c3.7-8.9,12.8-13.8,17-22.4c4-8,4.1-17.9,0.4-26
	c-4.1-9.3-14.2-14.4-17.8-24c-3.1-8.4-3.2-17.9-0.3-26.4c2.7-8,10.1-13,15-19.6c5.8-7.7,7.4-18.3,3.8-27.2
	c-4.4-12.4-18.8-19.9-31.7-16.8c-9.8,2.2-18.2,10-20.5,19.7c-1.5,5.7-1.1,11.8,0.8,17.3c4.1,11.2,16.5,17,19.6,28.6
	c2.1,8.3,2.1,17.4-1.3,25.3c-4.1,9-13.5,14.3-17.7,23.2c-2.9,7.1-3.2,15.3-0.8,22.6c3.8,11,15.9,16.7,19.4,27.8
	c2.5,7.9,2.4,16.7-0.1,24.6c-3.5,10.5-14.6,15.8-18.7,25.9c-3.3,8.1-3,17.7,1.5,25.3c3.5,5.5,8.8,10,15.1,12.1
	c8,2.6,17.2,1.5,24.1-3.4c6.8-4.4,10.9-12,12-19.8c0.8-8.3-2-16.8-7.7-22.9C453.8,351.8,447.8,346.6,445.6,339.2z"/>
<path class="st2" d="M499.1,283.6c-0.1-6.9-1-14.3,2.3-20.7c4.2-9.6,14.7-14.9,18.3-24.9c3.8-10.4,1.5-23-7.1-30.4
	c-6.5-6.5-16.6-8.3-25.5-6.5c-7.5,1.9-14.2,7-17.7,13.9c-3.3,6-3.3,13.1-2.3,19.6c1.7,8.6,8.7,14.5,14.4,20.8
	c8.5,9.3,9.4,23.4,5.6,34.9c-3.4,9.9-13.8,15.1-18,24.5c-2.7,5.2-2.9,11.3-2.3,17c1.7,9.9,9.3,18.9,19.2,21.6
	c7.7,2.2,16.4,1.1,23.1-3.3c6-4,10.5-10.3,11.7-17.3c2.1-9.3-1-19.4-7.8-26.1C506.7,300.3,499.8,293,499.1,283.6z"/>
<path class="st2" d="M575.3,277c-3.2-14.8-20.6-24.7-35.1-19.5c-10.8,3.3-19.3,13.8-18.8,25.1c-1.1,13.1,9.5,25.2,22.4,27.4
	c11.5,2,24-4,29.1-14.4C576.2,289.9,576.3,283.2,575.3,277z M300.1,315.1c-3-7.6-10.5-11.9-14.8-18.6c-6.4-9.7-6.9-22.7-2.6-33.3
	c3.9-9.6,14.4-14.7,17.9-24.5c2-5.6,2.9-11.8,1.2-17.6c-2.1-10.1-10.9-18.3-21-20.3c-5.1-0.5-10.5-0.7-15.4,1.4
	c-11.2,3.6-18.6,15.6-17.5,27.1c-0.3,9.7,6.3,17.6,12.9,24c4,3.6,6.3,8.5,8.6,13.3c1.2,8.1,1.8,16.6-1.2,24.5
	c-4.2,10.1-14.9,15.5-18.7,25.7c-2,4.7-1.8,10-1.4,15c1.4,9.8,9,18.2,18.4,21.5c4.8,1.3,9.8,1.8,14.7,0.8
	c10.2-2.1,19-10.5,20.8-20.8C303.5,327.2,302.4,320.8,300.1,315.1z"/>
<path class="st2" d="M247.9,282.5c0.1-11-7.8-21.1-18-24.8c-5.8-2.2-12.1-2-18.1-0.4c-5.6,2.4-11.2,5.8-14.3,11.2
	c-3.7,6.3-5.8,14-3.5,21.2c1.9,8.6,8.5,15.7,16.8,18.8c10.5,4.3,23.3,0.7,30.6-7.7C245.7,295.8,248.3,289.2,247.9,282.5z"/>
<path class="st3" d="M773.3,288.4c6.2,0,11.8-1.2,16.8-3.5c5-2.3,9.3-5.5,12.8-9.5s6.2-8.5,8.2-13.7c1.9-5.2,2.9-10.7,2.9-16.6
	s-1-11.4-2.9-16.6c-1.9-5.2-4.7-9.8-8.2-13.7c-3.5-4-7.8-7.1-12.8-9.4c-5-2.3-10.6-3.5-16.8-3.5h-41.9v86.6H773.3z M695.9,170.4
	h77.4c11.5,0,21.9,2,31.3,5.9c9.4,4,17.4,9.4,24,16.3c6.7,6.9,11.8,14.9,15.4,23.9c3.6,9,5.4,18.5,5.4,28.5
	c0,10.2-1.8,19.7-5.4,28.7c-3.6,8.9-8.7,16.9-15.4,23.8c-6.7,6.9-14.7,12.3-24,16.3c-9.3,4-19.8,5.9-31.3,5.9h-41.9v64h-35.5V170.4z
	 M933.6,357.9c6.4,0,12.2-1.2,17.4-3.7c5.2-2.4,9.7-5.7,13.4-9.8c3.7-4.1,6.6-8.8,8.6-14.3c2.1-5.5,3.1-11.3,3.1-17.4
	c0-6.1-1-11.9-3.1-17.4c-2.1-5.5-4.9-10.2-8.6-14.3c-3.7-4.1-8.2-7.3-13.4-9.7c-5.2-2.4-11.1-3.7-17.4-3.7c-6.4,0-12.1,1.2-17.3,3.7
	c-5.1,2.4-9.6,5.7-13.3,9.7c-3.7,4.1-6.5,8.8-8.5,14.3c-2,5.5-2.9,11.3-2.9,17.4c0,6.1,1,11.9,2.9,17.4c1.9,5.5,4.8,10.3,8.5,14.3
	c3.7,4.1,8.1,7.3,13.3,9.8C921.5,356.7,927.3,357.9,933.6,357.9z M1009.8,241.7v142h-33.6v-19.2c-4.5,7.1-10.9,12.7-19.3,16.8
	c-8.3,4.1-16.7,6.1-25.1,6.1c-10.9,0-20.9-2-29.9-5.9c-9.1-4-16.8-9.4-23.3-16.3c-6.5-6.9-11.5-14.8-15.1-23.8
	c-3.6-8.9-5.4-18.5-5.4-28.7c0-10,1.8-19.5,5.4-28.5c3.6-9,8.6-17,15.1-23.9c6.5-6.9,14.2-12.3,23.3-16.3c9-4,19-5.9,29.9-5.9
	c8.4,0,16.8,2,25.1,6.1c8.3,4.1,14.7,9.7,19.3,16.8v-19.2H1009.8z M1124.8,357.9c6.4,0,12.1-1.2,17.3-3.7c5.1-2.4,9.6-5.7,13.3-9.8
	c3.7-4.1,6.5-8.8,8.5-14.3c1.9-5.5,2.9-11.3,2.9-17.4c0-6.1-1-11.9-2.9-17.4c-1.9-5.5-4.8-10.2-8.5-14.3c-3.7-4.1-8.1-7.3-13.3-9.7
	c-5.1-2.4-10.9-3.7-17.3-3.7c-6.6,0-12.5,1.2-17.7,3.7c-5.2,2.4-9.7,5.7-13.4,9.7c-3.7,4.1-6.5,8.8-8.5,14.3
	c-2,5.5-2.9,11.3-2.9,17.4c0,6.1,1,11.9,2.9,17.4c2,5.5,4.8,10.3,8.5,14.3c3.7,4.1,8.2,7.3,13.4,9.8
	C1112.3,356.7,1118.2,357.9,1124.8,357.9z M1082.2,383.8h-33.6V170.4h33.6v90.5c4.5-7.1,10.9-12.7,19.3-16.8
	c8.3-4.1,16.7-6.1,25.1-6.1c10.9,0,20.9,2,29.9,5.9c9.1,4,16.8,9.4,23.3,16.3c6.5,6.9,11.5,14.9,15.1,23.9
	c3.6,9.1,5.4,18.5,5.4,28.5c0,10.2-1.8,19.7-5.4,28.7c-3.6,8.9-8.6,16.9-15.1,23.8c-6.5,6.9-14.2,12.3-23.3,16.3
	c-9,4-19,5.9-29.9,5.9c-8.4,0-16.8-2-25.1-6.1c-8.3-4.1-14.8-9.7-19.3-16.8V383.8z M1299.9,357.9c6.4,0,12.2-1.2,17.4-3.7
	c5.2-2.4,9.7-5.7,13.4-9.8c3.7-4.1,6.6-8.8,8.6-14.3c2.1-5.5,3.1-11.3,3.1-17.4c0-6.1-1-11.9-3.1-17.4c-2.1-5.5-4.9-10.2-8.6-14.3
	c-3.7-4.1-8.2-7.3-13.4-9.7c-5.2-2.4-11.1-3.7-17.4-3.7c-6.4,0-12.1,1.2-17.3,3.7c-5.1,2.4-9.6,5.7-13.3,9.7
	c-3.7,4.1-6.5,8.8-8.5,14.3c-2,5.5-2.9,11.3-2.9,17.4c0,6.1,1,11.9,2.9,17.4c2,5.5,4.8,10.3,8.5,14.3c3.7,4.1,8.1,7.3,13.3,9.8
	C1287.8,356.7,1293.5,357.9,1299.9,357.9z M1376,241.7v142h-33.6v-19.2c-4.5,7.1-10.9,12.7-19.3,16.8c-8.3,4.1-16.7,6.1-25.1,6.1
	c-10.9,0-20.9-2-29.9-5.9c-9-4-16.8-9.4-23.3-16.3c-6.5-6.9-11.5-14.8-15.1-23.8c-3.6-8.9-5.4-18.5-5.4-28.7c0-10,1.8-19.5,5.4-28.5
	c3.6-9,8.6-17,15.1-23.9c6.5-6.9,14.2-12.3,23.3-16.3c9-4,19-5.9,29.9-5.9c8.4,0,16.8,2,25.1,6.1c8.3,4.1,14.8,9.7,19.3,16.8v-19.2
	H1376z M1545.3,241.7v142h-33.6V364c-4.5,7.7-10.8,13.6-18.8,17.5c-8,4-17.4,5.9-28.1,5.9c-10.5,0-19.3-1.7-26.4-5.2
	c-7.1-3.5-12.7-8.1-16.8-14c-3.5-5.3-5.9-11.2-7.3-17.7c-1.3-6.5-2-14.6-2-24.4v-84.4h33.6v73.5c0,6.1,0.5,11.8,1.5,17.1
	c1,5.3,2.7,9.8,5.1,13.6c2.4,3.8,5.5,6.7,9.5,9c4,2.2,9,3.4,15,3.4c11.7,0,20.4-4.1,26.1-12.3c5.6-8.2,8.5-18.5,8.5-30.6v-73.5
	H1545.3z"/>
</svg>
