<?xml version="1.0" encoding="UTF-8"?>
<svg id="Layer_2" data-name="Layer 2" xmlns="http://www.w3.org/2000/svg" viewBox="0 0 251.17 204.25">
  <defs>
    <style>
      .cls-1 {
        fill: #00c0c6;
      }

      .cls-2 {
        fill: #e4e4e4;
      }

      .cls-3 {
        fill: #fed86e;
      }
    </style>
  </defs>
  <g id="Layer_1-2" data-name="Layer 1">
    <path class="cls-2" d="M42.38,75.46c-13.74,0-24.93-11.18-24.93-24.93s11.18-24.93,24.93-24.93,24.92,11.18,24.92,24.93-11.18,24.93-24.92,24.93Zm0-45.98c-11.61,0-21.06,9.45-21.06,21.05s9.45,21.05,21.06,21.05,21.05-9.45,21.05-21.05-9.45-21.05-21.05-21.05Z"/>
    <path class="cls-2" d="M82.82,135.81H1.94c-1.07,0-1.94-.87-1.94-1.94v-35.16c0-10.91,8.87-19.78,19.78-19.78h45.19c10.91,0,19.78,8.87,19.78,19.78v35.16c0,1.07-.87,1.94-1.94,1.94Zm-78.95-3.87H80.88v-33.23c0-8.77-7.14-15.91-15.91-15.91H19.78c-8.77,0-15.91,7.14-15.91,15.91v33.23Z"/>
    <path class="cls-2" d="M249.23,135.81h-80.88c-1.07,0-1.94-.87-1.94-1.94v-35.16c0-10.91,8.87-19.78,19.78-19.78h45.19c10.91,0,19.78,8.87,19.78,19.78v35.16c0,1.07-.87,1.94-1.94,1.94Zm-78.95-3.87h77.01v-33.23c0-8.77-7.14-15.91-15.91-15.91h-45.19c-8.77,0-15.91,7.14-15.91,15.91v33.23Z"/>
    <path class="cls-2" d="M208.79,75.46c-13.74,0-24.92-11.18-24.92-24.93s11.18-24.93,24.92-24.93,24.93,11.18,24.93,24.93-11.18,24.93-24.93,24.93Zm0-45.98c-11.61,0-21.05,9.45-21.05,21.05s9.45,21.05,21.05,21.05,21.06-9.45,21.06-21.05-9.45-21.05-21.06-21.05Z"/>
    <path class="cls-3" d="M125.58,204.25c-37.74,0-72.26-20.69-90.09-53.98-.51-.94-.15-2.12,.79-2.62,.94-.5,2.11-.15,2.62,.79,17.16,32.04,50.37,51.94,86.68,51.94,15.71,0,31.34-3.8,45.19-10.98,.95-.5,2.12-.12,2.61,.82,.5,.95,.13,2.12-.82,2.61-14.4,7.48-30.64,11.42-46.97,11.42Z"/>
    <path class="cls-1" d="M183.37,185.92c-.61,0-1.2-.28-1.58-.82-.62-.87-.41-2.08,.46-2.7,6.24-4.41,11.96-9.55,17.01-15.27,.71-.81,1.94-.88,2.73-.17,.8,.71,.88,1.93,.17,2.73-5.25,5.94-11.2,11.28-17.67,15.87-.34,.24-.73,.36-1.12,.36Z"/>
    <path class="cls-1" d="M207.08,162.35c-.39,0-.79-.12-1.13-.36-.87-.62-1.07-1.83-.45-2.7,2.47-3.44,4.74-7.09,6.75-10.85,.51-.94,1.69-1.29,2.62-.79,.94,.5,1.3,1.68,.79,2.62-2.09,3.91-4.45,7.7-7.02,11.27-.38,.53-.97,.81-1.57,.81Z"/>
    <path class="cls-3" d="M183.37,20.98c-.37,0-.75-.11-1.09-.33C166.04,9.67,147.04,3.87,127.35,3.87c-9.86,0-19.6,1.46-28.94,4.33-1.04,.32-2.11-.26-2.42-1.28-.32-1.02,.26-2.1,1.28-2.42C106.98,1.52,117.1,0,127.35,0c20.46,0,40.21,6.03,57.1,17.44,.88,.6,1.12,1.8,.52,2.69-.37,.55-.98,.85-1.6,.85Z"/>
    <path class="cls-1" d="M67.8,23.49c-.59,0-1.18-.27-1.55-.78-.64-.86-.46-2.07,.4-2.71,6.98-5.17,14.59-9.43,22.63-12.66,1-.39,2.12,.08,2.52,1.07,.4,.99-.08,2.12-1.07,2.52-7.73,3.11-15.05,7.2-21.77,12.18-.35,.26-.75,.38-1.15,.38Z"/>
    <g>
      <circle class="cls-2" cx="125.58" cy="73" r="28.37" transform="translate(31.55 183.72) rotate(-79.83)"/>
      <path class="cls-2" d="M125.58,103.31c-16.71,0-30.3-13.59-30.3-30.31s13.6-30.3,30.3-30.3,30.3,13.59,30.3,30.3-13.6,30.31-30.3,30.31Zm0-56.74c-14.58,0-26.43,11.86-26.43,26.43s11.86,26.43,26.43,26.43,26.43-11.86,26.43-26.43-11.86-26.43-26.43-26.43Z"/>
    </g>
    <g>
      <path class="cls-2" d="M175.49,168.41H75.68v-35.96c0-12.16,9.86-22.02,22.02-22.02h55.76c12.16,0,22.02,9.86,22.02,22.02v35.96Z"/>
      <path class="cls-2" d="M175.49,170.35H75.68c-1.07,0-1.94-.87-1.94-1.94v-35.96c0-13.21,10.75-23.96,23.96-23.96h55.76c13.21,0,23.96,10.75,23.96,23.96v35.96c0,1.07-.87,1.94-1.94,1.94Zm-97.87-3.87h95.93v-34.02c0-11.08-9.01-20.09-20.09-20.09h-55.76c-11.07,0-20.08,9.01-20.08,20.09v34.02Z"/>
    </g>
  </g>
</svg>