<?xml version="1.0" encoding="utf-8"?>
<!-- Generator: Adobe Illustrator 26.4.0, SVG Export Plug-In . SVG Version: 6.00 Build 0)  -->
<svg version="1.1" id="Layer_2_00000171698807579852701060000010102281004964610958_"
	 xmlns="http://www.w3.org/2000/svg" xmlns:xlink="http://www.w3.org/1999/xlink" x="0px" y="0px" viewBox="0 0 237.4 206.9"
	 style="enable-background:new 0 0 237.4 206.9;" xml:space="preserve">
<style type="text/css">
	.st0{fill:#E4E4E4;}
	.st1{fill:#FED86E;}
	.st2{fill:#00C0C6;}
</style>
<g id="Layer_1-2">
	<path class="st0" d="M49.5,84.5c-10.8,0-19.7-8.8-19.7-19.7c0-10.8,8.8-19.7,19.7-19.7c10.8,0,19.7,8.8,19.7,19.7
		C69.2,75.6,60.5,84.5,49.5,84.5z M49.5,48.2c-9.2,0-16.6,7.4-16.6,16.6s7.4,16.6,16.6,16.6S66.1,74,66.1,64.7
		C66.3,55.5,58.6,48.2,49.5,48.2z"/>
	<path class="st0" d="M81.5,132.1H17.6c-0.8,0-1.6-0.8-1.6-1.6v-27.7c0-8.6,6.9-15.5,15.5-15.5h35.7c8.6,0,15.5,6.9,15.5,15.5v27.7
		C82.9,131.3,82.2,132.1,81.5,132.1L81.5,132.1z M19.1,128.9h60.8v-26.1c0-6.9-5.6-12.5-12.5-12.5H31.7c-6.9,0-12.5,5.6-12.5,12.5
		V128.9z"/>
	<path class="st0" d="M212.7,132.1h-63.7c-0.8,0-1.6-0.8-1.6-1.6v-27.7c0-8.6,6.9-15.5,15.5-15.5h35.5c8.6,0,15.5,6.9,15.5,15.5
		v27.7C214.2,131.3,213.6,132.1,212.7,132.1L212.7,132.1z M150.5,128.9h60.8v-26.1c0-6.9-5.6-12.5-12.5-12.5h-35.5
		c-6.9,0-12.5,5.6-12.5,12.5L150.5,128.9L150.5,128.9z"/>
	<path class="st0" d="M180.7,84.5c-10.8,0-19.7-8.8-19.7-19.7c0-10.8,8.8-19.7,19.7-19.7c10.8,0,19.7,8.8,19.7,19.7
		C200.5,75.6,191.7,84.5,180.7,84.5L180.7,84.5z M180.7,48.2c-9.2,0-16.6,7.4-16.6,16.6s7.4,16.6,16.6,16.6
		c9.2,0,16.6-7.4,16.6-16.6C197.5,55.5,190,48.2,180.7,48.2z"/>
	<path class="st1" d="M115.3,186.1c-29.8,0-57-16.3-71.1-42.6c-0.3-0.8-0.2-1.7,0.6-2.2c0.8-0.5,1.7-0.2,2.2,0.6
		c13.6,25.2,39.8,41,68.4,41c12.4,0,24.7-3,35.5-8.6c0.8-0.3,1.7-0.2,2,0.6c0.3,0.8,0.2,1.7-0.6,2C141,183,128.1,186.1,115.3,186.1
		L115.3,186.1z"/>
	<path class="st2" d="M160.7,171.5c-0.5,0-0.9-0.3-1.3-0.6c-0.5-0.8-0.3-1.7,0.3-2.2c5-3.6,9.4-7.5,13.5-12.1
		c0.6-0.6,1.6-0.8,2.2-0.2s0.8,1.6,0.2,2.2c-4.1,4.7-8.8,8.8-13.9,12.5C161.5,171.5,161.2,171.5,160.7,171.5L160.7,171.5z"/>
	<path class="st2" d="M179.5,153.1c-0.3,0-0.6-0.2-0.9-0.3c-0.8-0.5-0.8-1.4-0.3-2.2c2-2.7,3.8-5.5,5.3-8.6c0.3-0.8,1.3-1.1,2.2-0.6
		c0.8,0.3,1.1,1.3,0.6,2.2c-1.7,3.1-3.6,6.1-5.5,8.8C180.4,152.7,179.9,153.1,179.5,153.1L179.5,153.1z"/>
	<path class="st1" d="M160.7,41.4c-0.3,0-0.6-0.2-0.8-0.3C147.1,32.5,132,28,116.5,28c-7.8,0-15.5,1.3-22.9,3.4
		c-0.8,0.3-1.7-0.3-1.9-1.1c-0.2-0.8,0.3-1.7,1.1-1.9c7.7-2.3,15.7-3.6,23.6-3.6c16.1,0,31.8,4.7,45.1,13.8c0.8,0.5,0.8,1.4,0.3,2.2
		C161.8,41.1,161.2,41.4,160.7,41.4z"/>
	<path class="st2" d="M69.6,43.5c-0.5,0-0.9-0.3-1.3-0.6c-0.5-0.8-0.3-1.7,0.3-2.2c5.5-4.1,11.6-7.4,17.9-10c0.8-0.3,1.7,0.2,2,0.8
		c0.3,0.8-0.2,1.7-0.8,2c-6.1,2.5-11.9,5.6-17.2,9.7C70.2,43.3,70,43.5,69.6,43.5L69.6,43.5z"/>
	<g>
		<circle class="st0" cx="115.1" cy="82.6" r="22.4"/>
		<path class="st0" d="M115.3,106.6c-13.2,0-24-10.8-24-24s10.8-24,24-24s24,10.8,24,24S128.3,106.6,115.3,106.6z M115.3,61.6
			c-11.6,0-20.8,9.2-20.8,20.8s9.2,20.8,20.8,20.8s20.8-9.2,20.8-20.8S126.7,61.6,115.3,61.6z"/>
	</g>
	<g>
		<path class="st0" d="M154.6,157.8H75.8v-28.3c0-9.6,7.8-17.4,17.4-17.4h44c9.6,0,17.4,7.8,17.4,17.4L154.6,157.8L154.6,157.8z"/>
		<path class="st0" d="M154.6,159.3H75.8c-0.8,0-1.6-0.8-1.6-1.6v-28.3c0-10.3,8.5-18.8,18.8-18.8h44c10.3,0,18.8,8.5,18.8,18.8
			v28.3C156,158.5,155.4,159.3,154.6,159.3L154.6,159.3z M77.4,156.2H153v-26.9c0-8.8-7-15.8-15.8-15.8h-44c-8.8,0-15.8,7-15.8,15.8
			C77.4,129.4,77.4,156.2,77.4,156.2z"/>
	</g>
</g>
</svg>
