<?xml version="1.0" encoding="UTF-8"?>
<svg id="Layer_2" data-name="Layer 2" xmlns="http://www.w3.org/2000/svg" viewBox="0 0 237.64 211.85">
  <defs>
    <style>
      .cls-1 {
        fill: #e4e4e4;
      }

      .cls-2 {
        fill: #fed86e;
      }
    </style>
  </defs>
  <g id="Layer_1-2" data-name="Layer 1">
    <g>
      <path class="cls-1" d="M41.28,163.53c-13.36,0-24.24-10.87-24.24-24.24s10.87-24.24,24.24-24.24,24.24,10.87,24.24,24.24-10.87,24.24-24.24,24.24Zm0-44.91c-11.4,0-20.68,9.27-20.68,20.68s9.28,20.68,20.68,20.68,20.68-9.27,20.68-20.68-9.28-20.68-20.68-20.68Z"/>
      <path class="cls-1" d="M80.78,211.85H1.78c-.98,0-1.78-.8-1.78-1.78v-23.71c0-10.59,8.62-19.21,19.21-19.21H63.35c10.59,0,19.21,8.62,19.21,19.21v23.71c0,.98-.8,1.78-1.78,1.78Zm-77.22-3.56H79v-21.93c0-8.63-7.02-15.65-15.65-15.65H19.21c-8.63,0-15.65,7.02-15.65,15.65v21.93Z"/>
      <path class="cls-1" d="M196.35,163.53c-13.36,0-24.24-10.87-24.24-24.24s10.87-24.24,24.24-24.24,24.24,10.87,24.24,24.24-10.87,24.24-24.24,24.24Zm0-44.91c-11.4,0-20.68,9.27-20.68,20.68s9.28,20.68,20.68,20.68,20.68-9.27,20.68-20.68-9.28-20.68-20.68-20.68Z"/>
      <path class="cls-1" d="M235.86,211.85h-79c-.98,0-1.78-.8-1.78-1.78v-23.71c0-10.59,8.62-19.21,19.21-19.21h44.14c10.6,0,19.21,8.62,19.21,19.21v23.71c0,.98-.8,1.78-1.78,1.78Zm-77.22-3.56h75.44v-21.93c0-8.63-7.02-15.65-15.65-15.65h-44.14c-8.63,0-15.65,7.02-15.65,15.65v21.93Z"/>
      <path class="cls-1" d="M182.27,106.91c-.49,0-.97-.2-1.31-.58l-13.74-14.95h-41l-6.47,14.04c-.58,1.27-2.65,1.27-3.23,0l-6.47-14.04h-41l-13.74,14.95c-.5,.54-1.27,.72-1.96,.46-.68-.27-1.13-.93-1.13-1.66v-13.75c-7.43-.24-13.4-6.36-13.4-13.84V13.85c0-7.64,6.21-13.85,13.85-13.85H183.6c7.64,0,13.85,6.21,13.85,13.85v63.69c0,7.49-5.97,13.6-13.4,13.84v13.75c0,.73-.45,1.39-1.13,1.66-.21,.08-.43,.12-.65,.12Zm-57.19-19.09h42.92c.5,0,.97,.21,1.31,.58l11.18,12.16v-10.96c0-.98,.8-1.78,1.78-1.78h1.33c5.67,0,10.29-4.61,10.29-10.29V13.85c0-5.67-4.61-10.29-10.29-10.29H52.66c-5.67,0-10.29,4.61-10.29,10.29v63.69c0,5.67,4.61,10.29,10.29,10.29h1.33c.98,0,1.78,.8,1.78,1.78v10.96l11.18-12.16c.34-.37,.81-.58,1.31-.58h42.92c.69,0,1.33,.4,1.62,1.04l5.34,11.57,5.34-11.57c.29-.63,.92-1.04,1.62-1.04Z"/>
      <g>
        <circle class="cls-2" cx="80.27" cy="60.08" r="10.36"/>
        <path class="cls-2" d="M80.27,72.23c-6.69,0-12.14-5.45-12.14-12.14s5.45-12.14,12.14-12.14,12.14,5.45,12.14,12.14-5.45,12.14-12.14,12.14Zm0-20.72c-4.73,0-8.58,3.85-8.58,8.58s3.85,8.58,8.58,8.58,8.58-3.85,8.58-8.58-3.85-8.58-8.58-8.58Z"/>
      </g>
      <g>
        <circle class="cls-2" cx="163.66" cy="54.4" r="10.36"/>
        <path class="cls-2" d="M163.66,66.54c-6.69,0-12.14-5.45-12.14-12.14s5.45-12.14,12.14-12.14,12.14,5.45,12.14,12.14-5.45,12.14-12.14,12.14Zm0-20.72c-4.73,0-8.58,3.85-8.58,8.58s3.85,8.58,8.58,8.58,8.58-3.85,8.58-8.58-3.85-8.58-8.58-8.58Z"/>
      </g>
      <g>
        <path class="cls-2" d="M131.15,26.89c0,5.72-4.64,10.36-10.36,10.36s-10.36-4.64-10.36-10.36,4.64-10.36,10.36-10.36,10.36,4.64,10.36,10.36Z"/>
        <path class="cls-2" d="M120.79,39.03c-6.69,0-12.14-5.45-12.14-12.14s5.45-12.14,12.14-12.14,12.14,5.45,12.14,12.14-5.45,12.14-12.14,12.14Zm0-20.72c-4.73,0-8.58,3.85-8.58,8.58s3.85,8.58,8.58,8.58,8.58-3.85,8.58-8.58-3.85-8.58-8.58-8.58Z"/>
      </g>
      <path class="cls-2" d="M87.03,54.15c-.54,0-1.07-.24-1.42-.7-.6-.78-.45-1.9,.34-2.49l25.42-19.38c.78-.6,1.9-.45,2.49,.34,.6,.78,.45,1.9-.34,2.49l-25.42,19.38c-.32,.25-.7,.36-1.08,.36Z"/>
      <path class="cls-2" d="M155.74,49.55c-.31,0-.63-.08-.91-.25l-26.08-15.57c-.84-.5-1.12-1.6-.62-2.44,.51-.84,1.6-1.12,2.44-.62l26.08,15.57c.84,.5,1.12,1.6,.62,2.44-.33,.56-.92,.87-1.53,.87Z"/>
      <g>
        <circle class="cls-1" cx="118.82" cy="139.29" r="22.46"/>
        <path class="cls-1" d="M118.82,163.53c-13.36,0-24.24-10.87-24.24-24.24s10.87-24.24,24.24-24.24,24.24,10.87,24.24,24.24-10.87,24.24-24.24,24.24Zm0-44.91c-11.4,0-20.68,9.27-20.68,20.68s9.28,20.68,20.68,20.68,20.68-9.27,20.68-20.68-9.28-20.68-20.68-20.68Z"/>
      </g>
      <g>
        <path class="cls-1" d="M158.32,210.07H79.32v-23.71c0-9.63,7.8-17.43,17.43-17.43h44.14c9.63,0,17.43,7.8,17.43,17.43v23.71Z"/>
        <path class="cls-1" d="M158.32,211.85H79.32c-.98,0-1.78-.8-1.78-1.78v-23.71c0-10.59,8.62-19.21,19.21-19.21h44.14c10.59,0,19.21,8.62,19.21,19.21v23.71c0,.98-.8,1.78-1.78,1.78Zm-77.22-3.56h75.44v-21.93c0-8.63-7.02-15.65-15.65-15.65h-44.14c-8.63,0-15.65,7.02-15.65,15.65v21.93Z"/>
      </g>
    </g>
  </g>
</svg>