<?xml version="1.0" encoding="utf-8"?>
<!-- Generator: Adobe Illustrator 26.4.0, SVG Export Plug-In . SVG Version: 6.00 Build 0)  -->
<svg version="1.1" id="Layer_2_00000102503130673110505990000016050852638522408864_"
	 xmlns="http://www.w3.org/2000/svg" xmlns:xlink="http://www.w3.org/1999/xlink" x="0px" y="0px" viewBox="0 0 237.6 211.9"
	 style="enable-background:new 0 0 237.6 211.9;" xml:space="preserve">
<style type="text/css">
	.st0{fill:#E4E4E4;}
	.st1{fill:#FED86E;}
</style>
<g id="Layer_1-2">
	<g>
		<path class="st0" d="M59.8,152c-9.8,0-17.8-8.4-17.8-18.7s8-18.7,17.8-18.7s17.8,8.4,17.8,18.7S69.6,152,59.8,152z M59.8,117.4
			c-8.3,0-15.2,7.2-15.2,15.9c0,8.7,6.8,15.9,15.2,15.9s15.2-7.2,15.2-15.9C74.9,124.6,68.2,117.4,59.8,117.4z"/>
		<path class="st0" d="M88.8,189.3h-58c-0.7,0-1.3-0.6-1.3-1.4v-18.3c0-8.1,6.4-14.8,14.1-14.8H76c7.8,0,14.1,6.7,14.1,14.8v18.3
			C90.1,188.6,89.5,189.3,88.8,189.3z M32.1,186.5h55.4v-16.9c0-6.7-5.1-12-11.5-12H43.6c-6.4,0-11.5,5.4-11.5,12
			C32.1,169.6,32.1,186.5,32.1,186.5z"/>
		<path class="st0" d="M173.7,152c-9.8,0-17.8-8.4-17.8-18.7s8-18.7,17.8-18.7s17.8,8.4,17.8,18.7S183.5,152,173.7,152z
			 M173.7,117.4c-8.3,0-15.2,7.2-15.2,15.9c0,8.7,6.8,15.9,15.2,15.9c8.3,0,15.2-7.2,15.2-15.9C188.9,124.6,182,117.4,173.7,117.4z"
			/>
		<path class="st0" d="M202.7,189.3h-58c-0.7,0-1.3-0.6-1.3-1.4v-18.3c0-8.1,6.4-14.8,14.1-14.8h32.4c7.8,0,14.1,6.7,14.1,14.8v18.3
			C204,188.6,203.4,189.3,202.7,189.3L202.7,189.3z M146,186.5h55.4v-16.9c0-6.7-5.1-12-11.5-12h-32.4c-6.4,0-11.5,5.4-11.5,12
			V186.5L146,186.5z"/>
		<path class="st0" d="M163.3,108.4c-0.3,0-0.7-0.2-1-0.4l-10.1-11.5h-30.1l-4.8,10.8c-0.4,1-2,1-2.4,0l-4.7-10.9H80.1l-10.1,11.5
			c-0.3,0.4-0.9,0.5-1.4,0.3c-0.5-0.2-0.8-0.7-0.8-1.3V96.3c-5.4-0.2-9.8-4.9-9.8-10.7V36.5c0-5.9,4.5-10.7,10.2-10.7h96.1
			c5.6,0,10.2,4.8,10.2,10.7v49.1c0,5.8-4.4,10.5-9.8,10.7v10.6c0,0.5-0.3,1-0.8,1.3C163.6,108.3,163.5,108.4,163.3,108.4
			L163.3,108.4z M121.3,93.6h31.5c0.3,0,0.7,0.2,1,0.4l8.3,9.4v-8.5c0-0.8,0.6-1.4,1.3-1.4h1c4.1,0,7.6-3.6,7.6-8v-49
			c0-4.3-3.4-8-7.6-8H68.2c-4.1,0-7.6,3.6-7.6,8v49.1c0,4.3,3.4,8,7.6,8h1c0.7,0,1.3,0.6,1.3,1.4v8.5l8.3-9.4c0.2-0.3,0.6-0.4,1-0.4
			h31.4c0.5,0,1,0.3,1.2,0.8l4,8.9l4-8.9C120.4,93.9,120.8,93.6,121.3,93.6L121.3,93.6z"/>
		<g>
			<ellipse class="st1" cx="88.4" cy="72.2" rx="7.6" ry="8"/>
			<path class="st1" d="M88.4,81.6c-5,0-8.9-4.2-8.9-9.4s4-9.4,8.9-9.4c5,0,8.9,4.2,8.9,9.4S93.3,81.6,88.4,81.6z M88.4,65.6
				c-3.5,0-6.3,2.9-6.3,6.6s2.8,6.6,6.3,6.6c3.5,0,6.3-2.9,6.3-6.6S91.9,65.6,88.4,65.6z"/>
		</g>
		<g>
			<ellipse class="st1" cx="149.7" cy="67.8" rx="7.6" ry="8"/>
			<path class="st1" d="M149.7,77.2c-5,0-8.9-4.2-8.9-9.4c0-5.1,4-9.4,8.9-9.4s8.9,4.2,8.9,9.4C158.6,72.9,154.6,77.2,149.7,77.2z
				 M149.7,61.2c-3.5,0-6.3,2.9-6.3,6.6s2.8,6.6,6.3,6.6c3.5,0,6.3-2.9,6.3-6.6S153.2,61.2,149.7,61.2z"/>
		</g>
		<g>
			<path class="st1" d="M125.8,46.6c0,4.4-3.4,8-7.6,8s-7.6-3.6-7.6-8s3.4-8,7.6-8C122.4,38.6,125.8,42.2,125.8,46.6z"/>
			<path class="st1" d="M118.2,55.9c-5,0-8.9-4.2-8.9-9.4s4-9.4,8.9-9.4c5,0,8.9,4.2,8.9,9.4S123.1,55.9,118.2,55.9z M118.2,40
				c-3.5,0-6.3,2.9-6.3,6.6c0,3.6,2.8,6.6,6.3,6.6s6.3-2.9,6.3-6.6C124.4,42.9,121.6,40,118.2,40z"/>
		</g>
		<path class="st1" d="M93.4,67.6c-0.4,0-0.8-0.2-1.1-0.5c-0.4-0.6-0.3-1.5,0.2-1.9l18.7-14.9c0.6-0.4,1.4-0.3,1.8,0.3
			s0.3,1.5-0.2,1.9L94.2,67.4C93.9,67.5,93.7,67.6,93.4,67.6L93.4,67.6z"/>
		<path class="st1" d="M143.8,64.1c-0.2,0-0.5-0.1-0.7-0.2l-19.1-12c-0.6-0.3-0.8-1.2-0.5-1.9c0.4-0.6,1.2-0.9,1.8-0.5l19.1,12.1
			c0.6,0.3,0.8,1.2,0.5,1.9C144.7,63.8,144.3,64.1,143.8,64.1z"/>
		<g>
			<ellipse class="st0" cx="116.7" cy="133.3" rx="16.5" ry="17.3"/>
			<path class="st0" d="M116.7,152c-9.8,0-17.8-8.4-17.8-18.7s8-18.7,17.8-18.7c9.8,0,17.8,8.4,17.8,18.7S126.5,152,116.7,152z
				 M116.7,117.4c-8.3,0-15.2,7.2-15.2,15.9c0,8.7,6.8,15.9,15.2,15.9s15.2-7.2,15.2-15.9C131.9,124.6,125.1,117.4,116.7,117.4z"/>
		</g>
		<g>
			<path class="st0" d="M145.7,187.9h-58v-18.3c0-7.5,5.7-13.4,12.8-13.4h32.4c7.1,0,12.8,6,12.8,13.4V187.9z"/>
			<path class="st0" d="M145.7,189.3h-58c-0.7,0-1.3-0.6-1.3-1.4v-18.3c0-8.1,6.4-14.8,14.1-14.8h32.4c7.8,0,14.1,6.7,14.1,14.8
				v18.3C147.1,188.6,146.5,189.3,145.7,189.3z M89,186.5h55.4v-16.9c0-6.7-5.1-12-11.5-12h-32.4c-6.4,0-11.5,5.4-11.5,12
				C89,169.6,89,186.5,89,186.5z"/>
		</g>
	</g>
</g>
</svg>
