<?xml version="1.0" encoding="utf-8"?>
<!-- Generator: Adobe Illustrator 26.4.0, SVG Export Plug-In . SVG Version: 6.00 Build 0)  -->
<svg version="1.1" id="Layer_1" xmlns="http://www.w3.org/2000/svg" xmlns:xlink="http://www.w3.org/1999/xlink" x="0px" y="0px"
	 viewBox="0 0 72 72" style="enable-background:new 0 0 72 72;" xml:space="preserve">
<style type="text/css">
	.st0{fill:#242A36;}
	.st1{fill:#FFFFFF;}
</style>
<g>
	<path class="st0" d="M35.9,68.8L35.9,68.8c-18.5,0-33.5-15-33.5-33.5v0c0-18.5,15-33.5,33.5-33.5h0c18.5,0,33.5,15,33.5,33.5v0
		C69.5,53.7,54.4,68.8,35.9,68.8z"/>
	<path class="st1" d="M50.9,49.8L39,32.6l12.2-14.2h-2.9L37.7,30.7l-7-10.1l-1.5-2.2h-2.7H22h-2.7l1.5,2.2l11.4,16.4L19.4,52h2.9
		l11.3-13.1l7.5,10.9l1.5,2.2h2.7h4.4h2.7L50.9,49.8z M43.8,49.8l-8.7-12.6l-1.3-1.9L23.6,20.6H28l8.2,11.9l1.3,1.9l10.7,15.4H43.8z
		"/>
</g>
</svg>
