<?xml version="1.0" encoding="utf-8"?>
<!-- Generator: Adobe Illustrator 26.4.0, SVG Export Plug-In . SVG Version: 6.00 Build 0)  -->
<svg version="1.1" id="Layer_1" xmlns="http://www.w3.org/2000/svg" xmlns:xlink="http://www.w3.org/1999/xlink" x="0px" y="0px"
	 viewBox="0 0 72 72" style="enable-background:new 0 0 72 72;" xml:space="preserve">
<style type="text/css">
	.st0{fill-rule:evenodd;clip-rule:evenodd;fill:#FFFFFF;}
	.st1{fill:#1A2735;}
	.st2{fill:#FFFFFF;}
</style>
<g>
	<path class="st0" d="M62,62H51.3V43.8c0-5-1.9-7.8-5.8-7.8c-4.3,0-6.5,2.9-6.5,7.8V62H28.6V27.3h10.3V32c0,0,3.1-5.7,10.5-5.7
		S62,30.8,62,40.1V62z M16.3,22.8c-3.5,0-6.3-2.9-6.3-6.4s2.8-6.4,6.3-6.4s6.3,2.9,6.3,6.4S19.9,22.8,16.3,22.8z M11,62h10.7V27.3
		H11V62z"/>
</g>
<g>
	<path class="st1" d="M35.9,71.1L35.9,71.1C16.5,71.1,0.8,55.4,0.8,36v0c0-19.4,15.7-35.1,35.1-35.1h0C55.3,0.9,71,16.6,71,36v0
		C71,55.4,55.3,71.1,35.9,71.1z"/>
	<path id="logo_00000042694986143422448790000018218161864356464574_" class="st2" d="M57,25.3c-0.4-1.4-1.5-3.3-3.9-3.9
		c-3.1-0.8-11-0.8-17.2-0.9h0c-3.1,0-6.6,0.1-9.7,0.2c-3.1,0.1-5.9,0.3-7.5,0.7c-2.4,0.7-3.5,2.5-3.9,3.9c-0.6,2-0.9,7.4-0.9,10.7
		s0.3,8.7,0.9,10.7c0.4,1.4,1.5,3.3,3.9,3.9c3.1,0.8,11,0.8,17.2,0.9h0c3.1,0,6.6-0.1,9.7-0.2c3.1-0.1,5.9-0.3,7.5-0.7
		c2.4-0.7,3.5-2.5,3.9-3.9c0.6-2,0.9-7.4,0.9-10.7S57.6,27.4,57,25.3z M31.4,42.5V29.5L42.9,36L31.4,42.5z"/>
</g>
</svg>
