<?xml version="1.0" encoding="UTF-8"?>
<svg id="Layer_1" data-name="Layer 1" xmlns="http://www.w3.org/2000/svg" viewBox="0 0 550.08 225.4">
  <defs>
    <style>
      .cls-1 {
        fill: #fff;
      }

      .cls-2 {
        fill: #231f20;
      }
    </style>
  </defs>
  <rect class="cls-2" width="550.08" height="225.4"/>
  <g>
    <path class="cls-1" d="M304.29,123.91l10.53-55.68h16.07l-17.36,78.25h-16.23l-12.74-52.35-12.74,52.35h-16.23l-17.36-78.25h16.07l10.59,55.57,12.9-55.57h13.65l12.84,55.68Z"/>
    <path class="cls-1" d="M334.5,116.87c0-5.77,1.11-10.91,3.33-15.42,2.22-4.51,5.42-8.01,9.59-10.48,4.17-2.47,9.02-3.71,14.54-3.71,7.85,0,14.25,2.4,19.21,7.2,4.96,4.8,7.73,11.32,8.3,19.56l.11,3.98c0,8.92-2.49,16.08-7.47,21.47-4.98,5.39-11.66,8.09-20.05,8.09s-15.08-2.69-20.07-8.06c-5-5.38-7.5-12.68-7.5-21.93v-.7Zm15.53,1.1c0,5.53,1.04,9.75,3.12,12.68,2.08,2.92,5.05,4.39,8.92,4.39s6.7-1.44,8.81-4.33c2.11-2.89,3.17-7.51,3.17-13.86,0-5.42-1.06-9.62-3.17-12.6-2.12-2.98-5.09-4.47-8.92-4.47s-6.74,1.48-8.81,4.44c-2.08,2.96-3.12,7.55-3.12,13.75Z"/>
    <path class="cls-1" d="M431.83,102.89c-2.11-.29-3.98-.43-5.59-.43-5.88,0-9.73,1.99-11.56,5.97v38.05h-15.53v-58.15h14.67l.43,6.93c3.12-5.34,7.43-8.01,12.95-8.01,1.72,0,3.33,.23,4.84,.7l-.21,14.94Z"/>
    <path class="cls-1" d="M435.86,116.97c0-9.06,2.03-16.29,6.1-21.66,4.07-5.38,9.63-8.06,16.69-8.06,5.66,0,10.34,2.11,14.03,6.34v-29.67h15.59v82.55h-14.03l-.75-6.18c-3.87,4.84-8.85,7.26-14.94,7.26-6.84,0-12.33-2.7-16.47-8.09-4.14-5.39-6.21-12.89-6.21-22.49Zm15.53,1.16c0,5.46,.95,9.64,2.85,12.54,1.9,2.91,4.66,4.36,8.28,4.36,4.8,0,8.19-2.03,10.16-6.08v-22.98c-1.93-4.05-5.29-6.08-10.05-6.08-7.49,0-11.23,6.08-11.23,18.25Z"/>
  </g>
  <rect class="cls-1" x="59.68" y="39.17" width="149.47" height="136.45"/>
  <path class="cls-2" d="M141.41,134.34l27.5-28.28,9.29,9.03-41.55,42.73-6.78-6.59-12.98-66.6-26.94,27.7-9.36-9.1,40.92-42.08,6.63,6.44,13.29,66.75Z"/>
</svg>