<svg width="245" height="128" viewBox="0 0 245 128" fill="none" xmlns="http://www.w3.org/2000/svg">
<path d="M83.7985 16.8V50.4C83.7985 53.4928 86.4789 56 89.7841 56C93.0894 56 95.7697 53.4928 95.7697 50.4V16.8C95.7697 13.7072 98.4501 11.2 101.755 11.2H113.727C117.032 11.2 119.712 8.69277 119.712 5.6C119.712 2.50723 117.032 0 113.727 0H65.8417C62.5365 0 59.8561 2.50723 59.8561 5.6C59.8561 8.69277 62.5365 11.2 65.8417 11.2H77.8129C81.1182 11.2 83.7985 13.7072 83.7985 16.8Z" fill="white"/>
<path fill-rule="evenodd" clip-rule="evenodd" d="M118.234 40.6404L131.684 7.04043C133.386 2.78824 137.507 0 142.09 0H149.331C153.914 0 158.036 2.78824 159.737 7.04043L173.187 40.6404C176.133 47.9973 170.71 56 162.781 56H128.64C120.711 56 115.289 47.9973 118.234 40.6404ZM129.921 37.4642L137.615 18.3542C138.588 15.9358 140.946 14.35 143.567 14.35H147.709C150.331 14.35 152.688 15.9358 153.661 18.3542L161.355 37.4642C163.04 41.6484 159.938 46.2 155.403 46.2H135.874C131.338 46.2 128.236 41.6484 129.921 37.4642Z" fill="#FF3838"/>
<path fill-rule="evenodd" clip-rule="evenodd" d="M11.2086 0H37.2456C41.8288 0 45.9503 2.78824 47.6524 7.04043L55.2409 25.9973C55.7705 27.3203 56.0426 28.732 56.0426 30.1569V34.1954C56.0426 36.2216 55.4925 38.2098 54.451 39.9483L48.0976 50.5529C46.0732 53.9318 42.4217 56 38.4807 56H11.2086C5.01828 56 0.000123978 50.9857 0.000123978 44.8V11.2C0.000123978 5.01446 5.01828 0 11.2086 0ZM17.1217 11.55H32.6429C35.375 11.55 37.8319 13.1881 38.8465 15.6863L43.3702 26.8234C43.6859 27.6007 43.8481 28.4301 43.8481 29.2672V31.6398C43.8481 32.8302 43.5202 33.9983 42.8993 35.0196L39.1119 41.2498C37.9052 43.2349 35.7284 44.45 33.3791 44.45H17.1217C13.4315 44.45 10.4401 41.5041 10.4401 37.87V18.13C10.4401 14.496 13.4315 11.55 17.1217 11.55Z" fill="white"/>
<path d="M4.89466 87.5065C5.12475 87.5273 5.38621 87.548 5.67905 87.5688C5.99281 87.5688 6.35889 87.5688 6.77723 87.5688C9.22456 87.5688 11.0339 86.9568 12.2053 85.7328C13.3976 84.5089 13.9937 82.8181 13.9937 80.6606C13.9937 78.3994 13.4289 76.688 12.2994 75.5262C11.1699 74.3645 9.38143 73.7836 6.9341 73.7836C6.59942 73.7836 6.25429 73.794 5.8987 73.8148C5.5431 73.8148 5.20842 73.8355 4.89466 73.877V87.5065ZM19.0453 80.6606C19.0453 82.5277 18.7524 84.1562 18.1667 85.5461C17.581 86.936 16.7443 88.0874 15.6566 89.0002C14.5899 89.913 13.2825 90.5975 11.7346 91.0539C10.1868 91.5103 8.45062 91.7385 6.52623 91.7385C5.6477 91.7385 4.62273 91.697 3.45136 91.614C2.27999 91.5518 1.12954 91.4066 0 91.1784V70.174C1.12954 69.9665 2.3009 69.8317 3.51411 69.7695C4.74824 69.6865 5.80458 69.645 6.68311 69.645C8.54475 69.645 10.2286 69.8524 11.7346 70.2673C13.2616 70.6823 14.5689 71.3357 15.6566 72.2278C16.7443 73.1198 17.581 74.2608 18.1667 75.6507C18.7524 77.0406 19.0453 78.7106 19.0453 80.6606Z" fill="white"/>
<path d="M23.1337 91.4585V69.8939H37.8177V73.9704H28.0284V78.2023H36.7195V82.1854H28.0284V87.382H38.5393V91.4585H23.1337Z" fill="white"/>
<path d="M48.962 91.4585C48.1044 89.6536 47.2573 87.7762 46.4206 85.8262C45.5839 83.8761 44.7891 81.9468 44.036 80.0383C43.283 78.1297 42.5823 76.3042 41.9338 74.5616C41.3063 72.819 40.7625 71.2631 40.3023 69.8939H45.699C46.1173 71.1386 46.567 72.4871 47.0481 73.9392C47.5501 75.3706 48.0522 76.8021 48.5542 78.2335C49.0771 79.6649 49.5791 81.034 50.0602 82.341C50.5413 83.6479 50.9911 84.7785 51.4094 85.7328C51.8068 84.7785 52.2461 83.6479 52.7272 82.341C53.2292 81.034 53.7312 79.6649 54.2332 78.2335C54.7562 76.8021 55.2582 75.3706 55.7393 73.9392C56.2413 72.4871 56.7015 71.1386 57.1199 69.8939H62.3283C61.8472 71.2631 61.2929 72.819 60.6653 74.5616C60.0378 76.3042 59.3475 78.1297 58.5945 80.0383C57.8415 81.9468 57.0466 83.8761 56.2099 85.8262C55.3732 87.7762 54.5261 89.6536 53.6685 91.4585H48.962Z" fill="white"/>
<path d="M88.8069 69.8939V74.0326H82.2494V91.4585H77.3547V74.0326H70.7971V69.8939H88.8069Z" fill="white"/>
<path d="M95.3275 80.6606C95.3275 81.7186 95.453 82.6729 95.704 83.5235C95.9759 84.374 96.3525 85.1105 96.8335 85.7328C97.3356 86.3344 97.9422 86.8012 98.6534 87.1331C99.3646 87.465 100.18 87.631 101.101 87.631C102 87.631 102.805 87.465 103.517 87.1331C104.249 86.8012 104.855 86.3344 105.336 85.7328C105.839 85.1105 106.215 84.374 106.466 83.5235C106.738 82.6729 106.874 81.7186 106.874 80.6606C106.874 79.6026 106.738 78.6484 106.466 77.7978C106.215 76.9265 105.839 76.1901 105.336 75.5885C104.855 74.9661 104.249 74.489 103.517 74.1571C102.805 73.8251 102 73.6592 101.101 73.6592C100.18 73.6592 99.3646 73.8355 98.6534 74.1882C97.9422 74.5201 97.3356 74.9972 96.8335 75.6196C96.3525 76.2212 95.9759 76.9576 95.704 77.8289C95.453 78.6795 95.3275 79.6234 95.3275 80.6606ZM111.925 80.6606C111.925 82.5069 111.643 84.1354 111.078 85.5461C110.534 86.936 109.781 88.1081 108.819 89.0624C107.857 89.9959 106.707 90.7013 105.368 91.1784C104.05 91.6555 102.628 91.8941 101.101 91.8941C99.6156 91.8941 98.2141 91.6555 96.8963 91.1784C95.5785 90.7013 94.4281 89.9959 93.445 89.0624C92.4619 88.1081 91.6879 86.936 91.1231 85.5461C90.5584 84.1354 90.276 82.5069 90.276 80.6606C90.276 78.8143 90.5688 77.1962 91.1545 75.8063C91.7402 74.3956 92.5246 73.2132 93.5077 72.2589C94.5118 71.3046 95.6622 70.5889 96.9591 70.1118C98.2769 69.6346 99.6574 69.3961 101.101 69.3961C102.586 69.3961 103.987 69.6346 105.305 70.1118C106.623 70.5889 107.773 71.3046 108.756 72.2589C109.74 73.2132 110.514 74.3956 111.078 75.8063C111.643 77.1962 111.925 78.8143 111.925 80.6606Z" fill="white"/>
<path d="M120.116 80.6606C120.116 81.7186 120.241 82.6729 120.492 83.5235C120.764 84.374 121.141 85.1105 121.622 85.7328C122.124 86.3344 122.73 86.8012 123.442 87.1331C124.153 87.465 124.969 87.631 125.889 87.631C126.788 87.631 127.594 87.465 128.305 87.1331C129.037 86.8012 129.644 86.3344 130.125 85.7328C130.627 85.1105 131.003 84.374 131.254 83.5235C131.526 82.6729 131.662 81.7186 131.662 80.6606C131.662 79.6026 131.526 78.6484 131.254 77.7978C131.003 76.9265 130.627 76.1901 130.125 75.5885C129.644 74.9661 129.037 74.489 128.305 74.1571C127.594 73.8251 126.788 73.6592 125.889 73.6592C124.969 73.6592 124.153 73.8355 123.442 74.1882C122.73 74.5201 122.124 74.9972 121.622 75.6196C121.141 76.2212 120.764 76.9576 120.492 77.8289C120.241 78.6795 120.116 79.6234 120.116 80.6606ZM136.714 80.6606C136.714 82.5069 136.431 84.1354 135.867 85.5461C135.323 86.936 134.57 88.1081 133.607 89.0624C132.645 89.9959 131.495 90.7013 130.156 91.1784C128.838 91.6555 127.416 91.8941 125.889 91.8941C124.404 91.8941 123.002 91.6555 121.685 91.1784C120.367 90.7013 119.216 89.9959 118.233 89.0624C117.25 88.1081 116.476 86.936 115.911 85.5461C115.347 84.1354 115.064 82.5069 115.064 80.6606C115.064 78.8143 115.357 77.1962 115.943 75.8063C116.528 74.3956 117.313 73.2132 118.296 72.2589C119.3 71.3046 120.451 70.5889 121.747 70.1118C123.065 69.6346 124.446 69.3961 125.889 69.3961C127.374 69.3961 128.776 69.6346 130.093 70.1118C131.411 70.5889 132.562 71.3046 133.545 72.2589C134.528 73.2132 135.302 74.3956 135.867 75.8063C136.431 77.1962 136.714 78.8143 136.714 80.6606Z" fill="white"/>
<path d="M155.321 87.2887V91.4585H140.794V69.8939H145.689V87.2887H155.321Z" fill="white"/>
<path d="M164.924 87.7555C165.615 87.7555 166.179 87.7036 166.619 87.5999C167.079 87.4754 167.445 87.3198 167.717 87.1331C167.989 86.9257 168.177 86.6871 168.282 86.4174C168.386 86.1477 168.439 85.8469 168.439 85.515C168.439 84.8097 168.104 84.2288 167.435 83.7724C166.765 83.2953 165.615 82.787 163.983 82.2476C163.272 81.9987 162.561 81.7186 161.85 81.4075C161.138 81.0755 160.5 80.671 159.936 80.1939C159.371 79.696 158.911 79.1048 158.555 78.4202C158.2 77.7148 158.022 76.8643 158.022 75.8685C158.022 74.8728 158.21 73.9807 158.587 73.1924C158.963 72.3833 159.496 71.6988 160.187 71.1386C160.877 70.5785 161.714 70.1533 162.697 69.8628C163.68 69.5516 164.788 69.3961 166.023 69.3961C167.487 69.3961 168.752 69.5516 169.819 69.8628C170.886 70.174 171.764 70.5163 172.455 70.8897L171.043 74.7172C170.436 74.406 169.756 74.1363 169.003 73.9081C168.271 73.6592 167.382 73.5347 166.336 73.5347C165.165 73.5347 164.318 73.7007 163.795 74.0326C163.293 74.3438 163.042 74.8313 163.042 75.4951C163.042 75.8893 163.136 76.2212 163.324 76.4909C163.513 76.7606 163.774 77.0095 164.109 77.2377C164.464 77.4452 164.862 77.6422 165.301 77.8289C165.761 77.9949 166.263 78.1712 166.807 78.3579C167.937 78.7728 168.92 79.1877 169.756 79.6026C170.593 79.9968 171.283 80.4636 171.827 81.0029C172.392 81.5423 172.81 82.175 173.082 82.9011C173.354 83.6272 173.49 84.5089 173.49 85.5461C173.49 87.5584 172.779 89.1246 171.357 90.2449C169.934 91.3444 167.79 91.8941 164.924 91.8941C163.962 91.8941 163.094 91.8319 162.32 91.7074C161.546 91.6037 160.856 91.4688 160.249 91.3029C159.664 91.1369 159.151 90.9606 158.712 90.7739C158.294 90.5872 157.938 90.4108 157.645 90.2449L159.026 86.3863C159.674 86.7389 160.469 87.0605 161.41 87.3509C162.373 87.6206 163.544 87.7555 164.924 87.7555Z" fill="white"/>
<path d="M7.24787 127.718C6.05558 127.718 4.8633 127.677 3.67101 127.594C2.49963 127.532 1.27596 127.366 0 127.096V106.185C1.00403 105.998 2.10219 105.863 3.29448 105.78C4.48677 105.677 5.5954 105.625 6.62035 105.625C8.0009 105.625 9.26639 105.728 10.4168 105.936C11.5882 106.123 12.5923 106.455 13.4289 106.932C14.2656 107.409 14.9141 108.042 15.3743 108.83C15.8554 109.597 16.0959 110.552 16.0959 111.693C16.0959 113.415 15.2592 114.773 13.5858 115.769C14.9664 116.288 15.9077 116.993 16.4097 117.885C16.9117 118.777 17.1627 119.783 17.1627 120.904C17.1627 123.165 16.326 124.866 14.6526 126.007C13.0001 127.148 10.5319 127.718 7.24787 127.718ZM4.76916 118.041V123.611C5.12475 123.652 5.51171 123.683 5.93006 123.704C6.3484 123.725 6.8086 123.735 7.31062 123.735C8.77484 123.735 9.95666 123.528 10.8561 123.113C11.7556 122.698 12.2053 121.93 12.2053 120.81C12.2053 119.814 11.8288 119.109 11.0758 118.694C10.3227 118.259 9.24547 118.041 7.84401 118.041H4.76916ZM4.76916 114.338H7.15374C8.65979 114.338 9.73702 114.151 10.3855 113.778C11.0339 113.383 11.3581 112.761 11.3581 111.911C11.3581 111.039 11.0235 110.427 10.3541 110.075C9.68474 109.722 8.70162 109.546 7.40475 109.546C6.9864 109.546 6.53667 109.556 6.05558 109.577C5.57448 109.577 5.14567 109.597 4.76916 109.639V114.338Z" fill="white"/>
<path d="M35.3329 127.438C35.1028 126.691 34.8413 125.924 34.5484 125.135C34.2765 124.347 34.0046 123.559 33.7327 122.771H25.2612C24.9892 123.559 24.7068 124.347 24.414 125.135C24.1421 125.924 23.8911 126.691 23.661 127.438H18.5781C19.3938 125.115 20.1678 122.968 20.8999 120.997C21.632 119.026 22.3432 117.169 23.0335 115.427C23.7447 113.684 24.4349 112.035 25.1043 110.479C25.7945 108.902 26.5057 107.367 27.2378 105.874H31.9129C32.6241 107.367 33.3248 108.902 34.0151 110.479C34.7053 112.035 35.3956 113.684 36.0859 115.427C36.7971 117.169 37.5187 119.026 38.2508 120.997C38.9829 122.968 39.7569 125.115 40.5726 127.438H35.3329ZM29.4655 110.759C29.3609 111.07 29.2041 111.496 28.9949 112.035C28.7857 112.574 28.5452 113.197 28.2733 113.902C28.0013 114.607 27.698 115.385 27.3633 116.236C27.0496 117.086 26.7254 117.978 26.3907 118.912H32.5718C32.2371 117.978 31.9129 117.086 31.5991 116.236C31.2853 115.385 30.9821 114.607 30.6892 113.902C30.4173 113.197 30.1767 112.574 29.9676 112.035C29.7584 111.496 29.591 111.07 29.4655 110.759Z" fill="white"/>
<path d="M57.9143 123.268V127.438H43.3872V105.874H48.2818V123.268H57.9143Z" fill="white"/>
<path d="M61.0668 105.874H65.9615V127.438H61.0668V105.874Z" fill="white"/>
</svg>
