<svg width="245" height="132" viewBox="0 0 245 132" fill="none" xmlns="http://www.w3.org/2000/svg">
<path d="M83.7984 16.8V50.4C83.7984 53.4928 86.4788 56 89.784 56C93.0892 56 95.7696 53.4928 95.7696 50.4V16.8C95.7696 13.7072 98.45 11.2 101.755 11.2H113.726C117.032 11.2 119.712 8.69277 119.712 5.6C119.712 2.50723 117.032 0 113.726 0H65.8416C62.5363 0 59.856 2.50723 59.856 5.6C59.856 8.69277 62.5363 11.2 65.8416 11.2H77.8128C81.118 11.2 83.7984 13.7072 83.7984 16.8Z" fill="white"/>
<path fill-rule="evenodd" clip-rule="evenodd" d="M118.234 40.6404L131.684 7.04043C133.386 2.78824 137.507 0 142.09 0H149.331C153.914 0 158.035 2.78824 159.737 7.04043L173.187 40.6404C176.133 47.9973 170.71 56 162.781 56H128.64C120.711 56 115.288 47.9973 118.234 40.6404ZM129.921 37.4642L137.615 18.3542C138.588 15.9358 140.945 14.35 143.567 14.35H147.709C150.331 14.35 152.688 15.9358 153.661 18.3542L161.355 37.4642C163.04 41.6484 159.938 46.2 155.403 46.2H135.873C131.338 46.2 128.236 41.6484 129.921 37.4642Z" fill="#FF3838"/>
<path fill-rule="evenodd" clip-rule="evenodd" d="M11.2085 0H37.2455C41.8287 0 45.9501 2.78824 47.6523 7.04043L55.2408 25.9973C55.7704 27.3203 56.0425 28.732 56.0425 30.1569V34.1954C56.0425 36.2216 55.4924 38.2098 54.4509 39.9483L48.0975 50.5529C46.0731 53.9318 42.4216 56 38.4806 56H11.2085C5.01816 56 0 50.9857 0 44.8V11.2C0 5.01446 5.01816 0 11.2085 0ZM17.1216 11.55H32.6428C35.3749 11.55 37.8318 13.1881 38.8464 15.6863L43.3701 26.8234C43.6858 27.6007 43.848 28.4301 43.848 29.2672V31.6398C43.848 32.8302 43.5201 33.9983 42.8992 35.0196L39.1118 41.2498C37.9051 43.2349 35.7283 44.45 33.379 44.45H17.1216C13.4314 44.45 10.44 41.5041 10.44 37.87V18.13C10.44 14.496 13.4314 11.55 17.1216 11.55Z" fill="white"/>
<path d="M4.89467 90.5845C5.12476 90.6057 5.38621 90.6269 5.67906 90.648C5.99282 90.648 6.35888 90.648 6.77723 90.648C9.22456 90.648 11.0339 90.0237 12.2053 88.7749C13.3976 87.5262 13.9937 85.8012 13.9937 83.6001C13.9937 81.2931 13.4289 79.5469 12.2994 78.3617C11.1699 77.1765 9.38144 76.5838 6.93411 76.5838C6.59943 76.5838 6.25429 76.5944 5.8987 76.6156C5.5431 76.6156 5.20843 76.6367 4.89467 76.6791V90.5845ZM19.0452 83.6001C19.0452 85.5049 18.7524 87.1664 18.1667 88.5844C17.581 90.0025 16.7443 91.1772 15.6566 92.1084C14.5898 93.0397 13.2825 93.7381 11.7346 94.2038C10.1868 94.6694 8.45062 94.9022 6.52623 94.9022C5.6477 94.9022 4.62272 94.8599 3.45135 94.7752C2.27998 94.7117 1.12954 94.5636 0 94.3308V72.9011C1.12954 72.6895 2.30093 72.5519 3.51414 72.4884C4.74826 72.4037 5.80458 72.3614 6.68311 72.3614C8.54475 72.3614 10.2286 72.5731 11.7346 72.9964C13.2616 73.4197 14.5689 74.0864 15.6566 74.9965C16.7443 75.9066 17.581 77.0706 18.1667 78.4887C18.7524 79.9068 19.0452 81.6105 19.0452 83.6001Z" fill="white"/>
<path d="M23.1337 94.6165V72.6154H37.8176V76.7743H28.0283V81.092H36.7195V85.1557H28.0283V90.4576H38.5393V94.6165H23.1337Z" fill="white"/>
<path d="M48.962 94.6165C48.1044 92.7751 47.2573 90.8597 46.4206 88.8702C45.5839 86.8806 44.789 84.9123 44.036 82.9651C43.283 81.0179 42.5822 79.1554 41.9338 77.3775C41.3063 75.5997 40.7624 74.0123 40.3023 72.6154H45.6989C46.1173 73.8853 46.567 75.261 47.0481 76.7426C47.5501 78.203 48.0521 79.6634 48.5542 81.1237C49.0771 82.5841 49.5791 83.981 50.0602 85.3144C50.5413 86.6478 50.991 87.8013 51.4094 88.7749C51.8068 87.8013 52.2461 86.6478 52.7272 85.3144C53.2292 83.981 53.7312 82.5841 54.2332 81.1237C54.7561 79.6634 55.2581 78.203 55.7392 76.7426C56.2413 75.261 56.7015 73.8853 57.1198 72.6154H62.3282C61.8471 74.0123 61.2928 75.5997 60.6653 77.3775C60.0378 79.1554 59.3475 81.0179 58.5945 82.9651C57.8414 84.9123 57.0466 86.8806 56.2099 88.8702C55.3732 90.8597 54.5261 92.7751 53.6684 94.6165H48.962Z" fill="white"/>
<path d="M88.8069 72.6154V76.8378H82.2493V94.6165H77.3546V76.8378H70.797V72.6154H88.8069Z" fill="white"/>
<path d="M95.3274 83.6001C95.3274 84.6795 95.4529 85.6531 95.7039 86.5208C95.9759 87.3886 96.3524 88.14 96.8335 88.7749C97.3355 89.3887 97.9421 89.8649 98.6533 90.2036C99.3645 90.5422 100.18 90.7115 101.101 90.7115C102 90.7115 102.805 90.5422 103.517 90.2036C104.249 89.8649 104.855 89.3887 105.336 88.7749C105.838 88.14 106.215 87.3886 106.466 86.5208C106.738 85.6531 106.874 84.6795 106.874 83.6001C106.874 82.5206 106.738 81.5471 106.466 80.6793C106.215 79.7903 105.838 79.039 105.336 78.4252C104.855 77.7902 104.249 77.3034 103.517 76.9648C102.805 76.6262 102 76.4568 101.101 76.4568C100.18 76.4568 99.3645 76.6368 98.6533 76.9966C97.9421 77.3352 97.3355 77.822 96.8335 78.4569C96.3524 79.0707 95.9759 79.8221 95.7039 80.711C95.4529 81.5788 95.3274 82.5418 95.3274 83.6001ZM111.925 83.6001C111.925 85.4838 111.643 87.1452 111.078 88.5844C110.534 90.0025 109.781 91.1983 108.819 92.1719C107.857 93.1243 106.706 93.844 105.368 94.3308C104.05 94.8176 102.628 95.061 101.101 95.061C99.6155 95.061 98.2141 94.8176 96.8963 94.3308C95.5785 93.844 94.428 93.1243 93.4449 92.1719C92.4618 91.1983 91.6878 90.0025 91.123 88.5844C90.5583 87.1452 90.2759 85.4838 90.2759 83.6001C90.2759 81.7164 90.5687 80.0655 91.1544 78.6474C91.7401 77.2082 92.5245 76.0018 93.5077 75.0282C94.5117 74.0546 95.6621 73.3244 96.959 72.8376C98.2768 72.3508 99.6573 72.1074 101.101 72.1074C102.586 72.1074 103.987 72.3508 105.305 72.8376C106.623 73.3244 107.773 74.0546 108.756 75.0282C109.739 76.0018 110.513 77.2082 111.078 78.6474C111.643 80.0655 111.925 81.7164 111.925 83.6001Z" fill="white"/>
<path d="M120.116 83.6001C120.116 84.6795 120.241 85.6531 120.492 86.5208C120.764 87.3886 121.141 88.14 121.622 88.7749C122.124 89.3887 122.73 89.8649 123.442 90.2036C124.153 90.5422 124.969 90.7115 125.889 90.7115C126.788 90.7115 127.594 90.5422 128.305 90.2036C129.037 89.8649 129.644 89.3887 130.125 88.7749C130.627 88.14 131.003 87.3886 131.254 86.5208C131.526 85.6531 131.662 84.6795 131.662 83.6001C131.662 82.5206 131.526 81.5471 131.254 80.6793C131.003 79.7903 130.627 79.039 130.125 78.4252C129.644 77.7902 129.037 77.3034 128.305 76.9648C127.594 76.6262 126.788 76.4568 125.889 76.4568C124.969 76.4568 124.153 76.6368 123.442 76.9966C122.73 77.3352 122.124 77.822 121.622 78.4569C121.141 79.0707 120.764 79.8221 120.492 80.711C120.241 81.5788 120.116 82.5418 120.116 83.6001ZM136.714 83.6001C136.714 85.4838 136.431 87.1452 135.866 88.5844C135.323 90.0025 134.57 91.1983 133.607 92.1719C132.645 93.1243 131.495 93.844 130.156 94.3308C128.838 94.8176 127.416 95.061 125.889 95.061C124.404 95.061 123.002 94.8176 121.685 94.3308C120.367 93.844 119.216 93.1243 118.233 92.1719C117.25 91.1983 116.476 90.0025 115.911 88.5844C115.347 87.1452 115.064 85.4838 115.064 83.6001C115.064 81.7164 115.357 80.0655 115.943 78.6474C116.528 77.2082 117.313 76.0018 118.296 75.0282C119.3 74.0546 120.45 73.3244 121.747 72.8376C123.065 72.3508 124.446 72.1074 125.889 72.1074C127.374 72.1074 128.776 72.3508 130.093 72.8376C131.411 73.3244 132.562 74.0546 133.545 75.0282C134.528 76.0018 135.302 77.2082 135.866 78.6474C136.431 80.0655 136.714 81.7164 136.714 83.6001Z" fill="white"/>
<path d="M155.321 90.3623V94.6165H140.794V72.6154H145.688V90.3623H155.321Z" fill="white"/>
<path d="M164.924 90.8385C165.615 90.8385 166.179 90.7856 166.619 90.6798C167.079 90.5528 167.445 90.3941 167.717 90.2036C167.989 89.9919 168.177 89.7485 168.282 89.4734C168.386 89.1982 168.438 88.8913 168.438 88.5527C168.438 87.8331 168.104 87.2405 167.434 86.7748C166.765 86.288 165.615 85.7695 163.983 85.2192C163.272 84.9652 162.561 84.6795 161.849 84.362C161.138 84.0234 160.5 83.6106 159.936 83.1238C159.371 82.6159 158.911 82.0127 158.555 81.3142C158.199 80.5946 158.022 79.7269 158.022 78.7109C158.022 77.695 158.21 76.7849 158.586 75.9806C158.963 75.1552 159.496 74.4567 160.187 73.8853C160.877 73.3138 161.714 72.88 162.697 72.5836C163.68 72.2662 164.788 72.1074 166.022 72.1074C167.487 72.1074 168.752 72.2662 169.819 72.5836C170.886 72.9011 171.764 73.2503 172.455 73.6313L171.043 77.5363C170.436 77.2188 169.756 76.9436 169.003 76.7108C168.271 76.4568 167.382 76.3299 166.336 76.3299C165.165 76.3299 164.318 76.4992 163.795 76.8378C163.293 77.1553 163.042 77.6527 163.042 78.33C163.042 78.7321 163.136 79.0707 163.324 79.3459C163.512 79.621 163.774 79.875 164.109 80.1078C164.464 80.3195 164.862 80.5205 165.301 80.711C165.761 80.8804 166.263 81.0603 166.807 81.2507C167.936 81.674 168.92 82.0973 169.756 82.5206C170.593 82.9228 171.283 83.399 171.827 83.9493C172.392 84.4996 172.81 85.1451 173.082 85.8859C173.354 86.6267 173.49 87.5262 173.49 88.5844C173.49 90.6375 172.779 92.2354 171.356 93.3783C169.934 94.5001 167.79 95.061 164.924 95.061C163.962 95.061 163.094 94.9975 162.32 94.8705C161.546 94.7646 160.856 94.6271 160.249 94.4577C159.664 94.2884 159.151 94.1085 158.712 93.918C158.294 93.7276 157.938 93.5476 157.645 93.3783L159.026 89.4416C159.674 89.8014 160.469 90.1295 161.41 90.4258C162.372 90.7009 163.544 90.8385 164.924 90.8385Z" fill="white"/>
<path d="M7.24787 131.61C6.05558 131.61 4.86328 131.568 3.671 131.483C2.49962 131.42 1.27596 131.251 0 130.975V109.641C1.00403 109.451 2.10221 109.313 3.29449 109.228C4.48678 109.123 5.5954 109.07 6.62035 109.07C8.00089 109.07 9.26639 109.175 10.4168 109.387C11.5882 109.578 12.5922 109.916 13.4289 110.403C14.2656 110.89 14.9141 111.535 15.3743 112.34C15.8554 113.123 16.0959 114.096 16.0959 115.26C16.0959 117.017 15.2592 118.403 13.5858 119.419C14.9664 119.948 15.9076 120.668 16.4097 121.578C16.9117 122.488 17.1627 123.515 17.1627 124.658C17.1627 126.965 16.326 128.7 14.6526 129.864C13.0001 131.028 10.5319 131.61 7.24787 131.61ZM4.76915 121.737V127.42C5.12474 127.462 5.51171 127.494 5.93006 127.515C6.3484 127.536 6.8086 127.547 7.31061 127.547C8.77483 127.547 9.95666 127.335 10.8561 126.912C11.7556 126.488 12.2053 125.705 12.2053 124.562C12.2053 123.547 11.8288 122.827 11.0758 122.404C10.3227 121.959 9.24548 121.737 7.84402 121.737H4.76915ZM4.76915 117.959H7.15375C8.6598 117.959 9.73702 117.768 10.3855 117.387C11.0339 116.985 11.3581 116.35 11.3581 115.483C11.3581 114.594 11.0235 113.969 10.3541 113.609C9.68475 113.25 8.70163 113.07 7.40475 113.07C6.98641 113.07 6.53668 113.08 6.05558 113.102C5.57448 113.102 5.14566 113.123 4.76915 113.165V117.959Z" fill="white"/>
<path d="M35.3328 131.325C35.1027 130.563 34.8413 129.78 34.5484 128.975C34.2765 128.171 34.0046 127.367 33.7326 126.563H25.2611C24.9892 127.367 24.7068 128.171 24.414 128.975C24.142 129.78 23.891 130.563 23.6609 131.325H18.5781C19.3938 128.954 20.1678 126.764 20.8999 124.753C21.632 122.742 22.3432 120.848 23.0334 119.07C23.7446 117.292 24.4349 115.61 25.1042 114.022C25.7945 112.414 26.5057 110.847 27.2378 109.324H31.9128C32.624 110.847 33.3248 112.414 34.015 114.022C34.7053 115.61 35.3956 117.292 36.0859 119.07C36.7971 120.848 37.5187 122.742 38.2508 124.753C38.9829 126.764 39.7568 128.954 40.5726 131.325H35.3328ZM29.4655 114.308C29.3609 114.625 29.2041 115.059 28.9949 115.61C28.7857 116.16 28.5452 116.795 28.2732 117.514C28.0013 118.234 27.698 119.028 27.3633 119.896C27.0496 120.763 26.7254 121.673 26.3907 122.626H32.5717C32.2371 121.673 31.9128 120.763 31.5991 119.896C31.2853 119.028 30.982 118.234 30.6892 117.514C30.4173 116.795 30.1767 116.16 29.9676 115.61C29.7584 115.059 29.591 114.625 29.4655 114.308Z" fill="white"/>
<path d="M57.977 131.325C56.5755 128.806 55.059 126.319 53.4275 123.864C51.7959 121.409 50.0598 119.091 48.2191 116.911V131.325H43.3871V109.324H47.3719C48.0622 110.022 48.8257 110.879 49.6624 111.895C50.4991 112.911 51.3462 114.001 52.2038 115.165C53.0823 116.308 53.9504 117.504 54.808 118.753C55.6656 119.98 56.471 121.165 57.224 122.308V109.324H62.0872V131.325H57.977Z" fill="white"/>
<path d="M77.7081 113.133C75.4281 113.133 73.7756 113.779 72.7507 115.07C71.7467 116.34 71.2446 118.086 71.2446 120.308C71.2446 121.388 71.3701 122.372 71.6212 123.261C71.8722 124.129 72.2487 124.88 72.7507 125.515C73.2527 126.15 73.8802 126.647 74.6332 127.007C75.3863 127.346 76.2648 127.515 77.2689 127.515C77.8127 127.515 78.2729 127.504 78.6494 127.483C79.0468 127.462 79.3919 127.42 79.6848 127.356V119.705H84.5794V130.594C83.9938 130.827 83.0525 131.071 81.7556 131.325C80.4587 131.6 78.8586 131.737 76.9551 131.737C75.3235 131.737 73.8384 131.483 72.4997 130.975C71.1819 130.467 70.0524 129.727 69.1111 128.753C68.1698 127.78 67.4377 126.584 66.9147 125.166C66.4127 123.748 66.1617 122.128 66.1617 120.308C66.1617 118.467 66.4441 116.837 67.0089 115.419C67.5736 114.001 68.3476 112.805 69.3307 111.832C70.3138 110.837 71.4643 110.086 72.7821 109.578C74.1208 109.07 75.5432 108.816 77.0492 108.816C78.0742 108.816 78.9945 108.89 79.8103 109.038C80.647 109.165 81.3582 109.324 81.9439 109.514C82.5505 109.683 83.042 109.863 83.4185 110.054C83.816 110.244 84.0983 110.392 84.2657 110.498L82.8538 114.467C82.1844 114.107 81.4105 113.8 80.5319 113.546C79.6743 113.271 78.7331 113.133 77.7081 113.133Z" fill="white"/>
<path d="M101.966 131.325C101.527 130.605 101.004 129.833 100.398 129.007C99.8119 128.16 99.1635 127.324 98.4523 126.499C97.762 125.652 97.0404 124.848 96.2873 124.086C95.5343 123.303 94.7813 122.615 94.0283 122.023V131.325H89.1336V109.324H94.0283V117.641C95.3042 116.287 96.5802 114.879 97.8562 113.419C99.153 111.937 100.356 110.572 101.464 109.324H107.269C105.784 111.101 104.288 112.816 102.782 114.467C101.297 116.118 99.7283 117.779 98.0758 119.451C99.812 120.911 101.485 122.647 103.096 124.658C104.728 126.668 106.286 128.891 107.771 131.325H101.966Z" fill="white"/>
<path d="M112.976 120.308C112.976 121.388 113.102 122.361 113.353 123.229C113.625 124.097 114.001 124.848 114.482 125.483C114.985 126.097 115.591 126.573 116.302 126.912C117.014 127.25 117.829 127.42 118.75 127.42C119.649 127.42 120.454 127.25 121.166 126.912C121.898 126.573 122.504 126.097 122.985 125.483C123.487 124.848 123.864 124.097 124.115 123.229C124.387 122.361 124.523 121.388 124.523 120.308C124.523 119.229 124.387 118.255 124.115 117.387C123.864 116.499 123.487 115.747 122.985 115.133C122.504 114.498 121.898 114.012 121.166 113.673C120.454 113.334 119.649 113.165 118.75 113.165C117.829 113.165 117.014 113.345 116.302 113.705C115.591 114.043 114.985 114.53 114.482 115.165C114.001 115.779 113.625 116.53 113.353 117.419C113.102 118.287 112.976 119.25 112.976 120.308ZM129.574 120.308C129.574 122.192 129.292 123.853 128.727 125.293C128.183 126.711 127.43 127.907 126.468 128.88C125.506 129.833 124.356 130.552 123.017 131.039C121.699 131.526 120.277 131.769 118.75 131.769C117.265 131.769 115.863 131.526 114.545 131.039C113.227 130.552 112.077 129.833 111.094 128.88C110.111 127.907 109.337 126.711 108.772 125.293C108.207 123.853 107.925 122.192 107.925 120.308C107.925 118.425 108.218 116.774 108.803 115.356C109.389 113.916 110.174 112.71 111.157 111.736C112.161 110.763 113.311 110.033 114.608 109.546C115.926 109.059 117.306 108.816 118.75 108.816C120.235 108.816 121.636 109.059 122.954 109.546C124.272 110.033 125.422 110.763 126.405 111.736C127.388 112.71 128.162 113.916 128.727 115.356C129.292 116.774 129.574 118.425 129.574 120.308Z" fill="white"/>
<path d="M146.487 131.325C146.048 130.605 145.525 129.833 144.918 129.007C144.333 128.16 143.684 127.324 142.973 126.499C142.283 125.652 141.561 124.848 140.808 124.086C140.055 123.303 139.302 122.615 138.549 122.023V131.325H133.654V109.324H138.549V117.641C139.825 116.287 141.101 114.879 142.377 113.419C143.674 111.937 144.877 110.572 145.985 109.324H151.79C150.305 111.101 148.809 112.816 147.303 114.467C145.818 116.118 144.249 117.779 142.597 119.451C144.333 120.911 146.006 122.647 147.617 124.658C149.248 126.668 150.807 128.891 152.292 131.325H146.487Z" fill="white"/>
</svg>
